G04 EAGLE Gerber RS-274X export*
G75*
%MOMM*%
%FSLAX34Y34*%
%LPD*%
%INBottom Copper*%
%IPPOS*%
%AMOC8*
5,1,8,0,0,1.08239X$1,22.5*%
G01*
%ADD10C,1.879600*%
%ADD11P,1.732040X8X22.500000*%
%ADD12C,1.600200*%
%ADD13P,1.099708X8X112.500000*%
%ADD14P,1.099708X8X292.500000*%
%ADD15P,1.099708X8X202.500000*%
%ADD16C,1.016000*%
%ADD17C,1.219200*%
%ADD18P,1.099708X8X22.500000*%
%ADD19C,2.184400*%
%ADD20C,2.184400*%
%ADD21C,0.812800*%
%ADD22C,1.879600*%
%ADD23C,1.320800*%
%ADD24C,0.406400*%
%ADD25C,0.812800*%

G36*
X885718Y2544D02*
X885718Y2544D01*
X885737Y2542D01*
X885839Y2564D01*
X885941Y2580D01*
X885958Y2590D01*
X885978Y2594D01*
X886067Y2647D01*
X886158Y2696D01*
X886172Y2710D01*
X886189Y2720D01*
X886256Y2799D01*
X886328Y2874D01*
X886336Y2892D01*
X886349Y2907D01*
X886388Y3003D01*
X886431Y3097D01*
X886433Y3117D01*
X886441Y3135D01*
X886459Y3302D01*
X886459Y707898D01*
X886456Y707918D01*
X886458Y707937D01*
X886436Y708039D01*
X886420Y708141D01*
X886410Y708158D01*
X886406Y708178D01*
X886353Y708267D01*
X886304Y708358D01*
X886290Y708372D01*
X886280Y708389D01*
X886201Y708456D01*
X886126Y708528D01*
X886108Y708536D01*
X886093Y708549D01*
X885997Y708588D01*
X885903Y708631D01*
X885883Y708633D01*
X885865Y708641D01*
X885698Y708659D01*
X3302Y708659D01*
X3282Y708656D01*
X3263Y708658D01*
X3161Y708636D01*
X3059Y708620D01*
X3042Y708610D01*
X3022Y708606D01*
X2933Y708553D01*
X2842Y708504D01*
X2828Y708490D01*
X2811Y708480D01*
X2744Y708401D01*
X2672Y708326D01*
X2664Y708308D01*
X2651Y708293D01*
X2612Y708197D01*
X2569Y708103D01*
X2567Y708083D01*
X2559Y708065D01*
X2541Y707898D01*
X2541Y3302D01*
X2544Y3282D01*
X2542Y3263D01*
X2564Y3161D01*
X2580Y3059D01*
X2590Y3042D01*
X2594Y3022D01*
X2647Y2933D01*
X2696Y2842D01*
X2710Y2828D01*
X2720Y2811D01*
X2799Y2744D01*
X2874Y2672D01*
X2892Y2664D01*
X2907Y2651D01*
X3003Y2612D01*
X3097Y2569D01*
X3117Y2567D01*
X3135Y2559D01*
X3302Y2541D01*
X885698Y2541D01*
X885718Y2544D01*
G37*
%LPC*%
G36*
X648779Y357123D02*
X648779Y357123D01*
X644671Y358825D01*
X641527Y361969D01*
X639825Y366077D01*
X639825Y370523D01*
X641527Y374631D01*
X644671Y377775D01*
X648779Y379477D01*
X672021Y379477D01*
X676136Y377772D01*
X676148Y377758D01*
X676235Y377702D01*
X676319Y377642D01*
X676338Y377636D01*
X676355Y377625D01*
X676455Y377600D01*
X676554Y377569D01*
X676574Y377570D01*
X676593Y377565D01*
X676696Y377573D01*
X676800Y377575D01*
X676819Y377582D01*
X676839Y377584D01*
X676933Y377624D01*
X677031Y377660D01*
X677047Y377672D01*
X677065Y377680D01*
X677196Y377785D01*
X745266Y445856D01*
X745319Y445929D01*
X745379Y445999D01*
X745391Y446029D01*
X745410Y446055D01*
X745437Y446142D01*
X745471Y446227D01*
X745475Y446268D01*
X745482Y446290D01*
X745481Y446323D01*
X745489Y446394D01*
X745489Y468006D01*
X745475Y468096D01*
X745467Y468187D01*
X745455Y468217D01*
X745450Y468249D01*
X745407Y468330D01*
X745371Y468414D01*
X745345Y468446D01*
X745334Y468466D01*
X745311Y468489D01*
X745266Y468544D01*
X729134Y484677D01*
X729117Y484689D01*
X729105Y484704D01*
X729018Y484761D01*
X728934Y484821D01*
X728915Y484827D01*
X728898Y484837D01*
X728798Y484863D01*
X728699Y484893D01*
X728679Y484893D01*
X728659Y484898D01*
X728556Y484889D01*
X728453Y484887D01*
X728434Y484880D01*
X728414Y484878D01*
X728319Y484838D01*
X728222Y484802D01*
X728206Y484790D01*
X728188Y484782D01*
X728057Y484677D01*
X727785Y484405D01*
X725264Y483361D01*
X722536Y483361D01*
X720015Y484405D01*
X718085Y486335D01*
X717041Y488856D01*
X717041Y496454D01*
X717027Y496544D01*
X717019Y496635D01*
X717007Y496665D01*
X717002Y496697D01*
X716959Y496778D01*
X716923Y496862D01*
X716897Y496894D01*
X716886Y496914D01*
X716863Y496937D01*
X716818Y496992D01*
X709844Y503966D01*
X709771Y504019D01*
X709701Y504079D01*
X709671Y504091D01*
X709645Y504110D01*
X709558Y504137D01*
X709473Y504171D01*
X709432Y504175D01*
X709410Y504182D01*
X709377Y504181D01*
X709306Y504189D01*
X684128Y504189D01*
X684013Y504170D01*
X683897Y504153D01*
X683891Y504151D01*
X683885Y504150D01*
X683782Y504095D01*
X683678Y504042D01*
X683673Y504037D01*
X683668Y504034D01*
X683588Y503950D01*
X683505Y503866D01*
X683502Y503860D01*
X683498Y503856D01*
X683490Y503839D01*
X683424Y503719D01*
X682575Y501669D01*
X679431Y498525D01*
X675323Y496823D01*
X670877Y496823D01*
X666769Y498525D01*
X663625Y501669D01*
X661923Y505777D01*
X661923Y510223D01*
X663625Y514331D01*
X666769Y517475D01*
X670877Y519177D01*
X675323Y519177D01*
X679431Y517475D01*
X682575Y514331D01*
X683424Y512281D01*
X683487Y512180D01*
X683546Y512081D01*
X683551Y512077D01*
X683554Y512072D01*
X683645Y511997D01*
X683733Y511921D01*
X683739Y511919D01*
X683744Y511915D01*
X683852Y511873D01*
X683961Y511829D01*
X683969Y511828D01*
X683973Y511827D01*
X683991Y511826D01*
X684128Y511811D01*
X712778Y511811D01*
X718666Y505923D01*
X718683Y505911D01*
X718695Y505896D01*
X718774Y505845D01*
X718783Y505837D01*
X718788Y505835D01*
X718866Y505779D01*
X718885Y505773D01*
X718902Y505763D01*
X719002Y505737D01*
X719101Y505707D01*
X719121Y505707D01*
X719141Y505702D01*
X719244Y505711D01*
X719347Y505713D01*
X719366Y505720D01*
X719386Y505722D01*
X719481Y505762D01*
X719578Y505798D01*
X719594Y505810D01*
X719612Y505818D01*
X719691Y505881D01*
X719692Y505882D01*
X719693Y505882D01*
X719743Y505923D01*
X720015Y506195D01*
X722536Y507239D01*
X725264Y507239D01*
X727785Y506195D01*
X729715Y504265D01*
X730759Y501744D01*
X730759Y494146D01*
X730773Y494056D01*
X730781Y493965D01*
X730793Y493935D01*
X730798Y493903D01*
X730841Y493822D01*
X730877Y493738D01*
X730903Y493706D01*
X730914Y493686D01*
X730937Y493663D01*
X730982Y493608D01*
X750656Y473934D01*
X750729Y473881D01*
X750799Y473821D01*
X750829Y473809D01*
X750855Y473790D01*
X750942Y473763D01*
X751027Y473729D01*
X751068Y473725D01*
X751090Y473718D01*
X751123Y473719D01*
X751194Y473711D01*
X823606Y473711D01*
X823696Y473725D01*
X823787Y473733D01*
X823817Y473745D01*
X823849Y473750D01*
X823930Y473793D01*
X824014Y473829D01*
X824046Y473855D01*
X824066Y473866D01*
X824089Y473889D01*
X824144Y473934D01*
X843818Y493608D01*
X843871Y493681D01*
X843931Y493751D01*
X843943Y493781D01*
X843962Y493807D01*
X843989Y493894D01*
X844023Y493979D01*
X844027Y494020D01*
X844034Y494042D01*
X844033Y494075D01*
X844041Y494146D01*
X844041Y501744D01*
X845085Y504265D01*
X847015Y506195D01*
X849536Y507239D01*
X852264Y507239D01*
X854785Y506195D01*
X856715Y504265D01*
X857759Y501744D01*
X857759Y488856D01*
X856715Y486335D01*
X854785Y484405D01*
X852264Y483361D01*
X849536Y483361D01*
X847015Y484405D01*
X846743Y484677D01*
X846727Y484689D01*
X846714Y484704D01*
X846627Y484761D01*
X846543Y484821D01*
X846524Y484827D01*
X846507Y484837D01*
X846407Y484863D01*
X846308Y484893D01*
X846288Y484893D01*
X846269Y484898D01*
X846166Y484889D01*
X846062Y484887D01*
X846044Y484880D01*
X846024Y484878D01*
X845929Y484838D01*
X845831Y484802D01*
X845816Y484790D01*
X845797Y484782D01*
X845666Y484677D01*
X829534Y468544D01*
X827078Y466089D01*
X753872Y466089D01*
X753852Y466086D01*
X753833Y466088D01*
X753731Y466066D01*
X753629Y466050D01*
X753612Y466040D01*
X753592Y466036D01*
X753503Y465983D01*
X753412Y465934D01*
X753398Y465920D01*
X753381Y465910D01*
X753314Y465831D01*
X753242Y465756D01*
X753234Y465738D01*
X753221Y465723D01*
X753182Y465627D01*
X753139Y465533D01*
X753137Y465513D01*
X753129Y465495D01*
X753111Y465328D01*
X753111Y442922D01*
X749131Y438942D01*
X749090Y438884D01*
X749040Y438832D01*
X749018Y438785D01*
X748988Y438743D01*
X748967Y438674D01*
X748937Y438609D01*
X748931Y438557D01*
X748916Y438507D01*
X748917Y438436D01*
X748910Y438365D01*
X748921Y438314D01*
X748922Y438262D01*
X748947Y438194D01*
X748962Y438124D01*
X748988Y438079D01*
X749006Y438031D01*
X749051Y437975D01*
X749088Y437913D01*
X749128Y437879D01*
X749160Y437839D01*
X749220Y437800D01*
X749275Y437753D01*
X749323Y437734D01*
X749367Y437706D01*
X749436Y437688D01*
X749503Y437661D01*
X749574Y437653D01*
X749606Y437645D01*
X749629Y437647D01*
X749670Y437643D01*
X750462Y437643D01*
X752610Y436753D01*
X754253Y435110D01*
X755143Y432962D01*
X755143Y430638D01*
X754253Y428490D01*
X752610Y426847D01*
X750462Y425957D01*
X748138Y425957D01*
X745990Y426847D01*
X744347Y428490D01*
X743457Y430638D01*
X743457Y431430D01*
X743446Y431501D01*
X743444Y431573D01*
X743426Y431622D01*
X743418Y431673D01*
X743384Y431736D01*
X743359Y431804D01*
X743327Y431844D01*
X743302Y431890D01*
X743250Y431940D01*
X743206Y431996D01*
X743162Y432024D01*
X743124Y432060D01*
X743059Y432090D01*
X742999Y432129D01*
X742948Y432141D01*
X742901Y432163D01*
X742830Y432171D01*
X742760Y432189D01*
X742708Y432185D01*
X742657Y432190D01*
X742586Y432175D01*
X742515Y432170D01*
X742467Y432149D01*
X742416Y432138D01*
X742355Y432101D01*
X742289Y432073D01*
X742233Y432029D01*
X742205Y432012D01*
X742190Y431994D01*
X742158Y431969D01*
X681198Y371008D01*
X681145Y370935D01*
X681085Y370865D01*
X681073Y370835D01*
X681054Y370809D01*
X681027Y370722D01*
X680993Y370637D01*
X680989Y370596D01*
X680982Y370574D01*
X680983Y370541D01*
X680975Y370470D01*
X680975Y366077D01*
X679273Y361969D01*
X676129Y358825D01*
X672021Y357123D01*
X648779Y357123D01*
G37*
%LPD*%
%LPC*%
G36*
X696934Y646429D02*
X696934Y646429D01*
X694039Y647628D01*
X691824Y649843D01*
X690625Y652738D01*
X690625Y668062D01*
X691792Y670880D01*
X691819Y670994D01*
X691848Y671107D01*
X691847Y671113D01*
X691849Y671120D01*
X691838Y671236D01*
X691829Y671352D01*
X691826Y671358D01*
X691826Y671364D01*
X691778Y671472D01*
X691732Y671579D01*
X691728Y671585D01*
X691726Y671589D01*
X691713Y671603D01*
X691627Y671710D01*
X681063Y682274D01*
X680989Y682327D01*
X680919Y682387D01*
X680889Y682399D01*
X680863Y682418D01*
X680776Y682445D01*
X680691Y682479D01*
X680650Y682483D01*
X680628Y682490D01*
X680596Y682489D01*
X680525Y682497D01*
X578125Y682497D01*
X578035Y682483D01*
X577944Y682475D01*
X577914Y682463D01*
X577882Y682458D01*
X577802Y682415D01*
X577718Y682379D01*
X577686Y682353D01*
X577665Y682342D01*
X577643Y682319D01*
X577587Y682274D01*
X576977Y681664D01*
X574082Y680465D01*
X558758Y680465D01*
X555863Y681664D01*
X553648Y683879D01*
X552449Y686774D01*
X552449Y689906D01*
X553648Y692801D01*
X555863Y695016D01*
X558758Y696215D01*
X574082Y696215D01*
X576977Y695016D01*
X577587Y694406D01*
X577661Y694353D01*
X577730Y694293D01*
X577760Y694281D01*
X577787Y694262D01*
X577874Y694235D01*
X577958Y694201D01*
X577999Y694197D01*
X578022Y694190D01*
X578054Y694191D01*
X578125Y694183D01*
X684422Y694183D01*
X686570Y693293D01*
X703453Y676410D01*
X704343Y674262D01*
X704343Y672105D01*
X704357Y672015D01*
X704365Y671924D01*
X704377Y671894D01*
X704382Y671862D01*
X704425Y671782D01*
X704461Y671698D01*
X704487Y671666D01*
X704498Y671645D01*
X704521Y671623D01*
X704566Y671567D01*
X705176Y670957D01*
X706375Y668062D01*
X706375Y652738D01*
X705176Y649843D01*
X702961Y647628D01*
X700066Y646429D01*
X696934Y646429D01*
G37*
%LPD*%
%LPC*%
G36*
X298356Y107441D02*
X298356Y107441D01*
X295835Y108485D01*
X293905Y110415D01*
X292861Y112936D01*
X292861Y115664D01*
X293905Y118185D01*
X294177Y118457D01*
X294189Y118473D01*
X294204Y118486D01*
X294261Y118573D01*
X294321Y118657D01*
X294327Y118676D01*
X294337Y118693D01*
X294363Y118793D01*
X294393Y118892D01*
X294393Y118912D01*
X294398Y118931D01*
X294389Y119034D01*
X294387Y119138D01*
X294380Y119156D01*
X294378Y119176D01*
X294338Y119271D01*
X294302Y119369D01*
X294290Y119384D01*
X294282Y119403D01*
X294211Y119492D01*
X294204Y119503D01*
X294197Y119509D01*
X294177Y119534D01*
X290744Y122966D01*
X290670Y123019D01*
X290601Y123079D01*
X290571Y123091D01*
X290545Y123110D01*
X290458Y123137D01*
X290373Y123171D01*
X290332Y123175D01*
X290310Y123182D01*
X290277Y123181D01*
X290206Y123189D01*
X205094Y123189D01*
X205004Y123175D01*
X204913Y123167D01*
X204883Y123155D01*
X204851Y123150D01*
X204770Y123107D01*
X204686Y123071D01*
X204654Y123045D01*
X204634Y123034D01*
X204611Y123011D01*
X204556Y122966D01*
X198428Y116839D01*
X144527Y116839D01*
X144463Y116829D01*
X144397Y116828D01*
X144317Y116805D01*
X144285Y116800D01*
X144268Y116790D01*
X144236Y116781D01*
X141923Y115823D01*
X137477Y115823D01*
X133369Y117525D01*
X130225Y120669D01*
X128523Y124777D01*
X128523Y129223D01*
X130225Y133331D01*
X133369Y136475D01*
X137477Y138177D01*
X141923Y138177D01*
X146031Y136475D01*
X149175Y133331D01*
X150877Y129223D01*
X150877Y125222D01*
X150880Y125202D01*
X150878Y125183D01*
X150900Y125081D01*
X150916Y124979D01*
X150926Y124962D01*
X150930Y124942D01*
X150983Y124853D01*
X151032Y124762D01*
X151046Y124748D01*
X151056Y124731D01*
X151135Y124664D01*
X151210Y124592D01*
X151228Y124584D01*
X151243Y124571D01*
X151339Y124532D01*
X151433Y124489D01*
X151453Y124487D01*
X151471Y124479D01*
X151638Y124461D01*
X194956Y124461D01*
X195046Y124475D01*
X195137Y124483D01*
X195167Y124495D01*
X195199Y124500D01*
X195280Y124543D01*
X195364Y124579D01*
X195396Y124605D01*
X195416Y124616D01*
X195439Y124639D01*
X195494Y124684D01*
X201622Y130811D01*
X293678Y130811D01*
X303108Y121382D01*
X303181Y121329D01*
X303251Y121269D01*
X303281Y121257D01*
X303307Y121238D01*
X303394Y121211D01*
X303479Y121177D01*
X303520Y121173D01*
X303542Y121166D01*
X303575Y121167D01*
X303646Y121159D01*
X311244Y121159D01*
X313765Y120115D01*
X315695Y118185D01*
X316739Y115664D01*
X316739Y112936D01*
X315695Y110415D01*
X313765Y108485D01*
X311244Y107441D01*
X298356Y107441D01*
G37*
%LPD*%
%LPC*%
G36*
X141774Y636777D02*
X141774Y636777D01*
X137106Y638711D01*
X133533Y642284D01*
X131599Y646952D01*
X131599Y673848D01*
X133533Y678516D01*
X137106Y682089D01*
X141774Y684023D01*
X146826Y684023D01*
X151494Y682089D01*
X155067Y678516D01*
X157001Y673848D01*
X157001Y646952D01*
X155067Y642284D01*
X151494Y638711D01*
X146826Y636777D01*
X141774Y636777D01*
G37*
%LPD*%
%LPC*%
G36*
X696774Y75399D02*
X696774Y75399D01*
X692106Y77333D01*
X688533Y80906D01*
X686599Y85574D01*
X686599Y90626D01*
X688533Y95294D01*
X692106Y98867D01*
X696774Y100801D01*
X701826Y100801D01*
X706494Y98867D01*
X710067Y95294D01*
X711097Y92809D01*
X711135Y92748D01*
X711164Y92682D01*
X711199Y92644D01*
X711226Y92600D01*
X711282Y92554D01*
X711330Y92501D01*
X711376Y92476D01*
X711416Y92443D01*
X711483Y92417D01*
X711546Y92383D01*
X711597Y92373D01*
X711645Y92355D01*
X711717Y92352D01*
X711788Y92339D01*
X711839Y92347D01*
X711891Y92344D01*
X711960Y92364D01*
X712031Y92375D01*
X712077Y92398D01*
X712127Y92413D01*
X712186Y92454D01*
X712250Y92486D01*
X712287Y92523D01*
X712329Y92553D01*
X712372Y92611D01*
X712422Y92662D01*
X712457Y92725D01*
X712476Y92751D01*
X712483Y92773D01*
X712503Y92809D01*
X713533Y95294D01*
X717106Y98867D01*
X721774Y100801D01*
X726826Y100801D01*
X731494Y98867D01*
X735067Y95294D01*
X737001Y90626D01*
X737001Y85574D01*
X735067Y80906D01*
X731494Y77333D01*
X726826Y75399D01*
X721774Y75399D01*
X717106Y77333D01*
X713533Y80906D01*
X712503Y83391D01*
X712465Y83452D01*
X712436Y83518D01*
X712401Y83556D01*
X712374Y83600D01*
X712318Y83646D01*
X712270Y83699D01*
X712224Y83724D01*
X712184Y83757D01*
X712117Y83783D01*
X712054Y83817D01*
X712003Y83827D01*
X711955Y83845D01*
X711883Y83848D01*
X711812Y83861D01*
X711761Y83853D01*
X711709Y83856D01*
X711640Y83836D01*
X711569Y83825D01*
X711523Y83802D01*
X711473Y83787D01*
X711414Y83746D01*
X711350Y83714D01*
X711313Y83677D01*
X711271Y83647D01*
X711228Y83589D01*
X711178Y83538D01*
X711143Y83475D01*
X711124Y83449D01*
X711117Y83427D01*
X711097Y83391D01*
X710067Y80906D01*
X706494Y77333D01*
X701826Y75399D01*
X696774Y75399D01*
G37*
%LPD*%
%LPC*%
G36*
X771774Y75399D02*
X771774Y75399D01*
X767106Y77333D01*
X763533Y80906D01*
X761599Y85574D01*
X761599Y90626D01*
X763533Y95294D01*
X767106Y98867D01*
X771774Y100801D01*
X776826Y100801D01*
X781494Y98867D01*
X785067Y95294D01*
X786097Y92809D01*
X786135Y92748D01*
X786164Y92682D01*
X786199Y92644D01*
X786226Y92600D01*
X786282Y92554D01*
X786330Y92501D01*
X786376Y92476D01*
X786416Y92443D01*
X786483Y92417D01*
X786546Y92383D01*
X786597Y92373D01*
X786645Y92355D01*
X786717Y92352D01*
X786788Y92339D01*
X786839Y92347D01*
X786891Y92344D01*
X786960Y92364D01*
X787031Y92375D01*
X787077Y92398D01*
X787127Y92413D01*
X787186Y92454D01*
X787250Y92486D01*
X787287Y92523D01*
X787329Y92553D01*
X787372Y92611D01*
X787422Y92662D01*
X787457Y92725D01*
X787476Y92751D01*
X787483Y92773D01*
X787503Y92809D01*
X788533Y95294D01*
X792106Y98867D01*
X796774Y100801D01*
X801826Y100801D01*
X806494Y98867D01*
X810067Y95294D01*
X812001Y90626D01*
X812001Y85574D01*
X810067Y80906D01*
X806494Y77333D01*
X801826Y75399D01*
X796774Y75399D01*
X792106Y77333D01*
X788533Y80906D01*
X787503Y83391D01*
X787465Y83452D01*
X787436Y83518D01*
X787401Y83556D01*
X787374Y83600D01*
X787318Y83646D01*
X787270Y83699D01*
X787224Y83724D01*
X787184Y83757D01*
X787117Y83783D01*
X787054Y83817D01*
X787003Y83827D01*
X786955Y83845D01*
X786883Y83848D01*
X786812Y83861D01*
X786761Y83853D01*
X786709Y83856D01*
X786640Y83836D01*
X786569Y83825D01*
X786523Y83802D01*
X786473Y83787D01*
X786414Y83746D01*
X786350Y83714D01*
X786313Y83677D01*
X786271Y83647D01*
X786228Y83589D01*
X786178Y83538D01*
X786143Y83475D01*
X786124Y83449D01*
X786117Y83427D01*
X786097Y83391D01*
X785067Y80906D01*
X781494Y77333D01*
X776826Y75399D01*
X771774Y75399D01*
G37*
%LPD*%
%LPC*%
G36*
X648779Y407923D02*
X648779Y407923D01*
X644671Y409625D01*
X641527Y412769D01*
X639825Y416877D01*
X639825Y421323D01*
X641527Y425431D01*
X644671Y428575D01*
X648779Y430277D01*
X672021Y430277D01*
X676129Y428575D01*
X679273Y425431D01*
X680975Y421323D01*
X680975Y416877D01*
X679273Y412769D01*
X676129Y409625D01*
X672021Y407923D01*
X648779Y407923D01*
G37*
%LPD*%
%LPC*%
G36*
X648779Y458723D02*
X648779Y458723D01*
X644671Y460425D01*
X641527Y463569D01*
X639825Y467677D01*
X639825Y472123D01*
X641527Y476231D01*
X644671Y479375D01*
X648779Y481077D01*
X672021Y481077D01*
X676129Y479375D01*
X679273Y476231D01*
X680975Y472123D01*
X680975Y467677D01*
X679273Y463569D01*
X676129Y460425D01*
X672021Y458723D01*
X648779Y458723D01*
G37*
%LPD*%
%LPC*%
G36*
X648779Y382523D02*
X648779Y382523D01*
X644671Y384225D01*
X641527Y387369D01*
X639825Y391477D01*
X639825Y395923D01*
X641527Y400031D01*
X644671Y403175D01*
X648779Y404877D01*
X672021Y404877D01*
X676129Y403175D01*
X679273Y400031D01*
X680975Y395923D01*
X680975Y391477D01*
X679273Y387369D01*
X676129Y384225D01*
X672021Y382523D01*
X648779Y382523D01*
G37*
%LPD*%
%LPC*%
G36*
X747077Y153923D02*
X747077Y153923D01*
X742969Y155625D01*
X739825Y158769D01*
X738123Y162877D01*
X738123Y167323D01*
X739825Y171431D01*
X742969Y174575D01*
X747077Y176277D01*
X751523Y176277D01*
X755631Y174575D01*
X758775Y171431D01*
X760477Y167323D01*
X760477Y162877D01*
X758775Y158769D01*
X755631Y155625D01*
X751523Y153923D01*
X747077Y153923D01*
G37*
%LPD*%
%LPC*%
G36*
X48577Y153923D02*
X48577Y153923D01*
X44469Y155625D01*
X41325Y158769D01*
X39623Y162877D01*
X39623Y167323D01*
X41325Y171431D01*
X44469Y174575D01*
X48577Y176277D01*
X53023Y176277D01*
X57131Y174575D01*
X60275Y171431D01*
X61977Y167323D01*
X61977Y162877D01*
X60275Y158769D01*
X57131Y155625D01*
X53023Y153923D01*
X48577Y153923D01*
G37*
%LPD*%
%LPC*%
G36*
X137477Y153923D02*
X137477Y153923D01*
X133369Y155625D01*
X130225Y158769D01*
X128523Y162877D01*
X128523Y167323D01*
X130225Y171431D01*
X133369Y174575D01*
X137477Y176277D01*
X141923Y176277D01*
X146031Y174575D01*
X149175Y171431D01*
X150877Y167323D01*
X150877Y162877D01*
X149175Y158769D01*
X146031Y155625D01*
X141923Y153923D01*
X137477Y153923D01*
G37*
%LPD*%
%LPC*%
G36*
X220027Y674623D02*
X220027Y674623D01*
X215919Y676325D01*
X212775Y679469D01*
X211073Y683577D01*
X211073Y688023D01*
X212775Y692131D01*
X215919Y695275D01*
X220027Y696977D01*
X224473Y696977D01*
X228581Y695275D01*
X231725Y692131D01*
X233427Y688023D01*
X233427Y683577D01*
X231725Y679469D01*
X228581Y676325D01*
X224473Y674623D01*
X220027Y674623D01*
G37*
%LPD*%
%LPC*%
G36*
X194627Y674623D02*
X194627Y674623D01*
X190519Y676325D01*
X187375Y679469D01*
X185673Y683577D01*
X185673Y688023D01*
X187375Y692131D01*
X190519Y695275D01*
X194627Y696977D01*
X199073Y696977D01*
X203181Y695275D01*
X206325Y692131D01*
X208027Y688023D01*
X208027Y683577D01*
X206325Y679469D01*
X203181Y676325D01*
X199073Y674623D01*
X194627Y674623D01*
G37*
%LPD*%
%LPC*%
G36*
X180657Y428243D02*
X180657Y428243D01*
X176549Y429945D01*
X173405Y433089D01*
X171703Y437197D01*
X171703Y441643D01*
X173405Y445751D01*
X176549Y448895D01*
X180657Y450597D01*
X185103Y450597D01*
X189211Y448895D01*
X192355Y445751D01*
X194057Y441643D01*
X194057Y437197D01*
X192355Y433089D01*
X189211Y429945D01*
X185103Y428243D01*
X180657Y428243D01*
G37*
%LPD*%
%LPC*%
G36*
X142557Y428243D02*
X142557Y428243D01*
X138449Y429945D01*
X135305Y433089D01*
X133603Y437197D01*
X133603Y441643D01*
X135305Y445751D01*
X138449Y448895D01*
X142557Y450597D01*
X147003Y450597D01*
X151111Y448895D01*
X154255Y445751D01*
X155957Y441643D01*
X155957Y437197D01*
X154255Y433089D01*
X151111Y429945D01*
X147003Y428243D01*
X142557Y428243D01*
G37*
%LPD*%
%LPC*%
G36*
X670877Y573023D02*
X670877Y573023D01*
X666769Y574725D01*
X663625Y577869D01*
X661923Y581977D01*
X661923Y586423D01*
X663625Y590531D01*
X666769Y593675D01*
X670877Y595377D01*
X675323Y595377D01*
X679431Y593675D01*
X682575Y590531D01*
X684277Y586423D01*
X684277Y581977D01*
X682575Y577869D01*
X679431Y574725D01*
X675323Y573023D01*
X670877Y573023D01*
G37*
%LPD*%
%LPC*%
G36*
X594677Y573023D02*
X594677Y573023D01*
X590569Y574725D01*
X587425Y577869D01*
X585723Y581977D01*
X585723Y586423D01*
X587425Y590531D01*
X590569Y593675D01*
X594677Y595377D01*
X599123Y595377D01*
X603231Y593675D01*
X606375Y590531D01*
X608077Y586423D01*
X608077Y581977D01*
X606375Y577869D01*
X603231Y574725D01*
X599123Y573023D01*
X594677Y573023D01*
G37*
%LPD*%
%LPC*%
G36*
X721677Y179323D02*
X721677Y179323D01*
X717569Y181025D01*
X714425Y184169D01*
X712723Y188277D01*
X712723Y192723D01*
X714425Y196831D01*
X717569Y199975D01*
X721677Y201677D01*
X726123Y201677D01*
X730231Y199975D01*
X733375Y196831D01*
X735077Y192723D01*
X735077Y188277D01*
X733375Y184169D01*
X730231Y181025D01*
X726123Y179323D01*
X721677Y179323D01*
G37*
%LPD*%
%LPC*%
G36*
X48577Y338073D02*
X48577Y338073D01*
X44469Y339775D01*
X41325Y342919D01*
X39623Y347027D01*
X39623Y351473D01*
X41325Y355581D01*
X44469Y358725D01*
X48577Y360427D01*
X53023Y360427D01*
X57131Y358725D01*
X60275Y355581D01*
X61977Y351473D01*
X61977Y347027D01*
X60275Y342919D01*
X57131Y339775D01*
X53023Y338073D01*
X48577Y338073D01*
G37*
%LPD*%
%LPC*%
G36*
X99377Y39623D02*
X99377Y39623D01*
X95269Y41325D01*
X92125Y44469D01*
X90423Y48577D01*
X90423Y53023D01*
X92125Y57131D01*
X95269Y60275D01*
X99377Y61977D01*
X103823Y61977D01*
X107931Y60275D01*
X111075Y57131D01*
X112777Y53023D01*
X112777Y48577D01*
X111075Y44469D01*
X107931Y41325D01*
X103823Y39623D01*
X99377Y39623D01*
G37*
%LPD*%
%LPC*%
G36*
X785177Y534923D02*
X785177Y534923D01*
X781069Y536625D01*
X777925Y539769D01*
X776223Y543877D01*
X776223Y548323D01*
X777925Y552431D01*
X781069Y555575D01*
X785177Y557277D01*
X789623Y557277D01*
X793731Y555575D01*
X796875Y552431D01*
X798577Y548323D01*
X798577Y543877D01*
X796875Y539769D01*
X793731Y536625D01*
X789623Y534923D01*
X785177Y534923D01*
G37*
%LPD*%
%LPC*%
G36*
X670877Y534923D02*
X670877Y534923D01*
X666769Y536625D01*
X663625Y539769D01*
X661923Y543877D01*
X661923Y548323D01*
X663625Y552431D01*
X666769Y555575D01*
X670877Y557277D01*
X675323Y557277D01*
X679431Y555575D01*
X682575Y552431D01*
X684277Y548323D01*
X684277Y543877D01*
X682575Y539769D01*
X679431Y536625D01*
X675323Y534923D01*
X670877Y534923D01*
G37*
%LPD*%
%LPC*%
G36*
X48577Y414273D02*
X48577Y414273D01*
X44469Y415975D01*
X41325Y419119D01*
X39623Y423227D01*
X39623Y427673D01*
X41325Y431781D01*
X44469Y434925D01*
X48577Y436627D01*
X53023Y436627D01*
X57131Y434925D01*
X60275Y431781D01*
X61977Y427673D01*
X61977Y423227D01*
X60275Y419119D01*
X57131Y415975D01*
X53023Y414273D01*
X48577Y414273D01*
G37*
%LPD*%
%LPC*%
G36*
X594677Y534923D02*
X594677Y534923D01*
X590569Y536625D01*
X587425Y539769D01*
X585723Y543877D01*
X585723Y548323D01*
X587425Y552431D01*
X590569Y555575D01*
X594677Y557277D01*
X599123Y557277D01*
X603231Y555575D01*
X606375Y552431D01*
X608077Y548323D01*
X608077Y543877D01*
X606375Y539769D01*
X603231Y536625D01*
X599123Y534923D01*
X594677Y534923D01*
G37*
%LPD*%
%LPC*%
G36*
X137477Y39623D02*
X137477Y39623D01*
X133369Y41325D01*
X130225Y44469D01*
X128523Y48577D01*
X128523Y53023D01*
X130225Y57131D01*
X133369Y60275D01*
X137477Y61977D01*
X141923Y61977D01*
X146031Y60275D01*
X149175Y57131D01*
X150877Y53023D01*
X150877Y48577D01*
X149175Y44469D01*
X146031Y41325D01*
X141923Y39623D01*
X137477Y39623D01*
G37*
%LPD*%
%LPC*%
G36*
X391477Y39623D02*
X391477Y39623D01*
X387369Y41325D01*
X384225Y44469D01*
X382523Y48577D01*
X382523Y53023D01*
X384225Y57131D01*
X387369Y60275D01*
X391477Y61977D01*
X395923Y61977D01*
X400031Y60275D01*
X403175Y57131D01*
X404877Y53023D01*
X404877Y48577D01*
X403175Y44469D01*
X400031Y41325D01*
X395923Y39623D01*
X391477Y39623D01*
G37*
%LPD*%
%LPC*%
G36*
X467677Y39623D02*
X467677Y39623D01*
X463569Y41325D01*
X460425Y44469D01*
X458723Y48577D01*
X458723Y53023D01*
X460425Y57131D01*
X463569Y60275D01*
X467677Y61977D01*
X472123Y61977D01*
X476231Y60275D01*
X479375Y57131D01*
X481077Y53023D01*
X481077Y48577D01*
X479375Y44469D01*
X476231Y41325D01*
X472123Y39623D01*
X467677Y39623D01*
G37*
%LPD*%
%LPC*%
G36*
X505777Y39623D02*
X505777Y39623D01*
X501669Y41325D01*
X498525Y44469D01*
X496823Y48577D01*
X496823Y53023D01*
X498525Y57131D01*
X501669Y60275D01*
X505777Y61977D01*
X510223Y61977D01*
X514331Y60275D01*
X517475Y57131D01*
X519177Y53023D01*
X519177Y48577D01*
X517475Y44469D01*
X514331Y41325D01*
X510223Y39623D01*
X505777Y39623D01*
G37*
%LPD*%
%LPC*%
G36*
X467677Y115823D02*
X467677Y115823D01*
X463569Y117525D01*
X460425Y120669D01*
X458723Y124777D01*
X458723Y129223D01*
X460425Y133331D01*
X463569Y136475D01*
X467677Y138177D01*
X472123Y138177D01*
X476231Y136475D01*
X479375Y133331D01*
X481077Y129223D01*
X481077Y124777D01*
X479375Y120669D01*
X476231Y117525D01*
X472123Y115823D01*
X467677Y115823D01*
G37*
%LPD*%
%LPC*%
G36*
X747077Y179323D02*
X747077Y179323D01*
X742969Y181025D01*
X739825Y184169D01*
X738123Y188277D01*
X738123Y192723D01*
X739825Y196831D01*
X742969Y199975D01*
X747077Y201677D01*
X751523Y201677D01*
X755631Y199975D01*
X758775Y196831D01*
X760477Y192723D01*
X760477Y188277D01*
X758775Y184169D01*
X755631Y181025D01*
X751523Y179323D01*
X747077Y179323D01*
G37*
%LPD*%
%LPC*%
G36*
X99377Y115823D02*
X99377Y115823D01*
X95269Y117525D01*
X92125Y120669D01*
X90423Y124777D01*
X90423Y129223D01*
X92125Y133331D01*
X95269Y136475D01*
X99377Y138177D01*
X103823Y138177D01*
X107931Y136475D01*
X111075Y133331D01*
X112777Y129223D01*
X112777Y124777D01*
X111075Y120669D01*
X107931Y117525D01*
X103823Y115823D01*
X99377Y115823D01*
G37*
%LPD*%
%LPC*%
G36*
X391477Y115823D02*
X391477Y115823D01*
X387369Y117525D01*
X384225Y120669D01*
X382523Y124777D01*
X382523Y129223D01*
X384225Y133331D01*
X387369Y136475D01*
X391477Y138177D01*
X395923Y138177D01*
X400031Y136475D01*
X403175Y133331D01*
X404877Y129223D01*
X404877Y124777D01*
X403175Y120669D01*
X400031Y117525D01*
X395923Y115823D01*
X391477Y115823D01*
G37*
%LPD*%
%LPC*%
G36*
X721677Y153923D02*
X721677Y153923D01*
X717569Y155625D01*
X714425Y158769D01*
X712723Y162877D01*
X712723Y167323D01*
X714425Y171431D01*
X717569Y174575D01*
X721677Y176277D01*
X726123Y176277D01*
X730231Y174575D01*
X733375Y171431D01*
X735077Y167323D01*
X735077Y162877D01*
X733375Y158769D01*
X730231Y155625D01*
X726123Y153923D01*
X721677Y153923D01*
G37*
%LPD*%
%LPC*%
G36*
X505777Y115823D02*
X505777Y115823D01*
X501669Y117525D01*
X498525Y120669D01*
X496823Y124777D01*
X496823Y129223D01*
X498525Y133331D01*
X501669Y136475D01*
X505777Y138177D01*
X510223Y138177D01*
X514331Y136475D01*
X517475Y133331D01*
X519177Y129223D01*
X519177Y124777D01*
X517475Y120669D01*
X514331Y117525D01*
X510223Y115823D01*
X505777Y115823D01*
G37*
%LPD*%
%LPC*%
G36*
X180657Y402843D02*
X180657Y402843D01*
X176549Y404545D01*
X173405Y407689D01*
X171703Y411797D01*
X171703Y416243D01*
X173405Y420351D01*
X176549Y423495D01*
X180657Y425197D01*
X185103Y425197D01*
X189211Y423495D01*
X192355Y420351D01*
X194057Y416243D01*
X194057Y411797D01*
X192355Y407689D01*
X189211Y404545D01*
X185103Y402843D01*
X180657Y402843D01*
G37*
%LPD*%
%LPC*%
G36*
X251777Y623823D02*
X251777Y623823D01*
X247669Y625525D01*
X244525Y628669D01*
X242823Y632777D01*
X242823Y637223D01*
X244525Y641331D01*
X247669Y644475D01*
X251777Y646177D01*
X256223Y646177D01*
X260331Y644475D01*
X263475Y641331D01*
X265177Y637223D01*
X265177Y632777D01*
X263475Y628669D01*
X260331Y625525D01*
X256223Y623823D01*
X251777Y623823D01*
G37*
%LPD*%
%LPC*%
G36*
X86677Y471423D02*
X86677Y471423D01*
X82569Y473125D01*
X79425Y476269D01*
X77723Y480377D01*
X77723Y484823D01*
X79425Y488931D01*
X82569Y492075D01*
X86677Y493777D01*
X91123Y493777D01*
X95231Y492075D01*
X98375Y488931D01*
X100077Y484823D01*
X100077Y480377D01*
X98375Y476269D01*
X95231Y473125D01*
X91123Y471423D01*
X86677Y471423D01*
G37*
%LPD*%
%LPC*%
G36*
X142557Y402843D02*
X142557Y402843D01*
X138449Y404545D01*
X135305Y407689D01*
X133603Y411797D01*
X133603Y416243D01*
X135305Y420351D01*
X138449Y423495D01*
X142557Y425197D01*
X147003Y425197D01*
X151111Y423495D01*
X154255Y420351D01*
X155957Y416243D01*
X155957Y411797D01*
X154255Y407689D01*
X151111Y404545D01*
X147003Y402843D01*
X142557Y402843D01*
G37*
%LPD*%
%LPC*%
G36*
X61277Y471423D02*
X61277Y471423D01*
X57169Y473125D01*
X54025Y476269D01*
X52323Y480377D01*
X52323Y484823D01*
X54025Y488931D01*
X57169Y492075D01*
X61277Y493777D01*
X65723Y493777D01*
X69831Y492075D01*
X72975Y488931D01*
X74677Y484823D01*
X74677Y480377D01*
X72975Y476269D01*
X69831Y473125D01*
X65723Y471423D01*
X61277Y471423D01*
G37*
%LPD*%
%LPC*%
G36*
X35877Y471423D02*
X35877Y471423D01*
X31769Y473125D01*
X28625Y476269D01*
X26923Y480377D01*
X26923Y484823D01*
X28625Y488931D01*
X31769Y492075D01*
X35877Y493777D01*
X40323Y493777D01*
X44431Y492075D01*
X47575Y488931D01*
X49277Y484823D01*
X49277Y480377D01*
X47575Y476269D01*
X44431Y473125D01*
X40323Y471423D01*
X35877Y471423D01*
G37*
%LPD*%
%LPC*%
G36*
X848677Y268223D02*
X848677Y268223D01*
X844569Y269925D01*
X841425Y273069D01*
X839723Y277177D01*
X839723Y281623D01*
X841425Y285731D01*
X844569Y288875D01*
X848677Y290577D01*
X853123Y290577D01*
X857231Y288875D01*
X860375Y285731D01*
X862077Y281623D01*
X862077Y277177D01*
X860375Y273069D01*
X857231Y269925D01*
X853123Y268223D01*
X848677Y268223D01*
G37*
%LPD*%
%LPC*%
G36*
X721677Y128523D02*
X721677Y128523D01*
X717569Y130225D01*
X714425Y133369D01*
X712723Y137477D01*
X712723Y141923D01*
X714425Y146031D01*
X717569Y149175D01*
X721677Y150877D01*
X726123Y150877D01*
X730231Y149175D01*
X733375Y146031D01*
X735077Y141923D01*
X735077Y137477D01*
X733375Y133369D01*
X730231Y130225D01*
X726123Y128523D01*
X721677Y128523D01*
G37*
%LPD*%
%LPC*%
G36*
X48577Y230123D02*
X48577Y230123D01*
X44469Y231825D01*
X41325Y234969D01*
X39623Y239077D01*
X39623Y243523D01*
X41325Y247631D01*
X44469Y250775D01*
X48577Y252477D01*
X53023Y252477D01*
X57131Y250775D01*
X60275Y247631D01*
X61977Y243523D01*
X61977Y239077D01*
X60275Y234969D01*
X57131Y231825D01*
X53023Y230123D01*
X48577Y230123D01*
G37*
%LPD*%
%LPC*%
G36*
X747077Y128523D02*
X747077Y128523D01*
X742969Y130225D01*
X739825Y133369D01*
X738123Y137477D01*
X738123Y141923D01*
X739825Y146031D01*
X742969Y149175D01*
X747077Y150877D01*
X751523Y150877D01*
X755631Y149175D01*
X758775Y146031D01*
X760477Y141923D01*
X760477Y137477D01*
X758775Y133369D01*
X755631Y130225D01*
X751523Y128523D01*
X747077Y128523D01*
G37*
%LPD*%
%LPC*%
G36*
X137477Y230123D02*
X137477Y230123D01*
X133369Y231825D01*
X130225Y234969D01*
X128523Y239077D01*
X128523Y243523D01*
X130225Y247631D01*
X133369Y250775D01*
X137477Y252477D01*
X141923Y252477D01*
X146031Y250775D01*
X149175Y247631D01*
X150877Y243523D01*
X150877Y239077D01*
X149175Y234969D01*
X146031Y231825D01*
X141923Y230123D01*
X137477Y230123D01*
G37*
%LPD*%
%LPC*%
G36*
X251777Y585723D02*
X251777Y585723D01*
X247669Y587425D01*
X244525Y590569D01*
X242823Y594677D01*
X242823Y599123D01*
X244525Y603231D01*
X247669Y606375D01*
X251777Y608077D01*
X256223Y608077D01*
X260331Y606375D01*
X263475Y603231D01*
X265177Y599123D01*
X265177Y594677D01*
X263475Y590569D01*
X260331Y587425D01*
X256223Y585723D01*
X251777Y585723D01*
G37*
%LPD*%
%LPC*%
G36*
X848677Y242823D02*
X848677Y242823D01*
X844569Y244525D01*
X841425Y247669D01*
X839723Y251777D01*
X839723Y256223D01*
X841425Y260331D01*
X844569Y263475D01*
X848677Y265177D01*
X853123Y265177D01*
X857231Y263475D01*
X860375Y260331D01*
X862077Y256223D01*
X862077Y251777D01*
X860375Y247669D01*
X857231Y244525D01*
X853123Y242823D01*
X848677Y242823D01*
G37*
%LPD*%
%LPC*%
G36*
X708977Y534923D02*
X708977Y534923D01*
X704869Y536625D01*
X701725Y539769D01*
X700023Y543877D01*
X700023Y548323D01*
X701725Y552431D01*
X704869Y555575D01*
X708977Y557277D01*
X713423Y557277D01*
X717531Y555575D01*
X720675Y552431D01*
X722377Y548323D01*
X722377Y543877D01*
X720675Y539769D01*
X717531Y536625D01*
X713423Y534923D01*
X708977Y534923D01*
G37*
%LPD*%
%LPC*%
G36*
X785177Y573023D02*
X785177Y573023D01*
X781069Y574725D01*
X777925Y577869D01*
X776223Y581977D01*
X776223Y586423D01*
X777925Y590531D01*
X781069Y593675D01*
X785177Y595377D01*
X789623Y595377D01*
X793731Y593675D01*
X796875Y590531D01*
X798577Y586423D01*
X798577Y581977D01*
X796875Y577869D01*
X793731Y574725D01*
X789623Y573023D01*
X785177Y573023D01*
G37*
%LPD*%
%LPC*%
G36*
X561298Y655065D02*
X561298Y655065D01*
X558403Y656264D01*
X556188Y658479D01*
X554989Y661374D01*
X554989Y664506D01*
X556188Y667401D01*
X558403Y669616D01*
X561298Y670815D01*
X576622Y670815D01*
X579517Y669616D01*
X581732Y667401D01*
X582931Y664506D01*
X582931Y661374D01*
X581732Y658479D01*
X579517Y656264D01*
X576622Y655065D01*
X561298Y655065D01*
G37*
%LPD*%
%LPC*%
G36*
X61934Y557529D02*
X61934Y557529D01*
X59039Y558728D01*
X56824Y560943D01*
X55625Y563838D01*
X55625Y579162D01*
X56824Y582057D01*
X59039Y584272D01*
X61934Y585471D01*
X65066Y585471D01*
X67961Y584272D01*
X70176Y582057D01*
X71375Y579162D01*
X71375Y563838D01*
X70176Y560943D01*
X67961Y558728D01*
X65066Y557529D01*
X61934Y557529D01*
G37*
%LPD*%
%LPC*%
G36*
X617178Y208025D02*
X617178Y208025D01*
X614283Y209224D01*
X612068Y211439D01*
X610869Y214334D01*
X610869Y217466D01*
X612068Y220361D01*
X614283Y222576D01*
X617178Y223775D01*
X632502Y223775D01*
X635397Y222576D01*
X637612Y220361D01*
X638811Y217466D01*
X638811Y214334D01*
X637612Y211439D01*
X635397Y209224D01*
X632502Y208025D01*
X617178Y208025D01*
G37*
%LPD*%
%LPC*%
G36*
X614638Y233425D02*
X614638Y233425D01*
X611743Y234624D01*
X609528Y236839D01*
X608329Y239734D01*
X608329Y242866D01*
X609528Y245761D01*
X611743Y247976D01*
X614638Y249175D01*
X629962Y249175D01*
X632857Y247976D01*
X635072Y245761D01*
X636271Y242866D01*
X636271Y239734D01*
X635072Y236839D01*
X632857Y234624D01*
X629962Y233425D01*
X614638Y233425D01*
G37*
%LPD*%
%LPC*%
G36*
X614638Y182625D02*
X614638Y182625D01*
X611743Y183824D01*
X609528Y186039D01*
X608329Y188934D01*
X608329Y192066D01*
X609528Y194961D01*
X611743Y197176D01*
X614638Y198375D01*
X629962Y198375D01*
X632857Y197176D01*
X635072Y194961D01*
X636271Y192066D01*
X636271Y188934D01*
X635072Y186039D01*
X632857Y183824D01*
X629962Y182625D01*
X614638Y182625D01*
G37*
%LPD*%
%LPC*%
G36*
X617178Y258825D02*
X617178Y258825D01*
X614283Y260024D01*
X612068Y262239D01*
X610869Y265134D01*
X610869Y268266D01*
X612068Y271161D01*
X614283Y273376D01*
X617178Y274575D01*
X632502Y274575D01*
X635397Y273376D01*
X637612Y271161D01*
X638811Y268266D01*
X638811Y265134D01*
X637612Y262239D01*
X635397Y260024D01*
X632502Y258825D01*
X617178Y258825D01*
G37*
%LPD*%
%LPC*%
G36*
X836634Y646429D02*
X836634Y646429D01*
X833739Y647628D01*
X831524Y649843D01*
X830325Y652738D01*
X830325Y668062D01*
X831524Y670957D01*
X833739Y673172D01*
X836634Y674371D01*
X839766Y674371D01*
X842661Y673172D01*
X844876Y670957D01*
X846075Y668062D01*
X846075Y652738D01*
X844876Y649843D01*
X842661Y647628D01*
X839766Y646429D01*
X836634Y646429D01*
G37*
%LPD*%
%LPC*%
G36*
X785834Y646429D02*
X785834Y646429D01*
X782939Y647628D01*
X780724Y649843D01*
X779525Y652738D01*
X779525Y668062D01*
X780724Y670957D01*
X782939Y673172D01*
X785834Y674371D01*
X788966Y674371D01*
X791861Y673172D01*
X794076Y670957D01*
X795275Y668062D01*
X795275Y652738D01*
X794076Y649843D01*
X791861Y647628D01*
X788966Y646429D01*
X785834Y646429D01*
G37*
%LPD*%
%LPC*%
G36*
X671534Y646429D02*
X671534Y646429D01*
X668639Y647628D01*
X666424Y649843D01*
X665225Y652738D01*
X665225Y668062D01*
X666424Y670957D01*
X668639Y673172D01*
X671534Y674371D01*
X674666Y674371D01*
X677561Y673172D01*
X679776Y670957D01*
X680975Y668062D01*
X680975Y652738D01*
X679776Y649843D01*
X677561Y647628D01*
X674666Y646429D01*
X671534Y646429D01*
G37*
%LPD*%
%LPC*%
G36*
X646134Y646429D02*
X646134Y646429D01*
X643239Y647628D01*
X641024Y649843D01*
X639825Y652738D01*
X639825Y668062D01*
X641024Y670957D01*
X643239Y673172D01*
X646134Y674371D01*
X649266Y674371D01*
X652161Y673172D01*
X654376Y670957D01*
X655575Y668062D01*
X655575Y652738D01*
X654376Y649843D01*
X652161Y647628D01*
X649266Y646429D01*
X646134Y646429D01*
G37*
%LPD*%
%LPC*%
G36*
X614638Y106425D02*
X614638Y106425D01*
X611743Y107624D01*
X609528Y109839D01*
X608329Y112734D01*
X608329Y115866D01*
X609528Y118761D01*
X611743Y120976D01*
X614638Y122175D01*
X629962Y122175D01*
X632857Y120976D01*
X635072Y118761D01*
X636271Y115866D01*
X636271Y112734D01*
X635072Y109839D01*
X632857Y107624D01*
X629962Y106425D01*
X614638Y106425D01*
G37*
%LPD*%
%LPC*%
G36*
X617178Y81025D02*
X617178Y81025D01*
X614283Y82224D01*
X612068Y84439D01*
X610869Y87334D01*
X610869Y90466D01*
X612068Y93361D01*
X614283Y95576D01*
X617178Y96775D01*
X632502Y96775D01*
X635397Y95576D01*
X637612Y93361D01*
X638811Y90466D01*
X638811Y87334D01*
X637612Y84439D01*
X635397Y82224D01*
X632502Y81025D01*
X617178Y81025D01*
G37*
%LPD*%
%LPC*%
G36*
X87334Y557529D02*
X87334Y557529D01*
X84439Y558728D01*
X82224Y560943D01*
X81025Y563838D01*
X81025Y579162D01*
X82224Y582057D01*
X84439Y584272D01*
X87334Y585471D01*
X90466Y585471D01*
X93361Y584272D01*
X95576Y582057D01*
X96775Y579162D01*
X96775Y563838D01*
X95576Y560943D01*
X93361Y558728D01*
X90466Y557529D01*
X87334Y557529D01*
G37*
%LPD*%
%LPC*%
G36*
X558758Y629665D02*
X558758Y629665D01*
X555863Y630864D01*
X553648Y633079D01*
X552449Y635974D01*
X552449Y639106D01*
X553648Y642001D01*
X555863Y644216D01*
X558758Y645415D01*
X574082Y645415D01*
X576977Y644216D01*
X579192Y642001D01*
X580391Y639106D01*
X580391Y635974D01*
X579192Y633079D01*
X576977Y630864D01*
X574082Y629665D01*
X558758Y629665D01*
G37*
%LPD*%
%LPC*%
G36*
X36534Y557529D02*
X36534Y557529D01*
X33639Y558728D01*
X31424Y560943D01*
X30225Y563838D01*
X30225Y579162D01*
X31424Y582057D01*
X33639Y584272D01*
X36534Y585471D01*
X39666Y585471D01*
X42561Y584272D01*
X44776Y582057D01*
X45975Y579162D01*
X45975Y563838D01*
X44776Y560943D01*
X42561Y558728D01*
X39666Y557529D01*
X36534Y557529D01*
G37*
%LPD*%
%LPC*%
G36*
X617178Y131825D02*
X617178Y131825D01*
X614283Y133024D01*
X612068Y135239D01*
X610869Y138134D01*
X610869Y141266D01*
X612068Y144161D01*
X614283Y146376D01*
X617178Y147575D01*
X632502Y147575D01*
X635397Y146376D01*
X637612Y144161D01*
X638811Y141266D01*
X638811Y138134D01*
X637612Y135239D01*
X635397Y133024D01*
X632502Y131825D01*
X617178Y131825D01*
G37*
%LPD*%
%LPC*%
G36*
X614638Y55625D02*
X614638Y55625D01*
X611743Y56824D01*
X609528Y59039D01*
X608329Y61934D01*
X608329Y65066D01*
X609528Y67961D01*
X611743Y70176D01*
X614638Y71375D01*
X629962Y71375D01*
X632857Y70176D01*
X635072Y67961D01*
X636271Y65066D01*
X636271Y61934D01*
X635072Y59039D01*
X632857Y56824D01*
X629962Y55625D01*
X614638Y55625D01*
G37*
%LPD*%
%LPC*%
G36*
X783349Y256920D02*
X783349Y256920D01*
X777620Y262649D01*
X777620Y270751D01*
X783349Y276480D01*
X791451Y276480D01*
X797180Y270751D01*
X797180Y262649D01*
X791451Y256920D01*
X783349Y256920D01*
G37*
%LPD*%
%LPC*%
G36*
X340955Y345820D02*
X340955Y345820D01*
X337360Y347309D01*
X334609Y350060D01*
X333120Y353655D01*
X333120Y357545D01*
X334609Y361140D01*
X337360Y363891D01*
X340955Y365380D01*
X344845Y365380D01*
X348440Y363891D01*
X351191Y361140D01*
X352680Y357545D01*
X352680Y353655D01*
X351191Y350060D01*
X348440Y347309D01*
X344845Y345820D01*
X340955Y345820D01*
G37*
%LPD*%
%LPC*%
G36*
X760055Y256920D02*
X760055Y256920D01*
X756460Y258409D01*
X753709Y261160D01*
X752220Y264755D01*
X752220Y268645D01*
X753709Y272240D01*
X756460Y274991D01*
X760055Y276480D01*
X763945Y276480D01*
X767540Y274991D01*
X770291Y272240D01*
X771780Y268645D01*
X771780Y264755D01*
X770291Y261160D01*
X767540Y258409D01*
X763945Y256920D01*
X760055Y256920D01*
G37*
%LPD*%
%LPC*%
G36*
X226655Y345820D02*
X226655Y345820D01*
X223060Y347309D01*
X220309Y350060D01*
X218820Y353655D01*
X218820Y357545D01*
X220309Y361140D01*
X223060Y363891D01*
X226655Y365380D01*
X230545Y365380D01*
X234140Y363891D01*
X236891Y361140D01*
X238380Y357545D01*
X238380Y353655D01*
X236891Y350060D01*
X234140Y347309D01*
X230545Y345820D01*
X226655Y345820D01*
G37*
%LPD*%
%LPC*%
G36*
X340955Y472820D02*
X340955Y472820D01*
X337360Y474309D01*
X334609Y477060D01*
X333120Y480655D01*
X333120Y484545D01*
X334609Y488140D01*
X337360Y490891D01*
X340955Y492380D01*
X344845Y492380D01*
X348440Y490891D01*
X351191Y488140D01*
X352680Y484545D01*
X352680Y480655D01*
X351191Y477060D01*
X348440Y474309D01*
X344845Y472820D01*
X340955Y472820D01*
G37*
%LPD*%
%LPC*%
G36*
X298356Y82041D02*
X298356Y82041D01*
X295835Y83085D01*
X293905Y85015D01*
X292861Y87536D01*
X292861Y90264D01*
X293905Y92785D01*
X295835Y94715D01*
X298356Y95759D01*
X311244Y95759D01*
X313765Y94715D01*
X315695Y92785D01*
X316739Y90264D01*
X316739Y87536D01*
X315695Y85015D01*
X313765Y83085D01*
X311244Y82041D01*
X298356Y82041D01*
G37*
%LPD*%
%LPC*%
G36*
X87536Y413511D02*
X87536Y413511D01*
X85015Y414555D01*
X83085Y416485D01*
X82041Y419006D01*
X82041Y431894D01*
X83085Y434415D01*
X85015Y436345D01*
X87536Y437389D01*
X90264Y437389D01*
X92785Y436345D01*
X94715Y434415D01*
X95759Y431894D01*
X95759Y419006D01*
X94715Y416485D01*
X92785Y414555D01*
X90264Y413511D01*
X87536Y413511D01*
G37*
%LPD*%
%LPC*%
G36*
X824136Y483361D02*
X824136Y483361D01*
X821615Y484405D01*
X819685Y486335D01*
X818641Y488856D01*
X818641Y501744D01*
X819685Y504265D01*
X821615Y506195D01*
X824136Y507239D01*
X826864Y507239D01*
X829385Y506195D01*
X831315Y504265D01*
X832359Y501744D01*
X832359Y488856D01*
X831315Y486335D01*
X829385Y484405D01*
X826864Y483361D01*
X824136Y483361D01*
G37*
%LPD*%
%LPC*%
G36*
X798736Y483361D02*
X798736Y483361D01*
X796215Y484405D01*
X794285Y486335D01*
X793241Y488856D01*
X793241Y501744D01*
X794285Y504265D01*
X796215Y506195D01*
X798736Y507239D01*
X801464Y507239D01*
X803985Y506195D01*
X805915Y504265D01*
X806959Y501744D01*
X806959Y488856D01*
X805915Y486335D01*
X803985Y484405D01*
X801464Y483361D01*
X798736Y483361D01*
G37*
%LPD*%
%LPC*%
G36*
X747936Y483361D02*
X747936Y483361D01*
X745415Y484405D01*
X743485Y486335D01*
X742441Y488856D01*
X742441Y501744D01*
X743485Y504265D01*
X745415Y506195D01*
X747936Y507239D01*
X750664Y507239D01*
X753185Y506195D01*
X755115Y504265D01*
X756159Y501744D01*
X756159Y488856D01*
X755115Y486335D01*
X753185Y484405D01*
X750664Y483361D01*
X747936Y483361D01*
G37*
%LPD*%
%LPC*%
G36*
X222156Y107441D02*
X222156Y107441D01*
X219635Y108485D01*
X217705Y110415D01*
X216661Y112936D01*
X216661Y115664D01*
X217705Y118185D01*
X219635Y120115D01*
X222156Y121159D01*
X235044Y121159D01*
X237565Y120115D01*
X239495Y118185D01*
X240539Y115664D01*
X240539Y112936D01*
X239495Y110415D01*
X237565Y108485D01*
X235044Y107441D01*
X222156Y107441D01*
G37*
%LPD*%
%LPC*%
G36*
X222156Y183641D02*
X222156Y183641D01*
X219635Y184685D01*
X217705Y186615D01*
X216661Y189136D01*
X216661Y191864D01*
X217705Y194385D01*
X219635Y196315D01*
X222156Y197359D01*
X235044Y197359D01*
X237565Y196315D01*
X239495Y194385D01*
X240539Y191864D01*
X240539Y189136D01*
X239495Y186615D01*
X237565Y184685D01*
X235044Y183641D01*
X222156Y183641D01*
G37*
%LPD*%
%LPC*%
G36*
X222156Y132841D02*
X222156Y132841D01*
X219635Y133885D01*
X217705Y135815D01*
X216661Y138336D01*
X216661Y141064D01*
X217705Y143585D01*
X219635Y145515D01*
X222156Y146559D01*
X235044Y146559D01*
X237565Y145515D01*
X239495Y143585D01*
X240539Y141064D01*
X240539Y138336D01*
X239495Y135815D01*
X237565Y133885D01*
X235044Y132841D01*
X222156Y132841D01*
G37*
%LPD*%
%LPC*%
G36*
X222156Y56641D02*
X222156Y56641D01*
X219635Y57685D01*
X217705Y59615D01*
X216661Y62136D01*
X216661Y64864D01*
X217705Y67385D01*
X219635Y69315D01*
X222156Y70359D01*
X235044Y70359D01*
X237565Y69315D01*
X239495Y67385D01*
X240539Y64864D01*
X240539Y62136D01*
X239495Y59615D01*
X237565Y57685D01*
X235044Y56641D01*
X222156Y56641D01*
G37*
%LPD*%
%LPC*%
G36*
X298356Y183641D02*
X298356Y183641D01*
X295835Y184685D01*
X293905Y186615D01*
X292861Y189136D01*
X292861Y191864D01*
X293905Y194385D01*
X295835Y196315D01*
X298356Y197359D01*
X311244Y197359D01*
X313765Y196315D01*
X315695Y194385D01*
X316739Y191864D01*
X316739Y189136D01*
X315695Y186615D01*
X313765Y184685D01*
X311244Y183641D01*
X298356Y183641D01*
G37*
%LPD*%
%LPC*%
G36*
X222156Y82041D02*
X222156Y82041D01*
X219635Y83085D01*
X217705Y85015D01*
X216661Y87536D01*
X216661Y90264D01*
X217705Y92785D01*
X219635Y94715D01*
X222156Y95759D01*
X235044Y95759D01*
X237565Y94715D01*
X239495Y92785D01*
X240539Y90264D01*
X240539Y87536D01*
X239495Y85015D01*
X237565Y83085D01*
X235044Y82041D01*
X222156Y82041D01*
G37*
%LPD*%
%LPC*%
G36*
X298356Y56641D02*
X298356Y56641D01*
X295835Y57685D01*
X293905Y59615D01*
X292861Y62136D01*
X292861Y64864D01*
X293905Y67385D01*
X295835Y69315D01*
X298356Y70359D01*
X311244Y70359D01*
X313765Y69315D01*
X315695Y67385D01*
X316739Y64864D01*
X316739Y62136D01*
X315695Y59615D01*
X313765Y57685D01*
X311244Y56641D01*
X298356Y56641D01*
G37*
%LPD*%
%LPC*%
G36*
X222156Y209041D02*
X222156Y209041D01*
X219635Y210085D01*
X217705Y212015D01*
X216661Y214536D01*
X216661Y217264D01*
X217705Y219785D01*
X219635Y221715D01*
X222156Y222759D01*
X235044Y222759D01*
X237565Y221715D01*
X239495Y219785D01*
X240539Y217264D01*
X240539Y214536D01*
X239495Y212015D01*
X237565Y210085D01*
X235044Y209041D01*
X222156Y209041D01*
G37*
%LPD*%
%LPC*%
G36*
X298356Y209041D02*
X298356Y209041D01*
X295835Y210085D01*
X293905Y212015D01*
X292861Y214536D01*
X292861Y217264D01*
X293905Y219785D01*
X295835Y221715D01*
X298356Y222759D01*
X311244Y222759D01*
X313765Y221715D01*
X315695Y219785D01*
X316739Y217264D01*
X316739Y214536D01*
X315695Y212015D01*
X313765Y210085D01*
X311244Y209041D01*
X298356Y209041D01*
G37*
%LPD*%
%LPC*%
G36*
X222156Y158241D02*
X222156Y158241D01*
X219635Y159285D01*
X217705Y161215D01*
X216661Y163736D01*
X216661Y166464D01*
X217705Y168985D01*
X219635Y170915D01*
X222156Y171959D01*
X235044Y171959D01*
X237565Y170915D01*
X239495Y168985D01*
X240539Y166464D01*
X240539Y163736D01*
X239495Y161215D01*
X237565Y159285D01*
X235044Y158241D01*
X222156Y158241D01*
G37*
%LPD*%
%LPC*%
G36*
X298356Y158241D02*
X298356Y158241D01*
X295835Y159285D01*
X293905Y161215D01*
X292861Y163736D01*
X292861Y166464D01*
X293905Y168985D01*
X295835Y170915D01*
X298356Y171959D01*
X311244Y171959D01*
X313765Y170915D01*
X315695Y168985D01*
X316739Y166464D01*
X316739Y163736D01*
X315695Y161215D01*
X313765Y159285D01*
X311244Y158241D01*
X298356Y158241D01*
G37*
%LPD*%
%LPC*%
G36*
X773336Y483361D02*
X773336Y483361D01*
X770815Y484405D01*
X768885Y486335D01*
X767841Y488856D01*
X767841Y501744D01*
X768885Y504265D01*
X770815Y506195D01*
X773336Y507239D01*
X776064Y507239D01*
X778585Y506195D01*
X780515Y504265D01*
X781559Y501744D01*
X781559Y488856D01*
X780515Y486335D01*
X778585Y484405D01*
X776064Y483361D01*
X773336Y483361D01*
G37*
%LPD*%
%LPC*%
G36*
X85823Y661923D02*
X85823Y661923D01*
X85823Y684711D01*
X87452Y684453D01*
X89468Y683798D01*
X91356Y682836D01*
X93070Y681591D01*
X94569Y680092D01*
X95814Y678378D01*
X96776Y676490D01*
X97431Y674474D01*
X97763Y672382D01*
X97763Y661923D01*
X85823Y661923D01*
G37*
%LPD*%
%LPC*%
G36*
X115823Y613923D02*
X115823Y613923D01*
X115823Y625863D01*
X126282Y625863D01*
X128374Y625531D01*
X130390Y624876D01*
X132278Y623914D01*
X133992Y622669D01*
X135491Y621170D01*
X136736Y619456D01*
X137698Y617568D01*
X138353Y615552D01*
X138611Y613923D01*
X115823Y613923D01*
G37*
%LPD*%
%LPC*%
G36*
X89989Y613923D02*
X89989Y613923D01*
X90247Y615552D01*
X90902Y617568D01*
X91864Y619456D01*
X93109Y621170D01*
X94608Y622669D01*
X96322Y623914D01*
X98210Y624876D01*
X100226Y625531D01*
X102318Y625863D01*
X112777Y625863D01*
X112777Y613923D01*
X89989Y613923D01*
G37*
%LPD*%
%LPC*%
G36*
X85823Y658877D02*
X85823Y658877D01*
X97763Y658877D01*
X97763Y648418D01*
X97431Y646326D01*
X96776Y644310D01*
X95814Y642422D01*
X94569Y640708D01*
X93070Y639209D01*
X91356Y637964D01*
X89468Y637002D01*
X87452Y636347D01*
X85823Y636089D01*
X85823Y658877D01*
G37*
%LPD*%
%LPC*%
G36*
X70837Y661923D02*
X70837Y661923D01*
X70837Y672382D01*
X71169Y674474D01*
X71824Y676490D01*
X72786Y678378D01*
X74031Y680092D01*
X75530Y681591D01*
X77244Y682836D01*
X79132Y683798D01*
X81148Y684453D01*
X82777Y684711D01*
X82777Y661923D01*
X70837Y661923D01*
G37*
%LPD*%
%LPC*%
G36*
X115823Y598937D02*
X115823Y598937D01*
X115823Y610877D01*
X138611Y610877D01*
X138353Y609248D01*
X137698Y607232D01*
X136736Y605344D01*
X135491Y603630D01*
X133992Y602131D01*
X132278Y600886D01*
X130390Y599924D01*
X128374Y599269D01*
X126282Y598937D01*
X115823Y598937D01*
G37*
%LPD*%
%LPC*%
G36*
X102318Y598937D02*
X102318Y598937D01*
X100226Y599269D01*
X98210Y599924D01*
X96322Y600886D01*
X94608Y602131D01*
X93109Y603630D01*
X91864Y605344D01*
X90902Y607232D01*
X90247Y609248D01*
X89989Y610877D01*
X112777Y610877D01*
X112777Y598937D01*
X102318Y598937D01*
G37*
%LPD*%
%LPC*%
G36*
X81148Y636347D02*
X81148Y636347D01*
X79132Y637002D01*
X77244Y637964D01*
X75530Y639209D01*
X74031Y640708D01*
X72786Y642422D01*
X71824Y644310D01*
X71169Y646326D01*
X70837Y648418D01*
X70837Y658877D01*
X82777Y658877D01*
X82777Y636089D01*
X81148Y636347D01*
G37*
%LPD*%
%LPC*%
G36*
X697601Y29559D02*
X697601Y29559D01*
X694462Y30860D01*
X692060Y33262D01*
X690759Y36401D01*
X690759Y39799D01*
X692060Y42938D01*
X694462Y45340D01*
X697601Y46641D01*
X700999Y46641D01*
X704138Y45340D01*
X706540Y42938D01*
X707841Y39799D01*
X707841Y36401D01*
X706540Y33262D01*
X704138Y30860D01*
X700999Y29559D01*
X697601Y29559D01*
G37*
%LPD*%
%LPC*%
G36*
X797601Y4559D02*
X797601Y4559D01*
X794462Y5860D01*
X792060Y8262D01*
X790759Y11401D01*
X790759Y14799D01*
X792060Y17938D01*
X794462Y20340D01*
X797601Y21641D01*
X800999Y21641D01*
X804138Y20340D01*
X806540Y17938D01*
X807841Y14799D01*
X807841Y11401D01*
X806540Y8262D01*
X804138Y5860D01*
X800999Y4559D01*
X797601Y4559D01*
G37*
%LPD*%
%LPC*%
G36*
X697601Y4559D02*
X697601Y4559D01*
X694462Y5860D01*
X692060Y8262D01*
X690759Y11401D01*
X690759Y14799D01*
X692060Y17938D01*
X694462Y20340D01*
X697601Y21641D01*
X700999Y21641D01*
X704138Y20340D01*
X706540Y17938D01*
X707841Y14799D01*
X707841Y11401D01*
X706540Y8262D01*
X704138Y5860D01*
X700999Y4559D01*
X697601Y4559D01*
G37*
%LPD*%
%LPC*%
G36*
X747601Y79559D02*
X747601Y79559D01*
X744462Y80860D01*
X742060Y83262D01*
X740759Y86401D01*
X740759Y89799D01*
X742060Y92938D01*
X744462Y95340D01*
X747601Y96641D01*
X750999Y96641D01*
X754138Y95340D01*
X756540Y92938D01*
X757841Y89799D01*
X757841Y86401D01*
X756540Y83262D01*
X754138Y80860D01*
X750999Y79559D01*
X747601Y79559D01*
G37*
%LPD*%
%LPC*%
G36*
X797601Y29559D02*
X797601Y29559D01*
X794462Y30860D01*
X792060Y33262D01*
X790759Y36401D01*
X790759Y39799D01*
X792060Y42938D01*
X794462Y45340D01*
X797601Y46641D01*
X800999Y46641D01*
X804138Y45340D01*
X806540Y42938D01*
X807841Y39799D01*
X807841Y36401D01*
X806540Y33262D01*
X804138Y30860D01*
X800999Y29559D01*
X797601Y29559D01*
G37*
%LPD*%
%LPC*%
G36*
X353933Y537717D02*
X353933Y537717D01*
X350852Y538993D01*
X348493Y541352D01*
X347217Y544433D01*
X347217Y547767D01*
X348493Y550848D01*
X350852Y553207D01*
X353933Y554483D01*
X357267Y554483D01*
X360348Y553207D01*
X362707Y550848D01*
X363983Y547767D01*
X363983Y544433D01*
X362707Y541352D01*
X360348Y538993D01*
X357267Y537717D01*
X353933Y537717D01*
G37*
%LPD*%
%LPC*%
G36*
X252333Y537717D02*
X252333Y537717D01*
X249252Y538993D01*
X246893Y541352D01*
X245617Y544433D01*
X245617Y547767D01*
X246893Y550848D01*
X249252Y553207D01*
X252333Y554483D01*
X255667Y554483D01*
X258748Y553207D01*
X261107Y550848D01*
X262383Y547767D01*
X262383Y544433D01*
X261107Y541352D01*
X258748Y538993D01*
X255667Y537717D01*
X252333Y537717D01*
G37*
%LPD*%
%LPC*%
G36*
X661923Y446023D02*
X661923Y446023D01*
X661923Y456439D01*
X670738Y456439D01*
X672594Y456145D01*
X674381Y455564D01*
X676055Y454711D01*
X677576Y453606D01*
X678904Y452278D01*
X680009Y450757D01*
X680862Y449083D01*
X681443Y447296D01*
X681644Y446023D01*
X661923Y446023D01*
G37*
%LPD*%
%LPC*%
G36*
X639156Y446023D02*
X639156Y446023D01*
X639357Y447296D01*
X639938Y449083D01*
X640791Y450757D01*
X641896Y452278D01*
X643224Y453606D01*
X644745Y454711D01*
X646419Y455564D01*
X648206Y456145D01*
X650062Y456439D01*
X658877Y456439D01*
X658877Y446023D01*
X639156Y446023D01*
G37*
%LPD*%
%LPC*%
G36*
X661923Y432561D02*
X661923Y432561D01*
X661923Y442977D01*
X681644Y442977D01*
X681443Y441704D01*
X680862Y439917D01*
X680009Y438243D01*
X678904Y436722D01*
X677576Y435394D01*
X676055Y434289D01*
X674381Y433436D01*
X672594Y432855D01*
X670738Y432561D01*
X661923Y432561D01*
G37*
%LPD*%
%LPC*%
G36*
X650062Y432561D02*
X650062Y432561D01*
X648206Y432855D01*
X646419Y433436D01*
X644745Y434289D01*
X643224Y435394D01*
X641896Y436722D01*
X640791Y438243D01*
X639938Y439917D01*
X639357Y441704D01*
X639156Y442977D01*
X658877Y442977D01*
X658877Y432561D01*
X650062Y432561D01*
G37*
%LPD*%
%LPC*%
G36*
X276559Y475741D02*
X276559Y475741D01*
X272541Y479759D01*
X272541Y485441D01*
X276559Y489459D01*
X282241Y489459D01*
X286259Y485441D01*
X286259Y479759D01*
X282241Y475741D01*
X276559Y475741D01*
G37*
%LPD*%
%LPC*%
G36*
X187659Y564641D02*
X187659Y564641D01*
X183641Y568659D01*
X183641Y574341D01*
X187659Y578359D01*
X193341Y578359D01*
X197359Y574341D01*
X197359Y568659D01*
X193341Y564641D01*
X187659Y564641D01*
G37*
%LPD*%
%LPC*%
G36*
X187659Y539241D02*
X187659Y539241D01*
X183641Y543259D01*
X183641Y548941D01*
X187659Y552959D01*
X193341Y552959D01*
X197359Y548941D01*
X197359Y543259D01*
X193341Y539241D01*
X187659Y539241D01*
G37*
%LPD*%
%LPC*%
G36*
X428959Y94741D02*
X428959Y94741D01*
X424941Y98759D01*
X424941Y104441D01*
X428959Y108459D01*
X434641Y108459D01*
X438659Y104441D01*
X438659Y98759D01*
X434641Y94741D01*
X428959Y94741D01*
G37*
%LPD*%
%LPC*%
G36*
X47959Y94741D02*
X47959Y94741D01*
X43941Y98759D01*
X43941Y104441D01*
X47959Y108459D01*
X53641Y108459D01*
X57659Y104441D01*
X57659Y98759D01*
X53641Y94741D01*
X47959Y94741D01*
G37*
%LPD*%
%LPC*%
G36*
X708359Y247141D02*
X708359Y247141D01*
X704341Y251159D01*
X704341Y256841D01*
X708359Y260859D01*
X714041Y260859D01*
X718059Y256841D01*
X718059Y251159D01*
X714041Y247141D01*
X708359Y247141D01*
G37*
%LPD*%
%LPC*%
G36*
X98759Y183641D02*
X98759Y183641D01*
X94741Y187659D01*
X94741Y193341D01*
X98759Y197359D01*
X104441Y197359D01*
X108459Y193341D01*
X108459Y187659D01*
X104441Y183641D01*
X98759Y183641D01*
G37*
%LPD*%
%LPC*%
G36*
X47959Y69341D02*
X47959Y69341D01*
X43941Y73359D01*
X43941Y79041D01*
X47959Y83059D01*
X53641Y83059D01*
X57659Y79041D01*
X57659Y73359D01*
X53641Y69341D01*
X47959Y69341D01*
G37*
%LPD*%
%LPC*%
G36*
X200359Y488441D02*
X200359Y488441D01*
X196341Y492459D01*
X196341Y498141D01*
X200359Y502159D01*
X206041Y502159D01*
X210059Y498141D01*
X210059Y492459D01*
X206041Y488441D01*
X200359Y488441D01*
G37*
%LPD*%
%LPC*%
G36*
X352759Y69341D02*
X352759Y69341D01*
X348741Y73359D01*
X348741Y79041D01*
X352759Y83059D01*
X358441Y83059D01*
X362459Y79041D01*
X362459Y73359D01*
X358441Y69341D01*
X352759Y69341D01*
G37*
%LPD*%
%LPC*%
G36*
X428959Y69341D02*
X428959Y69341D01*
X424941Y73359D01*
X424941Y79041D01*
X428959Y83059D01*
X434641Y83059D01*
X438659Y79041D01*
X438659Y73359D01*
X434641Y69341D01*
X428959Y69341D01*
G37*
%LPD*%
%LPC*%
G36*
X174959Y94741D02*
X174959Y94741D01*
X170941Y98759D01*
X170941Y104441D01*
X174959Y108459D01*
X180641Y108459D01*
X184659Y104441D01*
X184659Y98759D01*
X180641Y94741D01*
X174959Y94741D01*
G37*
%LPD*%
%LPC*%
G36*
X174959Y209041D02*
X174959Y209041D01*
X170941Y213059D01*
X170941Y218741D01*
X174959Y222759D01*
X180641Y222759D01*
X184659Y218741D01*
X184659Y213059D01*
X180641Y209041D01*
X174959Y209041D01*
G37*
%LPD*%
%LPC*%
G36*
X352759Y94741D02*
X352759Y94741D01*
X348741Y98759D01*
X348741Y104441D01*
X352759Y108459D01*
X358441Y108459D01*
X362459Y104441D01*
X362459Y98759D01*
X358441Y94741D01*
X352759Y94741D01*
G37*
%LPD*%
%LPC*%
G36*
X708359Y272541D02*
X708359Y272541D01*
X704341Y276559D01*
X704341Y282241D01*
X708359Y286259D01*
X714041Y286259D01*
X718059Y282241D01*
X718059Y276559D01*
X714041Y272541D01*
X708359Y272541D01*
G37*
%LPD*%
%LPC*%
G36*
X98759Y209041D02*
X98759Y209041D01*
X94741Y213059D01*
X94741Y218741D01*
X98759Y222759D01*
X104441Y222759D01*
X108459Y218741D01*
X108459Y213059D01*
X104441Y209041D01*
X98759Y209041D01*
G37*
%LPD*%
%LPC*%
G36*
X130509Y367791D02*
X130509Y367791D01*
X126491Y371809D01*
X126491Y377491D01*
X130509Y381509D01*
X136191Y381509D01*
X140209Y377491D01*
X140209Y371809D01*
X136191Y367791D01*
X130509Y367791D01*
G37*
%LPD*%
%LPC*%
G36*
X352759Y209041D02*
X352759Y209041D01*
X348741Y213059D01*
X348741Y218741D01*
X352759Y222759D01*
X358441Y222759D01*
X362459Y218741D01*
X362459Y213059D01*
X358441Y209041D01*
X352759Y209041D01*
G37*
%LPD*%
%LPC*%
G36*
X251159Y475741D02*
X251159Y475741D01*
X247141Y479759D01*
X247141Y485441D01*
X251159Y489459D01*
X256841Y489459D01*
X260859Y485441D01*
X260859Y479759D01*
X256841Y475741D01*
X251159Y475741D01*
G37*
%LPD*%
%LPC*%
G36*
X276559Y418591D02*
X276559Y418591D01*
X272541Y422609D01*
X272541Y428291D01*
X276559Y432309D01*
X282241Y432309D01*
X286259Y428291D01*
X286259Y422609D01*
X282241Y418591D01*
X276559Y418591D01*
G37*
%LPD*%
%LPC*%
G36*
X174959Y69341D02*
X174959Y69341D01*
X170941Y73359D01*
X170941Y79041D01*
X174959Y83059D01*
X180641Y83059D01*
X184659Y79041D01*
X184659Y73359D01*
X180641Y69341D01*
X174959Y69341D01*
G37*
%LPD*%
%LPC*%
G36*
X352759Y183641D02*
X352759Y183641D01*
X348741Y187659D01*
X348741Y193341D01*
X352759Y197359D01*
X358441Y197359D01*
X362459Y193341D01*
X362459Y187659D01*
X358441Y183641D01*
X352759Y183641D01*
G37*
%LPD*%
%LPC*%
G36*
X748138Y375157D02*
X748138Y375157D01*
X745990Y376047D01*
X744347Y377690D01*
X743457Y379838D01*
X743457Y382162D01*
X744347Y384310D01*
X745990Y385953D01*
X748138Y386843D01*
X750462Y386843D01*
X752610Y385953D01*
X754253Y384310D01*
X755143Y382162D01*
X755143Y379838D01*
X754253Y377690D01*
X752610Y376047D01*
X750462Y375157D01*
X748138Y375157D01*
G37*
%LPD*%
%LPC*%
G36*
X824338Y400557D02*
X824338Y400557D01*
X822190Y401447D01*
X820547Y403090D01*
X819657Y405238D01*
X819657Y407562D01*
X820547Y409710D01*
X822190Y411353D01*
X824338Y412243D01*
X826662Y412243D01*
X828810Y411353D01*
X830453Y409710D01*
X831343Y407562D01*
X831343Y405238D01*
X830453Y403090D01*
X828810Y401447D01*
X826662Y400557D01*
X824338Y400557D01*
G37*
%LPD*%
%LPC*%
G36*
X430638Y197357D02*
X430638Y197357D01*
X428490Y198247D01*
X426847Y199890D01*
X425957Y202038D01*
X425957Y204362D01*
X426847Y206510D01*
X428490Y208153D01*
X430638Y209043D01*
X432962Y209043D01*
X435110Y208153D01*
X436753Y206510D01*
X437643Y204362D01*
X437643Y202038D01*
X436753Y199890D01*
X435110Y198247D01*
X432962Y197357D01*
X430638Y197357D01*
G37*
%LPD*%
%LPC*%
G36*
X748138Y400557D02*
X748138Y400557D01*
X745990Y401447D01*
X744347Y403090D01*
X743457Y405238D01*
X743457Y407562D01*
X744347Y409710D01*
X745990Y411353D01*
X748138Y412243D01*
X750462Y412243D01*
X752610Y411353D01*
X754253Y409710D01*
X755143Y407562D01*
X755143Y405238D01*
X754253Y403090D01*
X752610Y401447D01*
X750462Y400557D01*
X748138Y400557D01*
G37*
%LPD*%
%LPC*%
G36*
X824338Y425957D02*
X824338Y425957D01*
X822190Y426847D01*
X820547Y428490D01*
X819657Y430638D01*
X819657Y432962D01*
X820547Y435110D01*
X822190Y436753D01*
X824338Y437643D01*
X826662Y437643D01*
X828810Y436753D01*
X830453Y435110D01*
X831343Y432962D01*
X831343Y430638D01*
X830453Y428490D01*
X828810Y426847D01*
X826662Y425957D01*
X824338Y425957D01*
G37*
%LPD*%
%LPC*%
G36*
X430638Y222757D02*
X430638Y222757D01*
X428490Y223647D01*
X426847Y225290D01*
X425957Y227438D01*
X425957Y229762D01*
X426847Y231910D01*
X428490Y233553D01*
X430638Y234443D01*
X432962Y234443D01*
X435110Y233553D01*
X436753Y231910D01*
X437643Y229762D01*
X437643Y227438D01*
X436753Y225290D01*
X435110Y223647D01*
X432962Y222757D01*
X430638Y222757D01*
G37*
%LPD*%
%LPC*%
G36*
X750823Y39623D02*
X750823Y39623D01*
X750823Y51489D01*
X752452Y51231D01*
X754468Y50576D01*
X756356Y49614D01*
X758070Y48369D01*
X759569Y46870D01*
X760814Y45156D01*
X761776Y43268D01*
X762431Y41252D01*
X762689Y39623D01*
X750823Y39623D01*
G37*
%LPD*%
%LPC*%
G36*
X750823Y36577D02*
X750823Y36577D01*
X762689Y36577D01*
X762431Y34948D01*
X761776Y32932D01*
X760814Y31044D01*
X759569Y29330D01*
X758070Y27831D01*
X756356Y26586D01*
X754468Y25624D01*
X752452Y24969D01*
X750823Y24711D01*
X750823Y36577D01*
G37*
%LPD*%
%LPC*%
G36*
X735911Y39623D02*
X735911Y39623D01*
X736169Y41252D01*
X736824Y43268D01*
X737786Y45156D01*
X739031Y46870D01*
X740530Y48369D01*
X742244Y49614D01*
X744132Y50576D01*
X746148Y51231D01*
X747777Y51489D01*
X747777Y39623D01*
X735911Y39623D01*
G37*
%LPD*%
%LPC*%
G36*
X746148Y24969D02*
X746148Y24969D01*
X744132Y25624D01*
X742244Y26586D01*
X740530Y27831D01*
X739031Y29330D01*
X737786Y31044D01*
X736824Y32932D01*
X736169Y34948D01*
X735911Y36577D01*
X747777Y36577D01*
X747777Y24711D01*
X746148Y24969D01*
G37*
%LPD*%
%LPC*%
G36*
X814323Y661923D02*
X814323Y661923D01*
X814323Y674999D01*
X815319Y674801D01*
X816891Y674150D01*
X818306Y673205D01*
X819509Y672002D01*
X820454Y670587D01*
X821105Y669015D01*
X821437Y667347D01*
X821437Y661923D01*
X814323Y661923D01*
G37*
%LPD*%
%LPC*%
G36*
X814323Y658877D02*
X814323Y658877D01*
X821437Y658877D01*
X821437Y653453D01*
X821105Y651785D01*
X820454Y650213D01*
X819509Y648798D01*
X818306Y647595D01*
X816891Y646650D01*
X815319Y645999D01*
X814323Y645801D01*
X814323Y658877D01*
G37*
%LPD*%
%LPC*%
G36*
X804163Y661923D02*
X804163Y661923D01*
X804163Y667347D01*
X804495Y669015D01*
X805146Y670587D01*
X806091Y672002D01*
X807294Y673205D01*
X808709Y674150D01*
X810281Y674801D01*
X811277Y674999D01*
X811277Y661923D01*
X804163Y661923D01*
G37*
%LPD*%
%LPC*%
G36*
X810281Y645999D02*
X810281Y645999D01*
X808709Y646650D01*
X807294Y647595D01*
X806091Y648798D01*
X805146Y650213D01*
X804495Y651785D01*
X804163Y653453D01*
X804163Y658877D01*
X811277Y658877D01*
X811277Y645801D01*
X810281Y645999D01*
G37*
%LPD*%
%LPC*%
G36*
X344423Y687323D02*
X344423Y687323D01*
X344423Y697646D01*
X345696Y697445D01*
X347483Y696864D01*
X349157Y696011D01*
X350678Y694906D01*
X352006Y693578D01*
X353111Y692057D01*
X353964Y690383D01*
X354545Y688596D01*
X354746Y687323D01*
X344423Y687323D01*
G37*
%LPD*%
%LPC*%
G36*
X319023Y687323D02*
X319023Y687323D01*
X319023Y697646D01*
X320296Y697445D01*
X322083Y696864D01*
X323757Y696011D01*
X325278Y694906D01*
X326606Y693578D01*
X327711Y692057D01*
X328564Y690383D01*
X329145Y688596D01*
X329346Y687323D01*
X319023Y687323D01*
G37*
%LPD*%
%LPC*%
G36*
X331723Y636523D02*
X331723Y636523D01*
X331723Y646846D01*
X332996Y646645D01*
X334783Y646064D01*
X336457Y645211D01*
X337978Y644106D01*
X339306Y642778D01*
X340411Y641257D01*
X341264Y639583D01*
X341845Y637796D01*
X342046Y636523D01*
X331723Y636523D01*
G37*
%LPD*%
%LPC*%
G36*
X712723Y585723D02*
X712723Y585723D01*
X712723Y596046D01*
X713996Y595845D01*
X715783Y595264D01*
X717457Y594411D01*
X718978Y593306D01*
X720306Y591978D01*
X721411Y590457D01*
X722264Y588783D01*
X722845Y586996D01*
X723046Y585723D01*
X712723Y585723D01*
G37*
%LPD*%
%LPC*%
G36*
X331723Y598423D02*
X331723Y598423D01*
X331723Y608746D01*
X332996Y608545D01*
X334783Y607964D01*
X336457Y607111D01*
X337978Y606006D01*
X339306Y604678D01*
X340411Y603157D01*
X341264Y601483D01*
X341845Y599696D01*
X342046Y598423D01*
X331723Y598423D01*
G37*
%LPD*%
%LPC*%
G36*
X852423Y204723D02*
X852423Y204723D01*
X852423Y215046D01*
X853696Y214845D01*
X855483Y214264D01*
X857157Y213411D01*
X858678Y212306D01*
X860006Y210978D01*
X861111Y209457D01*
X861964Y207783D01*
X862545Y205996D01*
X862746Y204723D01*
X852423Y204723D01*
G37*
%LPD*%
%LPC*%
G36*
X598423Y509523D02*
X598423Y509523D01*
X598423Y519846D01*
X599696Y519645D01*
X601483Y519064D01*
X603157Y518211D01*
X604678Y517106D01*
X606006Y515778D01*
X607111Y514257D01*
X607964Y512583D01*
X608545Y510796D01*
X608746Y509523D01*
X598423Y509523D01*
G37*
%LPD*%
%LPC*%
G36*
X852423Y65023D02*
X852423Y65023D01*
X852423Y75346D01*
X853696Y75145D01*
X855483Y74564D01*
X857157Y73711D01*
X858678Y72606D01*
X860006Y71278D01*
X861111Y69757D01*
X861964Y68083D01*
X862545Y66296D01*
X862746Y65023D01*
X852423Y65023D01*
G37*
%LPD*%
%LPC*%
G36*
X852423Y179323D02*
X852423Y179323D01*
X852423Y189646D01*
X853696Y189445D01*
X855483Y188864D01*
X857157Y188011D01*
X858678Y186906D01*
X860006Y185578D01*
X861111Y184057D01*
X861964Y182383D01*
X862545Y180596D01*
X862746Y179323D01*
X852423Y179323D01*
G37*
%LPD*%
%LPC*%
G36*
X852423Y39623D02*
X852423Y39623D01*
X852423Y49946D01*
X853696Y49745D01*
X855483Y49164D01*
X857157Y48311D01*
X858678Y47206D01*
X860006Y45878D01*
X861111Y44357D01*
X861964Y42683D01*
X862545Y40896D01*
X862746Y39623D01*
X852423Y39623D01*
G37*
%LPD*%
%LPC*%
G36*
X305654Y687323D02*
X305654Y687323D01*
X305855Y688596D01*
X306436Y690383D01*
X307289Y692057D01*
X308394Y693578D01*
X309722Y694906D01*
X311243Y696011D01*
X312917Y696864D01*
X314704Y697445D01*
X315977Y697646D01*
X315977Y687323D01*
X305654Y687323D01*
G37*
%LPD*%
%LPC*%
G36*
X331054Y687323D02*
X331054Y687323D01*
X331255Y688596D01*
X331836Y690383D01*
X332689Y692057D01*
X333794Y693578D01*
X335122Y694906D01*
X336643Y696011D01*
X338317Y696864D01*
X340104Y697445D01*
X341377Y697646D01*
X341377Y687323D01*
X331054Y687323D01*
G37*
%LPD*%
%LPC*%
G36*
X839054Y39623D02*
X839054Y39623D01*
X839255Y40896D01*
X839836Y42683D01*
X840689Y44357D01*
X841794Y45878D01*
X843122Y47206D01*
X844643Y48311D01*
X846317Y49164D01*
X848104Y49745D01*
X849377Y49946D01*
X849377Y39623D01*
X839054Y39623D01*
G37*
%LPD*%
%LPC*%
G36*
X712723Y582677D02*
X712723Y582677D01*
X723046Y582677D01*
X722845Y581404D01*
X722264Y579617D01*
X721411Y577943D01*
X720306Y576422D01*
X718978Y575094D01*
X717457Y573989D01*
X715783Y573136D01*
X713996Y572555D01*
X712723Y572354D01*
X712723Y582677D01*
G37*
%LPD*%
%LPC*%
G36*
X344423Y684277D02*
X344423Y684277D01*
X354746Y684277D01*
X354545Y683004D01*
X353964Y681217D01*
X353111Y679543D01*
X352006Y678022D01*
X350678Y676694D01*
X349157Y675589D01*
X347483Y674736D01*
X345696Y674155D01*
X344423Y673954D01*
X344423Y684277D01*
G37*
%LPD*%
%LPC*%
G36*
X852423Y36577D02*
X852423Y36577D01*
X862746Y36577D01*
X862545Y35304D01*
X861964Y33517D01*
X861111Y31843D01*
X860006Y30322D01*
X858678Y28994D01*
X857157Y27889D01*
X855483Y27036D01*
X853696Y26455D01*
X852423Y26254D01*
X852423Y36577D01*
G37*
%LPD*%
%LPC*%
G36*
X319023Y684277D02*
X319023Y684277D01*
X329346Y684277D01*
X329145Y683004D01*
X328564Y681217D01*
X327711Y679543D01*
X326606Y678022D01*
X325278Y676694D01*
X323757Y675589D01*
X322083Y674736D01*
X320296Y674155D01*
X319023Y673954D01*
X319023Y684277D01*
G37*
%LPD*%
%LPC*%
G36*
X852423Y176277D02*
X852423Y176277D01*
X862746Y176277D01*
X862545Y175004D01*
X861964Y173217D01*
X861111Y171543D01*
X860006Y170022D01*
X858678Y168694D01*
X857157Y167589D01*
X855483Y166736D01*
X853696Y166155D01*
X852423Y165954D01*
X852423Y176277D01*
G37*
%LPD*%
%LPC*%
G36*
X839054Y204723D02*
X839054Y204723D01*
X839255Y205996D01*
X839836Y207783D01*
X840689Y209457D01*
X841794Y210978D01*
X843122Y212306D01*
X844643Y213411D01*
X846317Y214264D01*
X848104Y214845D01*
X849377Y215046D01*
X849377Y204723D01*
X839054Y204723D01*
G37*
%LPD*%
%LPC*%
G36*
X852423Y201677D02*
X852423Y201677D01*
X862746Y201677D01*
X862545Y200404D01*
X861964Y198617D01*
X861111Y196943D01*
X860006Y195422D01*
X858678Y194094D01*
X857157Y192989D01*
X855483Y192136D01*
X853696Y191555D01*
X852423Y191354D01*
X852423Y201677D01*
G37*
%LPD*%
%LPC*%
G36*
X318354Y636523D02*
X318354Y636523D01*
X318555Y637796D01*
X319136Y639583D01*
X319989Y641257D01*
X321094Y642778D01*
X322422Y644106D01*
X323943Y645211D01*
X325617Y646064D01*
X327404Y646645D01*
X328677Y646846D01*
X328677Y636523D01*
X318354Y636523D01*
G37*
%LPD*%
%LPC*%
G36*
X852423Y61977D02*
X852423Y61977D01*
X862746Y61977D01*
X862545Y60704D01*
X861964Y58917D01*
X861111Y57243D01*
X860006Y55722D01*
X858678Y54394D01*
X857157Y53289D01*
X855483Y52436D01*
X853696Y51855D01*
X852423Y51654D01*
X852423Y61977D01*
G37*
%LPD*%
%LPC*%
G36*
X331723Y633477D02*
X331723Y633477D01*
X342046Y633477D01*
X341845Y632204D01*
X341264Y630417D01*
X340411Y628743D01*
X339306Y627222D01*
X337978Y625894D01*
X336457Y624789D01*
X334783Y623936D01*
X332996Y623355D01*
X331723Y623154D01*
X331723Y633477D01*
G37*
%LPD*%
%LPC*%
G36*
X839054Y179323D02*
X839054Y179323D01*
X839255Y180596D01*
X839836Y182383D01*
X840689Y184057D01*
X841794Y185578D01*
X843122Y186906D01*
X844643Y188011D01*
X846317Y188864D01*
X848104Y189445D01*
X849377Y189646D01*
X849377Y179323D01*
X839054Y179323D01*
G37*
%LPD*%
%LPC*%
G36*
X598423Y506477D02*
X598423Y506477D01*
X608746Y506477D01*
X608545Y505204D01*
X607964Y503417D01*
X607111Y501743D01*
X606006Y500222D01*
X604678Y498894D01*
X603157Y497789D01*
X601483Y496936D01*
X599696Y496355D01*
X598423Y496154D01*
X598423Y506477D01*
G37*
%LPD*%
%LPC*%
G36*
X318354Y598423D02*
X318354Y598423D01*
X318555Y599696D01*
X319136Y601483D01*
X319989Y603157D01*
X321094Y604678D01*
X322422Y606006D01*
X323943Y607111D01*
X325617Y607964D01*
X327404Y608545D01*
X328677Y608746D01*
X328677Y598423D01*
X318354Y598423D01*
G37*
%LPD*%
%LPC*%
G36*
X839054Y65023D02*
X839054Y65023D01*
X839255Y66296D01*
X839836Y68083D01*
X840689Y69757D01*
X841794Y71278D01*
X843122Y72606D01*
X844643Y73711D01*
X846317Y74564D01*
X848104Y75145D01*
X849377Y75346D01*
X849377Y65023D01*
X839054Y65023D01*
G37*
%LPD*%
%LPC*%
G36*
X699354Y585723D02*
X699354Y585723D01*
X699555Y586996D01*
X700136Y588783D01*
X700989Y590457D01*
X702094Y591978D01*
X703422Y593306D01*
X704943Y594411D01*
X706617Y595264D01*
X708404Y595845D01*
X709677Y596046D01*
X709677Y585723D01*
X699354Y585723D01*
G37*
%LPD*%
%LPC*%
G36*
X331723Y595377D02*
X331723Y595377D01*
X342046Y595377D01*
X341845Y594104D01*
X341264Y592317D01*
X340411Y590643D01*
X339306Y589122D01*
X337978Y587794D01*
X336457Y586689D01*
X334783Y585836D01*
X332996Y585255D01*
X331723Y585054D01*
X331723Y595377D01*
G37*
%LPD*%
%LPC*%
G36*
X585054Y509523D02*
X585054Y509523D01*
X585255Y510796D01*
X585836Y512583D01*
X586689Y514257D01*
X587794Y515778D01*
X589122Y517106D01*
X590643Y518211D01*
X592317Y519064D01*
X594104Y519645D01*
X595377Y519846D01*
X595377Y509523D01*
X585054Y509523D01*
G37*
%LPD*%
%LPC*%
G36*
X327404Y585255D02*
X327404Y585255D01*
X325617Y585836D01*
X323943Y586689D01*
X322422Y587794D01*
X321094Y589122D01*
X319989Y590643D01*
X319136Y592317D01*
X318555Y594104D01*
X318354Y595377D01*
X328677Y595377D01*
X328677Y585054D01*
X327404Y585255D01*
G37*
%LPD*%
%LPC*%
G36*
X340104Y674155D02*
X340104Y674155D01*
X338317Y674736D01*
X336643Y675589D01*
X335122Y676694D01*
X333794Y678022D01*
X332689Y679543D01*
X331836Y681217D01*
X331255Y683004D01*
X331054Y684277D01*
X341377Y684277D01*
X341377Y673954D01*
X340104Y674155D01*
G37*
%LPD*%
%LPC*%
G36*
X314704Y674155D02*
X314704Y674155D01*
X312917Y674736D01*
X311243Y675589D01*
X309722Y676694D01*
X308394Y678022D01*
X307289Y679543D01*
X306436Y681217D01*
X305855Y683004D01*
X305654Y684277D01*
X315977Y684277D01*
X315977Y673954D01*
X314704Y674155D01*
G37*
%LPD*%
%LPC*%
G36*
X327404Y623355D02*
X327404Y623355D01*
X325617Y623936D01*
X323943Y624789D01*
X322422Y625894D01*
X321094Y627222D01*
X319989Y628743D01*
X319136Y630417D01*
X318555Y632204D01*
X318354Y633477D01*
X328677Y633477D01*
X328677Y623154D01*
X327404Y623355D01*
G37*
%LPD*%
%LPC*%
G36*
X848104Y26455D02*
X848104Y26455D01*
X846317Y27036D01*
X844643Y27889D01*
X843122Y28994D01*
X841794Y30322D01*
X840689Y31843D01*
X839836Y33517D01*
X839255Y35304D01*
X839054Y36577D01*
X849377Y36577D01*
X849377Y26254D01*
X848104Y26455D01*
G37*
%LPD*%
%LPC*%
G36*
X848104Y191555D02*
X848104Y191555D01*
X846317Y192136D01*
X844643Y192989D01*
X843122Y194094D01*
X841794Y195422D01*
X840689Y196943D01*
X839836Y198617D01*
X839255Y200404D01*
X839054Y201677D01*
X849377Y201677D01*
X849377Y191354D01*
X848104Y191555D01*
G37*
%LPD*%
%LPC*%
G36*
X708404Y572555D02*
X708404Y572555D01*
X706617Y573136D01*
X704943Y573989D01*
X703422Y575094D01*
X702094Y576422D01*
X700989Y577943D01*
X700136Y579617D01*
X699555Y581404D01*
X699354Y582677D01*
X709677Y582677D01*
X709677Y572354D01*
X708404Y572555D01*
G37*
%LPD*%
%LPC*%
G36*
X594104Y496355D02*
X594104Y496355D01*
X592317Y496936D01*
X590643Y497789D01*
X589122Y498894D01*
X587794Y500222D01*
X586689Y501743D01*
X585836Y503417D01*
X585255Y505204D01*
X585054Y506477D01*
X595377Y506477D01*
X595377Y496154D01*
X594104Y496355D01*
G37*
%LPD*%
%LPC*%
G36*
X848104Y166155D02*
X848104Y166155D01*
X846317Y166736D01*
X844643Y167589D01*
X843122Y168694D01*
X841794Y170022D01*
X840689Y171543D01*
X839836Y173217D01*
X839255Y175004D01*
X839054Y176277D01*
X849377Y176277D01*
X849377Y165954D01*
X848104Y166155D01*
G37*
%LPD*%
%LPC*%
G36*
X848104Y51855D02*
X848104Y51855D01*
X846317Y52436D01*
X844643Y53289D01*
X843122Y54394D01*
X841794Y55722D01*
X840689Y57243D01*
X839836Y58917D01*
X839255Y60704D01*
X839054Y61977D01*
X849377Y61977D01*
X849377Y51654D01*
X848104Y51855D01*
G37*
%LPD*%
%LPC*%
G36*
X369823Y357123D02*
X369823Y357123D01*
X369823Y366142D01*
X372667Y366142D01*
X378842Y359967D01*
X378842Y357123D01*
X369823Y357123D01*
G37*
%LPD*%
%LPC*%
G36*
X369823Y484123D02*
X369823Y484123D01*
X369823Y493142D01*
X372667Y493142D01*
X378842Y486967D01*
X378842Y484123D01*
X369823Y484123D01*
G37*
%LPD*%
%LPC*%
G36*
X255523Y357123D02*
X255523Y357123D01*
X255523Y366142D01*
X258367Y366142D01*
X264542Y359967D01*
X264542Y357123D01*
X255523Y357123D01*
G37*
%LPD*%
%LPC*%
G36*
X243458Y357123D02*
X243458Y357123D01*
X243458Y359967D01*
X249633Y366142D01*
X252477Y366142D01*
X252477Y357123D01*
X243458Y357123D01*
G37*
%LPD*%
%LPC*%
G36*
X357758Y484123D02*
X357758Y484123D01*
X357758Y486967D01*
X363933Y493142D01*
X366777Y493142D01*
X366777Y484123D01*
X357758Y484123D01*
G37*
%LPD*%
%LPC*%
G36*
X357758Y357123D02*
X357758Y357123D01*
X357758Y359967D01*
X363933Y366142D01*
X366777Y366142D01*
X366777Y357123D01*
X357758Y357123D01*
G37*
%LPD*%
%LPC*%
G36*
X255523Y345058D02*
X255523Y345058D01*
X255523Y354077D01*
X264542Y354077D01*
X264542Y351233D01*
X258367Y345058D01*
X255523Y345058D01*
G37*
%LPD*%
%LPC*%
G36*
X369823Y345058D02*
X369823Y345058D01*
X369823Y354077D01*
X378842Y354077D01*
X378842Y351233D01*
X372667Y345058D01*
X369823Y345058D01*
G37*
%LPD*%
%LPC*%
G36*
X369823Y472058D02*
X369823Y472058D01*
X369823Y481077D01*
X378842Y481077D01*
X378842Y478233D01*
X372667Y472058D01*
X369823Y472058D01*
G37*
%LPD*%
%LPC*%
G36*
X249633Y345058D02*
X249633Y345058D01*
X243458Y351233D01*
X243458Y354077D01*
X252477Y354077D01*
X252477Y345058D01*
X249633Y345058D01*
G37*
%LPD*%
%LPC*%
G36*
X363933Y345058D02*
X363933Y345058D01*
X357758Y351233D01*
X357758Y354077D01*
X366777Y354077D01*
X366777Y345058D01*
X363933Y345058D01*
G37*
%LPD*%
%LPC*%
G36*
X363933Y472058D02*
X363933Y472058D01*
X357758Y478233D01*
X357758Y481077D01*
X366777Y481077D01*
X366777Y472058D01*
X363933Y472058D01*
G37*
%LPD*%
%LPC*%
G36*
X90423Y350773D02*
X90423Y350773D01*
X90423Y361797D01*
X91123Y361658D01*
X92510Y361083D01*
X93758Y360249D01*
X94819Y359188D01*
X95653Y357940D01*
X96228Y356553D01*
X96521Y355081D01*
X96521Y350773D01*
X90423Y350773D01*
G37*
%LPD*%
%LPC*%
G36*
X306323Y141223D02*
X306323Y141223D01*
X306323Y147321D01*
X310631Y147321D01*
X312103Y147028D01*
X313490Y146453D01*
X314738Y145619D01*
X315799Y144558D01*
X316633Y143310D01*
X317208Y141923D01*
X317347Y141223D01*
X306323Y141223D01*
G37*
%LPD*%
%LPC*%
G36*
X292253Y141223D02*
X292253Y141223D01*
X292392Y141923D01*
X292967Y143310D01*
X293801Y144558D01*
X294862Y145619D01*
X296110Y146453D01*
X297497Y147028D01*
X298969Y147321D01*
X303277Y147321D01*
X303277Y141223D01*
X292253Y141223D01*
G37*
%LPD*%
%LPC*%
G36*
X90423Y347727D02*
X90423Y347727D01*
X96521Y347727D01*
X96521Y343419D01*
X96228Y341947D01*
X95653Y340560D01*
X94819Y339312D01*
X93758Y338251D01*
X92510Y337417D01*
X91123Y336842D01*
X90423Y336703D01*
X90423Y347727D01*
G37*
%LPD*%
%LPC*%
G36*
X81279Y350773D02*
X81279Y350773D01*
X81279Y355081D01*
X81572Y356553D01*
X82147Y357940D01*
X82981Y359188D01*
X84042Y360249D01*
X85290Y361083D01*
X86677Y361658D01*
X87377Y361797D01*
X87377Y350773D01*
X81279Y350773D01*
G37*
%LPD*%
%LPC*%
G36*
X306323Y132079D02*
X306323Y132079D01*
X306323Y138177D01*
X317347Y138177D01*
X317208Y137477D01*
X316633Y136090D01*
X315799Y134842D01*
X314738Y133781D01*
X313490Y132947D01*
X312103Y132372D01*
X310631Y132079D01*
X306323Y132079D01*
G37*
%LPD*%
%LPC*%
G36*
X86677Y336842D02*
X86677Y336842D01*
X85290Y337417D01*
X84042Y338251D01*
X82981Y339312D01*
X82147Y340560D01*
X81572Y341947D01*
X81279Y343419D01*
X81279Y347727D01*
X87377Y347727D01*
X87377Y336703D01*
X86677Y336842D01*
G37*
%LPD*%
%LPC*%
G36*
X298969Y132079D02*
X298969Y132079D01*
X297497Y132372D01*
X296110Y132947D01*
X294862Y133781D01*
X293801Y134842D01*
X292967Y136090D01*
X292392Y137477D01*
X292253Y138177D01*
X303277Y138177D01*
X303277Y132079D01*
X298969Y132079D01*
G37*
%LPD*%
%LPC*%
G36*
X255523Y426973D02*
X255523Y426973D01*
X255523Y433071D01*
X257157Y433071D01*
X261621Y428607D01*
X261621Y426973D01*
X255523Y426973D01*
G37*
%LPD*%
%LPC*%
G36*
X134873Y350773D02*
X134873Y350773D01*
X134873Y356871D01*
X136507Y356871D01*
X140971Y352407D01*
X140971Y350773D01*
X134873Y350773D01*
G37*
%LPD*%
%LPC*%
G36*
X268223Y503173D02*
X268223Y503173D01*
X268223Y509271D01*
X269857Y509271D01*
X274321Y504807D01*
X274321Y503173D01*
X268223Y503173D01*
G37*
%LPD*%
%LPC*%
G36*
X179323Y496823D02*
X179323Y496823D01*
X179323Y502921D01*
X180957Y502921D01*
X185421Y498457D01*
X185421Y496823D01*
X179323Y496823D01*
G37*
%LPD*%
%LPC*%
G36*
X179323Y192023D02*
X179323Y192023D01*
X179323Y198121D01*
X180957Y198121D01*
X185421Y193657D01*
X185421Y192023D01*
X179323Y192023D01*
G37*
%LPD*%
%LPC*%
G36*
X259079Y503173D02*
X259079Y503173D01*
X259079Y504807D01*
X263543Y509271D01*
X265177Y509271D01*
X265177Y503173D01*
X259079Y503173D01*
G37*
%LPD*%
%LPC*%
G36*
X125729Y350773D02*
X125729Y350773D01*
X125729Y352407D01*
X130193Y356871D01*
X131827Y356871D01*
X131827Y350773D01*
X125729Y350773D01*
G37*
%LPD*%
%LPC*%
G36*
X179323Y182879D02*
X179323Y182879D01*
X179323Y188977D01*
X185421Y188977D01*
X185421Y187343D01*
X180957Y182879D01*
X179323Y182879D01*
G37*
%LPD*%
%LPC*%
G36*
X246379Y426973D02*
X246379Y426973D01*
X246379Y428607D01*
X250843Y433071D01*
X252477Y433071D01*
X252477Y426973D01*
X246379Y426973D01*
G37*
%LPD*%
%LPC*%
G36*
X255523Y417829D02*
X255523Y417829D01*
X255523Y423927D01*
X261621Y423927D01*
X261621Y422293D01*
X257157Y417829D01*
X255523Y417829D01*
G37*
%LPD*%
%LPC*%
G36*
X179323Y487679D02*
X179323Y487679D01*
X179323Y493777D01*
X185421Y493777D01*
X185421Y492143D01*
X180957Y487679D01*
X179323Y487679D01*
G37*
%LPD*%
%LPC*%
G36*
X268223Y494029D02*
X268223Y494029D01*
X268223Y500127D01*
X274321Y500127D01*
X274321Y498493D01*
X269857Y494029D01*
X268223Y494029D01*
G37*
%LPD*%
%LPC*%
G36*
X170179Y192023D02*
X170179Y192023D01*
X170179Y193657D01*
X174643Y198121D01*
X176277Y198121D01*
X176277Y192023D01*
X170179Y192023D01*
G37*
%LPD*%
%LPC*%
G36*
X170179Y496823D02*
X170179Y496823D01*
X170179Y498457D01*
X174643Y502921D01*
X176277Y502921D01*
X176277Y496823D01*
X170179Y496823D01*
G37*
%LPD*%
%LPC*%
G36*
X134873Y341629D02*
X134873Y341629D01*
X134873Y347727D01*
X140971Y347727D01*
X140971Y346093D01*
X136507Y341629D01*
X134873Y341629D01*
G37*
%LPD*%
%LPC*%
G36*
X174643Y182879D02*
X174643Y182879D01*
X170179Y187343D01*
X170179Y188977D01*
X176277Y188977D01*
X176277Y182879D01*
X174643Y182879D01*
G37*
%LPD*%
%LPC*%
G36*
X263543Y494029D02*
X263543Y494029D01*
X259079Y498493D01*
X259079Y500127D01*
X265177Y500127D01*
X265177Y494029D01*
X263543Y494029D01*
G37*
%LPD*%
%LPC*%
G36*
X174643Y487679D02*
X174643Y487679D01*
X170179Y492143D01*
X170179Y493777D01*
X176277Y493777D01*
X176277Y487679D01*
X174643Y487679D01*
G37*
%LPD*%
%LPC*%
G36*
X250843Y417829D02*
X250843Y417829D01*
X246379Y422293D01*
X246379Y423927D01*
X252477Y423927D01*
X252477Y417829D01*
X250843Y417829D01*
G37*
%LPD*%
%LPC*%
G36*
X130193Y341629D02*
X130193Y341629D01*
X125729Y346093D01*
X125729Y347727D01*
X131827Y347727D01*
X131827Y341629D01*
X130193Y341629D01*
G37*
%LPD*%
%LPC*%
G36*
X433323Y179323D02*
X433323Y179323D01*
X433323Y184231D01*
X433727Y184151D01*
X434929Y183653D01*
X436010Y182930D01*
X436930Y182010D01*
X437653Y180929D01*
X438151Y179727D01*
X438231Y179323D01*
X433323Y179323D01*
G37*
%LPD*%
%LPC*%
G36*
X827023Y382523D02*
X827023Y382523D01*
X827023Y387431D01*
X827427Y387351D01*
X828629Y386853D01*
X829710Y386130D01*
X830630Y385210D01*
X831353Y384129D01*
X831851Y382927D01*
X831931Y382523D01*
X827023Y382523D01*
G37*
%LPD*%
%LPC*%
G36*
X819069Y382523D02*
X819069Y382523D01*
X819149Y382926D01*
X819647Y384129D01*
X820370Y385210D01*
X821290Y386130D01*
X822371Y386853D01*
X823574Y387351D01*
X823977Y387431D01*
X823977Y382523D01*
X819069Y382523D01*
G37*
%LPD*%
%LPC*%
G36*
X425369Y179323D02*
X425369Y179323D01*
X425449Y179726D01*
X425947Y180929D01*
X426670Y182010D01*
X427590Y182930D01*
X428671Y183653D01*
X429874Y184151D01*
X430277Y184231D01*
X430277Y179323D01*
X425369Y179323D01*
G37*
%LPD*%
%LPC*%
G36*
X433323Y176277D02*
X433323Y176277D01*
X438231Y176277D01*
X438151Y175874D01*
X437653Y174671D01*
X436930Y173590D01*
X436010Y172670D01*
X434929Y171947D01*
X433726Y171449D01*
X433323Y171369D01*
X433323Y176277D01*
G37*
%LPD*%
%LPC*%
G36*
X827023Y379477D02*
X827023Y379477D01*
X831931Y379477D01*
X831851Y379074D01*
X831353Y377871D01*
X830630Y376790D01*
X829710Y375870D01*
X828629Y375147D01*
X827426Y374649D01*
X827023Y374569D01*
X827023Y379477D01*
G37*
%LPD*%
%LPC*%
G36*
X823574Y374649D02*
X823574Y374649D01*
X822371Y375147D01*
X821290Y375870D01*
X820370Y376790D01*
X819647Y377871D01*
X819149Y379074D01*
X819069Y379477D01*
X823977Y379477D01*
X823977Y374569D01*
X823574Y374649D01*
G37*
%LPD*%
%LPC*%
G36*
X429874Y171449D02*
X429874Y171449D01*
X428671Y171947D01*
X427590Y172670D01*
X426670Y173590D01*
X425947Y174671D01*
X425449Y175874D01*
X425369Y176277D01*
X430277Y176277D01*
X430277Y171369D01*
X429874Y171449D01*
G37*
%LPD*%
%LPC*%
G36*
X812799Y660399D02*
X812799Y660399D01*
X812799Y660401D01*
X812801Y660401D01*
X812801Y660399D01*
X812799Y660399D01*
G37*
%LPD*%
%LPC*%
G36*
X84299Y660399D02*
X84299Y660399D01*
X84299Y660401D01*
X84301Y660401D01*
X84301Y660399D01*
X84299Y660399D01*
G37*
%LPD*%
%LPC*%
G36*
X177799Y495299D02*
X177799Y495299D01*
X177799Y495301D01*
X177801Y495301D01*
X177801Y495299D01*
X177799Y495299D01*
G37*
%LPD*%
%LPC*%
G36*
X304799Y139699D02*
X304799Y139699D01*
X304799Y139701D01*
X304801Y139701D01*
X304801Y139699D01*
X304799Y139699D01*
G37*
%LPD*%
%LPC*%
G36*
X596899Y507999D02*
X596899Y507999D01*
X596899Y508001D01*
X596901Y508001D01*
X596901Y507999D01*
X596899Y507999D01*
G37*
%LPD*%
%LPC*%
G36*
X253999Y425449D02*
X253999Y425449D01*
X253999Y425451D01*
X254001Y425451D01*
X254001Y425449D01*
X253999Y425449D01*
G37*
%LPD*%
%LPC*%
G36*
X88899Y349249D02*
X88899Y349249D01*
X88899Y349251D01*
X88901Y349251D01*
X88901Y349249D01*
X88899Y349249D01*
G37*
%LPD*%
%LPC*%
G36*
X177799Y190499D02*
X177799Y190499D01*
X177799Y190501D01*
X177801Y190501D01*
X177801Y190499D01*
X177799Y190499D01*
G37*
%LPD*%
%LPC*%
G36*
X133349Y349249D02*
X133349Y349249D01*
X133349Y349251D01*
X133351Y349251D01*
X133351Y349249D01*
X133349Y349249D01*
G37*
%LPD*%
%LPC*%
G36*
X431799Y177799D02*
X431799Y177799D01*
X431799Y177801D01*
X431801Y177801D01*
X431801Y177799D01*
X431799Y177799D01*
G37*
%LPD*%
%LPC*%
G36*
X850899Y177799D02*
X850899Y177799D01*
X850899Y177801D01*
X850901Y177801D01*
X850901Y177799D01*
X850899Y177799D01*
G37*
%LPD*%
%LPC*%
G36*
X850899Y63499D02*
X850899Y63499D01*
X850899Y63501D01*
X850901Y63501D01*
X850901Y63499D01*
X850899Y63499D01*
G37*
%LPD*%
%LPC*%
G36*
X253999Y355599D02*
X253999Y355599D01*
X253999Y355601D01*
X254001Y355601D01*
X254001Y355599D01*
X253999Y355599D01*
G37*
%LPD*%
%LPC*%
G36*
X368299Y355599D02*
X368299Y355599D01*
X368299Y355601D01*
X368301Y355601D01*
X368301Y355599D01*
X368299Y355599D01*
G37*
%LPD*%
%LPC*%
G36*
X825499Y380999D02*
X825499Y380999D01*
X825499Y381001D01*
X825501Y381001D01*
X825501Y380999D01*
X825499Y380999D01*
G37*
%LPD*%
%LPC*%
G36*
X850899Y203199D02*
X850899Y203199D01*
X850899Y203201D01*
X850901Y203201D01*
X850901Y203199D01*
X850899Y203199D01*
G37*
%LPD*%
%LPC*%
G36*
X342899Y685799D02*
X342899Y685799D01*
X342899Y685801D01*
X342901Y685801D01*
X342901Y685799D01*
X342899Y685799D01*
G37*
%LPD*%
%LPC*%
G36*
X711199Y584199D02*
X711199Y584199D01*
X711199Y584201D01*
X711201Y584201D01*
X711201Y584199D01*
X711199Y584199D01*
G37*
%LPD*%
%LPC*%
G36*
X330199Y596899D02*
X330199Y596899D01*
X330199Y596901D01*
X330201Y596901D01*
X330201Y596899D01*
X330199Y596899D01*
G37*
%LPD*%
%LPC*%
G36*
X850899Y38099D02*
X850899Y38099D01*
X850899Y38101D01*
X850901Y38101D01*
X850901Y38099D01*
X850899Y38099D01*
G37*
%LPD*%
%LPC*%
G36*
X749299Y38099D02*
X749299Y38099D01*
X749299Y38101D01*
X749301Y38101D01*
X749301Y38099D01*
X749299Y38099D01*
G37*
%LPD*%
%LPC*%
G36*
X266699Y501649D02*
X266699Y501649D01*
X266699Y501651D01*
X266701Y501651D01*
X266701Y501649D01*
X266699Y501649D01*
G37*
%LPD*%
%LPC*%
G36*
X114299Y612399D02*
X114299Y612399D01*
X114299Y612401D01*
X114301Y612401D01*
X114301Y612399D01*
X114299Y612399D01*
G37*
%LPD*%
%LPC*%
G36*
X368299Y482599D02*
X368299Y482599D01*
X368299Y482601D01*
X368301Y482601D01*
X368301Y482599D01*
X368299Y482599D01*
G37*
%LPD*%
%LPC*%
G36*
X330199Y634999D02*
X330199Y634999D01*
X330199Y635001D01*
X330201Y635001D01*
X330201Y634999D01*
X330199Y634999D01*
G37*
%LPD*%
%LPC*%
G36*
X660399Y444499D02*
X660399Y444499D01*
X660399Y444501D01*
X660401Y444501D01*
X660401Y444499D01*
X660399Y444499D01*
G37*
%LPD*%
%LPC*%
G36*
X317499Y685799D02*
X317499Y685799D01*
X317499Y685801D01*
X317501Y685801D01*
X317501Y685799D01*
X317499Y685799D01*
G37*
%LPD*%
D10*
X723900Y165100D03*
X749300Y165100D03*
X850900Y279400D03*
X850900Y254000D03*
X749300Y190500D03*
X723900Y190500D03*
D11*
X368300Y355600D03*
D12*
X342900Y355600D03*
D13*
X355600Y76200D03*
X355600Y101600D03*
D14*
X431800Y101600D03*
X431800Y76200D03*
X355600Y215900D03*
X355600Y190500D03*
D15*
X279400Y425450D03*
X254000Y425450D03*
D13*
X711200Y254000D03*
X711200Y279400D03*
D11*
X368300Y482600D03*
D12*
X342900Y482600D03*
D13*
X101600Y190500D03*
X101600Y215900D03*
D15*
X203200Y495300D03*
X177800Y495300D03*
D14*
X177800Y215900D03*
X177800Y190500D03*
D13*
X50800Y76200D03*
X50800Y101600D03*
D14*
X177800Y101600D03*
X177800Y76200D03*
D16*
X88900Y420370D02*
X88900Y430530D01*
X88900Y354330D02*
X88900Y344170D01*
D17*
X616204Y63500D02*
X628396Y63500D01*
X630936Y88900D02*
X618744Y88900D01*
X616204Y114300D02*
X628396Y114300D01*
X630936Y139700D02*
X618744Y139700D01*
X616204Y190500D02*
X628396Y190500D01*
X630936Y215900D02*
X618744Y215900D01*
X616204Y241300D02*
X628396Y241300D01*
X630936Y266700D02*
X618744Y266700D01*
D10*
X850900Y63500D03*
X850900Y38100D03*
X342900Y685800D03*
X317500Y685800D03*
D16*
X233680Y215900D02*
X223520Y215900D01*
X223520Y190500D02*
X233680Y190500D01*
X233680Y63500D02*
X223520Y63500D01*
X299720Y63500D02*
X309880Y63500D01*
X233680Y165100D02*
X223520Y165100D01*
X223520Y139700D02*
X233680Y139700D01*
X233680Y88900D02*
X223520Y88900D01*
X223520Y114300D02*
X233680Y114300D01*
X299720Y88900D02*
X309880Y88900D01*
X309880Y114300D02*
X299720Y114300D01*
X299720Y139700D02*
X309880Y139700D01*
X309880Y165100D02*
X299720Y165100D01*
X299720Y190500D02*
X309880Y190500D01*
X309880Y215900D02*
X299720Y215900D01*
D18*
X254000Y482600D03*
X266700Y501650D03*
X279400Y482600D03*
D19*
X749300Y38100D03*
X724300Y88100D03*
X699300Y88100D03*
X774300Y88100D03*
X799300Y88100D03*
D10*
X88900Y482600D03*
X63500Y482600D03*
X38100Y482600D03*
D20*
X103378Y612400D02*
X125222Y612400D01*
X84300Y649478D02*
X84300Y671322D01*
X144300Y671322D02*
X144300Y649478D01*
D10*
X711200Y584200D03*
X787400Y584200D03*
X393700Y127000D03*
X393700Y50800D03*
X50800Y425450D03*
X50800Y349250D03*
X787400Y546100D03*
X711200Y546100D03*
X139700Y241300D03*
X139700Y165100D03*
X50800Y165100D03*
X50800Y241300D03*
X101600Y50800D03*
X101600Y127000D03*
X139700Y50800D03*
X139700Y127000D03*
X469900Y50800D03*
X469900Y127000D03*
D16*
X850900Y490220D02*
X850900Y500380D01*
X800100Y500380D02*
X800100Y490220D01*
X825500Y490220D02*
X825500Y500380D01*
D17*
X647700Y654304D02*
X647700Y666496D01*
X673100Y666496D02*
X673100Y654304D01*
X698500Y654304D02*
X698500Y666496D01*
X787400Y666496D02*
X787400Y654304D01*
X812800Y654304D02*
X812800Y666496D01*
X838200Y666496D02*
X838200Y654304D01*
D10*
X222250Y685800D03*
X196850Y685800D03*
D14*
X190500Y571500D03*
X190500Y546100D03*
D10*
X254000Y596900D03*
X330200Y596900D03*
X144780Y414020D03*
X144780Y439420D03*
X182880Y414020D03*
X182880Y439420D03*
D11*
X787400Y266700D03*
D12*
X762000Y266700D03*
D11*
X254000Y355600D03*
D12*
X228600Y355600D03*
D14*
X133350Y374650D03*
X133350Y349250D03*
D21*
X431800Y177800D03*
X431800Y203200D03*
X431800Y228600D03*
X825500Y381000D03*
X825500Y406400D03*
X825500Y431800D03*
D16*
X774700Y490220D02*
X774700Y500380D01*
X723900Y500380D02*
X723900Y490220D01*
X749300Y490220D02*
X749300Y500380D01*
D21*
X749300Y381000D03*
X749300Y406400D03*
X749300Y431800D03*
D10*
X508000Y50800D03*
X508000Y127000D03*
X723900Y139700D03*
X749300Y139700D03*
D22*
X669798Y368300D02*
X651002Y368300D01*
X651002Y393700D02*
X669798Y393700D01*
X669798Y419100D02*
X651002Y419100D01*
X651002Y444500D02*
X669798Y444500D01*
X669798Y469900D02*
X651002Y469900D01*
D17*
X88900Y565404D02*
X88900Y577596D01*
X63500Y577596D02*
X63500Y565404D01*
X38100Y565404D02*
X38100Y577596D01*
D23*
X254000Y546100D03*
X355600Y546100D03*
D10*
X254000Y635000D03*
X330200Y635000D03*
X850900Y177800D03*
X850900Y203200D03*
X596900Y508000D03*
X673100Y508000D03*
X596900Y584200D03*
X673100Y584200D03*
X673100Y546100D03*
X596900Y546100D03*
D17*
X572516Y637540D02*
X560324Y637540D01*
X562864Y662940D02*
X575056Y662940D01*
X572516Y688340D02*
X560324Y688340D01*
D24*
X292100Y127000D02*
X304800Y114300D01*
X292100Y127000D02*
X203200Y127000D01*
X196850Y120650D01*
X146050Y120650D02*
X139700Y127000D01*
X146050Y120650D02*
X196850Y120650D01*
X825500Y469900D02*
X850900Y495300D01*
X749300Y469900D02*
X723900Y495300D01*
X749300Y469900D02*
X825500Y469900D01*
X673100Y368300D02*
X660400Y368300D01*
X749300Y444500D02*
X749300Y469900D01*
X749300Y444500D02*
X673100Y368300D01*
X673100Y508000D02*
X711200Y508000D01*
X723900Y495300D01*
D25*
X683260Y688340D02*
X566420Y688340D01*
X683260Y688340D02*
X698500Y673100D01*
X698500Y660400D01*
M02*
