M48
;GenerationSoftware,Autodesk,EAGLE,9.1.3*%
;CreationDate,2023-06-07T21:04:39Z*%
FMAT,2
ICI,OFF
METRIC,TZ,000.000
T8C0.350
T7C0.650
T6C0.800
T5C0.813
T4C0.900
T3C1.000
T2C1.016
T1C1.321
%
G90
M71
T1
X26035Y64770
X13335Y46990
T2
X78740Y68580
X4445Y26670
X4572Y52705
X4572Y55245
X79502Y52070
X79756Y54610
X79502Y57150
X4572Y66675
X4572Y69215
X88900Y20320
X88900Y17780
X73914Y9398
X88900Y5080
X71120Y68580
X73660Y68580
X88900Y2540
X4572Y48260
X81280Y68580
X86360Y68580
X88900Y68580
X4572Y45720
X73914Y4318
X73914Y6858
X4445Y59690
X4445Y62230
X4445Y24130
T3
X62484Y14176
T4
X66802Y58420
X66802Y50800
X8382Y41910
X8382Y34290
X62992Y58420
X62992Y50800
X4572Y41910
X45212Y68580
X45212Y60960
X37592Y60960
X37592Y68580
X45212Y58420
X45212Y50800
X33782Y50800
X33782Y58420
X4572Y34290
X12192Y41910
X12192Y34290
X16002Y34290
X16002Y41910
X41402Y50800
X41402Y58420
X29972Y50800
X29972Y58420
X41402Y60960
X41402Y68580
X26162Y45720
X26162Y38100
X37592Y58420
X70612Y38100
X70612Y45720
X82042Y38100
X82042Y45720
X78232Y38100
X78232Y45720
X85598Y45720
X85598Y38100
X45212Y38100
X77724Y3048
X77724Y10668
X29972Y38100
X29972Y45720
X41402Y45720
X41402Y38100
X37592Y50800
X45212Y45720
X33782Y60960
X33782Y68580
X26162Y50800
X26162Y58420
X74422Y38100
X74422Y45720
X66802Y45720
X66802Y38100
X62992Y38100
X62992Y45720
T5
X16002Y62230
X52324Y5588
X49784Y5588
X51054Y10668
X51054Y15748
X10922Y66040
X16002Y66040
X89662Y39370
X10922Y62230
X29210Y62230
X29210Y67310
X33782Y44450
X33782Y39370
X89662Y44450
X50292Y48260
X17272Y50800
X71882Y64770
X9652Y53340
X9652Y50800
X17272Y55880
X17272Y58420
X9652Y55880
X9652Y58420
X50292Y55880
X50292Y53340
X50292Y40640
X57912Y40640
X50292Y50800
X73787Y63500
X37592Y44450
X37592Y39370
X71882Y62230
X73914Y15748
X73914Y18288
X57912Y55880
X57912Y50800
X57912Y48260
X64262Y62230
X62357Y63500
X64262Y64770
X57912Y53340
X17272Y53340
X57912Y45720
X57912Y43180
X62865Y21590
X60960Y20320
X62865Y19050
X22225Y43815
X20320Y42545
X22225Y41275
X22225Y55245
X20320Y53975
X22225Y52705
X86995Y32385
X88900Y33655
X86995Y34925
X50292Y45720
X50292Y43180
T6
X67284Y11176
X62484Y8176
T7
X73025Y50165
T8
X29210Y35560
M30