G04 EAGLE Gerber RS-274X export*
G75*
%MOMM*%
%FSLAX34Y34*%
%LPD*%
%AMOC8*
5,1,8,0,0,1.08239X$1,22.5*%
G01*
%ADD10C,1.879600*%
%ADD11P,1.732040X8X22.500000*%
%ADD12C,1.600200*%
%ADD13P,1.099708X8X112.500000*%
%ADD14P,1.099708X8X22.500000*%
%ADD15P,1.099708X8X202.500000*%
%ADD16P,1.099708X8X292.500000*%
%ADD17C,1.219200*%
%ADD18C,1.625600*%
%ADD19C,1.016000*%
%ADD20C,2.184400*%
%ADD21C,1.905000*%
%ADD22C,0.812800*%
%ADD23C,0.406400*%
%ADD24C,0.756400*%
%ADD25C,0.406400*%
%ADD26P,1.143437X8X22.500000*%

G36*
X923818Y2544D02*
X923818Y2544D01*
X923837Y2542D01*
X923939Y2564D01*
X924041Y2580D01*
X924058Y2590D01*
X924078Y2594D01*
X924167Y2647D01*
X924258Y2696D01*
X924272Y2710D01*
X924289Y2720D01*
X924356Y2799D01*
X924428Y2874D01*
X924436Y2892D01*
X924449Y2907D01*
X924488Y3003D01*
X924531Y3097D01*
X924533Y3117D01*
X924541Y3135D01*
X924559Y3302D01*
X924559Y707898D01*
X924556Y707918D01*
X924558Y707937D01*
X924536Y708039D01*
X924520Y708141D01*
X924510Y708158D01*
X924506Y708178D01*
X924453Y708267D01*
X924404Y708358D01*
X924390Y708372D01*
X924380Y708389D01*
X924301Y708456D01*
X924226Y708528D01*
X924208Y708536D01*
X924193Y708549D01*
X924097Y708588D01*
X924003Y708631D01*
X923983Y708633D01*
X923965Y708641D01*
X923798Y708659D01*
X835268Y708659D01*
X835197Y708648D01*
X835125Y708646D01*
X835076Y708628D01*
X835025Y708620D01*
X834962Y708586D01*
X834894Y708561D01*
X834854Y708529D01*
X834808Y708504D01*
X834758Y708453D01*
X834702Y708408D01*
X834674Y708364D01*
X834638Y708326D01*
X834608Y708261D01*
X834569Y708201D01*
X834557Y708150D01*
X834535Y708103D01*
X834527Y708032D01*
X834509Y707962D01*
X834513Y707910D01*
X834508Y707859D01*
X834523Y707788D01*
X834528Y707717D01*
X834549Y707669D01*
X834560Y707618D01*
X834597Y707557D01*
X834625Y707491D01*
X834669Y707435D01*
X834686Y707407D01*
X834704Y707392D01*
X834729Y707360D01*
X852099Y689990D01*
X852136Y689964D01*
X852167Y689930D01*
X852236Y689892D01*
X852299Y689847D01*
X852342Y689833D01*
X852383Y689811D01*
X852459Y689797D01*
X852534Y689774D01*
X852579Y689776D01*
X852625Y689768D01*
X852702Y689779D01*
X852780Y689781D01*
X852823Y689797D01*
X852868Y689803D01*
X852937Y689839D01*
X853011Y689865D01*
X853046Y689894D01*
X853087Y689915D01*
X853142Y689970D01*
X853203Y690019D01*
X853227Y690058D01*
X853260Y690090D01*
X853325Y690210D01*
X853336Y690226D01*
X853337Y690231D01*
X853340Y690237D01*
X854125Y692131D01*
X857269Y695275D01*
X861377Y696977D01*
X865823Y696977D01*
X869931Y695275D01*
X873075Y692131D01*
X873924Y690081D01*
X873986Y689981D01*
X874046Y689881D01*
X874051Y689877D01*
X874054Y689872D01*
X874145Y689797D01*
X874233Y689721D01*
X874239Y689719D01*
X874244Y689715D01*
X874352Y689673D01*
X874461Y689629D01*
X874469Y689628D01*
X874473Y689627D01*
X874491Y689626D01*
X874628Y689611D01*
X877972Y689611D01*
X878087Y689630D01*
X878203Y689647D01*
X878209Y689649D01*
X878215Y689650D01*
X878318Y689705D01*
X878422Y689758D01*
X878427Y689763D01*
X878432Y689766D01*
X878512Y689850D01*
X878595Y689934D01*
X878598Y689940D01*
X878602Y689944D01*
X878610Y689961D01*
X878676Y690081D01*
X879525Y692131D01*
X882669Y695275D01*
X886777Y696977D01*
X891223Y696977D01*
X895331Y695275D01*
X898475Y692131D01*
X900177Y688023D01*
X900177Y683577D01*
X898475Y679469D01*
X895331Y676325D01*
X891223Y674623D01*
X886777Y674623D01*
X882669Y676325D01*
X879525Y679469D01*
X878676Y681519D01*
X878614Y681619D01*
X878554Y681719D01*
X878549Y681723D01*
X878546Y681728D01*
X878455Y681803D01*
X878367Y681879D01*
X878361Y681881D01*
X878356Y681885D01*
X878248Y681927D01*
X878139Y681971D01*
X878131Y681972D01*
X878127Y681973D01*
X878109Y681974D01*
X877972Y681989D01*
X874628Y681989D01*
X874513Y681970D01*
X874397Y681953D01*
X874391Y681951D01*
X874385Y681950D01*
X874282Y681895D01*
X874178Y681842D01*
X874173Y681837D01*
X874168Y681834D01*
X874088Y681750D01*
X874005Y681666D01*
X874002Y681660D01*
X873998Y681656D01*
X873990Y681639D01*
X873924Y681519D01*
X873075Y679469D01*
X869931Y676325D01*
X865823Y674623D01*
X861377Y674623D01*
X857269Y676325D01*
X854125Y679469D01*
X853276Y681519D01*
X853214Y681619D01*
X853154Y681719D01*
X853149Y681723D01*
X853146Y681728D01*
X853055Y681803D01*
X852967Y681879D01*
X852961Y681881D01*
X852956Y681885D01*
X852848Y681927D01*
X852739Y681971D01*
X852731Y681972D01*
X852727Y681973D01*
X852709Y681974D01*
X852572Y681989D01*
X849322Y681989D01*
X831510Y699800D01*
X831437Y699853D01*
X831367Y699913D01*
X831337Y699925D01*
X831311Y699944D01*
X831224Y699971D01*
X831139Y700005D01*
X831098Y700009D01*
X831076Y700016D01*
X831043Y700015D01*
X830972Y700023D01*
X700648Y700023D01*
X700558Y700009D01*
X700467Y700001D01*
X700437Y699989D01*
X700405Y699984D01*
X700324Y699941D01*
X700240Y699905D01*
X700208Y699879D01*
X700188Y699868D01*
X700165Y699845D01*
X700110Y699800D01*
X649702Y649392D01*
X649649Y649319D01*
X649589Y649249D01*
X649577Y649219D01*
X649558Y649193D01*
X649531Y649106D01*
X649513Y649061D01*
X649507Y649047D01*
X649507Y649044D01*
X649497Y649021D01*
X649493Y648980D01*
X649486Y648958D01*
X649487Y648925D01*
X649479Y648854D01*
X649479Y644859D01*
X645461Y640841D01*
X639779Y640841D01*
X635761Y644859D01*
X635761Y648854D01*
X635759Y648869D01*
X635760Y648881D01*
X635746Y648945D01*
X635739Y649035D01*
X635727Y649065D01*
X635722Y649097D01*
X635679Y649178D01*
X635643Y649262D01*
X635617Y649294D01*
X635606Y649314D01*
X635583Y649337D01*
X635538Y649392D01*
X628564Y656366D01*
X628491Y656419D01*
X628421Y656479D01*
X628391Y656491D01*
X628365Y656510D01*
X628278Y656537D01*
X628193Y656571D01*
X628152Y656575D01*
X628130Y656582D01*
X628097Y656581D01*
X628026Y656589D01*
X593714Y656589D01*
X593624Y656575D01*
X593533Y656567D01*
X593503Y656555D01*
X593471Y656550D01*
X593390Y656507D01*
X593306Y656471D01*
X593274Y656445D01*
X593254Y656434D01*
X593231Y656411D01*
X593176Y656366D01*
X583154Y646345D01*
X583101Y646271D01*
X583041Y646201D01*
X583029Y646171D01*
X583010Y646145D01*
X582983Y646058D01*
X582974Y646035D01*
X582959Y646002D01*
X582958Y645995D01*
X582949Y645973D01*
X582945Y645932D01*
X582938Y645910D01*
X582939Y645878D01*
X582931Y645806D01*
X582931Y624194D01*
X582945Y624104D01*
X582953Y624013D01*
X582965Y623983D01*
X582970Y623951D01*
X583013Y623870D01*
X583049Y623786D01*
X583075Y623754D01*
X583086Y623734D01*
X583109Y623711D01*
X583154Y623656D01*
X600542Y606268D01*
X600615Y606215D01*
X600685Y606155D01*
X600715Y606143D01*
X600741Y606124D01*
X600828Y606097D01*
X600913Y606063D01*
X600954Y606059D01*
X600976Y606052D01*
X601009Y606053D01*
X601080Y606045D01*
X626248Y606045D01*
X626319Y606056D01*
X626391Y606058D01*
X626440Y606076D01*
X626491Y606084D01*
X626554Y606118D01*
X626622Y606143D01*
X626662Y606175D01*
X626708Y606200D01*
X626758Y606251D01*
X626814Y606296D01*
X626842Y606340D01*
X626878Y606378D01*
X626908Y606443D01*
X626947Y606503D01*
X626959Y606554D01*
X626981Y606601D01*
X626989Y606672D01*
X627007Y606742D01*
X627003Y606794D01*
X627008Y606845D01*
X626993Y606916D01*
X626988Y606987D01*
X626967Y607035D01*
X626956Y607086D01*
X626919Y607147D01*
X626891Y607213D01*
X626847Y607269D01*
X626830Y607297D01*
X626812Y607312D01*
X626787Y607344D01*
X625886Y608244D01*
X619759Y614372D01*
X619759Y628796D01*
X619745Y628886D01*
X619737Y628977D01*
X619725Y629007D01*
X619720Y629038D01*
X619677Y629119D01*
X619641Y629203D01*
X619615Y629235D01*
X619604Y629256D01*
X619581Y629278D01*
X619536Y629334D01*
X616711Y632159D01*
X616711Y637841D01*
X620729Y641859D01*
X626411Y641859D01*
X629236Y639034D01*
X629310Y638981D01*
X629379Y638921D01*
X629409Y638909D01*
X629436Y638890D01*
X629523Y638863D01*
X629608Y638829D01*
X629648Y638825D01*
X629671Y638818D01*
X629703Y638819D01*
X629774Y638811D01*
X666126Y638811D01*
X666216Y638825D01*
X666307Y638833D01*
X666337Y638845D01*
X666369Y638850D01*
X666450Y638893D01*
X666534Y638929D01*
X666566Y638955D01*
X666586Y638966D01*
X666609Y638989D01*
X666664Y639034D01*
X699462Y671831D01*
X767726Y671831D01*
X767816Y671845D01*
X767907Y671853D01*
X767937Y671865D01*
X767969Y671870D01*
X768050Y671913D01*
X768134Y671949D01*
X768166Y671975D01*
X768186Y671986D01*
X768209Y672009D01*
X768264Y672054D01*
X776908Y680697D01*
X776976Y680792D01*
X777046Y680885D01*
X777047Y680891D01*
X777051Y680896D01*
X777085Y681008D01*
X777122Y681119D01*
X777122Y681126D01*
X777123Y681132D01*
X777120Y681248D01*
X777119Y681365D01*
X777117Y681372D01*
X777117Y681377D01*
X777111Y681395D01*
X777073Y681526D01*
X776223Y683577D01*
X776223Y688023D01*
X777925Y692131D01*
X781069Y695275D01*
X785177Y696977D01*
X789623Y696977D01*
X793731Y695275D01*
X796875Y692131D01*
X797724Y690081D01*
X797786Y689981D01*
X797846Y689881D01*
X797851Y689877D01*
X797854Y689872D01*
X797945Y689797D01*
X798033Y689721D01*
X798039Y689719D01*
X798044Y689715D01*
X798152Y689673D01*
X798261Y689629D01*
X798269Y689628D01*
X798273Y689627D01*
X798291Y689626D01*
X798428Y689611D01*
X801772Y689611D01*
X801887Y689630D01*
X802003Y689647D01*
X802009Y689649D01*
X802015Y689650D01*
X802118Y689705D01*
X802222Y689758D01*
X802227Y689763D01*
X802232Y689766D01*
X802312Y689850D01*
X802395Y689934D01*
X802398Y689940D01*
X802402Y689944D01*
X802410Y689961D01*
X802476Y690081D01*
X803325Y692131D01*
X806469Y695275D01*
X810577Y696977D01*
X815023Y696977D01*
X819131Y695275D01*
X822275Y692131D01*
X823977Y688023D01*
X823977Y683577D01*
X822275Y679469D01*
X819131Y676325D01*
X815023Y674623D01*
X810577Y674623D01*
X806469Y676325D01*
X803325Y679469D01*
X802476Y681519D01*
X802414Y681619D01*
X802354Y681719D01*
X802349Y681723D01*
X802346Y681728D01*
X802255Y681803D01*
X802167Y681879D01*
X802161Y681881D01*
X802156Y681885D01*
X802048Y681927D01*
X801939Y681971D01*
X801931Y681972D01*
X801927Y681973D01*
X801909Y681974D01*
X801772Y681989D01*
X798428Y681989D01*
X798313Y681970D01*
X798197Y681953D01*
X798191Y681951D01*
X798185Y681950D01*
X798082Y681895D01*
X797978Y681842D01*
X797973Y681837D01*
X797968Y681834D01*
X797888Y681750D01*
X797805Y681666D01*
X797802Y681660D01*
X797798Y681656D01*
X797790Y681639D01*
X797724Y681519D01*
X796875Y679469D01*
X793731Y676325D01*
X789623Y674623D01*
X785177Y674623D01*
X783126Y675473D01*
X783013Y675499D01*
X782899Y675528D01*
X782893Y675527D01*
X782887Y675529D01*
X782770Y675518D01*
X782654Y675509D01*
X782648Y675506D01*
X782642Y675506D01*
X782534Y675458D01*
X782428Y675412D01*
X782422Y675408D01*
X782417Y675406D01*
X782404Y675393D01*
X782297Y675308D01*
X773654Y666664D01*
X771198Y664209D01*
X702934Y664209D01*
X702844Y664195D01*
X702753Y664187D01*
X702723Y664175D01*
X702691Y664170D01*
X702610Y664127D01*
X702526Y664091D01*
X702494Y664065D01*
X702474Y664054D01*
X702451Y664031D01*
X702396Y663986D01*
X669598Y631189D01*
X629774Y631189D01*
X629684Y631175D01*
X629593Y631167D01*
X629563Y631155D01*
X629532Y631150D01*
X629451Y631107D01*
X629367Y631071D01*
X629335Y631045D01*
X629314Y631034D01*
X629292Y631011D01*
X629236Y630966D01*
X627604Y629334D01*
X627551Y629260D01*
X627491Y629191D01*
X627479Y629160D01*
X627460Y629134D01*
X627433Y629047D01*
X627399Y628962D01*
X627395Y628922D01*
X627388Y628899D01*
X627389Y628867D01*
X627381Y628796D01*
X627381Y617844D01*
X627395Y617754D01*
X627403Y617663D01*
X627415Y617633D01*
X627420Y617601D01*
X627463Y617520D01*
X627499Y617436D01*
X627525Y617404D01*
X627536Y617384D01*
X627559Y617361D01*
X627604Y617306D01*
X631276Y613634D01*
X631349Y613581D01*
X631419Y613521D01*
X631449Y613509D01*
X631475Y613490D01*
X631562Y613463D01*
X631647Y613429D01*
X631688Y613425D01*
X631710Y613418D01*
X631743Y613419D01*
X631814Y613411D01*
X704226Y613411D01*
X704316Y613425D01*
X704407Y613433D01*
X704437Y613445D01*
X704469Y613450D01*
X704550Y613493D01*
X704634Y613529D01*
X704666Y613555D01*
X704686Y613566D01*
X704709Y613589D01*
X704764Y613634D01*
X711738Y620608D01*
X711791Y620681D01*
X711851Y620751D01*
X711863Y620781D01*
X711882Y620807D01*
X711909Y620894D01*
X711943Y620979D01*
X711947Y621020D01*
X711954Y621042D01*
X711953Y621075D01*
X711961Y621146D01*
X711961Y625141D01*
X715979Y629159D01*
X719974Y629159D01*
X720064Y629173D01*
X720155Y629181D01*
X720185Y629193D01*
X720217Y629198D01*
X720298Y629241D01*
X720382Y629277D01*
X720414Y629303D01*
X720434Y629314D01*
X720457Y629337D01*
X720512Y629382D01*
X729942Y638811D01*
X731666Y638811D01*
X731756Y638825D01*
X731847Y638833D01*
X731876Y638845D01*
X731908Y638850D01*
X731989Y638893D01*
X732073Y638929D01*
X732105Y638955D01*
X732126Y638966D01*
X732148Y638989D01*
X732204Y639034D01*
X735029Y641859D01*
X740711Y641859D01*
X744729Y637841D01*
X744729Y632159D01*
X740711Y628141D01*
X735029Y628141D01*
X733078Y630092D01*
X733062Y630104D01*
X733049Y630119D01*
X732962Y630176D01*
X732878Y630236D01*
X732859Y630242D01*
X732843Y630252D01*
X732742Y630278D01*
X732643Y630308D01*
X732623Y630308D01*
X732604Y630313D01*
X732501Y630304D01*
X732397Y630302D01*
X732379Y630295D01*
X732359Y630293D01*
X732264Y630253D01*
X732166Y630217D01*
X732151Y630205D01*
X732132Y630197D01*
X732001Y630092D01*
X725902Y623992D01*
X725849Y623919D01*
X725789Y623849D01*
X725777Y623819D01*
X725758Y623793D01*
X725731Y623706D01*
X725697Y623621D01*
X725693Y623580D01*
X725686Y623558D01*
X725687Y623525D01*
X725679Y623454D01*
X725679Y621146D01*
X725693Y621056D01*
X725701Y620965D01*
X725713Y620935D01*
X725718Y620903D01*
X725761Y620822D01*
X725797Y620738D01*
X725823Y620706D01*
X725834Y620686D01*
X725857Y620663D01*
X725902Y620608D01*
X760731Y585778D01*
X760731Y535294D01*
X760745Y535204D01*
X760753Y535113D01*
X760765Y535083D01*
X760770Y535051D01*
X760813Y534970D01*
X760849Y534886D01*
X760875Y534854D01*
X760886Y534834D01*
X760909Y534811D01*
X760954Y534756D01*
X770976Y524734D01*
X771049Y524681D01*
X771119Y524621D01*
X771149Y524609D01*
X771175Y524590D01*
X771262Y524563D01*
X771347Y524529D01*
X771388Y524525D01*
X771410Y524518D01*
X771443Y524519D01*
X771514Y524511D01*
X781470Y524511D01*
X781585Y524529D01*
X781701Y524547D01*
X781707Y524549D01*
X781713Y524550D01*
X781816Y524605D01*
X781920Y524658D01*
X781925Y524663D01*
X781930Y524666D01*
X782011Y524751D01*
X782093Y524834D01*
X782096Y524840D01*
X782100Y524844D01*
X782108Y524861D01*
X782174Y524981D01*
X782248Y525161D01*
X784463Y527376D01*
X787358Y528575D01*
X802682Y528575D01*
X805577Y527376D01*
X807792Y525161D01*
X808991Y522266D01*
X808991Y519134D01*
X807792Y516239D01*
X805577Y514024D01*
X802682Y512825D01*
X787358Y512825D01*
X784463Y514024D01*
X782248Y516239D01*
X782174Y516419D01*
X782112Y516519D01*
X782052Y516619D01*
X782047Y516623D01*
X782044Y516628D01*
X781954Y516703D01*
X781865Y516779D01*
X781859Y516781D01*
X781854Y516785D01*
X781746Y516827D01*
X781637Y516871D01*
X781629Y516872D01*
X781625Y516873D01*
X781607Y516874D01*
X781470Y516889D01*
X768042Y516889D01*
X753109Y531822D01*
X753109Y582306D01*
X753095Y582396D01*
X753087Y582487D01*
X753075Y582517D01*
X753070Y582549D01*
X753027Y582630D01*
X752991Y582714D01*
X752965Y582746D01*
X752954Y582766D01*
X752931Y582789D01*
X752886Y582844D01*
X720512Y615218D01*
X720439Y615271D01*
X720369Y615331D01*
X720339Y615343D01*
X720313Y615362D01*
X720226Y615389D01*
X720141Y615423D01*
X720100Y615427D01*
X720078Y615434D01*
X720045Y615433D01*
X719974Y615441D01*
X717666Y615441D01*
X717576Y615427D01*
X717485Y615419D01*
X717455Y615407D01*
X717423Y615402D01*
X717342Y615359D01*
X717258Y615323D01*
X717226Y615297D01*
X717206Y615286D01*
X717183Y615263D01*
X717128Y615218D01*
X707698Y605789D01*
X653658Y605789D01*
X653587Y605778D01*
X653515Y605776D01*
X653466Y605758D01*
X653415Y605750D01*
X653352Y605716D01*
X653284Y605691D01*
X653244Y605659D01*
X653198Y605634D01*
X653148Y605582D01*
X653092Y605538D01*
X653064Y605494D01*
X653028Y605456D01*
X652998Y605391D01*
X652959Y605331D01*
X652947Y605280D01*
X652925Y605233D01*
X652917Y605162D01*
X652899Y605092D01*
X652903Y605040D01*
X652898Y604989D01*
X652913Y604918D01*
X652918Y604847D01*
X652939Y604799D01*
X652950Y604748D01*
X652987Y604687D01*
X653015Y604621D01*
X653059Y604565D01*
X653076Y604537D01*
X653094Y604522D01*
X653119Y604490D01*
X654020Y603590D01*
X654020Y603589D01*
X662917Y594692D01*
X663012Y594624D01*
X663105Y594554D01*
X663111Y594553D01*
X663117Y594549D01*
X663228Y594515D01*
X663339Y594478D01*
X663346Y594478D01*
X663352Y594477D01*
X663468Y594480D01*
X663585Y594481D01*
X663592Y594483D01*
X663597Y594483D01*
X663615Y594489D01*
X663746Y594527D01*
X665797Y595377D01*
X670243Y595377D01*
X674351Y593675D01*
X677495Y590531D01*
X679197Y586423D01*
X679197Y581977D01*
X677495Y577869D01*
X674351Y574725D01*
X670243Y573023D01*
X665797Y573023D01*
X661689Y574725D01*
X658545Y577869D01*
X656843Y581977D01*
X656843Y586423D01*
X657693Y588474D01*
X657719Y588587D01*
X657748Y588701D01*
X657747Y588707D01*
X657749Y588713D01*
X657738Y588830D01*
X657729Y588946D01*
X657726Y588952D01*
X657726Y588958D01*
X657678Y589066D01*
X657632Y589172D01*
X657628Y589178D01*
X657626Y589183D01*
X657613Y589196D01*
X657528Y589303D01*
X648631Y598200D01*
X648557Y598253D01*
X648487Y598313D01*
X648457Y598325D01*
X648431Y598344D01*
X648344Y598371D01*
X648259Y598405D01*
X648218Y598409D01*
X648196Y598416D01*
X648164Y598415D01*
X648092Y598423D01*
X597524Y598423D01*
X597453Y598412D01*
X597381Y598410D01*
X597332Y598392D01*
X597281Y598384D01*
X597218Y598350D01*
X597150Y598325D01*
X597110Y598293D01*
X597064Y598268D01*
X597014Y598216D01*
X596958Y598172D01*
X596930Y598128D01*
X596894Y598090D01*
X596864Y598025D01*
X596825Y597965D01*
X596813Y597914D01*
X596791Y597867D01*
X596783Y597796D01*
X596765Y597726D01*
X596769Y597674D01*
X596764Y597623D01*
X596779Y597552D01*
X596784Y597481D01*
X596805Y597433D01*
X596816Y597382D01*
X596853Y597321D01*
X596881Y597255D01*
X596925Y597199D01*
X596942Y597171D01*
X596960Y597156D01*
X596985Y597124D01*
X639404Y554706D01*
X639477Y554653D01*
X639547Y554593D01*
X639577Y554581D01*
X639603Y554562D01*
X639690Y554535D01*
X639775Y554501D01*
X639816Y554497D01*
X639838Y554490D01*
X639871Y554491D01*
X639942Y554483D01*
X682806Y554483D01*
X728356Y508934D01*
X728429Y508881D01*
X728499Y508821D01*
X728529Y508809D01*
X728555Y508790D01*
X728642Y508763D01*
X728727Y508729D01*
X728768Y508725D01*
X728790Y508718D01*
X728823Y508719D01*
X728894Y508711D01*
X733175Y508711D01*
X737311Y504575D01*
X737311Y498725D01*
X733175Y494589D01*
X727325Y494589D01*
X723189Y498725D01*
X723189Y503006D01*
X723175Y503096D01*
X723167Y503187D01*
X723155Y503217D01*
X723150Y503249D01*
X723107Y503330D01*
X723071Y503414D01*
X723045Y503446D01*
X723034Y503466D01*
X723011Y503489D01*
X722966Y503544D01*
X679872Y546638D01*
X679799Y546691D01*
X679729Y546751D01*
X679699Y546763D01*
X679673Y546782D01*
X679586Y546809D01*
X679501Y546843D01*
X679460Y546847D01*
X679438Y546854D01*
X679405Y546853D01*
X679334Y546861D01*
X636470Y546861D01*
X486324Y697006D01*
X486251Y697059D01*
X486181Y697119D01*
X486151Y697131D01*
X486125Y697150D01*
X486038Y697177D01*
X485953Y697211D01*
X485912Y697215D01*
X485890Y697222D01*
X485857Y697221D01*
X485786Y697229D01*
X457561Y697229D01*
X457465Y697214D01*
X457368Y697204D01*
X457344Y697194D01*
X457318Y697190D01*
X457232Y697144D01*
X457143Y697104D01*
X457124Y697087D01*
X457100Y697074D01*
X457033Y697004D01*
X456962Y696938D01*
X456949Y696915D01*
X456931Y696896D01*
X456890Y696808D01*
X456843Y696722D01*
X456838Y696697D01*
X456827Y696673D01*
X456817Y696576D01*
X456799Y696480D01*
X456803Y696454D01*
X456800Y696429D01*
X456821Y696333D01*
X456835Y696237D01*
X456847Y696214D01*
X456853Y696188D01*
X456903Y696105D01*
X456947Y696018D01*
X456965Y695999D01*
X456979Y695977D01*
X457053Y695914D01*
X457122Y695846D01*
X457151Y695830D01*
X457166Y695817D01*
X457196Y695805D01*
X457269Y695765D01*
X458451Y695275D01*
X461595Y692131D01*
X463297Y688023D01*
X463297Y683577D01*
X462447Y681526D01*
X462421Y681413D01*
X462392Y681299D01*
X462393Y681293D01*
X462391Y681287D01*
X462402Y681170D01*
X462411Y681054D01*
X462414Y681048D01*
X462414Y681042D01*
X462462Y680934D01*
X462508Y680828D01*
X462512Y680822D01*
X462514Y680817D01*
X462527Y680804D01*
X462612Y680697D01*
X555076Y588234D01*
X557531Y585778D01*
X557531Y557222D01*
X555076Y554766D01*
X513543Y513234D01*
X513531Y513217D01*
X513516Y513205D01*
X513459Y513118D01*
X513399Y513034D01*
X513393Y513015D01*
X513383Y512998D01*
X513357Y512898D01*
X513327Y512799D01*
X513327Y512779D01*
X513322Y512759D01*
X513331Y512656D01*
X513333Y512553D01*
X513340Y512534D01*
X513342Y512514D01*
X513382Y512419D01*
X513418Y512322D01*
X513430Y512306D01*
X513438Y512288D01*
X513543Y512157D01*
X513815Y511885D01*
X514859Y509364D01*
X514859Y506636D01*
X513815Y504115D01*
X511885Y502185D01*
X509364Y501141D01*
X496476Y501141D01*
X493955Y502185D01*
X492025Y504115D01*
X490981Y506636D01*
X490981Y509364D01*
X492025Y511885D01*
X493955Y513815D01*
X496476Y514859D01*
X504074Y514859D01*
X504164Y514873D01*
X504255Y514881D01*
X504285Y514893D01*
X504317Y514898D01*
X504398Y514941D01*
X504482Y514977D01*
X504514Y515003D01*
X504534Y515014D01*
X504537Y515017D01*
X504538Y515017D01*
X504557Y515037D01*
X504612Y515082D01*
X549686Y560156D01*
X549739Y560229D01*
X549799Y560299D01*
X549811Y560329D01*
X549830Y560355D01*
X549857Y560442D01*
X549891Y560527D01*
X549895Y560568D01*
X549902Y560590D01*
X549901Y560623D01*
X549909Y560694D01*
X549909Y582306D01*
X549895Y582396D01*
X549887Y582487D01*
X549875Y582517D01*
X549870Y582549D01*
X549827Y582630D01*
X549791Y582714D01*
X549765Y582746D01*
X549754Y582766D01*
X549731Y582789D01*
X549686Y582844D01*
X457223Y675308D01*
X457128Y675376D01*
X457035Y675446D01*
X457029Y675447D01*
X457023Y675451D01*
X456912Y675485D01*
X456801Y675522D01*
X456794Y675522D01*
X456788Y675523D01*
X456672Y675520D01*
X456555Y675519D01*
X456548Y675517D01*
X456543Y675517D01*
X456525Y675511D01*
X456394Y675473D01*
X454343Y674623D01*
X449897Y674623D01*
X445789Y676325D01*
X442645Y679469D01*
X441796Y681519D01*
X441734Y681619D01*
X441674Y681719D01*
X441669Y681723D01*
X441666Y681728D01*
X441575Y681803D01*
X441487Y681879D01*
X441481Y681881D01*
X441476Y681885D01*
X441368Y681927D01*
X441259Y681971D01*
X441251Y681972D01*
X441247Y681973D01*
X441229Y681974D01*
X441092Y681989D01*
X425048Y681989D01*
X424933Y681970D01*
X424817Y681953D01*
X424811Y681951D01*
X424805Y681950D01*
X424702Y681895D01*
X424598Y681842D01*
X424593Y681837D01*
X424588Y681834D01*
X424508Y681750D01*
X424425Y681666D01*
X424422Y681660D01*
X424418Y681656D01*
X424410Y681639D01*
X424344Y681519D01*
X423495Y679469D01*
X420351Y676325D01*
X416243Y674623D01*
X411797Y674623D01*
X407689Y676325D01*
X404545Y679469D01*
X403696Y681519D01*
X403634Y681619D01*
X403574Y681719D01*
X403569Y681723D01*
X403566Y681728D01*
X403475Y681803D01*
X403387Y681879D01*
X403381Y681881D01*
X403376Y681885D01*
X403268Y681927D01*
X403159Y681971D01*
X403151Y681972D01*
X403147Y681973D01*
X403129Y681974D01*
X402992Y681989D01*
X386948Y681989D01*
X386833Y681970D01*
X386717Y681953D01*
X386711Y681951D01*
X386705Y681950D01*
X386602Y681895D01*
X386498Y681842D01*
X386493Y681837D01*
X386488Y681834D01*
X386408Y681750D01*
X386325Y681666D01*
X386322Y681660D01*
X386318Y681656D01*
X386310Y681639D01*
X386244Y681519D01*
X385395Y679469D01*
X382251Y676325D01*
X378143Y674623D01*
X373697Y674623D01*
X369589Y676325D01*
X366445Y679469D01*
X364743Y683577D01*
X364743Y688023D01*
X366445Y692131D01*
X369589Y695275D01*
X370771Y695765D01*
X370854Y695816D01*
X370940Y695862D01*
X370957Y695880D01*
X370980Y695894D01*
X371042Y695970D01*
X371109Y696040D01*
X371120Y696064D01*
X371137Y696084D01*
X371172Y696175D01*
X371213Y696263D01*
X371215Y696289D01*
X371225Y696313D01*
X371229Y696411D01*
X371240Y696507D01*
X371234Y696533D01*
X371235Y696559D01*
X371208Y696653D01*
X371187Y696748D01*
X371174Y696770D01*
X371167Y696795D01*
X371111Y696875D01*
X371061Y696959D01*
X371041Y696976D01*
X371026Y696997D01*
X370948Y697056D01*
X370874Y697119D01*
X370850Y697129D01*
X370829Y697144D01*
X370737Y697174D01*
X370646Y697211D01*
X370614Y697214D01*
X370595Y697220D01*
X370562Y697220D01*
X370479Y697229D01*
X354954Y697229D01*
X354864Y697215D01*
X354773Y697207D01*
X354743Y697195D01*
X354711Y697190D01*
X354630Y697147D01*
X354546Y697111D01*
X354514Y697085D01*
X354494Y697074D01*
X354471Y697051D01*
X354416Y697006D01*
X348312Y690903D01*
X348244Y690808D01*
X348174Y690715D01*
X348173Y690709D01*
X348169Y690704D01*
X348135Y690592D01*
X348098Y690481D01*
X348098Y690474D01*
X348097Y690468D01*
X348100Y690352D01*
X348101Y690235D01*
X348103Y690228D01*
X348103Y690223D01*
X348109Y690205D01*
X348147Y690074D01*
X348997Y688023D01*
X348997Y683577D01*
X348147Y681526D01*
X348121Y681413D01*
X348092Y681299D01*
X348093Y681293D01*
X348091Y681287D01*
X348102Y681170D01*
X348111Y681054D01*
X348114Y681048D01*
X348114Y681042D01*
X348162Y680934D01*
X348208Y680828D01*
X348212Y680822D01*
X348214Y680817D01*
X348227Y680804D01*
X348312Y680697D01*
X408917Y620092D01*
X409012Y620024D01*
X409105Y619954D01*
X409111Y619953D01*
X409117Y619949D01*
X409228Y619915D01*
X409339Y619878D01*
X409346Y619878D01*
X409352Y619877D01*
X409468Y619880D01*
X409585Y619881D01*
X409592Y619883D01*
X409597Y619883D01*
X409615Y619889D01*
X409746Y619927D01*
X411797Y620777D01*
X416243Y620777D01*
X420351Y619075D01*
X423495Y615931D01*
X424344Y613881D01*
X424407Y613780D01*
X424466Y613681D01*
X424471Y613677D01*
X424474Y613672D01*
X424565Y613597D01*
X424653Y613521D01*
X424659Y613519D01*
X424664Y613515D01*
X424772Y613473D01*
X424881Y613429D01*
X424889Y613428D01*
X424893Y613427D01*
X424911Y613426D01*
X425048Y613411D01*
X428298Y613411D01*
X430754Y610956D01*
X447017Y594692D01*
X447112Y594624D01*
X447205Y594554D01*
X447211Y594553D01*
X447217Y594549D01*
X447328Y594515D01*
X447439Y594478D01*
X447446Y594478D01*
X447452Y594477D01*
X447568Y594480D01*
X447685Y594481D01*
X447692Y594483D01*
X447697Y594483D01*
X447715Y594489D01*
X447846Y594527D01*
X449897Y595377D01*
X454343Y595377D01*
X458451Y593675D01*
X461595Y590531D01*
X462444Y588481D01*
X462506Y588381D01*
X462566Y588281D01*
X462571Y588277D01*
X462574Y588272D01*
X462665Y588197D01*
X462753Y588121D01*
X462759Y588119D01*
X462764Y588115D01*
X462872Y588073D01*
X462981Y588029D01*
X462989Y588028D01*
X462993Y588027D01*
X463011Y588026D01*
X463148Y588011D01*
X479098Y588011D01*
X481554Y585555D01*
X501227Y565882D01*
X501301Y565829D01*
X501371Y565769D01*
X501401Y565757D01*
X501427Y565738D01*
X501514Y565711D01*
X501599Y565677D01*
X501640Y565673D01*
X501662Y565666D01*
X501694Y565667D01*
X501766Y565659D01*
X509364Y565659D01*
X511885Y564615D01*
X513815Y562685D01*
X514859Y560164D01*
X514859Y557436D01*
X513815Y554915D01*
X511885Y552985D01*
X509364Y551941D01*
X496476Y551941D01*
X493955Y552985D01*
X492025Y554915D01*
X490981Y557436D01*
X490981Y560164D01*
X492025Y562685D01*
X492297Y562957D01*
X492309Y562973D01*
X492324Y562986D01*
X492381Y563073D01*
X492441Y563157D01*
X492447Y563176D01*
X492457Y563193D01*
X492483Y563293D01*
X492513Y563392D01*
X492513Y563412D01*
X492518Y563431D01*
X492509Y563534D01*
X492507Y563638D01*
X492500Y563656D01*
X492498Y563676D01*
X492458Y563771D01*
X492422Y563869D01*
X492410Y563884D01*
X492402Y563903D01*
X492297Y564034D01*
X476164Y580166D01*
X476091Y580219D01*
X476021Y580279D01*
X475991Y580291D01*
X475965Y580310D01*
X475878Y580337D01*
X475793Y580371D01*
X475752Y580375D01*
X475730Y580382D01*
X475697Y580381D01*
X475626Y580389D01*
X463148Y580389D01*
X463033Y580370D01*
X462917Y580353D01*
X462911Y580351D01*
X462905Y580350D01*
X462802Y580295D01*
X462698Y580242D01*
X462693Y580237D01*
X462688Y580234D01*
X462608Y580150D01*
X462525Y580066D01*
X462522Y580060D01*
X462518Y580056D01*
X462510Y580039D01*
X462444Y579919D01*
X461595Y577869D01*
X458451Y574725D01*
X454343Y573023D01*
X449897Y573023D01*
X447846Y573873D01*
X447733Y573899D01*
X447619Y573928D01*
X447613Y573927D01*
X447607Y573929D01*
X447490Y573918D01*
X447374Y573909D01*
X447368Y573906D01*
X447362Y573906D01*
X447254Y573858D01*
X447148Y573812D01*
X447142Y573808D01*
X447137Y573806D01*
X447124Y573793D01*
X447017Y573708D01*
X386412Y513103D01*
X386369Y513042D01*
X386334Y513006D01*
X386321Y512977D01*
X386274Y512915D01*
X386273Y512909D01*
X386269Y512903D01*
X386235Y512792D01*
X386234Y512789D01*
X386231Y512783D01*
X386230Y512779D01*
X386198Y512681D01*
X386198Y512674D01*
X386197Y512668D01*
X386200Y512552D01*
X386201Y512435D01*
X386203Y512428D01*
X386203Y512423D01*
X386209Y512405D01*
X386247Y512274D01*
X387097Y510223D01*
X387097Y505777D01*
X385395Y501669D01*
X382251Y498525D01*
X378143Y496823D01*
X373697Y496823D01*
X369589Y498525D01*
X366445Y501669D01*
X365596Y503719D01*
X365534Y503819D01*
X365474Y503919D01*
X365469Y503923D01*
X365466Y503928D01*
X365375Y504003D01*
X365287Y504079D01*
X365281Y504081D01*
X365276Y504085D01*
X365168Y504127D01*
X365059Y504171D01*
X365051Y504172D01*
X365047Y504173D01*
X365029Y504174D01*
X364892Y504189D01*
X348848Y504189D01*
X348733Y504170D01*
X348617Y504153D01*
X348611Y504151D01*
X348605Y504150D01*
X348502Y504095D01*
X348398Y504042D01*
X348393Y504037D01*
X348388Y504034D01*
X348308Y503950D01*
X348225Y503866D01*
X348222Y503860D01*
X348218Y503856D01*
X348210Y503839D01*
X348144Y503719D01*
X347295Y501669D01*
X344151Y498525D01*
X340043Y496823D01*
X335597Y496823D01*
X331489Y498525D01*
X328345Y501669D01*
X326643Y505777D01*
X326643Y510223D01*
X328345Y514331D01*
X331489Y517475D01*
X335597Y519177D01*
X340043Y519177D01*
X344151Y517475D01*
X347295Y514331D01*
X348144Y512281D01*
X348207Y512180D01*
X348266Y512081D01*
X348271Y512077D01*
X348274Y512072D01*
X348365Y511997D01*
X348453Y511921D01*
X348459Y511919D01*
X348464Y511915D01*
X348572Y511873D01*
X348681Y511829D01*
X348689Y511828D01*
X348693Y511827D01*
X348711Y511826D01*
X348848Y511811D01*
X364892Y511811D01*
X365007Y511830D01*
X365123Y511847D01*
X365129Y511849D01*
X365135Y511850D01*
X365238Y511905D01*
X365342Y511958D01*
X365347Y511963D01*
X365352Y511966D01*
X365432Y512050D01*
X365515Y512134D01*
X365518Y512140D01*
X365522Y512144D01*
X365530Y512161D01*
X365596Y512281D01*
X366445Y514331D01*
X369589Y517475D01*
X373697Y519177D01*
X378143Y519177D01*
X380194Y518327D01*
X380307Y518301D01*
X380421Y518272D01*
X380427Y518273D01*
X380433Y518271D01*
X380550Y518282D01*
X380666Y518291D01*
X380672Y518294D01*
X380678Y518294D01*
X380786Y518342D01*
X380892Y518388D01*
X380898Y518392D01*
X380903Y518394D01*
X380916Y518407D01*
X381023Y518492D01*
X441628Y579097D01*
X441696Y579192D01*
X441766Y579285D01*
X441767Y579291D01*
X441771Y579297D01*
X441805Y579408D01*
X441842Y579519D01*
X441842Y579526D01*
X441843Y579532D01*
X441840Y579648D01*
X441839Y579765D01*
X441837Y579772D01*
X441837Y579777D01*
X441831Y579795D01*
X441793Y579926D01*
X440943Y581977D01*
X440943Y586423D01*
X441793Y588474D01*
X441819Y588587D01*
X441848Y588701D01*
X441847Y588707D01*
X441849Y588713D01*
X441838Y588830D01*
X441829Y588946D01*
X441826Y588952D01*
X441826Y588958D01*
X441778Y589066D01*
X441732Y589172D01*
X441728Y589178D01*
X441726Y589183D01*
X441713Y589196D01*
X441628Y589303D01*
X425521Y605410D01*
X425484Y605436D01*
X425453Y605470D01*
X425384Y605508D01*
X425321Y605553D01*
X425278Y605567D01*
X425237Y605589D01*
X425161Y605603D01*
X425086Y605626D01*
X425041Y605624D01*
X424995Y605632D01*
X424918Y605621D01*
X424840Y605619D01*
X424797Y605603D01*
X424752Y605597D01*
X424683Y605561D01*
X424609Y605535D01*
X424574Y605506D01*
X424533Y605485D01*
X424478Y605430D01*
X424417Y605381D01*
X424393Y605342D01*
X424360Y605310D01*
X424295Y605190D01*
X424284Y605174D01*
X424283Y605169D01*
X424280Y605163D01*
X423495Y603269D01*
X420351Y600125D01*
X416243Y598423D01*
X411797Y598423D01*
X407689Y600125D01*
X404545Y603269D01*
X402843Y607377D01*
X402843Y611823D01*
X403693Y613874D01*
X403719Y613987D01*
X403748Y614101D01*
X403747Y614107D01*
X403749Y614113D01*
X403738Y614230D01*
X403729Y614346D01*
X403726Y614352D01*
X403726Y614358D01*
X403678Y614466D01*
X403632Y614572D01*
X403628Y614578D01*
X403626Y614583D01*
X403613Y614596D01*
X403528Y614703D01*
X342923Y675308D01*
X342828Y675376D01*
X342735Y675446D01*
X342729Y675447D01*
X342723Y675451D01*
X342612Y675485D01*
X342501Y675522D01*
X342494Y675522D01*
X342488Y675523D01*
X342372Y675520D01*
X342255Y675519D01*
X342248Y675517D01*
X342243Y675517D01*
X342225Y675511D01*
X342094Y675473D01*
X340043Y674623D01*
X335597Y674623D01*
X331489Y676325D01*
X328345Y679469D01*
X327496Y681519D01*
X327434Y681619D01*
X327374Y681719D01*
X327369Y681723D01*
X327366Y681728D01*
X327275Y681803D01*
X327187Y681879D01*
X327181Y681881D01*
X327176Y681885D01*
X327068Y681927D01*
X326959Y681971D01*
X326951Y681972D01*
X326947Y681973D01*
X326929Y681974D01*
X326792Y681989D01*
X262244Y681989D01*
X262154Y681975D01*
X262063Y681967D01*
X262033Y681955D01*
X262001Y681950D01*
X261920Y681907D01*
X261836Y681871D01*
X261804Y681845D01*
X261784Y681834D01*
X261761Y681811D01*
X261706Y681766D01*
X249228Y669289D01*
X93672Y669289D01*
X74844Y688116D01*
X74771Y688169D01*
X74701Y688229D01*
X74671Y688241D01*
X74645Y688260D01*
X74558Y688287D01*
X74473Y688321D01*
X74432Y688325D01*
X74410Y688332D01*
X74377Y688331D01*
X74306Y688339D01*
X56748Y688339D01*
X56633Y688320D01*
X56517Y688303D01*
X56511Y688301D01*
X56505Y688300D01*
X56402Y688245D01*
X56298Y688192D01*
X56293Y688187D01*
X56288Y688184D01*
X56208Y688100D01*
X56125Y688016D01*
X56122Y688010D01*
X56118Y688006D01*
X56110Y687989D01*
X56044Y687869D01*
X55195Y685819D01*
X52051Y682675D01*
X50001Y681826D01*
X49901Y681764D01*
X49801Y681704D01*
X49797Y681699D01*
X49792Y681696D01*
X49717Y681605D01*
X49641Y681517D01*
X49639Y681511D01*
X49635Y681506D01*
X49593Y681398D01*
X49549Y681289D01*
X49548Y681281D01*
X49547Y681277D01*
X49546Y681259D01*
X49531Y681122D01*
X49531Y677778D01*
X49550Y677663D01*
X49567Y677547D01*
X49569Y677541D01*
X49570Y677535D01*
X49625Y677432D01*
X49678Y677328D01*
X49683Y677323D01*
X49686Y677318D01*
X49770Y677238D01*
X49854Y677155D01*
X49860Y677152D01*
X49864Y677148D01*
X49881Y677140D01*
X49911Y677124D01*
X49917Y677119D01*
X49929Y677114D01*
X50001Y677074D01*
X52051Y676225D01*
X55195Y673081D01*
X56897Y668973D01*
X56897Y664527D01*
X55195Y660419D01*
X52051Y657275D01*
X47943Y655573D01*
X43497Y655573D01*
X39389Y657275D01*
X36245Y660419D01*
X34543Y664527D01*
X34543Y668973D01*
X36245Y673081D01*
X39389Y676225D01*
X41439Y677074D01*
X41539Y677136D01*
X41551Y677143D01*
X41588Y677163D01*
X41594Y677169D01*
X41639Y677196D01*
X41643Y677201D01*
X41648Y677204D01*
X41723Y677295D01*
X41799Y677383D01*
X41801Y677389D01*
X41805Y677394D01*
X41847Y677502D01*
X41891Y677611D01*
X41892Y677619D01*
X41893Y677623D01*
X41894Y677641D01*
X41909Y677778D01*
X41909Y681122D01*
X41890Y681237D01*
X41873Y681353D01*
X41871Y681359D01*
X41870Y681365D01*
X41815Y681468D01*
X41762Y681572D01*
X41757Y681577D01*
X41754Y681582D01*
X41670Y681662D01*
X41586Y681745D01*
X41580Y681748D01*
X41576Y681752D01*
X41559Y681760D01*
X41439Y681826D01*
X39389Y682675D01*
X36245Y685819D01*
X34543Y689927D01*
X34543Y694373D01*
X36245Y698481D01*
X39389Y701625D01*
X43497Y703327D01*
X47943Y703327D01*
X52051Y701625D01*
X55195Y698481D01*
X56044Y696431D01*
X56106Y696331D01*
X56166Y696231D01*
X56171Y696227D01*
X56174Y696222D01*
X56265Y696147D01*
X56353Y696071D01*
X56359Y696069D01*
X56364Y696065D01*
X56472Y696023D01*
X56581Y695979D01*
X56589Y695978D01*
X56593Y695977D01*
X56611Y695976D01*
X56748Y695961D01*
X77778Y695961D01*
X96606Y677134D01*
X96679Y677081D01*
X96749Y677021D01*
X96779Y677009D01*
X96805Y676990D01*
X96892Y676963D01*
X96977Y676929D01*
X97018Y676925D01*
X97040Y676918D01*
X97073Y676919D01*
X97144Y676911D01*
X245756Y676911D01*
X245846Y676925D01*
X245937Y676933D01*
X245967Y676945D01*
X245999Y676950D01*
X246080Y676993D01*
X246164Y677029D01*
X246196Y677055D01*
X246216Y677066D01*
X246239Y677089D01*
X246294Y677134D01*
X258772Y689611D01*
X326792Y689611D01*
X326907Y689630D01*
X327023Y689647D01*
X327029Y689649D01*
X327035Y689650D01*
X327138Y689705D01*
X327242Y689758D01*
X327247Y689763D01*
X327252Y689766D01*
X327332Y689850D01*
X327415Y689934D01*
X327418Y689940D01*
X327422Y689944D01*
X327430Y689961D01*
X327496Y690081D01*
X328345Y692131D01*
X331489Y695275D01*
X335597Y696977D01*
X340043Y696977D01*
X342094Y696127D01*
X342207Y696101D01*
X342321Y696072D01*
X342327Y696073D01*
X342333Y696071D01*
X342450Y696082D01*
X342566Y696091D01*
X342572Y696094D01*
X342578Y696094D01*
X342686Y696142D01*
X342792Y696188D01*
X342798Y696192D01*
X342803Y696194D01*
X342816Y696207D01*
X342923Y696292D01*
X349026Y702396D01*
X351482Y704851D01*
X489258Y704851D01*
X574010Y620099D01*
X574068Y620058D01*
X574120Y620008D01*
X574167Y619986D01*
X574209Y619956D01*
X574278Y619935D01*
X574343Y619905D01*
X574395Y619899D01*
X574445Y619884D01*
X574516Y619885D01*
X574587Y619878D01*
X574638Y619889D01*
X574690Y619890D01*
X574758Y619915D01*
X574828Y619930D01*
X574872Y619956D01*
X574921Y619974D01*
X574977Y620019D01*
X575039Y620056D01*
X575073Y620096D01*
X575113Y620128D01*
X575152Y620188D01*
X575199Y620243D01*
X575218Y620291D01*
X575246Y620335D01*
X575264Y620404D01*
X575291Y620471D01*
X575299Y620542D01*
X575307Y620574D01*
X575305Y620597D01*
X575309Y620638D01*
X575309Y649278D01*
X577764Y651734D01*
X577765Y651734D01*
X590242Y664211D01*
X631498Y664211D01*
X640928Y654782D01*
X641001Y654729D01*
X641071Y654669D01*
X641101Y654657D01*
X641127Y654638D01*
X641214Y654611D01*
X641299Y654577D01*
X641340Y654573D01*
X641362Y654566D01*
X641395Y654567D01*
X641466Y654559D01*
X643774Y654559D01*
X643864Y654573D01*
X643955Y654581D01*
X643985Y654593D01*
X644017Y654598D01*
X644098Y654641D01*
X644182Y654677D01*
X644214Y654703D01*
X644234Y654714D01*
X644257Y654737D01*
X644312Y654782D01*
X696891Y707360D01*
X696932Y707418D01*
X696982Y707470D01*
X697004Y707517D01*
X697034Y707559D01*
X697055Y707628D01*
X697085Y707693D01*
X697091Y707745D01*
X697106Y707795D01*
X697105Y707866D01*
X697112Y707937D01*
X697101Y707988D01*
X697100Y708040D01*
X697075Y708108D01*
X697060Y708178D01*
X697034Y708223D01*
X697016Y708271D01*
X696971Y708327D01*
X696934Y708389D01*
X696894Y708423D01*
X696862Y708463D01*
X696802Y708502D01*
X696747Y708549D01*
X696699Y708568D01*
X696655Y708596D01*
X696586Y708614D01*
X696519Y708641D01*
X696448Y708649D01*
X696416Y708657D01*
X696393Y708655D01*
X696352Y708659D01*
X3302Y708659D01*
X3282Y708656D01*
X3263Y708658D01*
X3161Y708636D01*
X3059Y708620D01*
X3042Y708610D01*
X3022Y708606D01*
X2933Y708553D01*
X2842Y708504D01*
X2828Y708490D01*
X2811Y708480D01*
X2744Y708401D01*
X2672Y708326D01*
X2664Y708308D01*
X2651Y708293D01*
X2612Y708197D01*
X2569Y708103D01*
X2567Y708083D01*
X2559Y708065D01*
X2541Y707898D01*
X2541Y3302D01*
X2544Y3282D01*
X2542Y3263D01*
X2564Y3161D01*
X2580Y3059D01*
X2590Y3042D01*
X2594Y3022D01*
X2647Y2933D01*
X2696Y2842D01*
X2710Y2828D01*
X2720Y2811D01*
X2799Y2744D01*
X2874Y2672D01*
X2892Y2664D01*
X2907Y2651D01*
X3003Y2612D01*
X3097Y2569D01*
X3117Y2567D01*
X3135Y2559D01*
X3302Y2541D01*
X923798Y2541D01*
X923818Y2544D01*
G37*
%LPC*%
G36*
X23822Y300989D02*
X23822Y300989D01*
X8889Y315922D01*
X8889Y566728D01*
X33958Y591797D01*
X34026Y591892D01*
X34096Y591985D01*
X34097Y591991D01*
X34101Y591997D01*
X34135Y592108D01*
X34172Y592219D01*
X34172Y592226D01*
X34173Y592232D01*
X34170Y592348D01*
X34169Y592465D01*
X34167Y592472D01*
X34167Y592477D01*
X34161Y592495D01*
X34123Y592626D01*
X33273Y594677D01*
X33273Y599123D01*
X34975Y603231D01*
X38119Y606375D01*
X40169Y607224D01*
X40269Y607286D01*
X40369Y607346D01*
X40373Y607351D01*
X40378Y607354D01*
X40453Y607445D01*
X40529Y607533D01*
X40531Y607539D01*
X40535Y607544D01*
X40577Y607652D01*
X40621Y607761D01*
X40622Y607769D01*
X40623Y607773D01*
X40624Y607791D01*
X40639Y607928D01*
X40639Y611272D01*
X40621Y611386D01*
X40603Y611503D01*
X40601Y611509D01*
X40600Y611515D01*
X40545Y611618D01*
X40492Y611722D01*
X40487Y611727D01*
X40484Y611732D01*
X40400Y611812D01*
X40316Y611895D01*
X40310Y611898D01*
X40306Y611902D01*
X40289Y611910D01*
X40169Y611976D01*
X38119Y612825D01*
X34975Y615969D01*
X33273Y620077D01*
X33273Y624523D01*
X34975Y628631D01*
X38119Y631775D01*
X42227Y633477D01*
X46673Y633477D01*
X50781Y631775D01*
X53925Y628631D01*
X55627Y624523D01*
X55627Y620077D01*
X53925Y615969D01*
X50781Y612825D01*
X48731Y611976D01*
X48631Y611914D01*
X48531Y611854D01*
X48527Y611849D01*
X48522Y611846D01*
X48447Y611755D01*
X48371Y611667D01*
X48369Y611661D01*
X48365Y611656D01*
X48323Y611548D01*
X48279Y611439D01*
X48278Y611431D01*
X48277Y611427D01*
X48276Y611409D01*
X48261Y611272D01*
X48261Y607928D01*
X48280Y607813D01*
X48297Y607697D01*
X48299Y607691D01*
X48300Y607685D01*
X48355Y607582D01*
X48408Y607478D01*
X48413Y607473D01*
X48416Y607468D01*
X48500Y607388D01*
X48584Y607305D01*
X48590Y607302D01*
X48594Y607298D01*
X48611Y607290D01*
X48731Y607224D01*
X50781Y606375D01*
X53925Y603231D01*
X55627Y599123D01*
X55627Y594677D01*
X53925Y590569D01*
X50781Y587425D01*
X46673Y585723D01*
X42227Y585723D01*
X40176Y586573D01*
X40063Y586599D01*
X39949Y586628D01*
X39943Y586627D01*
X39937Y586629D01*
X39820Y586618D01*
X39704Y586609D01*
X39698Y586606D01*
X39692Y586606D01*
X39584Y586558D01*
X39478Y586512D01*
X39472Y586508D01*
X39467Y586506D01*
X39454Y586493D01*
X39347Y586408D01*
X16734Y563794D01*
X16681Y563721D01*
X16621Y563651D01*
X16609Y563621D01*
X16590Y563595D01*
X16563Y563508D01*
X16529Y563423D01*
X16525Y563382D01*
X16518Y563360D01*
X16519Y563327D01*
X16511Y563256D01*
X16511Y319394D01*
X16525Y319304D01*
X16533Y319213D01*
X16545Y319183D01*
X16550Y319151D01*
X16593Y319070D01*
X16629Y318986D01*
X16655Y318954D01*
X16666Y318934D01*
X16689Y318911D01*
X16734Y318856D01*
X26756Y308834D01*
X26829Y308781D01*
X26899Y308721D01*
X26929Y308709D01*
X26955Y308690D01*
X27042Y308663D01*
X27127Y308629D01*
X27168Y308625D01*
X27190Y308618D01*
X27223Y308619D01*
X27294Y308611D01*
X475626Y308611D01*
X475716Y308625D01*
X475807Y308633D01*
X475837Y308645D01*
X475869Y308650D01*
X475950Y308693D01*
X476034Y308729D01*
X476066Y308755D01*
X476086Y308766D01*
X476109Y308789D01*
X476164Y308834D01*
X568497Y401166D01*
X568509Y401183D01*
X568524Y401195D01*
X568581Y401282D01*
X568641Y401366D01*
X568647Y401385D01*
X568657Y401402D01*
X568683Y401502D01*
X568713Y401601D01*
X568713Y401621D01*
X568718Y401641D01*
X568709Y401744D01*
X568707Y401847D01*
X568700Y401866D01*
X568698Y401886D01*
X568658Y401981D01*
X568622Y402078D01*
X568610Y402094D01*
X568602Y402112D01*
X568497Y402243D01*
X568225Y402515D01*
X567181Y405036D01*
X567181Y407764D01*
X568225Y410285D01*
X570155Y412215D01*
X572676Y413259D01*
X585564Y413259D01*
X588085Y412215D01*
X589866Y410434D01*
X589940Y410381D01*
X590009Y410321D01*
X590040Y410309D01*
X590066Y410290D01*
X590153Y410263D01*
X590238Y410229D01*
X590279Y410225D01*
X590301Y410218D01*
X590333Y410219D01*
X590404Y410211D01*
X606098Y410211D01*
X608554Y407756D01*
X608554Y407755D01*
X624817Y391492D01*
X624912Y391424D01*
X625005Y391354D01*
X625011Y391353D01*
X625017Y391349D01*
X625128Y391315D01*
X625239Y391278D01*
X625246Y391278D01*
X625252Y391277D01*
X625368Y391280D01*
X625485Y391281D01*
X625492Y391283D01*
X625497Y391283D01*
X625515Y391289D01*
X625646Y391327D01*
X627697Y392177D01*
X632143Y392177D01*
X636251Y390475D01*
X639395Y387331D01*
X641097Y383223D01*
X641097Y378777D01*
X640247Y376726D01*
X640221Y376613D01*
X640192Y376499D01*
X640193Y376493D01*
X640191Y376487D01*
X640202Y376370D01*
X640211Y376254D01*
X640214Y376248D01*
X640214Y376242D01*
X640262Y376134D01*
X640308Y376028D01*
X640312Y376022D01*
X640314Y376017D01*
X640327Y376004D01*
X640412Y375897D01*
X656675Y359634D01*
X656749Y359581D01*
X656819Y359521D01*
X656849Y359509D01*
X656875Y359490D01*
X656962Y359463D01*
X657047Y359429D01*
X657088Y359425D01*
X657110Y359418D01*
X657142Y359419D01*
X657214Y359411D01*
X678826Y359411D01*
X678916Y359425D01*
X679007Y359433D01*
X679037Y359445D01*
X679069Y359450D01*
X679150Y359493D01*
X679234Y359529D01*
X679266Y359555D01*
X679286Y359566D01*
X679309Y359589D01*
X679364Y359634D01*
X695628Y375897D01*
X695696Y375992D01*
X695766Y376085D01*
X695767Y376091D01*
X695771Y376097D01*
X695805Y376208D01*
X695842Y376319D01*
X695842Y376326D01*
X695843Y376332D01*
X695840Y376448D01*
X695839Y376565D01*
X695837Y376572D01*
X695837Y376577D01*
X695831Y376595D01*
X695793Y376726D01*
X694943Y378777D01*
X694943Y383223D01*
X696645Y387331D01*
X699789Y390475D01*
X703897Y392177D01*
X708343Y392177D01*
X712451Y390475D01*
X715595Y387331D01*
X717297Y383223D01*
X717297Y378777D01*
X716447Y376726D01*
X716421Y376613D01*
X716392Y376499D01*
X716393Y376493D01*
X716391Y376487D01*
X716402Y376370D01*
X716411Y376254D01*
X716414Y376248D01*
X716414Y376242D01*
X716462Y376134D01*
X716508Y376028D01*
X716512Y376022D01*
X716514Y376017D01*
X716527Y376004D01*
X716612Y375897D01*
X783676Y308834D01*
X783749Y308781D01*
X783819Y308721D01*
X783849Y308709D01*
X783875Y308690D01*
X783962Y308663D01*
X784047Y308629D01*
X784088Y308625D01*
X784110Y308618D01*
X784143Y308619D01*
X784214Y308611D01*
X887106Y308611D01*
X887196Y308625D01*
X887287Y308633D01*
X887317Y308645D01*
X887349Y308650D01*
X887430Y308693D01*
X887514Y308729D01*
X887546Y308755D01*
X887566Y308766D01*
X887589Y308789D01*
X887644Y308834D01*
X897551Y318740D01*
X897592Y318798D01*
X897642Y318850D01*
X897664Y318897D01*
X897694Y318939D01*
X897715Y319008D01*
X897745Y319073D01*
X897751Y319125D01*
X897766Y319175D01*
X897765Y319246D01*
X897772Y319317D01*
X897761Y319368D01*
X897760Y319420D01*
X897735Y319488D01*
X897720Y319558D01*
X897694Y319603D01*
X897676Y319651D01*
X897631Y319707D01*
X897594Y319769D01*
X897554Y319803D01*
X897522Y319843D01*
X897462Y319882D01*
X897407Y319929D01*
X897359Y319948D01*
X897315Y319976D01*
X897246Y319994D01*
X897179Y320021D01*
X897108Y320029D01*
X897076Y320037D01*
X897053Y320035D01*
X897012Y320039D01*
X876154Y320039D01*
X876064Y320025D01*
X875973Y320017D01*
X875943Y320005D01*
X875912Y320000D01*
X875831Y319957D01*
X875747Y319921D01*
X875715Y319895D01*
X875694Y319884D01*
X875672Y319861D01*
X875616Y319816D01*
X872791Y316991D01*
X867109Y316991D01*
X863091Y321009D01*
X863091Y326691D01*
X867109Y330709D01*
X872791Y330709D01*
X875616Y327884D01*
X875690Y327831D01*
X875759Y327771D01*
X875789Y327759D01*
X875816Y327740D01*
X875903Y327713D01*
X875988Y327679D01*
X876028Y327675D01*
X876051Y327668D01*
X876083Y327669D01*
X876154Y327661D01*
X893456Y327661D01*
X893546Y327675D01*
X893637Y327683D01*
X893667Y327695D01*
X893699Y327700D01*
X893780Y327743D01*
X893864Y327779D01*
X893896Y327805D01*
X893916Y327816D01*
X893939Y327839D01*
X893994Y327884D01*
X897666Y331556D01*
X897719Y331629D01*
X897779Y331699D01*
X897791Y331729D01*
X897810Y331755D01*
X897837Y331842D01*
X897871Y331927D01*
X897875Y331968D01*
X897882Y331990D01*
X897881Y332023D01*
X897889Y332094D01*
X897889Y366406D01*
X897875Y366496D01*
X897867Y366587D01*
X897855Y366617D01*
X897850Y366649D01*
X897824Y366697D01*
X897824Y366698D01*
X897820Y366704D01*
X897807Y366730D01*
X897771Y366814D01*
X897745Y366846D01*
X897734Y366866D01*
X897711Y366889D01*
X897707Y366893D01*
X897698Y366909D01*
X897688Y366918D01*
X897666Y366944D01*
X878839Y385772D01*
X878839Y432108D01*
X889538Y442808D01*
X889587Y442875D01*
X889588Y442876D01*
X889589Y442878D01*
X889591Y442881D01*
X889651Y442951D01*
X889663Y442981D01*
X889682Y443007D01*
X889709Y443094D01*
X889743Y443179D01*
X889747Y443220D01*
X889754Y443242D01*
X889753Y443275D01*
X889761Y443346D01*
X889761Y445654D01*
X889747Y445744D01*
X889739Y445835D01*
X889727Y445865D01*
X889722Y445897D01*
X889679Y445978D01*
X889643Y446062D01*
X889617Y446094D01*
X889606Y446114D01*
X889583Y446137D01*
X889538Y446192D01*
X867324Y468406D01*
X867251Y468459D01*
X867181Y468519D01*
X867151Y468531D01*
X867125Y468550D01*
X867038Y468577D01*
X866953Y468611D01*
X866912Y468615D01*
X866890Y468622D01*
X866857Y468621D01*
X866786Y468629D01*
X861421Y468629D01*
X861325Y468614D01*
X861228Y468604D01*
X861204Y468594D01*
X861178Y468590D01*
X861092Y468544D01*
X861003Y468504D01*
X860984Y468487D01*
X860960Y468474D01*
X860893Y468404D01*
X860822Y468338D01*
X860809Y468315D01*
X860791Y468296D01*
X860750Y468208D01*
X860703Y468122D01*
X860698Y468097D01*
X860687Y468073D01*
X860677Y467976D01*
X860659Y467880D01*
X860663Y467854D01*
X860660Y467829D01*
X860681Y467733D01*
X860695Y467637D01*
X860707Y467614D01*
X860713Y467588D01*
X860763Y467505D01*
X860807Y467418D01*
X860825Y467399D01*
X860839Y467377D01*
X860913Y467314D01*
X860982Y467246D01*
X861011Y467230D01*
X861026Y467217D01*
X861056Y467205D01*
X861129Y467165D01*
X862311Y466675D01*
X865455Y463531D01*
X867157Y459423D01*
X867157Y454977D01*
X866307Y452926D01*
X866281Y452813D01*
X866252Y452699D01*
X866253Y452693D01*
X866251Y452687D01*
X866262Y452570D01*
X866271Y452454D01*
X866274Y452448D01*
X866274Y452442D01*
X866322Y452334D01*
X866368Y452228D01*
X866372Y452222D01*
X866374Y452217D01*
X866387Y452204D01*
X866472Y452097D01*
X871306Y447264D01*
X873761Y444808D01*
X873761Y376544D01*
X873775Y376454D01*
X873783Y376363D01*
X873795Y376333D01*
X873800Y376301D01*
X873843Y376220D01*
X873879Y376136D01*
X873905Y376104D01*
X873916Y376084D01*
X873939Y376061D01*
X873984Y376006D01*
X892811Y357178D01*
X892811Y342754D01*
X892825Y342664D01*
X892833Y342573D01*
X892845Y342543D01*
X892850Y342512D01*
X892893Y342431D01*
X892929Y342347D01*
X892955Y342315D01*
X892966Y342294D01*
X892989Y342272D01*
X893034Y342216D01*
X895859Y339391D01*
X895859Y333709D01*
X891841Y329691D01*
X886159Y329691D01*
X882141Y333709D01*
X882141Y339391D01*
X884966Y342216D01*
X885019Y342290D01*
X885079Y342359D01*
X885091Y342389D01*
X885110Y342416D01*
X885137Y342503D01*
X885171Y342588D01*
X885175Y342628D01*
X885182Y342651D01*
X885181Y342683D01*
X885189Y342754D01*
X885189Y353706D01*
X885175Y353796D01*
X885167Y353887D01*
X885155Y353917D01*
X885150Y353949D01*
X885107Y354030D01*
X885071Y354114D01*
X885045Y354146D01*
X885034Y354166D01*
X885011Y354189D01*
X884966Y354244D01*
X866139Y373072D01*
X866139Y373515D01*
X866128Y373586D01*
X866126Y373658D01*
X866108Y373707D01*
X866100Y373758D01*
X866066Y373821D01*
X866041Y373889D01*
X866009Y373929D01*
X865984Y373975D01*
X865932Y374025D01*
X865888Y374081D01*
X865844Y374109D01*
X865806Y374145D01*
X865741Y374175D01*
X865681Y374214D01*
X865630Y374226D01*
X865583Y374248D01*
X865512Y374256D01*
X865442Y374274D01*
X865390Y374270D01*
X865339Y374275D01*
X865268Y374260D01*
X865197Y374255D01*
X865149Y374234D01*
X865098Y374223D01*
X865037Y374186D01*
X864971Y374158D01*
X864915Y374113D01*
X864887Y374097D01*
X864872Y374079D01*
X864840Y374053D01*
X862311Y371525D01*
X858203Y369823D01*
X853757Y369823D01*
X849649Y371525D01*
X846505Y374669D01*
X844803Y378777D01*
X844803Y383223D01*
X846505Y387331D01*
X849649Y390475D01*
X853757Y392177D01*
X858203Y392177D01*
X862311Y390475D01*
X864840Y387947D01*
X864898Y387905D01*
X864950Y387855D01*
X864972Y387845D01*
X864974Y387844D01*
X864986Y387839D01*
X864997Y387833D01*
X865039Y387803D01*
X865108Y387782D01*
X865173Y387752D01*
X865225Y387746D01*
X865275Y387731D01*
X865346Y387733D01*
X865417Y387725D01*
X865468Y387736D01*
X865520Y387737D01*
X865588Y387762D01*
X865658Y387777D01*
X865703Y387804D01*
X865751Y387821D01*
X865807Y387866D01*
X865869Y387903D01*
X865903Y387943D01*
X865943Y387975D01*
X865982Y388035D01*
X866029Y388090D01*
X866048Y388138D01*
X866076Y388182D01*
X866094Y388252D01*
X866097Y388259D01*
X866111Y388289D01*
X866112Y388296D01*
X866121Y388318D01*
X866129Y388389D01*
X866137Y388421D01*
X866135Y388444D01*
X866139Y388485D01*
X866139Y441336D01*
X866125Y441426D01*
X866117Y441517D01*
X866105Y441547D01*
X866100Y441579D01*
X866057Y441660D01*
X866021Y441744D01*
X865995Y441776D01*
X865984Y441796D01*
X865961Y441819D01*
X865916Y441874D01*
X861083Y446708D01*
X860988Y446776D01*
X860895Y446846D01*
X860889Y446847D01*
X860884Y446851D01*
X860772Y446885D01*
X860661Y446922D01*
X860654Y446922D01*
X860648Y446923D01*
X860532Y446920D01*
X860415Y446919D01*
X860408Y446917D01*
X860403Y446917D01*
X860385Y446911D01*
X860254Y446873D01*
X858203Y446023D01*
X853757Y446023D01*
X849649Y447725D01*
X846505Y450869D01*
X845656Y452919D01*
X845594Y453019D01*
X845534Y453119D01*
X845529Y453123D01*
X845526Y453128D01*
X845435Y453203D01*
X845347Y453279D01*
X845341Y453281D01*
X845336Y453285D01*
X845228Y453327D01*
X845119Y453371D01*
X845111Y453372D01*
X845107Y453373D01*
X845089Y453374D01*
X844952Y453389D01*
X831448Y453389D01*
X831333Y453370D01*
X831217Y453353D01*
X831211Y453351D01*
X831205Y453350D01*
X831102Y453295D01*
X830998Y453242D01*
X830993Y453237D01*
X830988Y453234D01*
X830908Y453150D01*
X830825Y453066D01*
X830822Y453060D01*
X830818Y453056D01*
X830810Y453039D01*
X830744Y452919D01*
X829895Y450869D01*
X826751Y447725D01*
X822643Y446023D01*
X818197Y446023D01*
X814089Y447725D01*
X810945Y450869D01*
X810096Y452919D01*
X810034Y453019D01*
X809974Y453119D01*
X809969Y453123D01*
X809966Y453128D01*
X809875Y453203D01*
X809787Y453279D01*
X809781Y453281D01*
X809776Y453285D01*
X809668Y453327D01*
X809559Y453371D01*
X809551Y453372D01*
X809547Y453373D01*
X809529Y453374D01*
X809392Y453389D01*
X793348Y453389D01*
X793233Y453370D01*
X793117Y453353D01*
X793111Y453351D01*
X793105Y453350D01*
X793002Y453295D01*
X792898Y453242D01*
X792893Y453237D01*
X792888Y453234D01*
X792808Y453150D01*
X792725Y453066D01*
X792722Y453060D01*
X792718Y453056D01*
X792710Y453039D01*
X792644Y452919D01*
X791795Y450869D01*
X788651Y447725D01*
X784543Y446023D01*
X780097Y446023D01*
X775989Y447725D01*
X772845Y450869D01*
X771143Y454977D01*
X771143Y459423D01*
X772845Y463531D01*
X775989Y466675D01*
X777171Y467165D01*
X777254Y467216D01*
X777340Y467262D01*
X777357Y467280D01*
X777380Y467294D01*
X777442Y467370D01*
X777509Y467440D01*
X777520Y467464D01*
X777537Y467484D01*
X777572Y467575D01*
X777613Y467663D01*
X777615Y467689D01*
X777625Y467713D01*
X777629Y467811D01*
X777640Y467907D01*
X777634Y467933D01*
X777635Y467959D01*
X777608Y468053D01*
X777587Y468148D01*
X777574Y468170D01*
X777567Y468195D01*
X777511Y468275D01*
X777461Y468359D01*
X777441Y468376D01*
X777426Y468397D01*
X777348Y468456D01*
X777274Y468519D01*
X777250Y468529D01*
X777229Y468544D01*
X777137Y468574D01*
X777046Y468611D01*
X777014Y468614D01*
X776995Y468620D01*
X776962Y468620D01*
X776879Y468629D01*
X761354Y468629D01*
X761264Y468615D01*
X761173Y468607D01*
X761143Y468595D01*
X761111Y468590D01*
X761030Y468547D01*
X760946Y468511D01*
X760914Y468485D01*
X760894Y468474D01*
X760871Y468451D01*
X760816Y468406D01*
X754712Y462303D01*
X754644Y462208D01*
X754574Y462115D01*
X754573Y462109D01*
X754569Y462104D01*
X754535Y461992D01*
X754498Y461881D01*
X754498Y461874D01*
X754497Y461868D01*
X754500Y461752D01*
X754501Y461635D01*
X754503Y461628D01*
X754503Y461623D01*
X754509Y461605D01*
X754547Y461474D01*
X755397Y459423D01*
X755397Y454977D01*
X753695Y450869D01*
X750551Y447725D01*
X746443Y446023D01*
X741997Y446023D01*
X737889Y447725D01*
X734745Y450869D01*
X733043Y454977D01*
X733043Y459423D01*
X733893Y461474D01*
X733919Y461587D01*
X733948Y461701D01*
X733947Y461707D01*
X733949Y461713D01*
X733938Y461830D01*
X733929Y461946D01*
X733926Y461952D01*
X733926Y461958D01*
X733878Y462065D01*
X733832Y462172D01*
X733828Y462178D01*
X733826Y462183D01*
X733813Y462196D01*
X733728Y462303D01*
X717464Y478566D01*
X717391Y478619D01*
X717321Y478679D01*
X717291Y478691D01*
X717265Y478710D01*
X717178Y478737D01*
X717093Y478771D01*
X717052Y478775D01*
X717030Y478782D01*
X716997Y478781D01*
X716926Y478789D01*
X619114Y478789D01*
X619024Y478775D01*
X618933Y478767D01*
X618903Y478755D01*
X618871Y478750D01*
X618790Y478707D01*
X618706Y478671D01*
X618674Y478645D01*
X618654Y478634D01*
X618631Y478611D01*
X618576Y478566D01*
X593398Y453389D01*
X590404Y453389D01*
X590314Y453375D01*
X590223Y453367D01*
X590194Y453355D01*
X590162Y453350D01*
X590081Y453307D01*
X589997Y453271D01*
X589965Y453245D01*
X589944Y453234D01*
X589922Y453211D01*
X589866Y453166D01*
X588085Y451385D01*
X585564Y450341D01*
X572676Y450341D01*
X570155Y451385D01*
X568225Y453315D01*
X567181Y455836D01*
X567181Y458564D01*
X567329Y458921D01*
X567351Y459016D01*
X567380Y459109D01*
X567379Y459135D01*
X567385Y459161D01*
X567376Y459257D01*
X567374Y459355D01*
X567365Y459379D01*
X567362Y459405D01*
X567323Y459494D01*
X567289Y459586D01*
X567273Y459606D01*
X567262Y459630D01*
X567196Y459702D01*
X567135Y459778D01*
X567113Y459792D01*
X567096Y459811D01*
X567010Y459858D01*
X566929Y459911D01*
X566903Y459917D01*
X566880Y459930D01*
X566784Y459947D01*
X566690Y459971D01*
X566664Y459969D01*
X566638Y459974D01*
X566542Y459959D01*
X566445Y459952D01*
X566421Y459942D01*
X566395Y459938D01*
X566308Y459894D01*
X566218Y459856D01*
X566193Y459835D01*
X566176Y459826D01*
X566152Y459803D01*
X566087Y459751D01*
X514996Y408660D01*
X514929Y408565D01*
X514859Y408471D01*
X514857Y408465D01*
X514853Y408460D01*
X514819Y408349D01*
X514782Y408237D01*
X514782Y408231D01*
X514781Y408225D01*
X514784Y408108D01*
X514785Y407991D01*
X514787Y407984D01*
X514787Y407979D01*
X514793Y407962D01*
X514831Y407830D01*
X514859Y407764D01*
X514859Y405036D01*
X513815Y402515D01*
X511885Y400585D01*
X509364Y399541D01*
X501766Y399541D01*
X501676Y399527D01*
X501585Y399519D01*
X501555Y399507D01*
X501523Y399502D01*
X501442Y399459D01*
X501358Y399423D01*
X501326Y399397D01*
X501306Y399386D01*
X501283Y399363D01*
X501227Y399318D01*
X481554Y379645D01*
X481554Y379644D01*
X479098Y377189D01*
X463148Y377189D01*
X463033Y377170D01*
X462917Y377153D01*
X462911Y377151D01*
X462905Y377150D01*
X462802Y377095D01*
X462698Y377042D01*
X462693Y377037D01*
X462688Y377034D01*
X462608Y376950D01*
X462525Y376866D01*
X462522Y376860D01*
X462518Y376856D01*
X462510Y376839D01*
X462444Y376719D01*
X461595Y374669D01*
X458451Y371525D01*
X454343Y369823D01*
X449897Y369823D01*
X447846Y370673D01*
X447733Y370699D01*
X447619Y370728D01*
X447613Y370727D01*
X447607Y370729D01*
X447490Y370718D01*
X447374Y370709D01*
X447368Y370706D01*
X447362Y370706D01*
X447254Y370658D01*
X447148Y370612D01*
X447142Y370608D01*
X447137Y370606D01*
X447124Y370593D01*
X447017Y370508D01*
X430754Y354245D01*
X430754Y354244D01*
X428298Y351789D01*
X323542Y351789D01*
X321086Y354244D01*
X304823Y370508D01*
X304728Y370576D01*
X304635Y370646D01*
X304629Y370647D01*
X304623Y370651D01*
X304512Y370685D01*
X304401Y370722D01*
X304394Y370722D01*
X304388Y370723D01*
X304272Y370720D01*
X304155Y370719D01*
X304148Y370717D01*
X304143Y370717D01*
X304125Y370711D01*
X303994Y370673D01*
X301943Y369823D01*
X297497Y369823D01*
X295446Y370673D01*
X295333Y370699D01*
X295219Y370728D01*
X295213Y370727D01*
X295207Y370729D01*
X295090Y370718D01*
X294974Y370709D01*
X294968Y370706D01*
X294962Y370706D01*
X294854Y370658D01*
X294748Y370612D01*
X294742Y370608D01*
X294737Y370606D01*
X294724Y370593D01*
X294617Y370508D01*
X244148Y320039D01*
X36522Y320039D01*
X24129Y332432D01*
X24129Y440998D01*
X26584Y443454D01*
X26585Y443454D01*
X35228Y452097D01*
X35296Y452192D01*
X35366Y452285D01*
X35367Y452291D01*
X35371Y452297D01*
X35405Y452408D01*
X35442Y452519D01*
X35442Y452526D01*
X35443Y452532D01*
X35440Y452648D01*
X35439Y452765D01*
X35437Y452772D01*
X35437Y452777D01*
X35431Y452795D01*
X35393Y452926D01*
X34543Y454977D01*
X34543Y459423D01*
X36245Y463531D01*
X39389Y466675D01*
X41439Y467524D01*
X41539Y467586D01*
X41639Y467646D01*
X41643Y467651D01*
X41648Y467654D01*
X41723Y467745D01*
X41799Y467833D01*
X41801Y467839D01*
X41805Y467844D01*
X41847Y467952D01*
X41891Y468061D01*
X41892Y468069D01*
X41893Y468073D01*
X41894Y468091D01*
X41909Y468228D01*
X41909Y471572D01*
X41890Y471687D01*
X41873Y471803D01*
X41871Y471809D01*
X41870Y471815D01*
X41815Y471918D01*
X41762Y472022D01*
X41757Y472027D01*
X41754Y472032D01*
X41670Y472112D01*
X41586Y472195D01*
X41580Y472198D01*
X41576Y472202D01*
X41559Y472210D01*
X41439Y472276D01*
X39389Y473125D01*
X36245Y476269D01*
X34543Y480377D01*
X34543Y484823D01*
X36245Y488931D01*
X39389Y492075D01*
X43497Y493777D01*
X47943Y493777D01*
X52051Y492075D01*
X55195Y488931D01*
X56897Y484823D01*
X56897Y480377D01*
X55195Y476269D01*
X52051Y473125D01*
X50001Y472276D01*
X49901Y472214D01*
X49801Y472154D01*
X49797Y472149D01*
X49792Y472146D01*
X49717Y472055D01*
X49641Y471967D01*
X49639Y471961D01*
X49635Y471956D01*
X49593Y471848D01*
X49549Y471739D01*
X49548Y471731D01*
X49547Y471727D01*
X49546Y471709D01*
X49531Y471572D01*
X49531Y468228D01*
X49550Y468113D01*
X49567Y467997D01*
X49569Y467991D01*
X49570Y467985D01*
X49625Y467882D01*
X49678Y467778D01*
X49683Y467773D01*
X49686Y467768D01*
X49770Y467688D01*
X49854Y467605D01*
X49860Y467602D01*
X49864Y467598D01*
X49881Y467590D01*
X50001Y467524D01*
X52051Y466675D01*
X55195Y463531D01*
X56897Y459423D01*
X56897Y454977D01*
X55195Y450869D01*
X52051Y447725D01*
X47943Y446023D01*
X43497Y446023D01*
X41446Y446873D01*
X41333Y446899D01*
X41219Y446928D01*
X41213Y446927D01*
X41207Y446929D01*
X41090Y446918D01*
X40974Y446909D01*
X40968Y446906D01*
X40962Y446906D01*
X40854Y446858D01*
X40748Y446812D01*
X40742Y446808D01*
X40737Y446806D01*
X40724Y446793D01*
X40617Y446708D01*
X31974Y438065D01*
X31921Y437991D01*
X31861Y437921D01*
X31849Y437891D01*
X31830Y437865D01*
X31803Y437778D01*
X31769Y437693D01*
X31765Y437652D01*
X31758Y437630D01*
X31759Y437598D01*
X31751Y437526D01*
X31751Y335904D01*
X31765Y335814D01*
X31773Y335723D01*
X31785Y335693D01*
X31790Y335661D01*
X31833Y335580D01*
X31869Y335496D01*
X31895Y335464D01*
X31906Y335444D01*
X31929Y335421D01*
X31974Y335366D01*
X39456Y327884D01*
X39529Y327831D01*
X39599Y327771D01*
X39629Y327759D01*
X39655Y327740D01*
X39742Y327713D01*
X39827Y327679D01*
X39868Y327675D01*
X39890Y327668D01*
X39923Y327669D01*
X39994Y327661D01*
X240676Y327661D01*
X240766Y327675D01*
X240857Y327683D01*
X240887Y327695D01*
X240919Y327700D01*
X241000Y327743D01*
X241084Y327779D01*
X241116Y327805D01*
X241136Y327816D01*
X241159Y327839D01*
X241214Y327884D01*
X289228Y375897D01*
X289296Y375992D01*
X289366Y376085D01*
X289367Y376091D01*
X289371Y376097D01*
X289405Y376208D01*
X289442Y376319D01*
X289442Y376326D01*
X289443Y376332D01*
X289440Y376448D01*
X289439Y376565D01*
X289437Y376572D01*
X289437Y376577D01*
X289431Y376595D01*
X289393Y376726D01*
X288543Y378777D01*
X288543Y383223D01*
X290245Y387331D01*
X293389Y390475D01*
X297497Y392177D01*
X301943Y392177D01*
X306051Y390475D01*
X309195Y387331D01*
X310897Y383223D01*
X310897Y378777D01*
X310047Y376726D01*
X310021Y376613D01*
X309992Y376499D01*
X309993Y376493D01*
X309991Y376487D01*
X310002Y376370D01*
X310011Y376254D01*
X310014Y376248D01*
X310014Y376242D01*
X310062Y376134D01*
X310108Y376028D01*
X310112Y376022D01*
X310114Y376017D01*
X310127Y376004D01*
X310212Y375897D01*
X326476Y359634D01*
X326549Y359581D01*
X326619Y359521D01*
X326649Y359509D01*
X326675Y359490D01*
X326762Y359463D01*
X326847Y359429D01*
X326888Y359425D01*
X326910Y359418D01*
X326943Y359419D01*
X327014Y359411D01*
X424826Y359411D01*
X424916Y359425D01*
X425007Y359433D01*
X425037Y359445D01*
X425069Y359450D01*
X425150Y359493D01*
X425234Y359529D01*
X425266Y359555D01*
X425286Y359566D01*
X425309Y359589D01*
X425365Y359634D01*
X441628Y375897D01*
X441696Y375992D01*
X441766Y376085D01*
X441767Y376091D01*
X441771Y376097D01*
X441805Y376208D01*
X441842Y376319D01*
X441842Y376326D01*
X441843Y376332D01*
X441840Y376448D01*
X441839Y376565D01*
X441837Y376572D01*
X441837Y376577D01*
X441831Y376595D01*
X441793Y376726D01*
X440943Y378777D01*
X440943Y383223D01*
X442645Y387331D01*
X445789Y390475D01*
X449897Y392177D01*
X454343Y392177D01*
X458451Y390475D01*
X461595Y387331D01*
X462444Y385281D01*
X462507Y385180D01*
X462566Y385081D01*
X462571Y385077D01*
X462574Y385072D01*
X462665Y384997D01*
X462753Y384921D01*
X462759Y384919D01*
X462764Y384915D01*
X462872Y384873D01*
X462981Y384829D01*
X462989Y384828D01*
X462993Y384827D01*
X463011Y384826D01*
X463148Y384811D01*
X475626Y384811D01*
X475716Y384825D01*
X475807Y384833D01*
X475837Y384845D01*
X475869Y384850D01*
X475950Y384893D01*
X476034Y384929D01*
X476066Y384955D01*
X476086Y384966D01*
X476109Y384989D01*
X476165Y385034D01*
X492297Y401166D01*
X492309Y401183D01*
X492324Y401195D01*
X492381Y401282D01*
X492441Y401366D01*
X492447Y401385D01*
X492457Y401402D01*
X492483Y401502D01*
X492513Y401601D01*
X492513Y401621D01*
X492518Y401641D01*
X492509Y401744D01*
X492507Y401847D01*
X492500Y401866D01*
X492498Y401886D01*
X492458Y401981D01*
X492422Y402078D01*
X492410Y402094D01*
X492402Y402112D01*
X492297Y402243D01*
X492025Y402515D01*
X490981Y405036D01*
X490981Y407764D01*
X492025Y410285D01*
X493955Y412215D01*
X496476Y413259D01*
X508502Y413259D01*
X508592Y413273D01*
X508683Y413281D01*
X508713Y413293D01*
X508745Y413298D01*
X508825Y413341D01*
X508909Y413377D01*
X508941Y413403D01*
X508962Y413414D01*
X508984Y413437D01*
X509040Y413482D01*
X570897Y475339D01*
X570924Y475376D01*
X570958Y475407D01*
X570995Y475475D01*
X571041Y475538D01*
X571054Y475582D01*
X571076Y475623D01*
X571090Y475699D01*
X571113Y475774D01*
X571112Y475819D01*
X571120Y475865D01*
X571109Y475942D01*
X571107Y476019D01*
X571091Y476063D01*
X571084Y476108D01*
X571049Y476177D01*
X571022Y476250D01*
X570993Y476286D01*
X570973Y476327D01*
X570917Y476382D01*
X570868Y476442D01*
X570830Y476467D01*
X570797Y476499D01*
X570677Y476565D01*
X570662Y476575D01*
X570657Y476577D01*
X570650Y476580D01*
X570155Y476785D01*
X568225Y478715D01*
X567181Y481236D01*
X567181Y483964D01*
X568225Y486485D01*
X570155Y488415D01*
X572676Y489459D01*
X585564Y489459D01*
X588085Y488415D01*
X590015Y486485D01*
X591059Y483964D01*
X591059Y481236D01*
X590015Y478715D01*
X588850Y477550D01*
X588808Y477492D01*
X588759Y477440D01*
X588737Y477393D01*
X588706Y477351D01*
X588685Y477282D01*
X588655Y477217D01*
X588649Y477165D01*
X588634Y477115D01*
X588636Y477044D01*
X588628Y476973D01*
X588639Y476922D01*
X588640Y476870D01*
X588665Y476802D01*
X588680Y476732D01*
X588707Y476687D01*
X588725Y476639D01*
X588770Y476583D01*
X588806Y476521D01*
X588846Y476487D01*
X588879Y476447D01*
X588939Y476408D01*
X588993Y476361D01*
X589042Y476342D01*
X589086Y476314D01*
X589155Y476296D01*
X589222Y476269D01*
X589293Y476261D01*
X589324Y476253D01*
X589347Y476255D01*
X589388Y476251D01*
X592466Y476251D01*
X592556Y476265D01*
X592647Y476273D01*
X592677Y476285D01*
X592709Y476290D01*
X592790Y476333D01*
X592874Y476369D01*
X592906Y476395D01*
X592926Y476406D01*
X592949Y476429D01*
X593004Y476474D01*
X619428Y502897D01*
X619496Y502992D01*
X619506Y503005D01*
X619515Y503015D01*
X619519Y503023D01*
X619566Y503085D01*
X619567Y503091D01*
X619571Y503097D01*
X619605Y503208D01*
X619607Y503211D01*
X619619Y503238D01*
X619621Y503256D01*
X619642Y503319D01*
X619642Y503326D01*
X619643Y503332D01*
X619641Y503435D01*
X619646Y503483D01*
X619640Y503512D01*
X619639Y503565D01*
X619637Y503572D01*
X619637Y503577D01*
X619631Y503595D01*
X619595Y503719D01*
X619594Y503723D01*
X619593Y503724D01*
X619593Y503726D01*
X618743Y505777D01*
X618743Y510223D01*
X620445Y514331D01*
X623589Y517475D01*
X627697Y519177D01*
X632143Y519177D01*
X636251Y517475D01*
X639395Y514331D01*
X641097Y510223D01*
X641097Y505777D01*
X639395Y501669D01*
X636251Y498525D01*
X632143Y496823D01*
X627697Y496823D01*
X625646Y497673D01*
X625533Y497699D01*
X625419Y497728D01*
X625413Y497727D01*
X625407Y497729D01*
X625290Y497718D01*
X625174Y497709D01*
X625168Y497706D01*
X625162Y497706D01*
X625054Y497658D01*
X624948Y497612D01*
X624942Y497608D01*
X624937Y497606D01*
X624924Y497593D01*
X624817Y497508D01*
X615019Y487710D01*
X614978Y487652D01*
X614928Y487600D01*
X614906Y487553D01*
X614876Y487511D01*
X614855Y487442D01*
X614825Y487377D01*
X614819Y487325D01*
X614804Y487275D01*
X614805Y487204D01*
X614798Y487133D01*
X614809Y487082D01*
X614810Y487030D01*
X614835Y486962D01*
X614850Y486892D01*
X614876Y486848D01*
X614894Y486799D01*
X614939Y486743D01*
X614976Y486681D01*
X615016Y486647D01*
X615048Y486607D01*
X615108Y486568D01*
X615163Y486521D01*
X615211Y486502D01*
X615255Y486474D01*
X615324Y486456D01*
X615391Y486429D01*
X615462Y486421D01*
X615494Y486413D01*
X615517Y486415D01*
X615558Y486411D01*
X720398Y486411D01*
X722854Y483956D01*
X739117Y467692D01*
X739212Y467624D01*
X739305Y467554D01*
X739311Y467553D01*
X739317Y467549D01*
X739428Y467515D01*
X739539Y467478D01*
X739546Y467478D01*
X739552Y467477D01*
X739668Y467480D01*
X739785Y467481D01*
X739792Y467483D01*
X739797Y467483D01*
X739815Y467489D01*
X739946Y467527D01*
X741997Y468377D01*
X746443Y468377D01*
X748494Y467527D01*
X748607Y467501D01*
X748721Y467472D01*
X748727Y467473D01*
X748733Y467471D01*
X748850Y467482D01*
X748966Y467491D01*
X748972Y467494D01*
X748978Y467494D01*
X749086Y467542D01*
X749192Y467588D01*
X749198Y467592D01*
X749203Y467594D01*
X749216Y467607D01*
X749323Y467692D01*
X755426Y473796D01*
X757882Y476251D01*
X870258Y476251D01*
X894928Y451582D01*
X895001Y451529D01*
X895071Y451469D01*
X895101Y451457D01*
X895127Y451438D01*
X895214Y451411D01*
X895299Y451377D01*
X895340Y451373D01*
X895362Y451366D01*
X895395Y451367D01*
X895466Y451359D01*
X899461Y451359D01*
X902940Y447880D01*
X902998Y447838D01*
X903050Y447789D01*
X903097Y447767D01*
X903139Y447736D01*
X903208Y447715D01*
X903273Y447685D01*
X903325Y447679D01*
X903375Y447664D01*
X903446Y447666D01*
X903517Y447658D01*
X903568Y447669D01*
X903620Y447670D01*
X903688Y447695D01*
X903758Y447710D01*
X903803Y447737D01*
X903851Y447755D01*
X903907Y447800D01*
X903969Y447836D01*
X904003Y447876D01*
X904043Y447909D01*
X904082Y447969D01*
X904129Y448023D01*
X904148Y448072D01*
X904176Y448115D01*
X904194Y448185D01*
X904221Y448252D01*
X904229Y448323D01*
X904237Y448354D01*
X904235Y448377D01*
X904239Y448418D01*
X904239Y550556D01*
X904225Y550646D01*
X904217Y550737D01*
X904205Y550767D01*
X904200Y550799D01*
X904157Y550880D01*
X904121Y550964D01*
X904095Y550996D01*
X904084Y551016D01*
X904061Y551039D01*
X904016Y551094D01*
X811444Y643666D01*
X811371Y643719D01*
X811301Y643779D01*
X811271Y643791D01*
X811245Y643810D01*
X811158Y643837D01*
X811073Y643871D01*
X811032Y643875D01*
X811010Y643882D01*
X810977Y643881D01*
X810906Y643889D01*
X725024Y643889D01*
X724934Y643875D01*
X724843Y643867D01*
X724814Y643855D01*
X724782Y643850D01*
X724701Y643807D01*
X724617Y643771D01*
X724585Y643745D01*
X724564Y643734D01*
X724542Y643711D01*
X724486Y643666D01*
X721661Y640841D01*
X717666Y640841D01*
X717576Y640827D01*
X717485Y640819D01*
X717455Y640807D01*
X717423Y640802D01*
X717342Y640759D01*
X717258Y640723D01*
X717226Y640697D01*
X717206Y640686D01*
X717183Y640663D01*
X717127Y640618D01*
X694998Y618489D01*
X648824Y618489D01*
X648734Y618475D01*
X648643Y618467D01*
X648614Y618455D01*
X648582Y618450D01*
X648501Y618407D01*
X648417Y618371D01*
X648385Y618345D01*
X648364Y618334D01*
X648342Y618311D01*
X648286Y618266D01*
X645461Y615441D01*
X639779Y615441D01*
X635761Y619459D01*
X635761Y625141D01*
X639779Y629159D01*
X645461Y629159D01*
X648286Y626334D01*
X648360Y626281D01*
X648429Y626221D01*
X648460Y626209D01*
X648486Y626190D01*
X648573Y626163D01*
X648658Y626129D01*
X648699Y626125D01*
X648721Y626118D01*
X648753Y626119D01*
X648824Y626111D01*
X691526Y626111D01*
X691616Y626125D01*
X691707Y626133D01*
X691737Y626145D01*
X691769Y626150D01*
X691850Y626193D01*
X691934Y626229D01*
X691966Y626255D01*
X691986Y626266D01*
X692009Y626289D01*
X692064Y626334D01*
X711738Y646007D01*
X711791Y646081D01*
X711851Y646151D01*
X711863Y646181D01*
X711882Y646207D01*
X711909Y646294D01*
X711928Y646341D01*
X711933Y646353D01*
X711933Y646356D01*
X711943Y646379D01*
X711947Y646420D01*
X711954Y646442D01*
X711953Y646474D01*
X711961Y646546D01*
X711961Y650541D01*
X715979Y654559D01*
X721661Y654559D01*
X724486Y651734D01*
X724560Y651681D01*
X724629Y651621D01*
X724660Y651609D01*
X724686Y651590D01*
X724773Y651563D01*
X724858Y651529D01*
X724899Y651525D01*
X724921Y651518D01*
X724953Y651519D01*
X725024Y651511D01*
X814378Y651511D01*
X911861Y554028D01*
X911861Y322272D01*
X890578Y300989D01*
X780742Y300989D01*
X711223Y370508D01*
X711128Y370576D01*
X711035Y370646D01*
X711029Y370647D01*
X711023Y370651D01*
X710912Y370685D01*
X710801Y370722D01*
X710794Y370722D01*
X710788Y370723D01*
X710672Y370720D01*
X710555Y370719D01*
X710548Y370717D01*
X710543Y370717D01*
X710525Y370711D01*
X710394Y370673D01*
X708343Y369823D01*
X703897Y369823D01*
X701846Y370673D01*
X701733Y370699D01*
X701619Y370728D01*
X701613Y370727D01*
X701607Y370729D01*
X701490Y370718D01*
X701374Y370709D01*
X701368Y370706D01*
X701362Y370706D01*
X701254Y370658D01*
X701148Y370612D01*
X701142Y370608D01*
X701137Y370606D01*
X701124Y370593D01*
X701017Y370508D01*
X684754Y354244D01*
X682298Y351789D01*
X653742Y351789D01*
X651286Y354244D01*
X651286Y354245D01*
X635023Y370508D01*
X634928Y370576D01*
X634835Y370646D01*
X634829Y370647D01*
X634823Y370651D01*
X634712Y370685D01*
X634601Y370722D01*
X634594Y370722D01*
X634588Y370723D01*
X634472Y370720D01*
X634355Y370719D01*
X634348Y370717D01*
X634343Y370717D01*
X634325Y370711D01*
X634194Y370673D01*
X632143Y369823D01*
X627697Y369823D01*
X623589Y371525D01*
X620445Y374669D01*
X618743Y378777D01*
X618743Y383223D01*
X619593Y385274D01*
X619619Y385387D01*
X619648Y385501D01*
X619647Y385507D01*
X619649Y385513D01*
X619638Y385630D01*
X619629Y385746D01*
X619626Y385752D01*
X619626Y385758D01*
X619578Y385866D01*
X619532Y385972D01*
X619528Y385978D01*
X619526Y385983D01*
X619513Y385996D01*
X619428Y386103D01*
X603165Y402366D01*
X603091Y402419D01*
X603021Y402479D01*
X602991Y402491D01*
X602965Y402510D01*
X602878Y402537D01*
X602793Y402571D01*
X602752Y402575D01*
X602730Y402582D01*
X602698Y402581D01*
X602626Y402589D01*
X590404Y402589D01*
X590314Y402575D01*
X590223Y402567D01*
X590194Y402555D01*
X590162Y402550D01*
X590081Y402507D01*
X589997Y402471D01*
X589965Y402445D01*
X589944Y402434D01*
X589922Y402411D01*
X589866Y402366D01*
X588085Y400585D01*
X585564Y399541D01*
X577966Y399541D01*
X577876Y399527D01*
X577785Y399519D01*
X577755Y399507D01*
X577723Y399502D01*
X577642Y399459D01*
X577558Y399423D01*
X577526Y399397D01*
X577506Y399386D01*
X577483Y399363D01*
X577427Y399318D01*
X481554Y303444D01*
X479098Y300989D01*
X23822Y300989D01*
G37*
%LPD*%
%LPC*%
G36*
X119697Y331723D02*
X119697Y331723D01*
X115589Y333425D01*
X112445Y336569D01*
X110743Y340677D01*
X110743Y345123D01*
X112445Y349231D01*
X115589Y352375D01*
X119697Y354077D01*
X124143Y354077D01*
X128251Y352375D01*
X131395Y349231D01*
X132244Y347181D01*
X132306Y347081D01*
X132366Y346981D01*
X132371Y346977D01*
X132374Y346972D01*
X132465Y346897D01*
X132553Y346821D01*
X132559Y346819D01*
X132564Y346815D01*
X132672Y346773D01*
X132781Y346729D01*
X132789Y346728D01*
X132793Y346727D01*
X132811Y346726D01*
X132948Y346711D01*
X148992Y346711D01*
X149107Y346730D01*
X149223Y346747D01*
X149229Y346749D01*
X149235Y346750D01*
X149338Y346805D01*
X149442Y346858D01*
X149447Y346863D01*
X149452Y346866D01*
X149532Y346950D01*
X149615Y347034D01*
X149618Y347040D01*
X149622Y347044D01*
X149630Y347061D01*
X149696Y347181D01*
X150545Y349231D01*
X153689Y352375D01*
X155739Y353224D01*
X155839Y353286D01*
X155939Y353346D01*
X155943Y353351D01*
X155948Y353354D01*
X156023Y353445D01*
X156099Y353533D01*
X156101Y353539D01*
X156105Y353544D01*
X156147Y353652D01*
X156191Y353761D01*
X156192Y353769D01*
X156193Y353773D01*
X156194Y353791D01*
X156209Y353928D01*
X156209Y382578D01*
X173766Y400136D01*
X173810Y400197D01*
X173858Y400246D01*
X173865Y400263D01*
X173879Y400279D01*
X173891Y400309D01*
X173910Y400335D01*
X173932Y400406D01*
X173961Y400469D01*
X173963Y400488D01*
X173971Y400507D01*
X173975Y400548D01*
X173982Y400570D01*
X173981Y400603D01*
X173989Y400674D01*
X173989Y436256D01*
X173975Y436346D01*
X173967Y436437D01*
X173955Y436467D01*
X173950Y436499D01*
X173907Y436580D01*
X173871Y436664D01*
X173845Y436696D01*
X173834Y436716D01*
X173811Y436739D01*
X173766Y436795D01*
X150299Y460262D01*
X150283Y460273D01*
X150271Y460289D01*
X150183Y460345D01*
X150099Y460405D01*
X150080Y460411D01*
X150064Y460422D01*
X149963Y460447D01*
X149864Y460478D01*
X149844Y460477D01*
X149825Y460482D01*
X149722Y460474D01*
X149618Y460471D01*
X149600Y460464D01*
X149580Y460463D01*
X149485Y460422D01*
X149387Y460387D01*
X149372Y460374D01*
X149354Y460366D01*
X149307Y460329D01*
X145123Y458596D01*
X121577Y458596D01*
X117422Y460317D01*
X114242Y463497D01*
X112521Y467652D01*
X112521Y472148D01*
X114242Y476303D01*
X117422Y479483D01*
X121577Y481204D01*
X128778Y481204D01*
X128798Y481207D01*
X128817Y481205D01*
X128919Y481227D01*
X129021Y481243D01*
X129038Y481253D01*
X129058Y481257D01*
X129147Y481310D01*
X129238Y481359D01*
X129252Y481373D01*
X129269Y481383D01*
X129336Y481462D01*
X129408Y481537D01*
X129416Y481555D01*
X129429Y481570D01*
X129468Y481666D01*
X129511Y481760D01*
X129513Y481780D01*
X129521Y481798D01*
X129539Y481965D01*
X129539Y495608D01*
X163200Y529269D01*
X163266Y529362D01*
X163338Y529457D01*
X163339Y529464D01*
X163343Y529469D01*
X163377Y529579D01*
X163414Y529691D01*
X163414Y529698D01*
X163415Y529704D01*
X163412Y529820D01*
X163411Y529937D01*
X163409Y529944D01*
X163409Y529950D01*
X163403Y529967D01*
X163365Y530098D01*
X162813Y531429D01*
X162813Y535371D01*
X163365Y536702D01*
X163391Y536815D01*
X163420Y536929D01*
X163419Y536935D01*
X163421Y536941D01*
X163410Y537058D01*
X163401Y537174D01*
X163398Y537180D01*
X163398Y537186D01*
X163350Y537292D01*
X163304Y537400D01*
X163300Y537406D01*
X163298Y537411D01*
X163285Y537424D01*
X163200Y537531D01*
X145964Y554766D01*
X145891Y554819D01*
X145821Y554879D01*
X145791Y554891D01*
X145765Y554910D01*
X145678Y554937D01*
X145593Y554971D01*
X145552Y554975D01*
X145530Y554982D01*
X145497Y554981D01*
X145426Y554989D01*
X106173Y554989D01*
X106058Y554970D01*
X105942Y554953D01*
X105937Y554951D01*
X105930Y554950D01*
X105828Y554895D01*
X105723Y554842D01*
X105719Y554837D01*
X105713Y554834D01*
X105633Y554750D01*
X105551Y554666D01*
X105547Y554660D01*
X105544Y554656D01*
X105536Y554639D01*
X105470Y554519D01*
X104919Y553188D01*
X102132Y550401D01*
X98491Y548893D01*
X94549Y548893D01*
X90908Y550401D01*
X88121Y553188D01*
X86613Y556829D01*
X86613Y560771D01*
X88121Y564412D01*
X90908Y567199D01*
X94549Y568707D01*
X98491Y568707D01*
X102132Y567199D01*
X104919Y564412D01*
X105470Y563081D01*
X105531Y562981D01*
X105591Y562881D01*
X105596Y562877D01*
X105599Y562872D01*
X105689Y562797D01*
X105778Y562721D01*
X105784Y562719D01*
X105789Y562715D01*
X105897Y562673D01*
X106006Y562629D01*
X106014Y562628D01*
X106019Y562627D01*
X106037Y562626D01*
X106173Y562611D01*
X145426Y562611D01*
X145516Y562625D01*
X145607Y562633D01*
X145637Y562645D01*
X145669Y562650D01*
X145750Y562693D01*
X145834Y562729D01*
X145866Y562755D01*
X145886Y562766D01*
X145909Y562789D01*
X145964Y562834D01*
X155986Y572856D01*
X156039Y572929D01*
X156099Y572999D01*
X156111Y573029D01*
X156130Y573055D01*
X156157Y573142D01*
X156191Y573227D01*
X156195Y573268D01*
X156202Y573290D01*
X156201Y573323D01*
X156209Y573394D01*
X156209Y616096D01*
X156195Y616186D01*
X156187Y616277D01*
X156175Y616307D01*
X156170Y616338D01*
X156144Y616387D01*
X156143Y616388D01*
X156142Y616391D01*
X156127Y616419D01*
X156091Y616503D01*
X156065Y616535D01*
X156054Y616556D01*
X156031Y616578D01*
X156026Y616584D01*
X156017Y616599D01*
X156008Y616608D01*
X155986Y616634D01*
X153161Y619459D01*
X153161Y625141D01*
X157179Y629159D01*
X162861Y629159D01*
X166879Y625141D01*
X166879Y619459D01*
X164054Y616634D01*
X164010Y616573D01*
X163975Y616536D01*
X163969Y616523D01*
X163941Y616491D01*
X163929Y616461D01*
X163910Y616434D01*
X163883Y616347D01*
X163849Y616262D01*
X163845Y616222D01*
X163838Y616199D01*
X163839Y616167D01*
X163831Y616096D01*
X163831Y591159D01*
X163842Y591088D01*
X163844Y591016D01*
X163862Y590967D01*
X163870Y590916D01*
X163904Y590853D01*
X163929Y590785D01*
X163961Y590745D01*
X163986Y590699D01*
X164038Y590649D01*
X164082Y590593D01*
X164126Y590565D01*
X164164Y590529D01*
X164229Y590499D01*
X164289Y590460D01*
X164340Y590448D01*
X164387Y590426D01*
X164458Y590418D01*
X164528Y590400D01*
X164580Y590404D01*
X164631Y590399D01*
X164702Y590414D01*
X164773Y590419D01*
X164821Y590440D01*
X164872Y590451D01*
X164933Y590488D01*
X164999Y590516D01*
X165055Y590560D01*
X165083Y590577D01*
X165098Y590595D01*
X165130Y590620D01*
X167108Y592599D01*
X170749Y594107D01*
X174691Y594107D01*
X178332Y592599D01*
X181119Y589812D01*
X182627Y586171D01*
X182627Y582229D01*
X182075Y580898D01*
X182049Y580785D01*
X182020Y580671D01*
X182021Y580665D01*
X182019Y580659D01*
X182030Y580542D01*
X182039Y580426D01*
X182042Y580420D01*
X182042Y580414D01*
X182090Y580306D01*
X182136Y580200D01*
X182140Y580194D01*
X182142Y580189D01*
X182155Y580175D01*
X182240Y580069D01*
X192491Y569819D01*
X194395Y567914D01*
X194396Y567914D01*
X196851Y565458D01*
X196851Y544938D01*
X196862Y544868D01*
X196864Y544796D01*
X196882Y544747D01*
X196890Y544695D01*
X196924Y544632D01*
X196949Y544565D01*
X196981Y544524D01*
X197006Y544478D01*
X197058Y544429D01*
X197102Y544373D01*
X197146Y544345D01*
X197184Y544309D01*
X197249Y544279D01*
X197309Y544240D01*
X197360Y544227D01*
X197407Y544205D01*
X197478Y544197D01*
X197548Y544180D01*
X197600Y544184D01*
X197651Y544178D01*
X197722Y544193D01*
X197793Y544199D01*
X197841Y544219D01*
X197892Y544230D01*
X197953Y544267D01*
X198019Y544295D01*
X198075Y544340D01*
X198103Y544356D01*
X198118Y544374D01*
X198150Y544400D01*
X199166Y545416D01*
X199219Y545490D01*
X199279Y545559D01*
X199291Y545589D01*
X199310Y545616D01*
X199337Y545703D01*
X199371Y545788D01*
X199375Y545829D01*
X199382Y545851D01*
X199381Y545883D01*
X199389Y545954D01*
X199389Y566728D01*
X239722Y607061D01*
X268278Y607061D01*
X270734Y604606D01*
X270734Y604605D01*
X278862Y596477D01*
X278878Y596466D01*
X278890Y596450D01*
X278978Y596394D01*
X279061Y596334D01*
X279080Y596328D01*
X279097Y596317D01*
X279198Y596292D01*
X279297Y596262D01*
X279316Y596262D01*
X279336Y596257D01*
X279439Y596265D01*
X279542Y596268D01*
X279561Y596275D01*
X279581Y596276D01*
X279676Y596317D01*
X279773Y596352D01*
X279789Y596365D01*
X279807Y596373D01*
X279938Y596477D01*
X296872Y613411D01*
X326792Y613411D01*
X326907Y613430D01*
X327023Y613447D01*
X327029Y613449D01*
X327035Y613450D01*
X327138Y613505D01*
X327242Y613558D01*
X327247Y613563D01*
X327252Y613566D01*
X327331Y613649D01*
X327415Y613734D01*
X327418Y613740D01*
X327422Y613744D01*
X327430Y613761D01*
X327496Y613881D01*
X328345Y615931D01*
X331489Y619075D01*
X335597Y620777D01*
X340043Y620777D01*
X344151Y619075D01*
X347295Y615931D01*
X348997Y611823D01*
X348997Y607377D01*
X347295Y603269D01*
X344151Y600125D01*
X340043Y598423D01*
X335597Y598423D01*
X331489Y600125D01*
X328345Y603269D01*
X327496Y605319D01*
X327434Y605419D01*
X327374Y605519D01*
X327369Y605523D01*
X327366Y605528D01*
X327275Y605603D01*
X327187Y605679D01*
X327181Y605681D01*
X327176Y605685D01*
X327068Y605727D01*
X326959Y605771D01*
X326951Y605772D01*
X326947Y605773D01*
X326929Y605774D01*
X326792Y605789D01*
X300344Y605789D01*
X300254Y605775D01*
X300163Y605767D01*
X300133Y605755D01*
X300101Y605750D01*
X300020Y605707D01*
X299936Y605671D01*
X299904Y605645D01*
X299884Y605634D01*
X299861Y605611D01*
X299806Y605566D01*
X283434Y589194D01*
X283381Y589121D01*
X283321Y589051D01*
X283309Y589021D01*
X283290Y588995D01*
X283263Y588908D01*
X283229Y588823D01*
X283225Y588782D01*
X283218Y588760D01*
X283219Y588727D01*
X283211Y588656D01*
X283211Y550872D01*
X207234Y474894D01*
X207181Y474821D01*
X207121Y474751D01*
X207109Y474721D01*
X207090Y474695D01*
X207063Y474608D01*
X207029Y474523D01*
X207025Y474482D01*
X207018Y474460D01*
X207019Y474427D01*
X207011Y474356D01*
X207011Y431654D01*
X207025Y431564D01*
X207033Y431473D01*
X207045Y431444D01*
X207050Y431412D01*
X207093Y431331D01*
X207129Y431247D01*
X207155Y431215D01*
X207166Y431194D01*
X207189Y431172D01*
X207234Y431116D01*
X210059Y428291D01*
X210059Y422609D01*
X206041Y418591D01*
X200359Y418591D01*
X196341Y422609D01*
X196341Y428291D01*
X199166Y431116D01*
X199219Y431190D01*
X199279Y431259D01*
X199291Y431290D01*
X199310Y431316D01*
X199337Y431403D01*
X199371Y431488D01*
X199375Y431529D01*
X199382Y431551D01*
X199381Y431583D01*
X199389Y431654D01*
X199389Y477828D01*
X275366Y553806D01*
X275419Y553879D01*
X275479Y553949D01*
X275491Y553979D01*
X275510Y554005D01*
X275537Y554092D01*
X275571Y554177D01*
X275575Y554218D01*
X275582Y554240D01*
X275581Y554273D01*
X275589Y554344D01*
X275589Y588656D01*
X275575Y588746D01*
X275567Y588837D01*
X275555Y588867D01*
X275550Y588899D01*
X275507Y588980D01*
X275471Y589064D01*
X275445Y589096D01*
X275434Y589116D01*
X275411Y589139D01*
X275366Y589195D01*
X265345Y599216D01*
X265271Y599269D01*
X265201Y599329D01*
X265171Y599341D01*
X265145Y599360D01*
X265058Y599387D01*
X264973Y599421D01*
X264932Y599425D01*
X264910Y599432D01*
X264878Y599431D01*
X264806Y599439D01*
X243194Y599439D01*
X243104Y599425D01*
X243013Y599417D01*
X242983Y599405D01*
X242951Y599400D01*
X242870Y599357D01*
X242786Y599321D01*
X242754Y599295D01*
X242734Y599284D01*
X242711Y599261D01*
X242656Y599216D01*
X207234Y563794D01*
X207181Y563721D01*
X207121Y563651D01*
X207109Y563621D01*
X207090Y563595D01*
X207063Y563508D01*
X207029Y563423D01*
X207025Y563382D01*
X207018Y563360D01*
X207019Y563327D01*
X207011Y563256D01*
X207011Y545954D01*
X207025Y545864D01*
X207033Y545773D01*
X207045Y545744D01*
X207050Y545712D01*
X207093Y545631D01*
X207129Y545547D01*
X207155Y545515D01*
X207166Y545494D01*
X207189Y545472D01*
X207234Y545416D01*
X210059Y542591D01*
X210059Y536909D01*
X206041Y532891D01*
X200359Y532891D01*
X198150Y535100D01*
X198092Y535142D01*
X198040Y535191D01*
X197993Y535213D01*
X197951Y535244D01*
X197882Y535265D01*
X197817Y535295D01*
X197765Y535301D01*
X197715Y535316D01*
X197644Y535314D01*
X197573Y535322D01*
X197522Y535311D01*
X197470Y535310D01*
X197402Y535285D01*
X197332Y535270D01*
X197287Y535243D01*
X197239Y535225D01*
X197183Y535180D01*
X197121Y535144D01*
X197087Y535104D01*
X197047Y535071D01*
X197008Y535011D01*
X196961Y534957D01*
X196942Y534908D01*
X196914Y534865D01*
X196896Y534795D01*
X196869Y534728D01*
X196861Y534657D01*
X196853Y534626D01*
X196855Y534603D01*
X196851Y534562D01*
X196851Y532754D01*
X196865Y532664D01*
X196873Y532573D01*
X196885Y532543D01*
X196890Y532511D01*
X196933Y532430D01*
X196969Y532346D01*
X196995Y532314D01*
X197006Y532294D01*
X197029Y532271D01*
X197074Y532216D01*
X200746Y528544D01*
X200819Y528491D01*
X200889Y528431D01*
X200919Y528419D01*
X200945Y528400D01*
X201032Y528373D01*
X201117Y528339D01*
X201158Y528335D01*
X201180Y528328D01*
X201213Y528329D01*
X201284Y528321D01*
X203846Y528321D01*
X203936Y528335D01*
X204027Y528343D01*
X204057Y528355D01*
X204089Y528360D01*
X204170Y528403D01*
X204254Y528439D01*
X204286Y528465D01*
X204306Y528476D01*
X204329Y528499D01*
X204384Y528544D01*
X218216Y542376D01*
X218269Y542449D01*
X218329Y542519D01*
X218341Y542549D01*
X218360Y542575D01*
X218387Y542662D01*
X218421Y542747D01*
X218425Y542788D01*
X218432Y542810D01*
X218431Y542843D01*
X218439Y542914D01*
X218439Y546246D01*
X218425Y546336D01*
X218417Y546427D01*
X218405Y546456D01*
X218400Y546488D01*
X218357Y546569D01*
X218321Y546653D01*
X218295Y546685D01*
X218284Y546706D01*
X218261Y546728D01*
X218216Y546784D01*
X215391Y549609D01*
X215391Y555291D01*
X219409Y559309D01*
X223404Y559309D01*
X223494Y559323D01*
X223585Y559331D01*
X223615Y559343D01*
X223647Y559348D01*
X223728Y559391D01*
X223812Y559427D01*
X223844Y559453D01*
X223864Y559464D01*
X223887Y559487D01*
X223943Y559532D01*
X249966Y585555D01*
X250220Y585809D01*
X250273Y585883D01*
X250333Y585953D01*
X250345Y585983D01*
X250364Y586009D01*
X250391Y586096D01*
X250425Y586181D01*
X250429Y586222D01*
X250436Y586244D01*
X250435Y586276D01*
X250443Y586348D01*
X250443Y586423D01*
X252145Y590531D01*
X255289Y593675D01*
X259397Y595377D01*
X263843Y595377D01*
X267951Y593675D01*
X271095Y590531D01*
X272797Y586423D01*
X272797Y581977D01*
X271095Y577869D01*
X267951Y574725D01*
X263843Y573023D01*
X259397Y573023D01*
X255289Y574725D01*
X253140Y576874D01*
X253124Y576886D01*
X253111Y576901D01*
X253024Y576957D01*
X252940Y577018D01*
X252921Y577023D01*
X252904Y577034D01*
X252804Y577059D01*
X252705Y577090D01*
X252685Y577089D01*
X252666Y577094D01*
X252563Y577086D01*
X252459Y577084D01*
X252440Y577077D01*
X252420Y577075D01*
X252326Y577035D01*
X252228Y576999D01*
X252212Y576987D01*
X252194Y576979D01*
X252063Y576874D01*
X229332Y554143D01*
X229279Y554069D01*
X229219Y553999D01*
X229207Y553969D01*
X229188Y553943D01*
X229161Y553856D01*
X229127Y553771D01*
X229123Y553730D01*
X229116Y553708D01*
X229117Y553676D01*
X229109Y553604D01*
X229109Y549609D01*
X226284Y546784D01*
X226231Y546710D01*
X226171Y546641D01*
X226159Y546610D01*
X226140Y546584D01*
X226113Y546497D01*
X226079Y546412D01*
X226075Y546371D01*
X226068Y546349D01*
X226069Y546317D01*
X226061Y546246D01*
X226061Y539442D01*
X223606Y536986D01*
X221827Y535208D01*
X221786Y535150D01*
X221736Y535098D01*
X221714Y535051D01*
X221684Y535009D01*
X221663Y534940D01*
X221633Y534875D01*
X221627Y534823D01*
X221612Y534773D01*
X221613Y534702D01*
X221606Y534631D01*
X221617Y534580D01*
X221618Y534528D01*
X221643Y534460D01*
X221658Y534390D01*
X221684Y534345D01*
X221702Y534297D01*
X221747Y534241D01*
X221784Y534179D01*
X221824Y534145D01*
X221856Y534105D01*
X221916Y534066D01*
X221971Y534019D01*
X222019Y534000D01*
X222063Y533972D01*
X222132Y533954D01*
X222199Y533927D01*
X222270Y533919D01*
X222302Y533911D01*
X222325Y533913D01*
X222366Y533909D01*
X225091Y533909D01*
X229109Y529891D01*
X229109Y524209D01*
X225091Y520191D01*
X219409Y520191D01*
X215391Y524209D01*
X215391Y526934D01*
X215380Y527005D01*
X215378Y527077D01*
X215360Y527126D01*
X215352Y527177D01*
X215318Y527240D01*
X215293Y527308D01*
X215261Y527348D01*
X215236Y527394D01*
X215184Y527444D01*
X215140Y527500D01*
X215096Y527528D01*
X215058Y527564D01*
X214993Y527594D01*
X214933Y527633D01*
X214882Y527645D01*
X214835Y527667D01*
X214764Y527675D01*
X214694Y527693D01*
X214642Y527689D01*
X214591Y527694D01*
X214520Y527679D01*
X214449Y527674D01*
X214401Y527653D01*
X214350Y527642D01*
X214289Y527605D01*
X214223Y527577D01*
X214167Y527533D01*
X214139Y527516D01*
X214124Y527498D01*
X214092Y527473D01*
X207318Y520699D01*
X197812Y520699D01*
X195356Y523154D01*
X191800Y526711D01*
X191742Y526752D01*
X191690Y526802D01*
X191643Y526824D01*
X191601Y526854D01*
X191532Y526875D01*
X191467Y526905D01*
X191415Y526911D01*
X191365Y526926D01*
X191294Y526925D01*
X191223Y526932D01*
X191172Y526921D01*
X191120Y526920D01*
X191052Y526895D01*
X190982Y526880D01*
X190937Y526854D01*
X190889Y526836D01*
X190833Y526791D01*
X190771Y526754D01*
X190737Y526714D01*
X190697Y526682D01*
X190658Y526622D01*
X190611Y526567D01*
X190592Y526519D01*
X190564Y526475D01*
X190546Y526406D01*
X190519Y526339D01*
X190511Y526268D01*
X190503Y526236D01*
X190505Y526213D01*
X190501Y526172D01*
X190501Y399404D01*
X190515Y399314D01*
X190523Y399223D01*
X190535Y399193D01*
X190540Y399161D01*
X190583Y399080D01*
X190619Y398996D01*
X190645Y398964D01*
X190656Y398944D01*
X190679Y398921D01*
X190724Y398866D01*
X204556Y385034D01*
X204629Y384981D01*
X204699Y384921D01*
X204729Y384909D01*
X204755Y384890D01*
X204842Y384863D01*
X204927Y384829D01*
X204968Y384825D01*
X204990Y384818D01*
X205023Y384819D01*
X205094Y384811D01*
X250592Y384811D01*
X250707Y384830D01*
X250823Y384847D01*
X250829Y384849D01*
X250835Y384850D01*
X250938Y384905D01*
X251042Y384958D01*
X251047Y384963D01*
X251052Y384966D01*
X251131Y385049D01*
X251215Y385134D01*
X251218Y385140D01*
X251222Y385144D01*
X251230Y385161D01*
X251296Y385281D01*
X252145Y387331D01*
X255289Y390475D01*
X259397Y392177D01*
X263843Y392177D01*
X267951Y390475D01*
X271095Y387331D01*
X272797Y383223D01*
X272797Y378777D01*
X271095Y374669D01*
X267951Y371525D01*
X263843Y369823D01*
X259397Y369823D01*
X255289Y371525D01*
X252145Y374669D01*
X251296Y376719D01*
X251234Y376819D01*
X251174Y376919D01*
X251169Y376923D01*
X251166Y376928D01*
X251075Y377003D01*
X250987Y377079D01*
X250981Y377081D01*
X250976Y377085D01*
X250868Y377127D01*
X250759Y377171D01*
X250751Y377172D01*
X250747Y377173D01*
X250729Y377174D01*
X250592Y377189D01*
X201622Y377189D01*
X182879Y395932D01*
X182879Y396632D01*
X182868Y396703D01*
X182866Y396775D01*
X182848Y396824D01*
X182840Y396875D01*
X182806Y396938D01*
X182781Y397006D01*
X182749Y397046D01*
X182724Y397092D01*
X182672Y397142D01*
X182628Y397198D01*
X182584Y397226D01*
X182546Y397262D01*
X182481Y397292D01*
X182421Y397331D01*
X182370Y397343D01*
X182323Y397365D01*
X182252Y397373D01*
X182182Y397391D01*
X182130Y397387D01*
X182079Y397392D01*
X182008Y397377D01*
X181937Y397372D01*
X181889Y397351D01*
X181838Y397340D01*
X181777Y397303D01*
X181711Y397275D01*
X181655Y397231D01*
X181627Y397214D01*
X181612Y397196D01*
X181580Y397171D01*
X164054Y379644D01*
X164001Y379571D01*
X163941Y379501D01*
X163929Y379471D01*
X163910Y379445D01*
X163883Y379358D01*
X163849Y379273D01*
X163845Y379232D01*
X163838Y379210D01*
X163839Y379177D01*
X163831Y379106D01*
X163831Y353928D01*
X163850Y353813D01*
X163867Y353697D01*
X163869Y353691D01*
X163870Y353685D01*
X163925Y353582D01*
X163978Y353478D01*
X163983Y353473D01*
X163986Y353468D01*
X164070Y353388D01*
X164154Y353305D01*
X164160Y353302D01*
X164164Y353298D01*
X164181Y353290D01*
X164301Y353224D01*
X166351Y352375D01*
X169495Y349231D01*
X171197Y345123D01*
X171197Y340677D01*
X169495Y336569D01*
X166351Y333425D01*
X162243Y331723D01*
X157797Y331723D01*
X153689Y333425D01*
X150545Y336569D01*
X149696Y338619D01*
X149634Y338719D01*
X149574Y338819D01*
X149569Y338823D01*
X149566Y338828D01*
X149476Y338903D01*
X149387Y338979D01*
X149381Y338981D01*
X149376Y338985D01*
X149268Y339027D01*
X149159Y339071D01*
X149151Y339072D01*
X149147Y339073D01*
X149129Y339074D01*
X148992Y339089D01*
X132948Y339089D01*
X132833Y339070D01*
X132717Y339053D01*
X132711Y339051D01*
X132705Y339050D01*
X132602Y338995D01*
X132498Y338942D01*
X132493Y338937D01*
X132488Y338934D01*
X132408Y338850D01*
X132325Y338766D01*
X132322Y338760D01*
X132318Y338756D01*
X132310Y338739D01*
X132244Y338619D01*
X131395Y336569D01*
X128251Y333425D01*
X124143Y331723D01*
X119697Y331723D01*
G37*
%LPD*%
%LPC*%
G36*
X886777Y14223D02*
X886777Y14223D01*
X882669Y15925D01*
X879525Y19069D01*
X877823Y23177D01*
X877823Y27623D01*
X879525Y31731D01*
X882669Y34875D01*
X882687Y34883D01*
X882787Y34944D01*
X882887Y35004D01*
X882891Y35009D01*
X882896Y35012D01*
X882971Y35102D01*
X883047Y35191D01*
X883049Y35197D01*
X883053Y35202D01*
X883095Y35310D01*
X883139Y35419D01*
X883140Y35427D01*
X883141Y35431D01*
X883142Y35450D01*
X883157Y35586D01*
X883157Y40614D01*
X883155Y40629D01*
X883156Y40643D01*
X883141Y40711D01*
X883138Y40729D01*
X883121Y40845D01*
X883119Y40851D01*
X883118Y40857D01*
X883104Y40882D01*
X883104Y40883D01*
X883100Y40890D01*
X883063Y40959D01*
X883010Y41064D01*
X883005Y41069D01*
X883002Y41074D01*
X882918Y41154D01*
X882834Y41236D01*
X882828Y41240D01*
X882824Y41243D01*
X882807Y41251D01*
X882687Y41317D01*
X882669Y41325D01*
X879525Y44469D01*
X877823Y48577D01*
X877823Y53023D01*
X877831Y53042D01*
X877857Y53155D01*
X877886Y53269D01*
X877886Y53275D01*
X877887Y53281D01*
X877876Y53398D01*
X877867Y53514D01*
X877865Y53520D01*
X877864Y53526D01*
X877816Y53634D01*
X877771Y53740D01*
X877766Y53746D01*
X877764Y53751D01*
X877751Y53765D01*
X877666Y53871D01*
X869023Y62514D01*
X868949Y62567D01*
X868879Y62627D01*
X868849Y62639D01*
X868823Y62658D01*
X868736Y62685D01*
X868651Y62719D01*
X868610Y62723D01*
X868588Y62730D01*
X868556Y62729D01*
X868485Y62737D01*
X749326Y62737D01*
X749211Y62718D01*
X749095Y62701D01*
X749089Y62699D01*
X749083Y62698D01*
X748981Y62643D01*
X748876Y62590D01*
X748871Y62585D01*
X748866Y62582D01*
X748786Y62498D01*
X748704Y62414D01*
X748700Y62408D01*
X748697Y62404D01*
X748689Y62387D01*
X748623Y62267D01*
X748615Y62249D01*
X745471Y59105D01*
X741363Y57403D01*
X736917Y57403D01*
X732809Y59105D01*
X729665Y62249D01*
X727963Y66357D01*
X727963Y70803D01*
X727971Y70822D01*
X727997Y70935D01*
X728026Y71049D01*
X728026Y71055D01*
X728027Y71061D01*
X728016Y71178D01*
X728007Y71294D01*
X728005Y71300D01*
X728004Y71306D01*
X727956Y71414D01*
X727911Y71520D01*
X727906Y71526D01*
X727904Y71531D01*
X727891Y71545D01*
X727806Y71651D01*
X697837Y101620D01*
X696087Y103370D01*
X695197Y105518D01*
X695197Y129345D01*
X695183Y129435D01*
X695175Y129526D01*
X695163Y129555D01*
X695158Y129587D01*
X695115Y129668D01*
X695079Y129752D01*
X695053Y129784D01*
X695042Y129805D01*
X695019Y129827D01*
X694974Y129883D01*
X689163Y135694D01*
X689089Y135747D01*
X689019Y135807D01*
X688989Y135819D01*
X688963Y135838D01*
X688876Y135865D01*
X688791Y135899D01*
X688750Y135903D01*
X688728Y135910D01*
X688696Y135909D01*
X688625Y135917D01*
X677903Y135917D01*
X677807Y135902D01*
X677710Y135892D01*
X677686Y135882D01*
X677660Y135878D01*
X677574Y135832D01*
X677485Y135792D01*
X677466Y135775D01*
X677443Y135762D01*
X677376Y135692D01*
X677304Y135626D01*
X677291Y135603D01*
X677273Y135584D01*
X677232Y135496D01*
X677185Y135410D01*
X677181Y135385D01*
X677170Y135361D01*
X677159Y135264D01*
X677142Y135168D01*
X677146Y135142D01*
X677143Y135117D01*
X677163Y135021D01*
X677177Y134925D01*
X677189Y134902D01*
X677195Y134876D01*
X677245Y134793D01*
X677289Y134706D01*
X677308Y134687D01*
X677321Y134665D01*
X677395Y134602D01*
X677465Y134534D01*
X677493Y134518D01*
X677508Y134505D01*
X677539Y134493D01*
X677612Y134453D01*
X680034Y133449D01*
X683607Y129876D01*
X685541Y125208D01*
X685541Y98312D01*
X683607Y93644D01*
X680034Y90071D01*
X675366Y88137D01*
X670314Y88137D01*
X665646Y90071D01*
X662073Y93644D01*
X660139Y98312D01*
X660139Y105156D01*
X660136Y105176D01*
X660138Y105195D01*
X660116Y105297D01*
X660100Y105399D01*
X660090Y105416D01*
X660086Y105436D01*
X660033Y105525D01*
X659984Y105616D01*
X659970Y105630D01*
X659960Y105647D01*
X659881Y105714D01*
X659806Y105786D01*
X659788Y105794D01*
X659773Y105807D01*
X659677Y105846D01*
X659583Y105889D01*
X659563Y105891D01*
X659545Y105899D01*
X659378Y105917D01*
X657575Y105917D01*
X657485Y105903D01*
X657394Y105895D01*
X657365Y105883D01*
X657333Y105878D01*
X657252Y105835D01*
X657168Y105799D01*
X657136Y105773D01*
X657115Y105762D01*
X657093Y105739D01*
X657037Y105694D01*
X643951Y92609D01*
X643940Y92592D01*
X643924Y92580D01*
X643868Y92493D01*
X643808Y92409D01*
X643802Y92390D01*
X643791Y92373D01*
X643766Y92273D01*
X643736Y92174D01*
X643736Y92154D01*
X643731Y92135D01*
X643739Y92032D01*
X643742Y91928D01*
X643749Y91909D01*
X643750Y91889D01*
X643791Y91795D01*
X643826Y91697D01*
X643839Y91681D01*
X643847Y91663D01*
X643951Y91532D01*
X646529Y88954D01*
X648463Y84286D01*
X648463Y79234D01*
X646529Y74566D01*
X642956Y70993D01*
X638288Y69059D01*
X611392Y69059D01*
X606724Y70993D01*
X603151Y74566D01*
X601217Y79234D01*
X601217Y81085D01*
X601203Y81175D01*
X601195Y81266D01*
X601183Y81295D01*
X601178Y81327D01*
X601135Y81408D01*
X601099Y81492D01*
X601073Y81524D01*
X601062Y81545D01*
X601039Y81567D01*
X600994Y81623D01*
X570837Y111780D01*
X569087Y113530D01*
X568197Y115678D01*
X568197Y213252D01*
X569087Y215400D01*
X587240Y233553D01*
X589388Y234443D01*
X617112Y234443D01*
X619260Y233553D01*
X629831Y222982D01*
X629905Y222929D01*
X629975Y222869D01*
X630005Y222857D01*
X630031Y222838D01*
X630118Y222811D01*
X630203Y222777D01*
X630244Y222773D01*
X630266Y222766D01*
X630298Y222767D01*
X630369Y222759D01*
X631491Y222759D01*
X632284Y221966D01*
X632358Y221913D01*
X632427Y221853D01*
X632458Y221841D01*
X632484Y221822D01*
X632571Y221795D01*
X632656Y221761D01*
X632697Y221757D01*
X632719Y221750D01*
X632751Y221751D01*
X632822Y221743D01*
X877462Y221743D01*
X879610Y220853D01*
X881360Y219103D01*
X885929Y214534D01*
X886023Y214466D01*
X886117Y214396D01*
X886123Y214394D01*
X886128Y214391D01*
X886240Y214356D01*
X886351Y214320D01*
X886358Y214320D01*
X886364Y214318D01*
X886480Y214321D01*
X886597Y214322D01*
X886604Y214324D01*
X886609Y214325D01*
X886627Y214331D01*
X886758Y214369D01*
X886777Y214377D01*
X891223Y214377D01*
X895331Y212675D01*
X898475Y209531D01*
X900177Y205423D01*
X900177Y200977D01*
X898475Y196869D01*
X895331Y193725D01*
X895313Y193717D01*
X895213Y193656D01*
X895113Y193596D01*
X895109Y193591D01*
X895104Y193588D01*
X895029Y193498D01*
X894953Y193409D01*
X894951Y193403D01*
X894947Y193398D01*
X894905Y193290D01*
X894861Y193181D01*
X894860Y193173D01*
X894859Y193169D01*
X894858Y193150D01*
X894843Y193014D01*
X894843Y187986D01*
X894862Y187871D01*
X894879Y187755D01*
X894881Y187749D01*
X894882Y187743D01*
X894937Y187641D01*
X894990Y187536D01*
X894995Y187531D01*
X894998Y187526D01*
X895082Y187446D01*
X895166Y187364D01*
X895172Y187360D01*
X895176Y187357D01*
X895193Y187349D01*
X895313Y187283D01*
X895331Y187275D01*
X898475Y184131D01*
X900177Y180023D01*
X900177Y175577D01*
X898475Y171469D01*
X895331Y168325D01*
X891223Y166623D01*
X886777Y166623D01*
X882669Y168325D01*
X879525Y171469D01*
X877823Y175577D01*
X877823Y180023D01*
X879525Y184131D01*
X882669Y187275D01*
X882687Y187283D01*
X882787Y187344D01*
X882887Y187404D01*
X882891Y187409D01*
X882896Y187412D01*
X882971Y187502D01*
X883047Y187591D01*
X883049Y187597D01*
X883053Y187602D01*
X883095Y187710D01*
X883139Y187819D01*
X883140Y187827D01*
X883141Y187831D01*
X883142Y187850D01*
X883157Y187986D01*
X883157Y193014D01*
X883138Y193129D01*
X883121Y193245D01*
X883119Y193251D01*
X883118Y193257D01*
X883063Y193359D01*
X883010Y193464D01*
X883005Y193469D01*
X883002Y193474D01*
X882918Y193554D01*
X882834Y193636D01*
X882828Y193640D01*
X882824Y193643D01*
X882807Y193651D01*
X882687Y193717D01*
X882669Y193725D01*
X879525Y196869D01*
X877823Y200977D01*
X877823Y205423D01*
X877831Y205442D01*
X877857Y205555D01*
X877886Y205669D01*
X877886Y205675D01*
X877887Y205681D01*
X877876Y205798D01*
X877867Y205914D01*
X877865Y205920D01*
X877864Y205926D01*
X877816Y206034D01*
X877771Y206140D01*
X877766Y206146D01*
X877764Y206151D01*
X877751Y206165D01*
X877666Y206271D01*
X874103Y209834D01*
X874029Y209887D01*
X873959Y209947D01*
X873929Y209959D01*
X873903Y209978D01*
X873816Y210005D01*
X873731Y210039D01*
X873690Y210043D01*
X873668Y210050D01*
X873636Y210049D01*
X873565Y210057D01*
X632822Y210057D01*
X632732Y210043D01*
X632641Y210035D01*
X632612Y210023D01*
X632580Y210018D01*
X632499Y209975D01*
X632415Y209939D01*
X632383Y209913D01*
X632362Y209902D01*
X632340Y209879D01*
X632284Y209834D01*
X631491Y209041D01*
X625809Y209041D01*
X621791Y213059D01*
X621791Y214181D01*
X621789Y214195D01*
X621790Y214208D01*
X621776Y214271D01*
X621769Y214362D01*
X621757Y214391D01*
X621752Y214423D01*
X621709Y214504D01*
X621673Y214588D01*
X621647Y214620D01*
X621636Y214641D01*
X621613Y214663D01*
X621568Y214719D01*
X613753Y222534D01*
X613679Y222587D01*
X613609Y222647D01*
X613579Y222659D01*
X613553Y222678D01*
X613466Y222705D01*
X613381Y222739D01*
X613340Y222743D01*
X613318Y222750D01*
X613286Y222749D01*
X613215Y222757D01*
X593285Y222757D01*
X593195Y222743D01*
X593104Y222735D01*
X593075Y222723D01*
X593043Y222718D01*
X592962Y222675D01*
X592878Y222639D01*
X592846Y222613D01*
X592825Y222602D01*
X592803Y222579D01*
X592747Y222534D01*
X580106Y209893D01*
X580053Y209819D01*
X579993Y209749D01*
X579981Y209719D01*
X579962Y209693D01*
X579935Y209606D01*
X579901Y209521D01*
X579897Y209480D01*
X579890Y209458D01*
X579891Y209426D01*
X579883Y209355D01*
X579883Y119575D01*
X579897Y119485D01*
X579905Y119394D01*
X579917Y119365D01*
X579922Y119333D01*
X579965Y119252D01*
X580001Y119168D01*
X580027Y119136D01*
X580038Y119115D01*
X580061Y119093D01*
X580106Y119037D01*
X606288Y92855D01*
X606382Y92788D01*
X606476Y92717D01*
X606482Y92715D01*
X606487Y92712D01*
X606598Y92678D01*
X606710Y92641D01*
X606716Y92641D01*
X606722Y92639D01*
X606839Y92642D01*
X606956Y92643D01*
X606963Y92646D01*
X606968Y92646D01*
X606986Y92652D01*
X607117Y92690D01*
X611392Y94461D01*
X628963Y94461D01*
X629053Y94475D01*
X629144Y94483D01*
X629173Y94495D01*
X629205Y94500D01*
X629286Y94543D01*
X629370Y94579D01*
X629402Y94605D01*
X629423Y94616D01*
X629445Y94639D01*
X629501Y94684D01*
X651530Y116713D01*
X653678Y117603D01*
X659378Y117603D01*
X659398Y117606D01*
X659417Y117604D01*
X659519Y117626D01*
X659621Y117642D01*
X659638Y117652D01*
X659658Y117656D01*
X659747Y117709D01*
X659838Y117758D01*
X659852Y117772D01*
X659869Y117782D01*
X659936Y117861D01*
X660008Y117936D01*
X660016Y117954D01*
X660029Y117969D01*
X660068Y118065D01*
X660111Y118159D01*
X660113Y118179D01*
X660121Y118197D01*
X660139Y118364D01*
X660139Y125208D01*
X662073Y129876D01*
X665646Y133449D01*
X668068Y134453D01*
X668151Y134504D01*
X668237Y134550D01*
X668255Y134568D01*
X668278Y134582D01*
X668340Y134658D01*
X668407Y134728D01*
X668418Y134752D01*
X668434Y134772D01*
X668469Y134863D01*
X668510Y134951D01*
X668513Y134977D01*
X668523Y135001D01*
X668527Y135099D01*
X668537Y135195D01*
X668532Y135221D01*
X668533Y135247D01*
X668506Y135341D01*
X668485Y135436D01*
X668472Y135458D01*
X668464Y135483D01*
X668409Y135563D01*
X668359Y135647D01*
X668339Y135664D01*
X668324Y135685D01*
X668246Y135744D01*
X668172Y135807D01*
X668148Y135817D01*
X668127Y135832D01*
X668034Y135862D01*
X667944Y135899D01*
X667911Y135902D01*
X667893Y135908D01*
X667860Y135908D01*
X667777Y135917D01*
X647598Y135917D01*
X647483Y135898D01*
X647367Y135881D01*
X647361Y135879D01*
X647355Y135878D01*
X647252Y135823D01*
X647147Y135770D01*
X647143Y135765D01*
X647138Y135762D01*
X647058Y135678D01*
X646975Y135594D01*
X646972Y135588D01*
X646968Y135584D01*
X646960Y135567D01*
X646894Y135447D01*
X646529Y134566D01*
X642956Y130993D01*
X638288Y129059D01*
X611392Y129059D01*
X606724Y130993D01*
X603151Y134566D01*
X601217Y139234D01*
X601217Y144286D01*
X603151Y148954D01*
X605729Y151532D01*
X605740Y151548D01*
X605756Y151561D01*
X605812Y151648D01*
X605872Y151732D01*
X605878Y151751D01*
X605889Y151768D01*
X605914Y151868D01*
X605944Y151967D01*
X605944Y151987D01*
X605949Y152006D01*
X605941Y152109D01*
X605938Y152213D01*
X605931Y152232D01*
X605930Y152251D01*
X605889Y152346D01*
X605854Y152444D01*
X605841Y152459D01*
X605833Y152478D01*
X605729Y152609D01*
X604647Y153690D01*
X603757Y155838D01*
X603757Y199028D01*
X603743Y199118D01*
X603735Y199209D01*
X603723Y199238D01*
X603718Y199270D01*
X603675Y199351D01*
X603639Y199435D01*
X603613Y199467D01*
X603602Y199488D01*
X603579Y199510D01*
X603534Y199566D01*
X602741Y200359D01*
X602741Y206041D01*
X606759Y210059D01*
X612441Y210059D01*
X616459Y206041D01*
X616459Y200359D01*
X615666Y199566D01*
X615613Y199492D01*
X615553Y199423D01*
X615541Y199392D01*
X615522Y199366D01*
X615495Y199279D01*
X615461Y199194D01*
X615457Y199153D01*
X615450Y199131D01*
X615451Y199099D01*
X615443Y199028D01*
X615443Y159735D01*
X615457Y159645D01*
X615465Y159554D01*
X615477Y159525D01*
X615482Y159493D01*
X615525Y159412D01*
X615561Y159328D01*
X615587Y159296D01*
X615598Y159275D01*
X615621Y159253D01*
X615666Y159197D01*
X620179Y154684D01*
X620253Y154631D01*
X620323Y154571D01*
X620353Y154559D01*
X620379Y154540D01*
X620466Y154513D01*
X620551Y154479D01*
X620592Y154475D01*
X620614Y154468D01*
X620646Y154469D01*
X620717Y154461D01*
X638288Y154461D01*
X642956Y152527D01*
X646529Y148954D01*
X646894Y148073D01*
X646956Y147973D01*
X647016Y147873D01*
X647021Y147869D01*
X647024Y147864D01*
X647115Y147789D01*
X647203Y147713D01*
X647209Y147711D01*
X647213Y147707D01*
X647322Y147665D01*
X647431Y147621D01*
X647439Y147620D01*
X647443Y147619D01*
X647461Y147618D01*
X647598Y147603D01*
X692522Y147603D01*
X694670Y146713D01*
X705993Y135390D01*
X706883Y133242D01*
X706883Y109415D01*
X706897Y109325D01*
X706905Y109234D01*
X706917Y109205D01*
X706922Y109173D01*
X706965Y109092D01*
X707001Y109008D01*
X707027Y108976D01*
X707038Y108955D01*
X707061Y108933D01*
X707106Y108877D01*
X726551Y89432D01*
X726606Y89392D01*
X726655Y89345D01*
X726705Y89321D01*
X726751Y89288D01*
X726816Y89268D01*
X726877Y89239D01*
X726932Y89232D01*
X726986Y89216D01*
X727054Y89218D01*
X727121Y89209D01*
X727176Y89221D01*
X727232Y89222D01*
X727296Y89246D01*
X727362Y89259D01*
X727410Y89287D01*
X727463Y89307D01*
X727516Y89349D01*
X727574Y89383D01*
X727611Y89425D01*
X727655Y89460D01*
X727692Y89517D01*
X727736Y89568D01*
X727757Y89620D01*
X727788Y89667D01*
X727804Y89733D01*
X727830Y89796D01*
X727834Y89852D01*
X727848Y89906D01*
X727843Y89973D01*
X727847Y90041D01*
X727831Y90118D01*
X727829Y90151D01*
X727821Y90170D01*
X727813Y90205D01*
X727495Y91184D01*
X727294Y92457D01*
X737617Y92457D01*
X737617Y82134D01*
X736344Y82335D01*
X735365Y82653D01*
X735298Y82664D01*
X735234Y82684D01*
X735178Y82682D01*
X735122Y82691D01*
X735055Y82679D01*
X734988Y82677D01*
X734935Y82658D01*
X734880Y82648D01*
X734820Y82616D01*
X734757Y82593D01*
X734713Y82558D01*
X734664Y82531D01*
X734617Y82481D01*
X734565Y82439D01*
X734534Y82392D01*
X734496Y82351D01*
X734468Y82289D01*
X734432Y82232D01*
X734418Y82178D01*
X734395Y82127D01*
X734388Y82059D01*
X734372Y81994D01*
X734376Y81938D01*
X734370Y81882D01*
X734385Y81816D01*
X734391Y81748D01*
X734413Y81697D01*
X734425Y81642D01*
X734460Y81584D01*
X734487Y81522D01*
X734536Y81461D01*
X734553Y81432D01*
X734570Y81419D01*
X734592Y81391D01*
X736069Y79914D01*
X736163Y79846D01*
X736257Y79776D01*
X736263Y79774D01*
X736268Y79771D01*
X736380Y79736D01*
X736491Y79700D01*
X736498Y79700D01*
X736504Y79698D01*
X736620Y79701D01*
X736737Y79702D01*
X736744Y79704D01*
X736749Y79705D01*
X736767Y79711D01*
X736898Y79749D01*
X736917Y79757D01*
X741363Y79757D01*
X745471Y78055D01*
X748615Y74911D01*
X748623Y74893D01*
X748684Y74793D01*
X748744Y74693D01*
X748749Y74689D01*
X748752Y74684D01*
X748842Y74609D01*
X748931Y74533D01*
X748937Y74531D01*
X748942Y74527D01*
X749050Y74485D01*
X749159Y74441D01*
X749167Y74440D01*
X749171Y74439D01*
X749190Y74438D01*
X749326Y74423D01*
X872382Y74423D01*
X874530Y73533D01*
X885929Y62134D01*
X886010Y62075D01*
X886065Y62029D01*
X886084Y62021D01*
X886117Y61996D01*
X886123Y61994D01*
X886128Y61991D01*
X886240Y61956D01*
X886265Y61948D01*
X886293Y61937D01*
X886303Y61936D01*
X886351Y61920D01*
X886358Y61920D01*
X886364Y61918D01*
X886442Y61920D01*
X886460Y61918D01*
X886484Y61918D01*
X886504Y61921D01*
X886597Y61922D01*
X886604Y61924D01*
X886609Y61925D01*
X886627Y61931D01*
X886711Y61955D01*
X886727Y61958D01*
X886735Y61962D01*
X886758Y61969D01*
X886777Y61977D01*
X891223Y61977D01*
X895331Y60275D01*
X898475Y57131D01*
X900177Y53023D01*
X900177Y48577D01*
X898475Y44469D01*
X895331Y41325D01*
X895313Y41317D01*
X895213Y41256D01*
X895113Y41196D01*
X895109Y41191D01*
X895104Y41188D01*
X895029Y41098D01*
X894953Y41009D01*
X894951Y41003D01*
X894947Y40998D01*
X894905Y40890D01*
X894882Y40832D01*
X894871Y40808D01*
X894870Y40803D01*
X894861Y40781D01*
X894860Y40773D01*
X894859Y40769D01*
X894858Y40750D01*
X894843Y40614D01*
X894843Y35586D01*
X894862Y35471D01*
X894879Y35355D01*
X894881Y35349D01*
X894882Y35343D01*
X894937Y35241D01*
X894990Y35136D01*
X894995Y35131D01*
X894998Y35126D01*
X895082Y35046D01*
X895166Y34964D01*
X895172Y34960D01*
X895176Y34957D01*
X895193Y34949D01*
X895313Y34883D01*
X895331Y34875D01*
X898475Y31731D01*
X900177Y27623D01*
X900177Y23177D01*
X898475Y19069D01*
X895331Y15925D01*
X891223Y14223D01*
X886777Y14223D01*
G37*
%LPD*%
%LPC*%
G36*
X300682Y341629D02*
X300682Y341629D01*
X292494Y349816D01*
X292421Y349869D01*
X292351Y349929D01*
X292321Y349941D01*
X292295Y349960D01*
X292208Y349987D01*
X292123Y350021D01*
X292082Y350025D01*
X292060Y350032D01*
X292027Y350031D01*
X291956Y350039D01*
X290994Y350039D01*
X288950Y350886D01*
X287386Y352450D01*
X286539Y354494D01*
X286539Y356706D01*
X287386Y358750D01*
X288950Y360314D01*
X290994Y361161D01*
X293206Y361161D01*
X295250Y360314D01*
X296814Y358750D01*
X297661Y356706D01*
X297661Y355744D01*
X297663Y355731D01*
X297662Y355721D01*
X297673Y355672D01*
X297675Y355654D01*
X297683Y355563D01*
X297695Y355533D01*
X297700Y355501D01*
X297743Y355420D01*
X297779Y355336D01*
X297805Y355304D01*
X297816Y355284D01*
X297839Y355261D01*
X297884Y355206D01*
X303616Y349474D01*
X303689Y349421D01*
X303759Y349361D01*
X303789Y349349D01*
X303815Y349330D01*
X303902Y349303D01*
X303987Y349269D01*
X304028Y349265D01*
X304050Y349258D01*
X304083Y349259D01*
X304154Y349251D01*
X478166Y349251D01*
X478256Y349265D01*
X478347Y349273D01*
X478377Y349285D01*
X478409Y349290D01*
X478490Y349333D01*
X478574Y349369D01*
X478606Y349395D01*
X478626Y349406D01*
X478649Y349429D01*
X478704Y349474D01*
X554682Y425451D01*
X568852Y425451D01*
X568922Y425462D01*
X568994Y425464D01*
X569043Y425482D01*
X569094Y425490D01*
X569158Y425524D01*
X569225Y425549D01*
X569266Y425581D01*
X569312Y425606D01*
X569361Y425658D01*
X569417Y425702D01*
X569445Y425746D01*
X569481Y425784D01*
X569511Y425849D01*
X569550Y425909D01*
X569563Y425960D01*
X569585Y426007D01*
X569593Y426078D01*
X569610Y426148D01*
X569606Y426200D01*
X569612Y426251D01*
X569597Y426322D01*
X569591Y426393D01*
X569571Y426441D01*
X569560Y426492D01*
X569523Y426553D01*
X569495Y426619D01*
X569450Y426675D01*
X569434Y426703D01*
X569416Y426718D01*
X569390Y426750D01*
X568225Y427915D01*
X567181Y430436D01*
X567181Y433164D01*
X568225Y435685D01*
X570155Y437615D01*
X572676Y438659D01*
X585564Y438659D01*
X588085Y437615D01*
X589866Y435834D01*
X589940Y435781D01*
X590009Y435721D01*
X590040Y435709D01*
X590066Y435690D01*
X590153Y435663D01*
X590238Y435629D01*
X590279Y435625D01*
X590301Y435618D01*
X590333Y435619D01*
X590404Y435611D01*
X602626Y435611D01*
X602716Y435625D01*
X602807Y435633D01*
X602837Y435645D01*
X602869Y435650D01*
X602950Y435693D01*
X603034Y435729D01*
X603066Y435755D01*
X603086Y435766D01*
X603109Y435789D01*
X603164Y435834D01*
X619428Y452097D01*
X619496Y452192D01*
X619566Y452285D01*
X619567Y452291D01*
X619571Y452297D01*
X619605Y452408D01*
X619642Y452519D01*
X619642Y452526D01*
X619643Y452532D01*
X619640Y452648D01*
X619639Y452765D01*
X619637Y452772D01*
X619637Y452777D01*
X619631Y452795D01*
X619593Y452926D01*
X618743Y454977D01*
X618743Y459423D01*
X620445Y463531D01*
X623589Y466675D01*
X627697Y468377D01*
X632143Y468377D01*
X636251Y466675D01*
X639395Y463531D01*
X640244Y461481D01*
X640306Y461381D01*
X640366Y461281D01*
X640371Y461277D01*
X640374Y461272D01*
X640465Y461197D01*
X640553Y461121D01*
X640559Y461119D01*
X640564Y461115D01*
X640672Y461073D01*
X640781Y461029D01*
X640789Y461028D01*
X640793Y461027D01*
X640811Y461026D01*
X640948Y461011D01*
X656992Y461011D01*
X657107Y461030D01*
X657223Y461047D01*
X657229Y461049D01*
X657235Y461050D01*
X657338Y461105D01*
X657442Y461158D01*
X657447Y461163D01*
X657452Y461166D01*
X657532Y461250D01*
X657615Y461334D01*
X657618Y461340D01*
X657622Y461344D01*
X657630Y461361D01*
X657696Y461481D01*
X658545Y463531D01*
X661689Y466675D01*
X665797Y468377D01*
X670243Y468377D01*
X674351Y466675D01*
X677495Y463531D01*
X678344Y461481D01*
X678406Y461381D01*
X678466Y461281D01*
X678471Y461277D01*
X678474Y461272D01*
X678565Y461197D01*
X678653Y461121D01*
X678659Y461119D01*
X678664Y461115D01*
X678772Y461073D01*
X678881Y461029D01*
X678889Y461028D01*
X678893Y461027D01*
X678911Y461026D01*
X679048Y461011D01*
X695092Y461011D01*
X695207Y461030D01*
X695323Y461047D01*
X695329Y461049D01*
X695335Y461050D01*
X695438Y461105D01*
X695542Y461158D01*
X695547Y461163D01*
X695552Y461166D01*
X695632Y461250D01*
X695715Y461334D01*
X695718Y461340D01*
X695722Y461344D01*
X695730Y461361D01*
X695796Y461481D01*
X696645Y463531D01*
X699789Y466675D01*
X703897Y468377D01*
X708343Y468377D01*
X712451Y466675D01*
X715595Y463531D01*
X717297Y459423D01*
X717297Y454977D01*
X715595Y450869D01*
X712451Y447725D01*
X708343Y446023D01*
X703897Y446023D01*
X699789Y447725D01*
X696645Y450869D01*
X695796Y452919D01*
X695734Y453019D01*
X695674Y453119D01*
X695669Y453123D01*
X695666Y453128D01*
X695575Y453203D01*
X695487Y453279D01*
X695481Y453281D01*
X695476Y453285D01*
X695368Y453327D01*
X695259Y453371D01*
X695251Y453372D01*
X695247Y453373D01*
X695229Y453374D01*
X695092Y453389D01*
X679048Y453389D01*
X678933Y453370D01*
X678817Y453353D01*
X678811Y453351D01*
X678805Y453350D01*
X678702Y453295D01*
X678598Y453242D01*
X678593Y453237D01*
X678588Y453234D01*
X678508Y453150D01*
X678425Y453066D01*
X678422Y453060D01*
X678418Y453056D01*
X678410Y453039D01*
X678344Y452919D01*
X677495Y450869D01*
X674351Y447725D01*
X670243Y446023D01*
X665797Y446023D01*
X661689Y447725D01*
X658545Y450869D01*
X657696Y452919D01*
X657634Y453019D01*
X657574Y453119D01*
X657569Y453123D01*
X657566Y453128D01*
X657475Y453203D01*
X657387Y453279D01*
X657381Y453281D01*
X657376Y453285D01*
X657268Y453327D01*
X657159Y453371D01*
X657151Y453372D01*
X657147Y453373D01*
X657129Y453374D01*
X656992Y453389D01*
X640948Y453389D01*
X640833Y453370D01*
X640717Y453353D01*
X640711Y453351D01*
X640705Y453350D01*
X640602Y453295D01*
X640498Y453242D01*
X640493Y453237D01*
X640488Y453234D01*
X640408Y453150D01*
X640325Y453066D01*
X640322Y453060D01*
X640318Y453056D01*
X640310Y453039D01*
X640244Y452919D01*
X639395Y450869D01*
X636251Y447725D01*
X632143Y446023D01*
X627697Y446023D01*
X625646Y446873D01*
X625533Y446899D01*
X625419Y446928D01*
X625413Y446927D01*
X625407Y446929D01*
X625290Y446918D01*
X625174Y446909D01*
X625168Y446906D01*
X625162Y446906D01*
X625054Y446858D01*
X624948Y446812D01*
X624942Y446808D01*
X624937Y446806D01*
X624924Y446793D01*
X624817Y446708D01*
X606098Y427989D01*
X590404Y427989D01*
X590314Y427975D01*
X590223Y427967D01*
X590193Y427955D01*
X590162Y427950D01*
X590081Y427907D01*
X589997Y427871D01*
X589965Y427845D01*
X589944Y427834D01*
X589922Y427811D01*
X589866Y427766D01*
X588850Y426750D01*
X588808Y426692D01*
X588759Y426640D01*
X588737Y426593D01*
X588706Y426551D01*
X588685Y426482D01*
X588655Y426417D01*
X588649Y426365D01*
X588634Y426315D01*
X588636Y426244D01*
X588628Y426173D01*
X588639Y426122D01*
X588640Y426070D01*
X588665Y426002D01*
X588680Y425932D01*
X588707Y425887D01*
X588725Y425839D01*
X588770Y425783D01*
X588806Y425721D01*
X588846Y425687D01*
X588879Y425647D01*
X588939Y425608D01*
X588993Y425561D01*
X589042Y425542D01*
X589086Y425514D01*
X589155Y425496D01*
X589222Y425469D01*
X589293Y425461D01*
X589324Y425453D01*
X589347Y425455D01*
X589388Y425451D01*
X781358Y425451D01*
X783814Y422996D01*
X815317Y391492D01*
X815412Y391424D01*
X815505Y391354D01*
X815511Y391353D01*
X815517Y391349D01*
X815628Y391315D01*
X815739Y391278D01*
X815746Y391278D01*
X815752Y391277D01*
X815868Y391280D01*
X815985Y391281D01*
X815992Y391283D01*
X815997Y391283D01*
X816015Y391289D01*
X816146Y391327D01*
X818197Y392177D01*
X822643Y392177D01*
X826751Y390475D01*
X829895Y387331D01*
X831597Y383223D01*
X831597Y378777D01*
X829895Y374669D01*
X826751Y371525D01*
X822643Y369823D01*
X818197Y369823D01*
X814089Y371525D01*
X810945Y374669D01*
X809243Y378777D01*
X809243Y383223D01*
X810093Y385274D01*
X810119Y385387D01*
X810148Y385501D01*
X810147Y385507D01*
X810149Y385513D01*
X810138Y385630D01*
X810129Y385746D01*
X810126Y385752D01*
X810126Y385758D01*
X810078Y385866D01*
X810032Y385972D01*
X810028Y385978D01*
X810026Y385983D01*
X810013Y385996D01*
X809928Y386103D01*
X778424Y417606D01*
X778351Y417659D01*
X778281Y417719D01*
X778251Y417731D01*
X778225Y417750D01*
X778138Y417777D01*
X778053Y417811D01*
X778012Y417815D01*
X777990Y417822D01*
X777957Y417821D01*
X777886Y417829D01*
X558154Y417829D01*
X558064Y417815D01*
X557973Y417807D01*
X557943Y417795D01*
X557911Y417790D01*
X557830Y417747D01*
X557746Y417711D01*
X557714Y417685D01*
X557694Y417674D01*
X557671Y417651D01*
X557616Y417606D01*
X481638Y341629D01*
X300682Y341629D01*
G37*
%LPD*%
%LPC*%
G36*
X317954Y484377D02*
X317954Y484377D01*
X315498Y486832D01*
X304823Y497508D01*
X304728Y497576D01*
X304635Y497646D01*
X304629Y497647D01*
X304624Y497651D01*
X304512Y497685D01*
X304401Y497722D01*
X304394Y497722D01*
X304388Y497723D01*
X304272Y497720D01*
X304155Y497719D01*
X304148Y497717D01*
X304143Y497717D01*
X304125Y497711D01*
X303994Y497673D01*
X301943Y496823D01*
X297497Y496823D01*
X293389Y498525D01*
X290245Y501669D01*
X288543Y505777D01*
X288543Y510223D01*
X290245Y514331D01*
X293389Y517475D01*
X297497Y519177D01*
X301943Y519177D01*
X303994Y518327D01*
X304107Y518301D01*
X304221Y518272D01*
X304227Y518273D01*
X304233Y518271D01*
X304350Y518282D01*
X304466Y518291D01*
X304472Y518294D01*
X304478Y518294D01*
X304586Y518342D01*
X304692Y518388D01*
X304698Y518392D01*
X304703Y518394D01*
X304716Y518407D01*
X304823Y518492D01*
X351566Y565236D01*
X351619Y565309D01*
X351679Y565379D01*
X351691Y565409D01*
X351710Y565435D01*
X351737Y565522D01*
X351771Y565607D01*
X351775Y565648D01*
X351782Y565670D01*
X351781Y565703D01*
X351789Y565774D01*
X351789Y617866D01*
X351775Y617956D01*
X351767Y618047D01*
X351755Y618077D01*
X351750Y618109D01*
X351707Y618190D01*
X351671Y618274D01*
X351645Y618306D01*
X351634Y618326D01*
X351611Y618349D01*
X351566Y618404D01*
X339004Y630966D01*
X338931Y631019D01*
X338861Y631079D01*
X338831Y631091D01*
X338805Y631110D01*
X338718Y631137D01*
X338633Y631171D01*
X338592Y631175D01*
X338570Y631182D01*
X338537Y631181D01*
X338466Y631189D01*
X306694Y631189D01*
X306604Y631175D01*
X306513Y631167D01*
X306483Y631155D01*
X306451Y631150D01*
X306370Y631107D01*
X306286Y631071D01*
X306254Y631045D01*
X306234Y631034D01*
X306211Y631011D01*
X306156Y630966D01*
X299182Y623992D01*
X299129Y623919D01*
X299069Y623849D01*
X299057Y623819D01*
X299038Y623793D01*
X299011Y623706D01*
X298977Y623621D01*
X298973Y623580D01*
X298966Y623558D01*
X298967Y623525D01*
X298959Y623454D01*
X298959Y619459D01*
X294941Y615441D01*
X289259Y615441D01*
X285241Y619459D01*
X285241Y623454D01*
X285227Y623544D01*
X285219Y623635D01*
X285207Y623665D01*
X285202Y623697D01*
X285159Y623778D01*
X285123Y623862D01*
X285097Y623894D01*
X285086Y623914D01*
X285063Y623937D01*
X285018Y623992D01*
X272878Y636132D01*
X272841Y636159D01*
X272810Y636193D01*
X272742Y636231D01*
X272679Y636276D01*
X272635Y636290D01*
X272595Y636312D01*
X272518Y636326D01*
X272444Y636348D01*
X272398Y636347D01*
X272352Y636355D01*
X272275Y636344D01*
X272198Y636342D01*
X272155Y636326D01*
X272109Y636320D01*
X272040Y636284D01*
X271967Y636258D01*
X271931Y636229D01*
X271890Y636208D01*
X271835Y636152D01*
X271775Y636104D01*
X271750Y636065D01*
X271718Y636032D01*
X271652Y635913D01*
X271642Y635897D01*
X271640Y635892D01*
X271637Y635886D01*
X269933Y631772D01*
X266753Y628592D01*
X262598Y626871D01*
X258102Y626871D01*
X253947Y628592D01*
X250767Y631772D01*
X249046Y635927D01*
X249046Y659473D01*
X250767Y663628D01*
X253947Y666808D01*
X258102Y668529D01*
X262598Y668529D01*
X266753Y666808D01*
X269933Y663628D01*
X271654Y659473D01*
X271654Y648451D01*
X271669Y648361D01*
X271676Y648270D01*
X271688Y648240D01*
X271693Y648208D01*
X271736Y648127D01*
X271772Y648043D01*
X271798Y648011D01*
X271809Y647991D01*
X271832Y647968D01*
X271877Y647913D01*
X290408Y629382D01*
X290481Y629329D01*
X290551Y629269D01*
X290581Y629257D01*
X290607Y629238D01*
X290694Y629211D01*
X290779Y629177D01*
X290820Y629173D01*
X290842Y629166D01*
X290875Y629167D01*
X290946Y629159D01*
X293254Y629159D01*
X293344Y629173D01*
X293435Y629181D01*
X293465Y629193D01*
X293497Y629198D01*
X293578Y629241D01*
X293662Y629277D01*
X293694Y629303D01*
X293714Y629314D01*
X293737Y629337D01*
X293792Y629382D01*
X303222Y638811D01*
X341938Y638811D01*
X359411Y621338D01*
X359411Y568452D01*
X359414Y568432D01*
X359412Y568413D01*
X359434Y568311D01*
X359450Y568209D01*
X359460Y568192D01*
X359464Y568172D01*
X359517Y568083D01*
X359566Y567992D01*
X359580Y567978D01*
X359590Y567961D01*
X359669Y567894D01*
X359744Y567822D01*
X359762Y567814D01*
X359777Y567801D01*
X359873Y567762D01*
X359967Y567719D01*
X359987Y567717D01*
X360005Y567709D01*
X360172Y567691D01*
X391806Y567691D01*
X391896Y567705D01*
X391987Y567713D01*
X392017Y567725D01*
X392049Y567730D01*
X392130Y567773D01*
X392214Y567809D01*
X392246Y567835D01*
X392266Y567846D01*
X392289Y567869D01*
X392344Y567914D01*
X403528Y579097D01*
X403596Y579192D01*
X403666Y579285D01*
X403667Y579291D01*
X403671Y579296D01*
X403705Y579408D01*
X403742Y579519D01*
X403742Y579526D01*
X403743Y579532D01*
X403740Y579648D01*
X403739Y579765D01*
X403737Y579772D01*
X403737Y579777D01*
X403731Y579795D01*
X403693Y579926D01*
X402843Y581977D01*
X402843Y586423D01*
X404545Y590531D01*
X407689Y593675D01*
X411797Y595377D01*
X416243Y595377D01*
X420351Y593675D01*
X423495Y590531D01*
X425197Y586423D01*
X425197Y581977D01*
X423495Y577869D01*
X420351Y574725D01*
X416243Y573023D01*
X411797Y573023D01*
X409746Y573873D01*
X409633Y573899D01*
X409519Y573928D01*
X409513Y573927D01*
X409507Y573929D01*
X409390Y573918D01*
X409274Y573909D01*
X409268Y573906D01*
X409262Y573906D01*
X409154Y573858D01*
X409048Y573812D01*
X409042Y573808D01*
X409037Y573806D01*
X409024Y573793D01*
X408917Y573708D01*
X395278Y560069D01*
X357494Y560069D01*
X357404Y560055D01*
X357313Y560047D01*
X357283Y560035D01*
X357251Y560030D01*
X357170Y559987D01*
X357086Y559951D01*
X357054Y559925D01*
X357034Y559914D01*
X357011Y559891D01*
X356956Y559846D01*
X310212Y513103D01*
X310169Y513042D01*
X310134Y513006D01*
X310121Y512977D01*
X310074Y512915D01*
X310073Y512909D01*
X310069Y512903D01*
X310035Y512792D01*
X310034Y512789D01*
X310031Y512783D01*
X310030Y512779D01*
X309998Y512681D01*
X309998Y512674D01*
X309997Y512668D01*
X310000Y512552D01*
X310001Y512435D01*
X310003Y512428D01*
X310003Y512423D01*
X310009Y512405D01*
X310047Y512274D01*
X310897Y510223D01*
X310897Y505777D01*
X310047Y503726D01*
X310037Y503684D01*
X310021Y503648D01*
X310014Y503586D01*
X309992Y503499D01*
X309993Y503493D01*
X309991Y503487D01*
X309997Y503429D01*
X309994Y503404D01*
X310003Y503362D01*
X310011Y503254D01*
X310014Y503248D01*
X310014Y503242D01*
X310043Y503177D01*
X310046Y503163D01*
X310059Y503143D01*
X310062Y503134D01*
X310108Y503028D01*
X310112Y503022D01*
X310114Y503017D01*
X310127Y503004D01*
X310212Y502897D01*
X320888Y492222D01*
X320961Y492169D01*
X321031Y492109D01*
X321061Y492097D01*
X321087Y492078D01*
X321174Y492051D01*
X321259Y492017D01*
X321300Y492013D01*
X321322Y492006D01*
X321355Y492007D01*
X321426Y491999D01*
X450226Y491999D01*
X450316Y492013D01*
X450407Y492021D01*
X450437Y492033D01*
X450469Y492038D01*
X450549Y492081D01*
X450634Y492117D01*
X450666Y492143D01*
X450686Y492154D01*
X450708Y492177D01*
X450710Y492178D01*
X450712Y492179D01*
X450714Y492181D01*
X450764Y492222D01*
X454067Y495524D01*
X454108Y495582D01*
X454158Y495634D01*
X454180Y495681D01*
X454210Y495723D01*
X454231Y495792D01*
X454261Y495857D01*
X454267Y495909D01*
X454282Y495959D01*
X454281Y496030D01*
X454288Y496101D01*
X454277Y496152D01*
X454276Y496204D01*
X454251Y496272D01*
X454236Y496342D01*
X454210Y496387D01*
X454192Y496435D01*
X454147Y496491D01*
X454110Y496553D01*
X454070Y496587D01*
X454038Y496627D01*
X453978Y496666D01*
X453923Y496713D01*
X453875Y496732D01*
X453831Y496760D01*
X453762Y496778D01*
X453695Y496805D01*
X453624Y496813D01*
X453592Y496821D01*
X453569Y496819D01*
X453528Y496823D01*
X449897Y496823D01*
X445789Y498525D01*
X442645Y501669D01*
X441796Y503719D01*
X441734Y503819D01*
X441674Y503919D01*
X441669Y503923D01*
X441666Y503928D01*
X441575Y504003D01*
X441487Y504079D01*
X441481Y504081D01*
X441476Y504085D01*
X441368Y504127D01*
X441259Y504171D01*
X441251Y504172D01*
X441247Y504173D01*
X441229Y504174D01*
X441092Y504189D01*
X425048Y504189D01*
X424933Y504170D01*
X424817Y504153D01*
X424811Y504151D01*
X424805Y504150D01*
X424702Y504095D01*
X424598Y504042D01*
X424593Y504037D01*
X424588Y504034D01*
X424508Y503950D01*
X424425Y503866D01*
X424422Y503860D01*
X424418Y503856D01*
X424410Y503839D01*
X424344Y503719D01*
X423495Y501669D01*
X420351Y498525D01*
X416243Y496823D01*
X411797Y496823D01*
X407689Y498525D01*
X404545Y501669D01*
X402843Y505777D01*
X402843Y510223D01*
X404545Y514331D01*
X407689Y517475D01*
X411797Y519177D01*
X416243Y519177D01*
X420351Y517475D01*
X423495Y514331D01*
X424344Y512281D01*
X424407Y512180D01*
X424466Y512081D01*
X424471Y512077D01*
X424474Y512072D01*
X424565Y511997D01*
X424653Y511921D01*
X424659Y511919D01*
X424664Y511915D01*
X424772Y511873D01*
X424881Y511829D01*
X424889Y511828D01*
X424893Y511827D01*
X424911Y511826D01*
X425048Y511811D01*
X441092Y511811D01*
X441207Y511830D01*
X441323Y511847D01*
X441329Y511849D01*
X441335Y511850D01*
X441438Y511905D01*
X441542Y511958D01*
X441547Y511963D01*
X441552Y511966D01*
X441632Y512050D01*
X441715Y512134D01*
X441718Y512140D01*
X441722Y512144D01*
X441730Y512161D01*
X441796Y512281D01*
X442645Y514331D01*
X445789Y517475D01*
X449897Y519177D01*
X454343Y519177D01*
X458451Y517475D01*
X461595Y514331D01*
X463297Y510223D01*
X463297Y506592D01*
X463308Y506521D01*
X463310Y506449D01*
X463328Y506400D01*
X463336Y506349D01*
X463370Y506286D01*
X463395Y506218D01*
X463427Y506178D01*
X463452Y506132D01*
X463504Y506082D01*
X463548Y506026D01*
X463592Y505998D01*
X463630Y505962D01*
X463695Y505932D01*
X463755Y505893D01*
X463806Y505881D01*
X463853Y505859D01*
X463924Y505851D01*
X463994Y505833D01*
X464046Y505837D01*
X464097Y505832D01*
X464168Y505847D01*
X464239Y505852D01*
X464287Y505873D01*
X464338Y505884D01*
X464399Y505921D01*
X464465Y505949D01*
X464521Y505993D01*
X464549Y506010D01*
X464564Y506028D01*
X464596Y506053D01*
X490758Y532216D01*
X490811Y532289D01*
X490871Y532359D01*
X490883Y532389D01*
X490902Y532415D01*
X490929Y532502D01*
X490963Y532587D01*
X490967Y532628D01*
X490974Y532650D01*
X490973Y532683D01*
X490981Y532754D01*
X490981Y534764D01*
X492025Y537285D01*
X493955Y539215D01*
X496476Y540259D01*
X509364Y540259D01*
X511885Y539215D01*
X513815Y537285D01*
X514859Y534764D01*
X514859Y532036D01*
X513815Y529515D01*
X511885Y527585D01*
X509364Y526541D01*
X496448Y526541D01*
X496399Y526553D01*
X496285Y526581D01*
X496279Y526581D01*
X496273Y526582D01*
X496156Y526571D01*
X496040Y526562D01*
X496034Y526560D01*
X496028Y526559D01*
X495920Y526512D01*
X495813Y526466D01*
X495808Y526461D01*
X495803Y526459D01*
X495789Y526447D01*
X495682Y526361D01*
X453698Y484377D01*
X317954Y484377D01*
G37*
%LPD*%
%LPC*%
G36*
X43497Y331723D02*
X43497Y331723D01*
X39389Y333425D01*
X36245Y336569D01*
X34543Y340677D01*
X34543Y345123D01*
X36245Y349231D01*
X39389Y352375D01*
X43497Y354077D01*
X47943Y354077D01*
X52051Y352375D01*
X55195Y349231D01*
X56044Y347181D01*
X56106Y347081D01*
X56166Y346981D01*
X56171Y346977D01*
X56174Y346972D01*
X56265Y346897D01*
X56353Y346821D01*
X56359Y346819D01*
X56364Y346815D01*
X56472Y346773D01*
X56581Y346729D01*
X56589Y346728D01*
X56593Y346727D01*
X56611Y346726D01*
X56748Y346711D01*
X72792Y346711D01*
X72907Y346730D01*
X73023Y346747D01*
X73029Y346749D01*
X73035Y346750D01*
X73138Y346805D01*
X73242Y346858D01*
X73247Y346863D01*
X73252Y346866D01*
X73332Y346950D01*
X73415Y347034D01*
X73418Y347040D01*
X73422Y347044D01*
X73430Y347061D01*
X73496Y347181D01*
X74345Y349231D01*
X77489Y352375D01*
X79539Y353224D01*
X79639Y353286D01*
X79739Y353346D01*
X79743Y353351D01*
X79748Y353354D01*
X79823Y353445D01*
X79899Y353533D01*
X79901Y353539D01*
X79905Y353544D01*
X79947Y353652D01*
X79991Y353761D01*
X79992Y353769D01*
X79993Y353773D01*
X79994Y353791D01*
X80009Y353928D01*
X80009Y379106D01*
X79995Y379196D01*
X79987Y379287D01*
X79975Y379317D01*
X79970Y379349D01*
X79927Y379430D01*
X79891Y379514D01*
X79865Y379546D01*
X79854Y379566D01*
X79831Y379589D01*
X79786Y379644D01*
X66039Y393392D01*
X66039Y508308D01*
X87000Y529269D01*
X87066Y529362D01*
X87138Y529457D01*
X87139Y529464D01*
X87143Y529469D01*
X87177Y529579D01*
X87214Y529691D01*
X87214Y529698D01*
X87215Y529704D01*
X87212Y529820D01*
X87211Y529937D01*
X87209Y529944D01*
X87209Y529950D01*
X87203Y529967D01*
X87165Y530098D01*
X86613Y531429D01*
X86613Y535371D01*
X88121Y539012D01*
X90908Y541799D01*
X94549Y543307D01*
X98491Y543307D01*
X102132Y541799D01*
X104919Y539012D01*
X106427Y535371D01*
X106427Y531429D01*
X104919Y527788D01*
X102132Y525001D01*
X98491Y523493D01*
X94549Y523493D01*
X93218Y524045D01*
X93105Y524071D01*
X92991Y524100D01*
X92985Y524099D01*
X92979Y524101D01*
X92862Y524090D01*
X92746Y524081D01*
X92740Y524078D01*
X92734Y524078D01*
X92627Y524030D01*
X92520Y523984D01*
X92514Y523980D01*
X92509Y523978D01*
X92496Y523965D01*
X92389Y523880D01*
X73884Y505374D01*
X73831Y505301D01*
X73771Y505231D01*
X73759Y505201D01*
X73740Y505175D01*
X73713Y505088D01*
X73679Y505003D01*
X73675Y504962D01*
X73668Y504940D01*
X73669Y504907D01*
X73661Y504836D01*
X73661Y426585D01*
X73672Y426514D01*
X73674Y426442D01*
X73692Y426393D01*
X73700Y426342D01*
X73734Y426279D01*
X73759Y426211D01*
X73791Y426171D01*
X73816Y426125D01*
X73868Y426075D01*
X73912Y426019D01*
X73956Y425991D01*
X73994Y425955D01*
X74059Y425925D01*
X74119Y425886D01*
X74170Y425874D01*
X74217Y425852D01*
X74288Y425844D01*
X74358Y425826D01*
X74410Y425830D01*
X74461Y425825D01*
X74532Y425840D01*
X74603Y425845D01*
X74651Y425866D01*
X74702Y425877D01*
X74763Y425914D01*
X74829Y425942D01*
X74885Y425987D01*
X74913Y426003D01*
X74928Y426021D01*
X74960Y426047D01*
X77489Y428575D01*
X81597Y430277D01*
X86043Y430277D01*
X88094Y429427D01*
X88207Y429401D01*
X88321Y429372D01*
X88327Y429373D01*
X88333Y429371D01*
X88450Y429382D01*
X88566Y429391D01*
X88572Y429394D01*
X88578Y429394D01*
X88686Y429442D01*
X88792Y429488D01*
X88798Y429492D01*
X88803Y429494D01*
X88816Y429507D01*
X88923Y429592D01*
X105186Y445856D01*
X107642Y448311D01*
X136198Y448311D01*
X138654Y445856D01*
X154917Y429592D01*
X155012Y429524D01*
X155105Y429454D01*
X155111Y429453D01*
X155117Y429449D01*
X155228Y429415D01*
X155339Y429378D01*
X155346Y429378D01*
X155352Y429377D01*
X155468Y429380D01*
X155585Y429381D01*
X155592Y429383D01*
X155597Y429383D01*
X155615Y429389D01*
X155746Y429427D01*
X157797Y430277D01*
X162243Y430277D01*
X166351Y428575D01*
X169495Y425431D01*
X171197Y421323D01*
X171197Y416877D01*
X169495Y412769D01*
X166351Y409625D01*
X162243Y407923D01*
X157797Y407923D01*
X153689Y409625D01*
X150545Y412769D01*
X148843Y416877D01*
X148843Y421323D01*
X149693Y423374D01*
X149719Y423487D01*
X149748Y423601D01*
X149747Y423607D01*
X149749Y423613D01*
X149738Y423730D01*
X149729Y423846D01*
X149726Y423852D01*
X149726Y423858D01*
X149678Y423966D01*
X149632Y424072D01*
X149628Y424078D01*
X149626Y424083D01*
X149613Y424096D01*
X149528Y424203D01*
X133264Y440466D01*
X133191Y440519D01*
X133121Y440579D01*
X133091Y440591D01*
X133065Y440610D01*
X132978Y440637D01*
X132893Y440671D01*
X132852Y440675D01*
X132830Y440682D01*
X132797Y440681D01*
X132726Y440689D01*
X111114Y440689D01*
X111024Y440675D01*
X110933Y440667D01*
X110903Y440655D01*
X110871Y440650D01*
X110790Y440607D01*
X110706Y440571D01*
X110674Y440545D01*
X110654Y440534D01*
X110631Y440511D01*
X110576Y440466D01*
X94312Y424203D01*
X94244Y424108D01*
X94174Y424015D01*
X94173Y424009D01*
X94169Y424003D01*
X94135Y423892D01*
X94098Y423781D01*
X94098Y423774D01*
X94097Y423768D01*
X94100Y423652D01*
X94101Y423535D01*
X94103Y423528D01*
X94103Y423523D01*
X94109Y423505D01*
X94147Y423374D01*
X94997Y421323D01*
X94997Y416877D01*
X93295Y412769D01*
X90151Y409625D01*
X86043Y407923D01*
X81597Y407923D01*
X77489Y409625D01*
X74960Y412153D01*
X74902Y412195D01*
X74850Y412245D01*
X74803Y412267D01*
X74761Y412297D01*
X74692Y412318D01*
X74627Y412348D01*
X74575Y412354D01*
X74525Y412369D01*
X74454Y412367D01*
X74383Y412375D01*
X74332Y412364D01*
X74280Y412363D01*
X74212Y412338D01*
X74142Y412323D01*
X74097Y412296D01*
X74049Y412279D01*
X73993Y412234D01*
X73931Y412197D01*
X73897Y412157D01*
X73857Y412125D01*
X73818Y412065D01*
X73771Y412010D01*
X73752Y411962D01*
X73724Y411918D01*
X73706Y411848D01*
X73679Y411782D01*
X73671Y411711D01*
X73663Y411679D01*
X73665Y411656D01*
X73661Y411615D01*
X73661Y396864D01*
X73664Y396846D01*
X73662Y396829D01*
X73676Y396761D01*
X73683Y396683D01*
X73695Y396653D01*
X73700Y396621D01*
X73711Y396600D01*
X73714Y396588D01*
X73744Y396538D01*
X73779Y396456D01*
X73805Y396424D01*
X73816Y396404D01*
X73836Y396384D01*
X73840Y396377D01*
X73847Y396372D01*
X73884Y396326D01*
X83282Y386927D01*
X83298Y386916D01*
X83310Y386900D01*
X83398Y386844D01*
X83481Y386784D01*
X83500Y386778D01*
X83517Y386767D01*
X83618Y386742D01*
X83717Y386712D01*
X83736Y386712D01*
X83756Y386707D01*
X83859Y386715D01*
X83962Y386718D01*
X83981Y386725D01*
X84001Y386726D01*
X84096Y386767D01*
X84193Y386802D01*
X84209Y386815D01*
X84227Y386823D01*
X84358Y386927D01*
X111428Y413997D01*
X111496Y414092D01*
X111566Y414185D01*
X111567Y414191D01*
X111571Y414197D01*
X111605Y414308D01*
X111642Y414419D01*
X111642Y414426D01*
X111643Y414432D01*
X111640Y414548D01*
X111639Y414665D01*
X111637Y414672D01*
X111637Y414677D01*
X111631Y414695D01*
X111593Y414826D01*
X110743Y416877D01*
X110743Y421323D01*
X112445Y425431D01*
X115589Y428575D01*
X119697Y430277D01*
X124143Y430277D01*
X128251Y428575D01*
X131395Y425431D01*
X133097Y421323D01*
X133097Y416877D01*
X131395Y412769D01*
X128251Y409625D01*
X124143Y407923D01*
X119697Y407923D01*
X117646Y408773D01*
X117533Y408799D01*
X117419Y408828D01*
X117413Y408827D01*
X117407Y408829D01*
X117290Y408818D01*
X117174Y408809D01*
X117168Y408806D01*
X117162Y408806D01*
X117054Y408758D01*
X116948Y408712D01*
X116942Y408708D01*
X116937Y408706D01*
X116924Y408693D01*
X116817Y408608D01*
X87854Y379644D01*
X87801Y379571D01*
X87741Y379501D01*
X87729Y379471D01*
X87710Y379445D01*
X87683Y379358D01*
X87649Y379273D01*
X87645Y379232D01*
X87638Y379210D01*
X87639Y379177D01*
X87631Y379106D01*
X87631Y353928D01*
X87650Y353813D01*
X87667Y353697D01*
X87669Y353691D01*
X87670Y353685D01*
X87725Y353582D01*
X87778Y353478D01*
X87783Y353473D01*
X87786Y353468D01*
X87870Y353388D01*
X87954Y353305D01*
X87960Y353302D01*
X87964Y353298D01*
X87981Y353290D01*
X88101Y353224D01*
X90151Y352375D01*
X93295Y349231D01*
X94997Y345123D01*
X94997Y340677D01*
X93295Y336569D01*
X90151Y333425D01*
X86043Y331723D01*
X81597Y331723D01*
X77489Y333425D01*
X74345Y336569D01*
X73496Y338619D01*
X73434Y338719D01*
X73374Y338819D01*
X73369Y338823D01*
X73366Y338828D01*
X73276Y338903D01*
X73187Y338979D01*
X73181Y338981D01*
X73176Y338985D01*
X73068Y339027D01*
X72959Y339071D01*
X72951Y339072D01*
X72947Y339073D01*
X72929Y339074D01*
X72792Y339089D01*
X56748Y339089D01*
X56633Y339070D01*
X56517Y339053D01*
X56511Y339051D01*
X56505Y339050D01*
X56402Y338995D01*
X56298Y338942D01*
X56293Y338937D01*
X56288Y338934D01*
X56208Y338850D01*
X56125Y338766D01*
X56122Y338760D01*
X56118Y338756D01*
X56110Y338739D01*
X56044Y338619D01*
X55195Y336569D01*
X52051Y333425D01*
X47943Y331723D01*
X43497Y331723D01*
G37*
%LPD*%
%LPC*%
G36*
X773122Y491489D02*
X773122Y491489D01*
X732789Y531822D01*
X732789Y582306D01*
X732775Y582396D01*
X732767Y582487D01*
X732755Y582517D01*
X732750Y582549D01*
X732707Y582630D01*
X732671Y582714D01*
X732645Y582746D01*
X732634Y582766D01*
X732611Y582789D01*
X732566Y582845D01*
X720005Y595406D01*
X719931Y595459D01*
X719861Y595519D01*
X719831Y595531D01*
X719805Y595550D01*
X719718Y595577D01*
X719633Y595611D01*
X719592Y595615D01*
X719570Y595622D01*
X719538Y595621D01*
X719466Y595629D01*
X697854Y595629D01*
X697764Y595615D01*
X697673Y595607D01*
X697643Y595595D01*
X697611Y595590D01*
X697530Y595547D01*
X697446Y595511D01*
X697414Y595485D01*
X697394Y595474D01*
X697371Y595451D01*
X697316Y595406D01*
X689834Y587924D01*
X689781Y587851D01*
X689721Y587781D01*
X689709Y587751D01*
X689690Y587725D01*
X689663Y587638D01*
X689629Y587553D01*
X689625Y587512D01*
X689618Y587490D01*
X689619Y587457D01*
X689611Y587386D01*
X689611Y567382D01*
X682298Y560069D01*
X648662Y560069D01*
X646206Y562524D01*
X635023Y573708D01*
X634928Y573776D01*
X634835Y573846D01*
X634829Y573847D01*
X634824Y573851D01*
X634712Y573885D01*
X634601Y573922D01*
X634594Y573922D01*
X634588Y573923D01*
X634472Y573920D01*
X634355Y573919D01*
X634348Y573917D01*
X634343Y573917D01*
X634325Y573911D01*
X634194Y573873D01*
X632143Y573023D01*
X627697Y573023D01*
X623589Y574725D01*
X620445Y577869D01*
X618743Y581977D01*
X618743Y586423D01*
X620445Y590531D01*
X623589Y593675D01*
X627697Y595377D01*
X632143Y595377D01*
X636251Y593675D01*
X639395Y590531D01*
X641097Y586423D01*
X641097Y581977D01*
X640247Y579926D01*
X640221Y579813D01*
X640192Y579699D01*
X640193Y579693D01*
X640191Y579687D01*
X640202Y579570D01*
X640211Y579454D01*
X640214Y579448D01*
X640214Y579442D01*
X640262Y579334D01*
X640308Y579228D01*
X640312Y579222D01*
X640314Y579217D01*
X640327Y579204D01*
X640412Y579097D01*
X651596Y567914D01*
X651669Y567861D01*
X651739Y567801D01*
X651769Y567789D01*
X651795Y567770D01*
X651882Y567743D01*
X651967Y567709D01*
X652008Y567705D01*
X652030Y567698D01*
X652063Y567699D01*
X652134Y567691D01*
X678826Y567691D01*
X678916Y567705D01*
X679007Y567713D01*
X679037Y567725D01*
X679069Y567730D01*
X679150Y567773D01*
X679234Y567809D01*
X679266Y567835D01*
X679286Y567846D01*
X679309Y567869D01*
X679364Y567914D01*
X681766Y570316D01*
X681819Y570389D01*
X681879Y570459D01*
X681891Y570489D01*
X681910Y570515D01*
X681937Y570602D01*
X681971Y570687D01*
X681975Y570728D01*
X681982Y570750D01*
X681981Y570783D01*
X681989Y570854D01*
X681989Y590858D01*
X694382Y603251D01*
X722938Y603251D01*
X725394Y600796D01*
X725394Y600795D01*
X737955Y588234D01*
X737956Y588234D01*
X740411Y585778D01*
X740411Y535294D01*
X740425Y535204D01*
X740433Y535113D01*
X740445Y535083D01*
X740450Y535051D01*
X740493Y534970D01*
X740529Y534886D01*
X740555Y534854D01*
X740566Y534834D01*
X740589Y534811D01*
X740634Y534756D01*
X776056Y499334D01*
X776129Y499281D01*
X776199Y499221D01*
X776229Y499209D01*
X776255Y499190D01*
X776342Y499163D01*
X776427Y499129D01*
X776468Y499125D01*
X776490Y499118D01*
X776523Y499119D01*
X776594Y499111D01*
X818526Y499111D01*
X818616Y499125D01*
X818707Y499133D01*
X818737Y499145D01*
X818769Y499150D01*
X818850Y499193D01*
X818934Y499229D01*
X818966Y499255D01*
X818986Y499266D01*
X819009Y499289D01*
X819064Y499334D01*
X829086Y509356D01*
X829139Y509429D01*
X829199Y509499D01*
X829211Y509529D01*
X829230Y509555D01*
X829257Y509642D01*
X829291Y509727D01*
X829295Y509768D01*
X829302Y509790D01*
X829301Y509823D01*
X829309Y509894D01*
X829309Y531506D01*
X829295Y531596D01*
X829287Y531687D01*
X829275Y531717D01*
X829270Y531749D01*
X829227Y531830D01*
X829191Y531914D01*
X829165Y531946D01*
X829154Y531966D01*
X829131Y531989D01*
X829086Y532044D01*
X819064Y542066D01*
X818991Y542119D01*
X818921Y542179D01*
X818891Y542191D01*
X818865Y542210D01*
X818778Y542237D01*
X818693Y542271D01*
X818652Y542275D01*
X818630Y542282D01*
X818597Y542281D01*
X818526Y542289D01*
X811110Y542289D01*
X810995Y542271D01*
X810879Y542253D01*
X810873Y542251D01*
X810867Y542250D01*
X810764Y542195D01*
X810660Y542142D01*
X810655Y542137D01*
X810650Y542134D01*
X810569Y542049D01*
X810487Y541966D01*
X810484Y541960D01*
X810480Y541956D01*
X810472Y541939D01*
X810406Y541819D01*
X810332Y541639D01*
X808117Y539424D01*
X805222Y538225D01*
X789898Y538225D01*
X787003Y539424D01*
X784788Y541639D01*
X783589Y544534D01*
X783589Y547666D01*
X784788Y550561D01*
X787003Y552776D01*
X789898Y553975D01*
X805222Y553975D01*
X808117Y552776D01*
X810332Y550561D01*
X810406Y550381D01*
X810468Y550281D01*
X810528Y550181D01*
X810533Y550177D01*
X810536Y550172D01*
X810626Y550097D01*
X810715Y550021D01*
X810721Y550019D01*
X810726Y550015D01*
X810834Y549973D01*
X810943Y549929D01*
X810951Y549928D01*
X810955Y549927D01*
X810973Y549926D01*
X811110Y549911D01*
X821998Y549911D01*
X836931Y534978D01*
X836931Y506422D01*
X821998Y491489D01*
X773122Y491489D01*
G37*
%LPD*%
%LPC*%
G36*
X219409Y431291D02*
X219409Y431291D01*
X215391Y435309D01*
X215391Y440991D01*
X219409Y445009D01*
X223404Y445009D01*
X223494Y445023D01*
X223585Y445031D01*
X223615Y445043D01*
X223647Y445048D01*
X223728Y445091D01*
X223812Y445127D01*
X223844Y445153D01*
X223864Y445164D01*
X223887Y445187D01*
X223943Y445232D01*
X239722Y461011D01*
X250592Y461011D01*
X250707Y461030D01*
X250823Y461047D01*
X250829Y461049D01*
X250835Y461050D01*
X250938Y461105D01*
X251042Y461158D01*
X251047Y461163D01*
X251052Y461166D01*
X251132Y461250D01*
X251215Y461334D01*
X251218Y461340D01*
X251222Y461344D01*
X251230Y461361D01*
X251296Y461481D01*
X252145Y463531D01*
X255289Y466675D01*
X259397Y468377D01*
X263843Y468377D01*
X267951Y466675D01*
X271095Y463531D01*
X271944Y461481D01*
X272006Y461381D01*
X272066Y461281D01*
X272071Y461277D01*
X272074Y461272D01*
X272165Y461197D01*
X272253Y461121D01*
X272259Y461119D01*
X272264Y461115D01*
X272372Y461073D01*
X272481Y461029D01*
X272489Y461028D01*
X272493Y461027D01*
X272511Y461026D01*
X272648Y461011D01*
X288692Y461011D01*
X288807Y461030D01*
X288923Y461047D01*
X288929Y461049D01*
X288935Y461050D01*
X289038Y461105D01*
X289142Y461158D01*
X289147Y461163D01*
X289152Y461166D01*
X289232Y461250D01*
X289315Y461334D01*
X289318Y461340D01*
X289322Y461344D01*
X289330Y461361D01*
X289396Y461481D01*
X290245Y463531D01*
X293389Y466675D01*
X297497Y468377D01*
X301943Y468377D01*
X306051Y466675D01*
X309195Y463531D01*
X310044Y461481D01*
X310106Y461381D01*
X310166Y461281D01*
X310171Y461277D01*
X310174Y461272D01*
X310265Y461197D01*
X310353Y461121D01*
X310359Y461119D01*
X310364Y461115D01*
X310472Y461073D01*
X310581Y461029D01*
X310589Y461028D01*
X310593Y461027D01*
X310611Y461026D01*
X310748Y461011D01*
X326698Y461011D01*
X336127Y451582D01*
X336201Y451529D01*
X336271Y451469D01*
X336301Y451457D01*
X336327Y451438D01*
X336414Y451411D01*
X336499Y451377D01*
X336540Y451373D01*
X336562Y451366D01*
X336594Y451367D01*
X336666Y451359D01*
X340661Y451359D01*
X343486Y448534D01*
X343560Y448481D01*
X343629Y448421D01*
X343660Y448409D01*
X343686Y448390D01*
X343773Y448363D01*
X343858Y448329D01*
X343899Y448325D01*
X343921Y448318D01*
X343953Y448319D01*
X344024Y448311D01*
X369716Y448311D01*
X369806Y448325D01*
X369897Y448333D01*
X369926Y448345D01*
X369958Y448350D01*
X370039Y448393D01*
X370123Y448429D01*
X370155Y448455D01*
X370176Y448466D01*
X370198Y448489D01*
X370254Y448534D01*
X373079Y451359D01*
X377074Y451359D01*
X377164Y451373D01*
X377255Y451381D01*
X377285Y451393D01*
X377317Y451398D01*
X377398Y451441D01*
X377482Y451477D01*
X377514Y451503D01*
X377534Y451514D01*
X377557Y451537D01*
X377612Y451582D01*
X405076Y479045D01*
X466144Y479045D01*
X483956Y461234D01*
X484029Y461181D01*
X484099Y461121D01*
X484129Y461109D01*
X484155Y461090D01*
X484242Y461063D01*
X484327Y461029D01*
X484368Y461025D01*
X484390Y461018D01*
X484423Y461019D01*
X484494Y461011D01*
X491636Y461011D01*
X491726Y461025D01*
X491817Y461033D01*
X491846Y461045D01*
X491878Y461050D01*
X491959Y461093D01*
X492043Y461129D01*
X492075Y461155D01*
X492096Y461166D01*
X492118Y461189D01*
X492174Y461234D01*
X493955Y463015D01*
X496476Y464059D01*
X509364Y464059D01*
X511885Y463015D01*
X513815Y461085D01*
X514859Y458564D01*
X514859Y455836D01*
X513815Y453315D01*
X511885Y451385D01*
X509364Y450341D01*
X496476Y450341D01*
X493955Y451385D01*
X492174Y453166D01*
X492100Y453219D01*
X492031Y453279D01*
X492000Y453291D01*
X491974Y453310D01*
X491887Y453337D01*
X491802Y453371D01*
X491761Y453375D01*
X491739Y453382D01*
X491707Y453381D01*
X491636Y453389D01*
X481022Y453389D01*
X463210Y471200D01*
X463137Y471253D01*
X463067Y471313D01*
X463037Y471325D01*
X463011Y471344D01*
X462924Y471371D01*
X462839Y471405D01*
X462798Y471409D01*
X462776Y471416D01*
X462743Y471415D01*
X462672Y471423D01*
X408548Y471423D01*
X408458Y471409D01*
X408367Y471401D01*
X408337Y471389D01*
X408305Y471384D01*
X408224Y471341D01*
X408140Y471305D01*
X408108Y471279D01*
X408088Y471268D01*
X408065Y471245D01*
X408010Y471200D01*
X383002Y446192D01*
X382949Y446119D01*
X382889Y446049D01*
X382877Y446019D01*
X382858Y445993D01*
X382831Y445906D01*
X382797Y445821D01*
X382793Y445780D01*
X382786Y445758D01*
X382787Y445725D01*
X382779Y445654D01*
X382779Y441659D01*
X378761Y437641D01*
X373079Y437641D01*
X370254Y440466D01*
X370180Y440519D01*
X370111Y440579D01*
X370080Y440591D01*
X370054Y440610D01*
X369967Y440637D01*
X369882Y440671D01*
X369841Y440675D01*
X369819Y440682D01*
X369787Y440681D01*
X369716Y440689D01*
X344024Y440689D01*
X343934Y440675D01*
X343843Y440667D01*
X343814Y440655D01*
X343782Y440650D01*
X343701Y440607D01*
X343617Y440571D01*
X343585Y440545D01*
X343564Y440534D01*
X343542Y440511D01*
X343486Y440466D01*
X340661Y437641D01*
X334979Y437641D01*
X330961Y441659D01*
X330961Y445654D01*
X330947Y445744D01*
X330939Y445835D01*
X330927Y445865D01*
X330922Y445897D01*
X330879Y445978D01*
X330843Y446062D01*
X330817Y446094D01*
X330806Y446114D01*
X330783Y446137D01*
X330738Y446193D01*
X323764Y453166D01*
X323691Y453219D01*
X323621Y453279D01*
X323591Y453291D01*
X323565Y453310D01*
X323478Y453337D01*
X323393Y453371D01*
X323352Y453375D01*
X323330Y453382D01*
X323297Y453381D01*
X323226Y453389D01*
X310748Y453389D01*
X310633Y453370D01*
X310517Y453353D01*
X310511Y453351D01*
X310505Y453350D01*
X310402Y453295D01*
X310298Y453242D01*
X310293Y453237D01*
X310288Y453234D01*
X310208Y453150D01*
X310125Y453066D01*
X310122Y453060D01*
X310118Y453056D01*
X310110Y453039D01*
X310044Y452919D01*
X309195Y450869D01*
X306051Y447725D01*
X301943Y446023D01*
X297497Y446023D01*
X293389Y447725D01*
X290245Y450869D01*
X289396Y452919D01*
X289334Y453019D01*
X289274Y453119D01*
X289269Y453123D01*
X289266Y453128D01*
X289175Y453203D01*
X289087Y453279D01*
X289081Y453281D01*
X289076Y453285D01*
X288968Y453327D01*
X288859Y453371D01*
X288851Y453372D01*
X288847Y453373D01*
X288829Y453374D01*
X288692Y453389D01*
X272648Y453389D01*
X272533Y453370D01*
X272417Y453353D01*
X272411Y453351D01*
X272405Y453350D01*
X272302Y453295D01*
X272198Y453242D01*
X272193Y453237D01*
X272188Y453234D01*
X272108Y453150D01*
X272025Y453066D01*
X272022Y453060D01*
X272018Y453056D01*
X272010Y453039D01*
X271944Y452919D01*
X271095Y450869D01*
X267951Y447725D01*
X263843Y446023D01*
X259397Y446023D01*
X255289Y447725D01*
X252145Y450869D01*
X251296Y452919D01*
X251234Y453019D01*
X251174Y453119D01*
X251169Y453123D01*
X251166Y453128D01*
X251075Y453203D01*
X250987Y453279D01*
X250981Y453281D01*
X250976Y453285D01*
X250868Y453327D01*
X250759Y453371D01*
X250751Y453372D01*
X250747Y453373D01*
X250729Y453374D01*
X250592Y453389D01*
X243194Y453389D01*
X243104Y453375D01*
X243013Y453367D01*
X242983Y453355D01*
X242951Y453350D01*
X242870Y453307D01*
X242786Y453271D01*
X242754Y453245D01*
X242734Y453234D01*
X242711Y453211D01*
X242656Y453166D01*
X229332Y439843D01*
X229279Y439769D01*
X229219Y439699D01*
X229207Y439669D01*
X229188Y439643D01*
X229161Y439556D01*
X229127Y439471D01*
X229123Y439430D01*
X229116Y439408D01*
X229117Y439376D01*
X229109Y439304D01*
X229109Y435309D01*
X225091Y431291D01*
X219409Y431291D01*
G37*
%LPD*%
%LPC*%
G36*
X496476Y424941D02*
X496476Y424941D01*
X493955Y425985D01*
X492174Y427766D01*
X492100Y427819D01*
X492031Y427879D01*
X492000Y427891D01*
X491974Y427910D01*
X491887Y427937D01*
X491802Y427971D01*
X491761Y427975D01*
X491739Y427982D01*
X491707Y427981D01*
X491636Y427989D01*
X475942Y427989D01*
X473486Y430444D01*
X457223Y446708D01*
X457128Y446776D01*
X457035Y446846D01*
X457029Y446847D01*
X457023Y446851D01*
X456912Y446885D01*
X456801Y446922D01*
X456794Y446922D01*
X456788Y446923D01*
X456672Y446920D01*
X456555Y446919D01*
X456548Y446917D01*
X456543Y446917D01*
X456525Y446911D01*
X456394Y446873D01*
X454343Y446023D01*
X449897Y446023D01*
X445789Y447725D01*
X442645Y450869D01*
X441796Y452919D01*
X441734Y453019D01*
X441674Y453119D01*
X441669Y453123D01*
X441666Y453128D01*
X441575Y453203D01*
X441487Y453279D01*
X441481Y453281D01*
X441476Y453285D01*
X441368Y453327D01*
X441259Y453371D01*
X441251Y453372D01*
X441247Y453373D01*
X441229Y453374D01*
X441092Y453389D01*
X425048Y453389D01*
X424933Y453370D01*
X424817Y453353D01*
X424811Y453351D01*
X424805Y453350D01*
X424702Y453295D01*
X424598Y453242D01*
X424593Y453237D01*
X424588Y453234D01*
X424508Y453150D01*
X424425Y453066D01*
X424422Y453060D01*
X424418Y453056D01*
X424410Y453039D01*
X424344Y452919D01*
X423495Y450869D01*
X420351Y447725D01*
X416243Y446023D01*
X411797Y446023D01*
X407689Y447725D01*
X404545Y450869D01*
X402843Y454977D01*
X402843Y459423D01*
X404545Y463531D01*
X407689Y466675D01*
X411797Y468377D01*
X416243Y468377D01*
X420351Y466675D01*
X423495Y463531D01*
X424344Y461481D01*
X424406Y461381D01*
X424466Y461281D01*
X424471Y461277D01*
X424474Y461272D01*
X424565Y461197D01*
X424653Y461121D01*
X424659Y461119D01*
X424664Y461115D01*
X424772Y461073D01*
X424881Y461029D01*
X424889Y461028D01*
X424893Y461027D01*
X424911Y461026D01*
X425048Y461011D01*
X441092Y461011D01*
X441207Y461030D01*
X441323Y461047D01*
X441329Y461049D01*
X441335Y461050D01*
X441438Y461105D01*
X441542Y461158D01*
X441547Y461163D01*
X441552Y461166D01*
X441632Y461250D01*
X441715Y461334D01*
X441718Y461340D01*
X441722Y461344D01*
X441730Y461361D01*
X441796Y461481D01*
X442645Y463531D01*
X445789Y466675D01*
X449897Y468377D01*
X454343Y468377D01*
X458451Y466675D01*
X461595Y463531D01*
X463297Y459423D01*
X463297Y454977D01*
X462447Y452926D01*
X462421Y452813D01*
X462392Y452699D01*
X462393Y452693D01*
X462391Y452687D01*
X462402Y452570D01*
X462411Y452454D01*
X462414Y452448D01*
X462414Y452442D01*
X462462Y452334D01*
X462508Y452228D01*
X462512Y452222D01*
X462514Y452217D01*
X462527Y452204D01*
X462612Y452097D01*
X478876Y435834D01*
X478949Y435781D01*
X479019Y435721D01*
X479049Y435709D01*
X479075Y435690D01*
X479162Y435663D01*
X479247Y435629D01*
X479288Y435625D01*
X479310Y435618D01*
X479343Y435619D01*
X479414Y435611D01*
X491636Y435611D01*
X491726Y435625D01*
X491817Y435633D01*
X491846Y435645D01*
X491878Y435650D01*
X491959Y435693D01*
X492043Y435729D01*
X492075Y435755D01*
X492096Y435766D01*
X492118Y435789D01*
X492174Y435834D01*
X493955Y437615D01*
X496476Y438659D01*
X509364Y438659D01*
X511885Y437615D01*
X513815Y435685D01*
X514859Y433164D01*
X514859Y430436D01*
X513815Y427915D01*
X511885Y425985D01*
X509364Y424941D01*
X496476Y424941D01*
G37*
%LPD*%
%LPC*%
G36*
X775017Y95503D02*
X775017Y95503D01*
X770909Y97205D01*
X767765Y100349D01*
X766063Y104457D01*
X766063Y108903D01*
X767765Y113011D01*
X770909Y116155D01*
X772959Y117004D01*
X773059Y117066D01*
X773159Y117126D01*
X773163Y117131D01*
X773168Y117134D01*
X773243Y117225D01*
X773319Y117313D01*
X773321Y117319D01*
X773325Y117324D01*
X773367Y117432D01*
X773411Y117541D01*
X773412Y117549D01*
X773413Y117553D01*
X773414Y117571D01*
X773429Y117708D01*
X773429Y130186D01*
X773415Y130276D01*
X773407Y130367D01*
X773395Y130397D01*
X773390Y130429D01*
X773347Y130510D01*
X773311Y130594D01*
X773285Y130626D01*
X773274Y130646D01*
X773251Y130669D01*
X773206Y130724D01*
X750484Y153446D01*
X750411Y153499D01*
X750341Y153559D01*
X750311Y153571D01*
X750285Y153590D01*
X750198Y153617D01*
X750113Y153651D01*
X750072Y153655D01*
X750050Y153662D01*
X750017Y153661D01*
X749946Y153669D01*
X745344Y153669D01*
X745254Y153655D01*
X745163Y153647D01*
X745133Y153635D01*
X745102Y153630D01*
X745021Y153587D01*
X744937Y153551D01*
X744905Y153525D01*
X744884Y153514D01*
X744862Y153491D01*
X744806Y153446D01*
X741981Y150621D01*
X736299Y150621D01*
X732281Y154639D01*
X732281Y160321D01*
X736299Y164339D01*
X741981Y164339D01*
X744806Y161514D01*
X744880Y161461D01*
X744949Y161401D01*
X744979Y161389D01*
X745006Y161370D01*
X745093Y161343D01*
X745178Y161309D01*
X745218Y161305D01*
X745241Y161298D01*
X745273Y161299D01*
X745344Y161291D01*
X753418Y161291D01*
X781051Y133658D01*
X781051Y117708D01*
X781070Y117593D01*
X781087Y117477D01*
X781089Y117471D01*
X781090Y117465D01*
X781145Y117362D01*
X781198Y117258D01*
X781203Y117253D01*
X781206Y117248D01*
X781290Y117168D01*
X781374Y117085D01*
X781380Y117082D01*
X781384Y117078D01*
X781401Y117070D01*
X781521Y117004D01*
X783571Y116155D01*
X786715Y113011D01*
X788417Y108903D01*
X788417Y104457D01*
X786715Y100349D01*
X783571Y97205D01*
X779463Y95503D01*
X775017Y95503D01*
G37*
%LPD*%
%LPC*%
G36*
X94549Y574293D02*
X94549Y574293D01*
X90908Y575801D01*
X88121Y578588D01*
X86613Y582229D01*
X86613Y586171D01*
X88121Y589812D01*
X90908Y592599D01*
X92239Y593150D01*
X92339Y593211D01*
X92439Y593271D01*
X92443Y593276D01*
X92448Y593279D01*
X92523Y593369D01*
X92599Y593458D01*
X92601Y593464D01*
X92605Y593469D01*
X92647Y593577D01*
X92691Y593686D01*
X92692Y593694D01*
X92693Y593699D01*
X92694Y593717D01*
X92709Y593853D01*
X92709Y649278D01*
X95164Y651734D01*
X102138Y658707D01*
X102191Y658781D01*
X102251Y658851D01*
X102263Y658881D01*
X102282Y658907D01*
X102309Y658994D01*
X102343Y659079D01*
X102347Y659120D01*
X102354Y659142D01*
X102353Y659174D01*
X102361Y659246D01*
X102361Y663241D01*
X106379Y667259D01*
X112061Y667259D01*
X116079Y663241D01*
X116079Y657559D01*
X112061Y653541D01*
X108066Y653541D01*
X107976Y653527D01*
X107885Y653519D01*
X107855Y653507D01*
X107823Y653502D01*
X107742Y653459D01*
X107658Y653423D01*
X107626Y653397D01*
X107606Y653386D01*
X107583Y653363D01*
X107527Y653318D01*
X100554Y646344D01*
X100501Y646271D01*
X100441Y646201D01*
X100429Y646171D01*
X100410Y646145D01*
X100383Y646058D01*
X100374Y646035D01*
X100359Y646002D01*
X100358Y645995D01*
X100349Y645973D01*
X100345Y645932D01*
X100338Y645910D01*
X100339Y645877D01*
X100331Y645806D01*
X100331Y593853D01*
X100350Y593738D01*
X100367Y593622D01*
X100369Y593617D01*
X100370Y593610D01*
X100425Y593508D01*
X100478Y593403D01*
X100483Y593399D01*
X100486Y593393D01*
X100570Y593313D01*
X100654Y593231D01*
X100660Y593227D01*
X100664Y593224D01*
X100681Y593216D01*
X100801Y593150D01*
X102132Y592599D01*
X104919Y589812D01*
X106427Y586171D01*
X106427Y582229D01*
X104919Y578588D01*
X102132Y575801D01*
X98491Y574293D01*
X94549Y574293D01*
G37*
%LPD*%
%LPC*%
G36*
X297497Y573023D02*
X297497Y573023D01*
X293389Y574725D01*
X290245Y577869D01*
X288543Y581977D01*
X288543Y586423D01*
X290245Y590531D01*
X293389Y593675D01*
X297497Y595377D01*
X301943Y595377D01*
X306051Y593675D01*
X309195Y590531D01*
X310044Y588481D01*
X310106Y588381D01*
X310166Y588281D01*
X310171Y588277D01*
X310174Y588272D01*
X310265Y588197D01*
X310353Y588121D01*
X310359Y588119D01*
X310364Y588115D01*
X310472Y588073D01*
X310581Y588029D01*
X310589Y588028D01*
X310593Y588027D01*
X310611Y588026D01*
X310748Y588011D01*
X326792Y588011D01*
X326907Y588030D01*
X327023Y588047D01*
X327029Y588049D01*
X327035Y588050D01*
X327138Y588105D01*
X327242Y588158D01*
X327247Y588163D01*
X327252Y588166D01*
X327332Y588250D01*
X327415Y588334D01*
X327418Y588340D01*
X327422Y588344D01*
X327430Y588361D01*
X327496Y588481D01*
X328345Y590531D01*
X331489Y593675D01*
X335597Y595377D01*
X340043Y595377D01*
X344151Y593675D01*
X347295Y590531D01*
X348997Y586423D01*
X348997Y581977D01*
X347295Y577869D01*
X344151Y574725D01*
X340043Y573023D01*
X335597Y573023D01*
X331489Y574725D01*
X328345Y577869D01*
X327496Y579919D01*
X327434Y580019D01*
X327374Y580119D01*
X327369Y580123D01*
X327366Y580128D01*
X327275Y580203D01*
X327187Y580279D01*
X327181Y580281D01*
X327176Y580285D01*
X327068Y580327D01*
X326959Y580371D01*
X326951Y580372D01*
X326947Y580373D01*
X326929Y580374D01*
X326792Y580389D01*
X310748Y580389D01*
X310633Y580370D01*
X310517Y580353D01*
X310511Y580351D01*
X310505Y580350D01*
X310402Y580295D01*
X310298Y580242D01*
X310293Y580237D01*
X310288Y580234D01*
X310208Y580150D01*
X310125Y580066D01*
X310122Y580060D01*
X310118Y580056D01*
X310110Y580039D01*
X310044Y579919D01*
X309195Y577869D01*
X306051Y574725D01*
X301943Y573023D01*
X297497Y573023D01*
G37*
%LPD*%
%LPC*%
G36*
X43497Y515873D02*
X43497Y515873D01*
X39389Y517575D01*
X36245Y520719D01*
X34543Y524827D01*
X34543Y529273D01*
X36245Y533381D01*
X39389Y536525D01*
X41439Y537374D01*
X41539Y537436D01*
X41639Y537496D01*
X41643Y537501D01*
X41648Y537504D01*
X41723Y537595D01*
X41799Y537683D01*
X41801Y537689D01*
X41805Y537694D01*
X41847Y537802D01*
X41891Y537911D01*
X41892Y537919D01*
X41893Y537923D01*
X41894Y537941D01*
X41909Y538078D01*
X41909Y541422D01*
X41890Y541537D01*
X41873Y541653D01*
X41871Y541659D01*
X41870Y541665D01*
X41815Y541768D01*
X41762Y541872D01*
X41757Y541877D01*
X41754Y541882D01*
X41670Y541962D01*
X41586Y542045D01*
X41580Y542048D01*
X41576Y542052D01*
X41559Y542060D01*
X41439Y542126D01*
X39389Y542975D01*
X36245Y546119D01*
X34543Y550227D01*
X34543Y554673D01*
X36245Y558781D01*
X39389Y561925D01*
X43497Y563627D01*
X47943Y563627D01*
X52051Y561925D01*
X55195Y558781D01*
X56897Y554673D01*
X56897Y550227D01*
X55195Y546119D01*
X52051Y542975D01*
X50001Y542126D01*
X49901Y542064D01*
X49801Y542004D01*
X49797Y541999D01*
X49792Y541996D01*
X49717Y541905D01*
X49641Y541817D01*
X49639Y541811D01*
X49635Y541806D01*
X49593Y541698D01*
X49549Y541589D01*
X49548Y541581D01*
X49547Y541577D01*
X49546Y541559D01*
X49531Y541422D01*
X49531Y538078D01*
X49550Y537963D01*
X49567Y537847D01*
X49569Y537841D01*
X49570Y537835D01*
X49625Y537732D01*
X49678Y537628D01*
X49683Y537623D01*
X49686Y537618D01*
X49770Y537538D01*
X49854Y537455D01*
X49860Y537452D01*
X49864Y537448D01*
X49881Y537440D01*
X50001Y537374D01*
X52051Y536525D01*
X55195Y533381D01*
X56897Y529273D01*
X56897Y524827D01*
X55195Y520719D01*
X52051Y517575D01*
X47943Y515873D01*
X43497Y515873D01*
G37*
%LPD*%
%LPC*%
G36*
X734377Y674623D02*
X734377Y674623D01*
X730269Y676325D01*
X727125Y679469D01*
X725423Y683577D01*
X725423Y688023D01*
X727125Y692131D01*
X730269Y695275D01*
X734377Y696977D01*
X738823Y696977D01*
X742931Y695275D01*
X746075Y692131D01*
X747777Y688023D01*
X747777Y683577D01*
X746075Y679469D01*
X742931Y676325D01*
X738823Y674623D01*
X734377Y674623D01*
G37*
%LPD*%
%LPC*%
G36*
X708977Y674623D02*
X708977Y674623D01*
X704869Y676325D01*
X701725Y679469D01*
X700023Y683577D01*
X700023Y688023D01*
X701725Y692131D01*
X704869Y695275D01*
X708977Y696977D01*
X713423Y696977D01*
X717531Y695275D01*
X720675Y692131D01*
X722377Y688023D01*
X722377Y683577D01*
X720675Y679469D01*
X717531Y676325D01*
X713423Y674623D01*
X708977Y674623D01*
G37*
%LPD*%
%LPC*%
G36*
X665797Y369823D02*
X665797Y369823D01*
X661689Y371525D01*
X658545Y374669D01*
X656843Y378777D01*
X656843Y383223D01*
X658545Y387331D01*
X661689Y390475D01*
X665797Y392177D01*
X670243Y392177D01*
X674351Y390475D01*
X677495Y387331D01*
X679197Y383223D01*
X679197Y378777D01*
X677495Y374669D01*
X674351Y371525D01*
X670243Y369823D01*
X665797Y369823D01*
G37*
%LPD*%
%LPC*%
G36*
X411797Y369823D02*
X411797Y369823D01*
X407689Y371525D01*
X404545Y374669D01*
X402843Y378777D01*
X402843Y383223D01*
X404545Y387331D01*
X407689Y390475D01*
X411797Y392177D01*
X416243Y392177D01*
X420351Y390475D01*
X423495Y387331D01*
X425197Y383223D01*
X425197Y378777D01*
X423495Y374669D01*
X420351Y371525D01*
X416243Y369823D01*
X411797Y369823D01*
G37*
%LPD*%
%LPC*%
G36*
X780097Y369823D02*
X780097Y369823D01*
X775989Y371525D01*
X772845Y374669D01*
X771143Y378777D01*
X771143Y383223D01*
X772845Y387331D01*
X775989Y390475D01*
X780097Y392177D01*
X784543Y392177D01*
X788651Y390475D01*
X791795Y387331D01*
X793497Y383223D01*
X793497Y378777D01*
X791795Y374669D01*
X788651Y371525D01*
X784543Y369823D01*
X780097Y369823D01*
G37*
%LPD*%
%LPC*%
G36*
X373697Y598423D02*
X373697Y598423D01*
X369589Y600125D01*
X366445Y603269D01*
X364743Y607377D01*
X364743Y611823D01*
X366445Y615931D01*
X369589Y619075D01*
X373697Y620777D01*
X378143Y620777D01*
X382251Y619075D01*
X385395Y615931D01*
X387097Y611823D01*
X387097Y607377D01*
X385395Y603269D01*
X382251Y600125D01*
X378143Y598423D01*
X373697Y598423D01*
G37*
%LPD*%
%LPC*%
G36*
X775017Y19303D02*
X775017Y19303D01*
X770909Y21005D01*
X767765Y24149D01*
X766063Y28257D01*
X766063Y32703D01*
X767765Y36811D01*
X770909Y39955D01*
X775017Y41657D01*
X779463Y41657D01*
X783571Y39955D01*
X786715Y36811D01*
X788417Y32703D01*
X788417Y28257D01*
X786715Y24149D01*
X783571Y21005D01*
X779463Y19303D01*
X775017Y19303D01*
G37*
%LPD*%
%LPC*%
G36*
X373697Y573023D02*
X373697Y573023D01*
X369589Y574725D01*
X366445Y577869D01*
X364743Y581977D01*
X364743Y586423D01*
X366445Y590531D01*
X369589Y593675D01*
X373697Y595377D01*
X378143Y595377D01*
X382251Y593675D01*
X385395Y590531D01*
X387097Y586423D01*
X387097Y581977D01*
X385395Y577869D01*
X382251Y574725D01*
X378143Y573023D01*
X373697Y573023D01*
G37*
%LPD*%
%LPC*%
G36*
X736917Y32003D02*
X736917Y32003D01*
X732809Y33705D01*
X729665Y36849D01*
X727963Y40957D01*
X727963Y45403D01*
X729665Y49511D01*
X732809Y52655D01*
X736917Y54357D01*
X741363Y54357D01*
X745471Y52655D01*
X748615Y49511D01*
X750317Y45403D01*
X750317Y40957D01*
X748615Y36849D01*
X745471Y33705D01*
X741363Y32003D01*
X736917Y32003D01*
G37*
%LPD*%
%LPC*%
G36*
X665797Y496823D02*
X665797Y496823D01*
X661689Y498525D01*
X658545Y501669D01*
X656843Y505777D01*
X656843Y510223D01*
X658545Y514331D01*
X661689Y517475D01*
X665797Y519177D01*
X670243Y519177D01*
X674351Y517475D01*
X677495Y514331D01*
X679197Y510223D01*
X679197Y505777D01*
X677495Y501669D01*
X674351Y498525D01*
X670243Y496823D01*
X665797Y496823D01*
G37*
%LPD*%
%LPC*%
G36*
X42227Y230123D02*
X42227Y230123D01*
X38119Y231825D01*
X34975Y234969D01*
X33273Y239077D01*
X33273Y243523D01*
X34975Y247631D01*
X38119Y250775D01*
X42227Y252477D01*
X46673Y252477D01*
X50781Y250775D01*
X53925Y247631D01*
X55627Y243523D01*
X55627Y239077D01*
X53925Y234969D01*
X50781Y231825D01*
X46673Y230123D01*
X42227Y230123D01*
G37*
%LPD*%
%LPC*%
G36*
X42227Y255523D02*
X42227Y255523D01*
X38119Y257225D01*
X34975Y260369D01*
X33273Y264477D01*
X33273Y268923D01*
X34975Y273031D01*
X38119Y276175D01*
X42227Y277877D01*
X46673Y277877D01*
X50781Y276175D01*
X53925Y273031D01*
X55627Y268923D01*
X55627Y264477D01*
X53925Y260369D01*
X50781Y257225D01*
X46673Y255523D01*
X42227Y255523D01*
G37*
%LPD*%
%LPC*%
G36*
X787358Y563625D02*
X787358Y563625D01*
X784463Y564824D01*
X782248Y567039D01*
X781049Y569934D01*
X781049Y573066D01*
X782248Y575961D01*
X784463Y578176D01*
X787358Y579375D01*
X802682Y579375D01*
X805577Y578176D01*
X807792Y575961D01*
X808991Y573066D01*
X808991Y569934D01*
X807792Y567039D01*
X805577Y564824D01*
X802682Y563625D01*
X787358Y563625D01*
G37*
%LPD*%
%LPC*%
G36*
X519189Y46100D02*
X519189Y46100D01*
X513460Y51829D01*
X513460Y59931D01*
X519189Y65660D01*
X527291Y65660D01*
X533020Y59931D01*
X533020Y51829D01*
X527291Y46100D01*
X519189Y46100D01*
G37*
%LPD*%
%LPC*%
G36*
X572676Y501141D02*
X572676Y501141D01*
X570155Y502185D01*
X568225Y504115D01*
X567181Y506636D01*
X567181Y509364D01*
X568225Y511885D01*
X570155Y513815D01*
X572676Y514859D01*
X585564Y514859D01*
X588085Y513815D01*
X590015Y511885D01*
X591059Y509364D01*
X591059Y506636D01*
X590015Y504115D01*
X588085Y502185D01*
X585564Y501141D01*
X572676Y501141D01*
G37*
%LPD*%
%LPC*%
G36*
X572676Y551941D02*
X572676Y551941D01*
X570155Y552985D01*
X568225Y554915D01*
X567181Y557436D01*
X567181Y560164D01*
X568225Y562685D01*
X570155Y564615D01*
X572676Y565659D01*
X585564Y565659D01*
X588085Y564615D01*
X590015Y562685D01*
X591059Y560164D01*
X591059Y557436D01*
X590015Y554915D01*
X588085Y552985D01*
X585564Y551941D01*
X572676Y551941D01*
G37*
%LPD*%
%LPC*%
G36*
X572676Y526541D02*
X572676Y526541D01*
X570155Y527585D01*
X568225Y529515D01*
X567181Y532036D01*
X567181Y534764D01*
X568225Y537285D01*
X570155Y539215D01*
X572676Y540259D01*
X585564Y540259D01*
X588085Y539215D01*
X590015Y537285D01*
X591059Y534764D01*
X591059Y532036D01*
X590015Y529515D01*
X588085Y527585D01*
X585564Y526541D01*
X572676Y526541D01*
G37*
%LPD*%
%LPC*%
G36*
X289259Y666241D02*
X289259Y666241D01*
X285241Y670259D01*
X285241Y675941D01*
X289259Y679959D01*
X294941Y679959D01*
X298959Y675941D01*
X298959Y670259D01*
X294941Y666241D01*
X289259Y666241D01*
G37*
%LPD*%
%LPC*%
G36*
X106379Y615441D02*
X106379Y615441D01*
X102361Y619459D01*
X102361Y625141D01*
X106379Y629159D01*
X112061Y629159D01*
X116079Y625141D01*
X116079Y619459D01*
X112061Y615441D01*
X106379Y615441D01*
G37*
%LPD*%
%LPC*%
G36*
X157179Y653541D02*
X157179Y653541D01*
X153161Y657559D01*
X153161Y663241D01*
X157179Y667259D01*
X162861Y667259D01*
X166879Y663241D01*
X166879Y657559D01*
X162861Y653541D01*
X157179Y653541D01*
G37*
%LPD*%
%LPC*%
G36*
X867109Y342391D02*
X867109Y342391D01*
X863091Y346409D01*
X863091Y352091D01*
X867109Y356109D01*
X872791Y356109D01*
X876809Y352091D01*
X876809Y346409D01*
X872791Y342391D01*
X867109Y342391D01*
G37*
%LPD*%
%LPC*%
G36*
X334979Y386841D02*
X334979Y386841D01*
X330961Y390859D01*
X330961Y396541D01*
X334979Y400559D01*
X340661Y400559D01*
X344679Y396541D01*
X344679Y390859D01*
X340661Y386841D01*
X334979Y386841D01*
G37*
%LPD*%
%LPC*%
G36*
X373079Y386841D02*
X373079Y386841D01*
X369061Y390859D01*
X369061Y396541D01*
X373079Y400559D01*
X378761Y400559D01*
X382779Y396541D01*
X382779Y390859D01*
X378761Y386841D01*
X373079Y386841D01*
G37*
%LPD*%
%LPC*%
G36*
X625809Y183641D02*
X625809Y183641D01*
X621791Y187659D01*
X621791Y193341D01*
X625809Y197359D01*
X631491Y197359D01*
X635509Y193341D01*
X635509Y187659D01*
X631491Y183641D01*
X625809Y183641D01*
G37*
%LPD*%
%LPC*%
G36*
X507699Y150621D02*
X507699Y150621D01*
X503681Y154639D01*
X503681Y160321D01*
X507699Y164339D01*
X513381Y164339D01*
X517399Y160321D01*
X517399Y154639D01*
X513381Y150621D01*
X507699Y150621D01*
G37*
%LPD*%
%LPC*%
G36*
X219409Y405891D02*
X219409Y405891D01*
X215391Y409909D01*
X215391Y415591D01*
X219409Y419609D01*
X225091Y419609D01*
X229109Y415591D01*
X229109Y409909D01*
X225091Y405891D01*
X219409Y405891D01*
G37*
%LPD*%
%LPC*%
G36*
X263143Y509523D02*
X263143Y509523D01*
X263143Y519846D01*
X264416Y519645D01*
X266203Y519064D01*
X267877Y518211D01*
X269398Y517106D01*
X270726Y515778D01*
X271831Y514257D01*
X272684Y512583D01*
X273265Y510796D01*
X273466Y509523D01*
X263143Y509523D01*
G37*
%LPD*%
%LPC*%
G36*
X453643Y611123D02*
X453643Y611123D01*
X453643Y621446D01*
X454916Y621245D01*
X456703Y620664D01*
X458377Y619811D01*
X459898Y618706D01*
X461226Y617378D01*
X462331Y615857D01*
X463184Y614183D01*
X463765Y612396D01*
X463966Y611123D01*
X453643Y611123D01*
G37*
%LPD*%
%LPC*%
G36*
X745743Y382523D02*
X745743Y382523D01*
X745743Y392846D01*
X747016Y392645D01*
X748803Y392064D01*
X750477Y391211D01*
X751998Y390106D01*
X753326Y388778D01*
X754431Y387257D01*
X755284Y385583D01*
X755865Y383796D01*
X756066Y382523D01*
X745743Y382523D01*
G37*
%LPD*%
%LPC*%
G36*
X47243Y420623D02*
X47243Y420623D01*
X47243Y430946D01*
X48516Y430745D01*
X50303Y430164D01*
X51977Y429311D01*
X53498Y428206D01*
X54826Y426878D01*
X55931Y425357D01*
X56784Y423683D01*
X57365Y421896D01*
X57566Y420623D01*
X47243Y420623D01*
G37*
%LPD*%
%LPC*%
G36*
X740663Y95503D02*
X740663Y95503D01*
X740663Y105826D01*
X741936Y105625D01*
X743723Y105044D01*
X745397Y104191D01*
X746918Y103086D01*
X748246Y101758D01*
X749351Y100237D01*
X750204Y98563D01*
X750785Y96776D01*
X750986Y95503D01*
X740663Y95503D01*
G37*
%LPD*%
%LPC*%
G36*
X47243Y417577D02*
X47243Y417577D01*
X57566Y417577D01*
X57365Y416304D01*
X56784Y414517D01*
X55931Y412843D01*
X54826Y411322D01*
X53498Y409994D01*
X51977Y408889D01*
X50303Y408036D01*
X48516Y407455D01*
X47243Y407254D01*
X47243Y417577D01*
G37*
%LPD*%
%LPC*%
G36*
X732374Y382523D02*
X732374Y382523D01*
X732575Y383796D01*
X733156Y385583D01*
X734009Y387257D01*
X735114Y388778D01*
X736442Y390106D01*
X737963Y391211D01*
X739637Y392064D01*
X741424Y392645D01*
X742697Y392846D01*
X742697Y382523D01*
X732374Y382523D01*
G37*
%LPD*%
%LPC*%
G36*
X33874Y420623D02*
X33874Y420623D01*
X34075Y421896D01*
X34656Y423683D01*
X35509Y425357D01*
X36614Y426878D01*
X37942Y428206D01*
X39463Y429311D01*
X41137Y430164D01*
X42924Y430745D01*
X44197Y430946D01*
X44197Y420623D01*
X33874Y420623D01*
G37*
%LPD*%
%LPC*%
G36*
X745743Y379477D02*
X745743Y379477D01*
X756066Y379477D01*
X755865Y378204D01*
X755284Y376417D01*
X754431Y374743D01*
X753326Y373222D01*
X751998Y371894D01*
X750477Y370789D01*
X748803Y369936D01*
X747016Y369355D01*
X745743Y369154D01*
X745743Y379477D01*
G37*
%LPD*%
%LPC*%
G36*
X440274Y611123D02*
X440274Y611123D01*
X440475Y612396D01*
X441056Y614183D01*
X441909Y615857D01*
X443014Y617378D01*
X444342Y618706D01*
X445863Y619811D01*
X447537Y620664D01*
X449324Y621245D01*
X450597Y621446D01*
X450597Y611123D01*
X440274Y611123D01*
G37*
%LPD*%
%LPC*%
G36*
X727294Y95503D02*
X727294Y95503D01*
X727495Y96776D01*
X728076Y98563D01*
X728929Y100237D01*
X730034Y101758D01*
X731362Y103086D01*
X732883Y104191D01*
X734557Y105044D01*
X736344Y105625D01*
X737617Y105826D01*
X737617Y95503D01*
X727294Y95503D01*
G37*
%LPD*%
%LPC*%
G36*
X453643Y608077D02*
X453643Y608077D01*
X463966Y608077D01*
X463765Y606804D01*
X463184Y605017D01*
X462331Y603343D01*
X461226Y601822D01*
X459898Y600494D01*
X458377Y599389D01*
X456703Y598536D01*
X454916Y597955D01*
X453643Y597754D01*
X453643Y608077D01*
G37*
%LPD*%
%LPC*%
G36*
X740663Y92457D02*
X740663Y92457D01*
X750986Y92457D01*
X750785Y91184D01*
X750204Y89397D01*
X749351Y87723D01*
X748246Y86202D01*
X746918Y84874D01*
X745397Y83769D01*
X743723Y82916D01*
X741936Y82335D01*
X740663Y82134D01*
X740663Y92457D01*
G37*
%LPD*%
%LPC*%
G36*
X249774Y509523D02*
X249774Y509523D01*
X249975Y510796D01*
X250556Y512583D01*
X251409Y514257D01*
X252514Y515778D01*
X253842Y517106D01*
X255363Y518211D01*
X257037Y519064D01*
X258824Y519645D01*
X260097Y519846D01*
X260097Y509523D01*
X249774Y509523D01*
G37*
%LPD*%
%LPC*%
G36*
X263143Y506477D02*
X263143Y506477D01*
X273466Y506477D01*
X273265Y505204D01*
X272684Y503417D01*
X271831Y501743D01*
X270726Y500222D01*
X269398Y498894D01*
X267877Y497789D01*
X266203Y496936D01*
X264416Y496355D01*
X263143Y496154D01*
X263143Y506477D01*
G37*
%LPD*%
%LPC*%
G36*
X741424Y369355D02*
X741424Y369355D01*
X739637Y369936D01*
X737963Y370789D01*
X736442Y371894D01*
X735114Y373222D01*
X734009Y374743D01*
X733156Y376417D01*
X732575Y378204D01*
X732374Y379477D01*
X742697Y379477D01*
X742697Y369154D01*
X741424Y369355D01*
G37*
%LPD*%
%LPC*%
G36*
X449324Y597955D02*
X449324Y597955D01*
X447537Y598536D01*
X445863Y599389D01*
X444342Y600494D01*
X443014Y601822D01*
X441909Y603343D01*
X441056Y605017D01*
X440475Y606804D01*
X440274Y608077D01*
X450597Y608077D01*
X450597Y597754D01*
X449324Y597955D01*
G37*
%LPD*%
%LPC*%
G36*
X42924Y407455D02*
X42924Y407455D01*
X41137Y408036D01*
X39463Y408889D01*
X37942Y409994D01*
X36614Y411322D01*
X35509Y412843D01*
X34656Y414517D01*
X34075Y416304D01*
X33874Y417577D01*
X44197Y417577D01*
X44197Y407254D01*
X42924Y407455D01*
G37*
%LPD*%
%LPC*%
G36*
X258824Y496355D02*
X258824Y496355D01*
X257037Y496936D01*
X255363Y497789D01*
X253842Y498894D01*
X252514Y500222D01*
X251409Y501743D01*
X250556Y503417D01*
X249975Y505204D01*
X249774Y506477D01*
X260097Y506477D01*
X260097Y496154D01*
X258824Y496355D01*
G37*
%LPD*%
%LPC*%
G36*
X98043Y509523D02*
X98043Y509523D01*
X98043Y518560D01*
X99018Y518406D01*
X100615Y517887D01*
X102112Y517125D01*
X103470Y516138D01*
X104658Y514950D01*
X105645Y513592D01*
X106407Y512095D01*
X106926Y510498D01*
X107080Y509523D01*
X98043Y509523D01*
G37*
%LPD*%
%LPC*%
G36*
X98043Y506477D02*
X98043Y506477D01*
X107080Y506477D01*
X106926Y505502D01*
X106407Y503905D01*
X105645Y502408D01*
X104658Y501050D01*
X103470Y499862D01*
X102112Y498875D01*
X100615Y498113D01*
X99018Y497594D01*
X98043Y497440D01*
X98043Y506477D01*
G37*
%LPD*%
%LPC*%
G36*
X85960Y509523D02*
X85960Y509523D01*
X86114Y510498D01*
X86633Y512095D01*
X87395Y513592D01*
X88382Y514950D01*
X89570Y516138D01*
X90928Y517125D01*
X92425Y517887D01*
X94022Y518406D01*
X94997Y518560D01*
X94997Y509523D01*
X85960Y509523D01*
G37*
%LPD*%
%LPC*%
G36*
X94022Y497594D02*
X94022Y497594D01*
X92425Y498113D01*
X90928Y498875D01*
X89570Y499862D01*
X88382Y501050D01*
X87395Y502408D01*
X86633Y503905D01*
X86114Y505502D01*
X85960Y506477D01*
X94997Y506477D01*
X94997Y497440D01*
X94022Y497594D01*
G37*
%LPD*%
%LPC*%
G36*
X499363Y57403D02*
X499363Y57403D01*
X499363Y66312D01*
X500308Y66162D01*
X501887Y65649D01*
X503365Y64896D01*
X504707Y63921D01*
X505881Y62747D01*
X506856Y61405D01*
X507609Y59927D01*
X508122Y58348D01*
X508272Y57403D01*
X499363Y57403D01*
G37*
%LPD*%
%LPC*%
G36*
X487408Y57403D02*
X487408Y57403D01*
X487558Y58348D01*
X488071Y59927D01*
X488824Y61405D01*
X489799Y62747D01*
X490973Y63921D01*
X492315Y64896D01*
X493793Y65649D01*
X495372Y66162D01*
X496317Y66312D01*
X496317Y57403D01*
X487408Y57403D01*
G37*
%LPD*%
%LPC*%
G36*
X499363Y54357D02*
X499363Y54357D01*
X508272Y54357D01*
X508122Y53412D01*
X507609Y51833D01*
X506856Y50355D01*
X505881Y49013D01*
X504707Y47839D01*
X503365Y46864D01*
X501887Y46111D01*
X500308Y45598D01*
X499363Y45448D01*
X499363Y54357D01*
G37*
%LPD*%
%LPC*%
G36*
X495372Y45598D02*
X495372Y45598D01*
X493793Y46111D01*
X492315Y46864D01*
X490973Y47839D01*
X489799Y49013D01*
X488824Y50355D01*
X488071Y51833D01*
X487558Y53412D01*
X487408Y54357D01*
X496317Y54357D01*
X496317Y45448D01*
X495372Y45598D01*
G37*
%LPD*%
%LPC*%
G36*
X504443Y484123D02*
X504443Y484123D01*
X504443Y490221D01*
X508751Y490221D01*
X510223Y489928D01*
X511610Y489353D01*
X512858Y488519D01*
X513919Y487458D01*
X514753Y486210D01*
X515328Y484823D01*
X515467Y484123D01*
X504443Y484123D01*
G37*
%LPD*%
%LPC*%
G36*
X490373Y484123D02*
X490373Y484123D01*
X490512Y484823D01*
X491087Y486210D01*
X491921Y487458D01*
X492982Y488519D01*
X494230Y489353D01*
X495617Y489928D01*
X497089Y490221D01*
X501397Y490221D01*
X501397Y484123D01*
X490373Y484123D01*
G37*
%LPD*%
%LPC*%
G36*
X504443Y474979D02*
X504443Y474979D01*
X504443Y481077D01*
X515467Y481077D01*
X515328Y480377D01*
X514753Y478990D01*
X513919Y477742D01*
X512858Y476681D01*
X511610Y475847D01*
X510223Y475272D01*
X508751Y474979D01*
X504443Y474979D01*
G37*
%LPD*%
%LPC*%
G36*
X497089Y474979D02*
X497089Y474979D01*
X495617Y475272D01*
X494230Y475847D01*
X492982Y476681D01*
X491921Y477742D01*
X491087Y478990D01*
X490512Y480377D01*
X490373Y481077D01*
X501397Y481077D01*
X501397Y474979D01*
X497089Y474979D01*
G37*
%LPD*%
%LPC*%
G36*
X740663Y184403D02*
X740663Y184403D01*
X740663Y190501D01*
X742297Y190501D01*
X746761Y186037D01*
X746761Y184403D01*
X740663Y184403D01*
G37*
%LPD*%
%LPC*%
G36*
X512063Y108203D02*
X512063Y108203D01*
X512063Y114301D01*
X513697Y114301D01*
X518161Y109837D01*
X518161Y108203D01*
X512063Y108203D01*
G37*
%LPD*%
%LPC*%
G36*
X502919Y108203D02*
X502919Y108203D01*
X502919Y109837D01*
X507383Y114301D01*
X509017Y114301D01*
X509017Y108203D01*
X502919Y108203D01*
G37*
%LPD*%
%LPC*%
G36*
X512063Y99059D02*
X512063Y99059D01*
X512063Y105157D01*
X518161Y105157D01*
X518161Y103523D01*
X513697Y99059D01*
X512063Y99059D01*
G37*
%LPD*%
%LPC*%
G36*
X731519Y184403D02*
X731519Y184403D01*
X731519Y186037D01*
X735983Y190501D01*
X737617Y190501D01*
X737617Y184403D01*
X731519Y184403D01*
G37*
%LPD*%
%LPC*%
G36*
X740663Y175259D02*
X740663Y175259D01*
X740663Y181357D01*
X746761Y181357D01*
X746761Y179723D01*
X742297Y175259D01*
X740663Y175259D01*
G37*
%LPD*%
%LPC*%
G36*
X735983Y175259D02*
X735983Y175259D01*
X731519Y179723D01*
X731519Y181357D01*
X737617Y181357D01*
X737617Y175259D01*
X735983Y175259D01*
G37*
%LPD*%
%LPC*%
G36*
X507383Y99059D02*
X507383Y99059D01*
X502919Y103523D01*
X502919Y105157D01*
X509017Y105157D01*
X509017Y99059D01*
X507383Y99059D01*
G37*
%LPD*%
%LPC*%
G36*
X739139Y93979D02*
X739139Y93979D01*
X739139Y93981D01*
X739141Y93981D01*
X739141Y93979D01*
X739139Y93979D01*
G37*
%LPD*%
%LPC*%
G36*
X744219Y380999D02*
X744219Y380999D01*
X744219Y381001D01*
X744221Y381001D01*
X744221Y380999D01*
X744219Y380999D01*
G37*
%LPD*%
%LPC*%
G36*
X452119Y609599D02*
X452119Y609599D01*
X452119Y609601D01*
X452121Y609601D01*
X452121Y609599D01*
X452119Y609599D01*
G37*
%LPD*%
%LPC*%
G36*
X510539Y106679D02*
X510539Y106679D01*
X510539Y106681D01*
X510541Y106681D01*
X510541Y106679D01*
X510539Y106679D01*
G37*
%LPD*%
%LPC*%
G36*
X502919Y482599D02*
X502919Y482599D01*
X502919Y482601D01*
X502921Y482601D01*
X502921Y482599D01*
X502919Y482599D01*
G37*
%LPD*%
%LPC*%
G36*
X497839Y55879D02*
X497839Y55879D01*
X497839Y55881D01*
X497841Y55881D01*
X497841Y55879D01*
X497839Y55879D01*
G37*
%LPD*%
%LPC*%
G36*
X739139Y182879D02*
X739139Y182879D01*
X739139Y182881D01*
X739141Y182881D01*
X739141Y182879D01*
X739139Y182879D01*
G37*
%LPD*%
%LPC*%
G36*
X96519Y507999D02*
X96519Y507999D01*
X96519Y508001D01*
X96521Y508001D01*
X96521Y507999D01*
X96519Y507999D01*
G37*
%LPD*%
%LPC*%
G36*
X261619Y507999D02*
X261619Y507999D01*
X261619Y508001D01*
X261621Y508001D01*
X261621Y507999D01*
X261619Y507999D01*
G37*
%LPD*%
%LPC*%
G36*
X45719Y419099D02*
X45719Y419099D01*
X45719Y419101D01*
X45721Y419101D01*
X45721Y419099D01*
X45719Y419099D01*
G37*
%LPD*%
D10*
X45720Y527050D03*
X45720Y552450D03*
D11*
X523240Y55880D03*
D12*
X497840Y55880D03*
D13*
X510540Y106680D03*
X510540Y157480D03*
D14*
X109220Y660400D03*
X160020Y660400D03*
D15*
X160020Y622300D03*
X109220Y622300D03*
D13*
X292100Y622300D03*
X292100Y673100D03*
D16*
X337820Y444500D03*
X337820Y393700D03*
X896620Y444500D03*
X896620Y393700D03*
D10*
X787400Y685800D03*
X812800Y685800D03*
X863600Y685800D03*
X889000Y685800D03*
X121920Y419100D03*
X121920Y342900D03*
X160020Y342900D03*
X160020Y419100D03*
X414020Y508000D03*
X414020Y584200D03*
X299720Y508000D03*
X299720Y584200D03*
D17*
X788924Y520700D02*
X801116Y520700D01*
X803656Y546100D02*
X791464Y546100D01*
X788924Y571500D02*
X801116Y571500D01*
D10*
X45720Y666750D03*
X45720Y692150D03*
D18*
X172720Y508000D03*
X172720Y533400D03*
X96520Y533400D03*
X96520Y508000D03*
X172720Y558800D03*
X172720Y584200D03*
X96520Y558800D03*
X96520Y584200D03*
D19*
X497840Y558800D02*
X508000Y558800D01*
X508000Y533400D02*
X497840Y533400D01*
X497840Y406400D02*
X508000Y406400D01*
X574040Y406400D02*
X584200Y406400D01*
X508000Y508000D02*
X497840Y508000D01*
X497840Y482600D02*
X508000Y482600D01*
X508000Y431800D02*
X497840Y431800D01*
X497840Y457200D02*
X508000Y457200D01*
X574040Y431800D02*
X584200Y431800D01*
X584200Y457200D02*
X574040Y457200D01*
X574040Y482600D02*
X584200Y482600D01*
X584200Y508000D02*
X574040Y508000D01*
X574040Y533400D02*
X584200Y533400D01*
X584200Y558800D02*
X574040Y558800D01*
D10*
X711200Y685800D03*
X736600Y685800D03*
D16*
X739140Y182880D03*
X739140Y157480D03*
D13*
X642620Y647700D03*
X623570Y635000D03*
X642620Y622300D03*
D16*
X718820Y622300D03*
X737870Y635000D03*
X718820Y647700D03*
D10*
X777240Y30480D03*
X777240Y106680D03*
X299720Y381000D03*
X299720Y457200D03*
X414020Y457200D03*
X414020Y381000D03*
X452120Y381000D03*
X452120Y457200D03*
X337820Y609600D03*
X337820Y685800D03*
X261620Y508000D03*
X261620Y584200D03*
X744220Y381000D03*
X744220Y457200D03*
X668020Y457200D03*
X668020Y381000D03*
X629920Y381000D03*
X629920Y457200D03*
X668020Y584200D03*
X668020Y508000D03*
X83820Y419100D03*
X83820Y342900D03*
X629920Y584200D03*
X629920Y508000D03*
X45720Y342900D03*
X45720Y419100D03*
X452120Y685800D03*
X452120Y609600D03*
X375920Y609600D03*
X375920Y685800D03*
X452120Y584200D03*
X452120Y508000D03*
X337820Y508000D03*
X337820Y584200D03*
X414020Y609600D03*
X414020Y685800D03*
X261620Y457200D03*
X261620Y381000D03*
X739140Y93980D03*
X739140Y68580D03*
X739140Y43180D03*
X45720Y457200D03*
X45720Y482600D03*
X375920Y508000D03*
X375920Y584200D03*
X706120Y381000D03*
X706120Y457200D03*
D16*
X375920Y444500D03*
X375920Y393700D03*
D20*
X672840Y122682D02*
X672840Y100838D01*
X635762Y81760D02*
X613918Y81760D01*
X613918Y141760D02*
X635762Y141760D01*
D10*
X889000Y25400D03*
X889000Y50800D03*
X889000Y177800D03*
X889000Y203200D03*
X820420Y381000D03*
X820420Y457200D03*
X782320Y381000D03*
X782320Y457200D03*
X855980Y457200D03*
X855980Y381000D03*
X44450Y266700D03*
X44450Y241300D03*
D13*
X628650Y215900D03*
X609600Y203200D03*
X628650Y190500D03*
X222250Y438150D03*
X203200Y425450D03*
X222250Y412750D03*
X222250Y552450D03*
X203200Y539750D03*
X222250Y527050D03*
D16*
X869950Y323850D03*
X889000Y336550D03*
X869950Y349250D03*
D10*
X44450Y622300D03*
X44450Y596900D03*
D21*
X123825Y469900D02*
X142875Y469900D01*
X260350Y638175D02*
X260350Y657225D01*
D22*
X701040Y106680D02*
X739140Y68580D01*
X701040Y106680D02*
X701040Y132080D01*
X691360Y141760D01*
X624840Y141760D01*
X739140Y68580D02*
X871220Y68580D01*
X889000Y50800D01*
X889000Y25400D01*
X609600Y157000D02*
X609600Y203200D01*
X609600Y157000D02*
X624840Y141760D01*
D23*
X777240Y132080D02*
X777240Y106680D01*
X777240Y132080D02*
X751840Y157480D01*
X739140Y157480D01*
X160020Y419100D02*
X134620Y444500D01*
X109220Y444500D02*
X83820Y419100D01*
X109220Y444500D02*
X134620Y444500D01*
X121920Y419100D02*
X83820Y381000D01*
X83820Y342900D01*
X45720Y342900D01*
X83820Y381000D02*
X69850Y394970D01*
X69850Y506730D02*
X96520Y533400D01*
X69850Y506730D02*
X69850Y394970D01*
X96520Y558800D02*
X147320Y558800D01*
X160020Y381000D02*
X160020Y342900D01*
X121920Y342900D01*
X147320Y558800D02*
X160020Y571500D01*
X160020Y622300D01*
X177800Y398780D02*
X160020Y381000D01*
X172720Y533400D02*
X147320Y558800D01*
X146050Y469900D02*
X133350Y469900D01*
X146050Y469900D02*
X177800Y438150D01*
X177800Y398780D01*
X133350Y469900D02*
X133350Y494030D01*
X172720Y533400D01*
X96520Y647700D02*
X109220Y660400D01*
X96520Y647700D02*
X96520Y584200D01*
X222250Y552450D02*
X254000Y584200D01*
X261620Y584200D01*
X191135Y565785D02*
X172720Y584200D01*
X191135Y565785D02*
X193040Y563880D01*
X191135Y565785D01*
X193040Y530860D02*
X199390Y524510D01*
X205740Y524510D01*
X222250Y541020D01*
X222250Y552450D01*
X193040Y563880D02*
X193040Y530860D01*
X299720Y508000D02*
X319532Y488188D01*
X452120Y488188D01*
X497332Y533400D01*
X502920Y533400D01*
X304800Y635000D02*
X292100Y622300D01*
X340360Y635000D02*
X355600Y619760D01*
X355600Y563880D01*
X340360Y635000D02*
X304800Y635000D01*
X355600Y563880D02*
X299720Y508000D01*
X355600Y563880D02*
X393700Y563880D01*
X414020Y584200D01*
X266700Y647700D02*
X260350Y647700D01*
X266700Y647700D02*
X292100Y622300D01*
X414020Y685800D02*
X452120Y685800D01*
X414020Y685800D02*
X375920Y685800D01*
X452120Y685800D02*
X553720Y584200D01*
X553720Y558800D02*
X502920Y508000D01*
X553720Y558800D02*
X553720Y584200D01*
X452120Y508000D02*
X414020Y508000D01*
X337820Y584200D02*
X299720Y584200D01*
X502920Y406400D02*
X477520Y381000D01*
X452120Y381000D01*
X426720Y355600D01*
X594360Y472440D02*
X629920Y508000D01*
X594360Y472440D02*
X573388Y472440D01*
X507348Y406400D01*
X45720Y457200D02*
X45720Y482600D01*
X45720Y457200D02*
X27940Y439420D01*
X502920Y406400D02*
X507348Y406400D01*
X325120Y355600D02*
X299720Y381000D01*
X325120Y355600D02*
X426720Y355600D01*
X27940Y334010D02*
X27940Y439420D01*
X27940Y334010D02*
X38100Y323850D01*
X242570Y323850D01*
X299720Y381000D01*
X452120Y457200D02*
X477520Y431800D01*
X502920Y431800D01*
X452120Y457200D02*
X414020Y457200D01*
X480060Y345440D02*
X556260Y421640D01*
X480060Y345440D02*
X302260Y345440D01*
X292100Y355600D01*
D24*
X292100Y355600D03*
D23*
X556260Y421640D02*
X742950Y421640D01*
X45720Y527050D02*
X45720Y552450D01*
X203200Y381000D02*
X261620Y381000D01*
X779780Y421640D02*
X820420Y381000D01*
X779780Y421640D02*
X742950Y421640D01*
X186690Y544830D02*
X172720Y558800D01*
X186690Y397510D02*
X203200Y381000D01*
X186690Y397510D02*
X186690Y544830D01*
X579120Y431800D02*
X604520Y431800D01*
X626110Y453390D01*
X629920Y457200D01*
X668020Y457200D01*
X629920Y457200D02*
X626110Y453390D01*
X668020Y457200D02*
X706120Y457200D01*
X629920Y381000D02*
X604520Y406400D01*
X579120Y406400D01*
X629920Y381000D02*
X655320Y355600D01*
X680720Y355600D02*
X706120Y381000D01*
X680720Y355600D02*
X655320Y355600D01*
X642620Y622300D02*
X693420Y622300D01*
X718820Y647700D01*
X749300Y647700D01*
X908050Y323850D02*
X889000Y304800D01*
X908050Y323850D02*
X908050Y552450D01*
X812800Y647700D02*
X749300Y647700D01*
X782320Y304800D02*
X889000Y304800D01*
X908050Y552450D02*
X812800Y647700D01*
X706120Y381000D02*
X782320Y304800D01*
X579120Y406400D02*
X477520Y304800D01*
X25400Y304800D02*
X12700Y317500D01*
X12700Y565150D01*
X44450Y596900D01*
X25400Y304800D02*
X477520Y304800D01*
X44450Y596900D02*
X44450Y622300D01*
X579120Y457200D02*
X591820Y457200D01*
X718820Y482600D02*
X744220Y457200D01*
X617220Y482600D02*
X591820Y457200D01*
X617220Y482600D02*
X718820Y482600D01*
X744220Y457200D02*
X759460Y472440D01*
X868680Y472440D01*
X896620Y444500D01*
X882650Y430530D01*
D25*
X882650Y430530D03*
D23*
X882650Y387350D01*
X901700Y368300D01*
X901700Y330200D01*
X895350Y323850D01*
X869950Y323850D01*
X642620Y647700D02*
X629920Y660400D01*
X591820Y660400D01*
X579120Y647700D01*
X579120Y622300D01*
X649986Y602234D02*
X668020Y584200D01*
X599186Y602234D02*
X579120Y622300D01*
X599186Y602234D02*
X649986Y602234D01*
X863600Y685800D02*
X889000Y685800D01*
X863600Y685800D02*
X850900Y685800D01*
X832866Y703834D02*
X698754Y703834D01*
X832866Y703834D02*
X850900Y685800D01*
X698754Y703834D02*
X642620Y647700D01*
X718820Y622300D02*
X756920Y584200D01*
X756920Y533400D01*
X769620Y520700D01*
X795020Y520700D01*
X718820Y622300D02*
X731520Y635000D01*
X737870Y635000D01*
X623570Y635000D02*
X623570Y615950D01*
X629920Y609600D01*
X706120Y609600D01*
X718820Y622300D01*
X668020Y635000D02*
X623570Y635000D01*
X787400Y685800D02*
X812800Y685800D01*
X787400Y685800D02*
X769620Y668020D01*
X701040Y668020D02*
X668020Y635000D01*
X701040Y668020D02*
X769620Y668020D01*
X797560Y546100D02*
X820420Y546100D01*
X833120Y533400D01*
X833120Y508000D01*
X820420Y495300D01*
X650240Y563880D02*
X629920Y584200D01*
X650240Y563880D02*
X680720Y563880D01*
X685800Y568960D01*
X685800Y589280D01*
X695960Y599440D01*
X721360Y599440D01*
X736600Y584200D01*
X774700Y495300D02*
X820420Y495300D01*
X736600Y533400D02*
X736600Y584200D01*
X736600Y533400D02*
X774700Y495300D01*
X299720Y457200D02*
X261620Y457200D01*
X337820Y444500D02*
X375920Y444500D01*
X325120Y457200D02*
X299720Y457200D01*
X325120Y457200D02*
X337820Y444500D01*
X482600Y457200D02*
X502920Y457200D01*
X464566Y475234D02*
X406654Y475234D01*
X464566Y475234D02*
X482600Y457200D01*
X406654Y475234D02*
X375920Y444500D01*
X261620Y457200D02*
X241300Y457200D01*
X222250Y438150D01*
X477520Y584200D02*
X502920Y558800D01*
X477520Y584200D02*
X452120Y584200D01*
X426720Y609600D01*
X375920Y508000D02*
X337820Y508000D01*
X375920Y508000D02*
X452120Y584200D01*
X414020Y609600D02*
X337820Y685800D01*
X414020Y609600D02*
X426720Y609600D01*
X45720Y666750D02*
X45720Y692150D01*
X638048Y550672D02*
X666750Y550672D01*
X353060Y701040D02*
X337820Y685800D01*
X353060Y701040D02*
X487680Y701040D01*
X638048Y550672D01*
D26*
X730250Y501650D03*
D23*
X681228Y550672D01*
X666750Y550672D01*
X76200Y692150D02*
X45720Y692150D01*
X76200Y692150D02*
X95250Y673100D01*
X247650Y673100D01*
X260350Y685800D01*
X337820Y685800D01*
X337820Y609600D02*
X298450Y609600D01*
X279400Y590550D01*
X266700Y603250D01*
X241300Y603250D01*
X203200Y565150D02*
X203200Y539750D01*
X203200Y565150D02*
X241300Y603250D01*
X203200Y476250D02*
X203200Y425450D01*
X279400Y552450D02*
X279400Y590550D01*
X279400Y552450D02*
X203200Y476250D01*
D22*
X654840Y111760D02*
X672840Y111760D01*
X654840Y111760D02*
X624840Y81760D01*
X609120Y81760D01*
X574040Y116840D01*
X876300Y215900D02*
X889000Y203200D01*
X889000Y177800D01*
X876300Y215900D02*
X628650Y215900D01*
X590550Y228600D02*
X574040Y212090D01*
X590550Y228600D02*
X615950Y228600D01*
X628650Y215900D01*
X574040Y212090D02*
X574040Y116840D01*
D23*
X782320Y457200D02*
X820420Y457200D01*
X855980Y457200D01*
X869950Y443230D01*
X869950Y374650D01*
X889000Y355600D01*
X889000Y336550D01*
M02*
