G04 EAGLE Gerber RS-274X export*
G75*
%MOMM*%
%FSLAX34Y34*%
%LPD*%
%AMOC8*
5,1,8,0,0,1.08239X$1,22.5*%
G01*
%ADD10C,2.082800*%
%ADD11P,1.951982X8X22.500000*%
%ADD12C,1.803400*%
%ADD13P,1.319650X8X112.500000*%
%ADD14P,1.319650X8X22.500000*%
%ADD15P,1.319650X8X202.500000*%
%ADD16P,1.319650X8X292.500000*%
%ADD17C,1.422400*%
%ADD18C,1.828800*%
%ADD19C,1.219200*%
%ADD20C,2.387600*%
%ADD21C,2.108200*%
%ADD22C,0.959600*%
%ADD23P,1.363378X8X22.500000*%


D10*
X45720Y527050D03*
X45720Y552450D03*
D11*
X523240Y55880D03*
D12*
X497840Y55880D03*
D13*
X510540Y106680D03*
X510540Y157480D03*
D14*
X109220Y660400D03*
X160020Y660400D03*
D15*
X160020Y622300D03*
X109220Y622300D03*
D13*
X292100Y622300D03*
X292100Y673100D03*
D16*
X337820Y444500D03*
X337820Y393700D03*
X896620Y444500D03*
X896620Y393700D03*
D10*
X787400Y685800D03*
X812800Y685800D03*
X863600Y685800D03*
X889000Y685800D03*
X121920Y419100D03*
X121920Y342900D03*
X160020Y342900D03*
X160020Y419100D03*
X414020Y508000D03*
X414020Y584200D03*
X299720Y508000D03*
X299720Y584200D03*
D17*
X788924Y520700D02*
X801116Y520700D01*
X803656Y546100D02*
X791464Y546100D01*
X788924Y571500D02*
X801116Y571500D01*
D10*
X45720Y666750D03*
X45720Y692150D03*
D18*
X172720Y508000D03*
X172720Y533400D03*
X96520Y533400D03*
X96520Y508000D03*
X172720Y558800D03*
X172720Y584200D03*
X96520Y558800D03*
X96520Y584200D03*
D19*
X497840Y558800D02*
X508000Y558800D01*
X508000Y533400D02*
X497840Y533400D01*
X497840Y406400D02*
X508000Y406400D01*
X574040Y406400D02*
X584200Y406400D01*
X508000Y508000D02*
X497840Y508000D01*
X497840Y482600D02*
X508000Y482600D01*
X508000Y431800D02*
X497840Y431800D01*
X497840Y457200D02*
X508000Y457200D01*
X574040Y431800D02*
X584200Y431800D01*
X584200Y457200D02*
X574040Y457200D01*
X574040Y482600D02*
X584200Y482600D01*
X584200Y508000D02*
X574040Y508000D01*
X574040Y533400D02*
X584200Y533400D01*
X584200Y558800D02*
X574040Y558800D01*
D10*
X711200Y685800D03*
X736600Y685800D03*
D16*
X739140Y182880D03*
X739140Y157480D03*
D13*
X642620Y647700D03*
X623570Y635000D03*
X642620Y622300D03*
D16*
X718820Y622300D03*
X737870Y635000D03*
X718820Y647700D03*
D10*
X777240Y30480D03*
X777240Y106680D03*
X299720Y381000D03*
X299720Y457200D03*
X414020Y457200D03*
X414020Y381000D03*
X452120Y381000D03*
X452120Y457200D03*
X337820Y609600D03*
X337820Y685800D03*
X261620Y508000D03*
X261620Y584200D03*
X744220Y381000D03*
X744220Y457200D03*
X668020Y457200D03*
X668020Y381000D03*
X629920Y381000D03*
X629920Y457200D03*
X668020Y584200D03*
X668020Y508000D03*
X83820Y419100D03*
X83820Y342900D03*
X629920Y584200D03*
X629920Y508000D03*
X45720Y342900D03*
X45720Y419100D03*
X452120Y685800D03*
X452120Y609600D03*
X375920Y609600D03*
X375920Y685800D03*
X452120Y584200D03*
X452120Y508000D03*
X337820Y508000D03*
X337820Y584200D03*
X414020Y609600D03*
X414020Y685800D03*
X261620Y457200D03*
X261620Y381000D03*
X739140Y93980D03*
X739140Y68580D03*
X739140Y43180D03*
X45720Y457200D03*
X45720Y482600D03*
X375920Y508000D03*
X375920Y584200D03*
X706120Y381000D03*
X706120Y457200D03*
D16*
X375920Y444500D03*
X375920Y393700D03*
D20*
X672840Y122682D02*
X672840Y100838D01*
X635762Y81760D02*
X613918Y81760D01*
X613918Y141760D02*
X635762Y141760D01*
D10*
X889000Y25400D03*
X889000Y50800D03*
X889000Y177800D03*
X889000Y203200D03*
X820420Y381000D03*
X820420Y457200D03*
X782320Y381000D03*
X782320Y457200D03*
X855980Y457200D03*
X855980Y381000D03*
X44450Y266700D03*
X44450Y241300D03*
D13*
X628650Y215900D03*
X609600Y203200D03*
X628650Y190500D03*
X222250Y438150D03*
X203200Y425450D03*
X222250Y412750D03*
X222250Y552450D03*
X203200Y539750D03*
X222250Y527050D03*
D16*
X869950Y323850D03*
X889000Y336550D03*
X869950Y349250D03*
D10*
X44450Y622300D03*
X44450Y596900D03*
D21*
X123825Y469900D02*
X142875Y469900D01*
X260350Y638175D02*
X260350Y657225D01*
D22*
X292100Y355600D03*
D23*
X730250Y501650D03*
M02*
