G04 EAGLE Gerber RS-274X export*
G75*
%MOMM*%
%FSLAX34Y34*%
%LPD*%
%INBottom Copper*%
%IPPOS*%
%AMOC8*
5,1,8,0,0,1.08239X$1,22.5*%
G01*
%ADD10C,1.270000*%
%ADD11C,1.016000*%
%ADD12P,1.099708X8X22.500000*%
%ADD13P,1.099708X8X292.500000*%
%ADD14C,1.676400*%
%ADD15R,2.800000X2.800000*%
%ADD16C,1.879600*%
%ADD17R,0.923200X0.923200*%
%ADD18C,0.923200*%
%ADD19C,0.756400*%
%ADD20C,0.406400*%
%ADD21C,0.812800*%

G36*
X885718Y2544D02*
X885718Y2544D01*
X885737Y2542D01*
X885839Y2564D01*
X885941Y2580D01*
X885958Y2590D01*
X885978Y2594D01*
X886067Y2647D01*
X886158Y2696D01*
X886172Y2710D01*
X886189Y2720D01*
X886256Y2799D01*
X886328Y2874D01*
X886336Y2892D01*
X886349Y2907D01*
X886388Y3003D01*
X886431Y3097D01*
X886433Y3117D01*
X886441Y3135D01*
X886459Y3302D01*
X886459Y1012698D01*
X886456Y1012718D01*
X886458Y1012737D01*
X886436Y1012839D01*
X886420Y1012941D01*
X886410Y1012958D01*
X886406Y1012978D01*
X886353Y1013067D01*
X886304Y1013158D01*
X886290Y1013172D01*
X886280Y1013189D01*
X886201Y1013256D01*
X886126Y1013328D01*
X886108Y1013336D01*
X886093Y1013349D01*
X885997Y1013388D01*
X885903Y1013431D01*
X885883Y1013433D01*
X885865Y1013441D01*
X885698Y1013459D01*
X71120Y1013459D01*
X71100Y1013456D01*
X71081Y1013458D01*
X70979Y1013436D01*
X70877Y1013420D01*
X70860Y1013410D01*
X70840Y1013406D01*
X70751Y1013353D01*
X70660Y1013304D01*
X70646Y1013290D01*
X70629Y1013280D01*
X70562Y1013201D01*
X70491Y1013126D01*
X70482Y1013108D01*
X70469Y1013093D01*
X70430Y1012997D01*
X70387Y1012903D01*
X70385Y1012883D01*
X70377Y1012865D01*
X70359Y1012698D01*
X70359Y543560D01*
X70362Y543540D01*
X70360Y543521D01*
X70382Y543419D01*
X70399Y543317D01*
X70408Y543300D01*
X70412Y543280D01*
X70465Y543191D01*
X70514Y543100D01*
X70528Y543086D01*
X70538Y543069D01*
X70617Y543002D01*
X70692Y542931D01*
X70710Y542922D01*
X70725Y542909D01*
X70821Y542870D01*
X70915Y542827D01*
X70935Y542825D01*
X70953Y542817D01*
X71120Y542799D01*
X290068Y542799D01*
X290088Y542802D01*
X290107Y542800D01*
X290209Y542822D01*
X290311Y542839D01*
X290328Y542848D01*
X290348Y542852D01*
X290437Y542905D01*
X290528Y542954D01*
X290542Y542968D01*
X290559Y542978D01*
X290626Y543057D01*
X290698Y543132D01*
X290706Y543150D01*
X290719Y543165D01*
X290758Y543261D01*
X290801Y543355D01*
X290803Y543375D01*
X290811Y543393D01*
X290829Y543560D01*
X290829Y653426D01*
X290827Y653439D01*
X290828Y653449D01*
X290817Y653499D01*
X290815Y653516D01*
X290807Y653607D01*
X290795Y653637D01*
X290790Y653669D01*
X290747Y653750D01*
X290711Y653834D01*
X290685Y653866D01*
X290674Y653886D01*
X290651Y653909D01*
X290606Y653964D01*
X275989Y668582D01*
X275989Y682072D01*
X275970Y682187D01*
X275953Y682303D01*
X275951Y682308D01*
X275950Y682315D01*
X275895Y682417D01*
X275842Y682522D01*
X275837Y682527D01*
X275834Y682532D01*
X275750Y682612D01*
X275666Y682694D01*
X275660Y682698D01*
X275656Y682701D01*
X275639Y682709D01*
X275519Y682775D01*
X274044Y683386D01*
X271186Y686244D01*
X269639Y689979D01*
X269639Y694021D01*
X271186Y697756D01*
X274044Y700614D01*
X277779Y702161D01*
X281821Y702161D01*
X285556Y700614D01*
X288414Y697756D01*
X289961Y694021D01*
X289961Y689979D01*
X288414Y686244D01*
X285556Y683386D01*
X284081Y682775D01*
X283981Y682713D01*
X283881Y682654D01*
X283877Y682649D01*
X283872Y682646D01*
X283797Y682555D01*
X283721Y682467D01*
X283719Y682461D01*
X283715Y682456D01*
X283673Y682348D01*
X283629Y682239D01*
X283628Y682231D01*
X283627Y682227D01*
X283626Y682208D01*
X283611Y682072D01*
X283611Y672054D01*
X283625Y671964D01*
X283633Y671873D01*
X283645Y671843D01*
X283650Y671811D01*
X283693Y671730D01*
X283729Y671646D01*
X283755Y671614D01*
X283766Y671594D01*
X283789Y671571D01*
X283834Y671516D01*
X298451Y656898D01*
X298451Y543560D01*
X298454Y543540D01*
X298452Y543521D01*
X298474Y543419D01*
X298490Y543317D01*
X298500Y543300D01*
X298504Y543280D01*
X298557Y543191D01*
X298606Y543100D01*
X298620Y543086D01*
X298630Y543069D01*
X298709Y543002D01*
X298784Y542931D01*
X298802Y542922D01*
X298817Y542909D01*
X298913Y542870D01*
X299007Y542827D01*
X299027Y542825D01*
X299045Y542817D01*
X299212Y542799D01*
X301644Y542799D01*
X301714Y542810D01*
X301786Y542812D01*
X301835Y542830D01*
X301886Y542839D01*
X301950Y542872D01*
X302017Y542897D01*
X302058Y542929D01*
X302104Y542954D01*
X302153Y543006D01*
X302209Y543050D01*
X302237Y543094D01*
X302273Y543132D01*
X302303Y543197D01*
X302342Y543257D01*
X302355Y543308D01*
X302377Y543355D01*
X302385Y543426D01*
X302402Y543496D01*
X302398Y543548D01*
X302404Y543599D01*
X302389Y543670D01*
X302383Y543741D01*
X302363Y543789D01*
X302352Y543840D01*
X302315Y543901D01*
X302287Y543967D01*
X302242Y544023D01*
X302225Y544051D01*
X302208Y544066D01*
X302182Y544098D01*
X301525Y544755D01*
X300481Y547276D01*
X300481Y550004D01*
X301525Y552525D01*
X303455Y554455D01*
X305976Y555499D01*
X318864Y555499D01*
X321385Y554455D01*
X323315Y552525D01*
X324359Y550004D01*
X324359Y547276D01*
X323315Y544755D01*
X322658Y544098D01*
X322616Y544040D01*
X322567Y543988D01*
X322545Y543941D01*
X322514Y543899D01*
X322493Y543830D01*
X322463Y543765D01*
X322457Y543713D01*
X322442Y543663D01*
X322444Y543592D01*
X322436Y543521D01*
X322447Y543470D01*
X322448Y543418D01*
X322473Y543350D01*
X322488Y543280D01*
X322515Y543236D01*
X322533Y543187D01*
X322578Y543131D01*
X322615Y543069D01*
X322654Y543035D01*
X322687Y542995D01*
X322747Y542956D01*
X322801Y542909D01*
X322850Y542890D01*
X322894Y542862D01*
X322963Y542844D01*
X323030Y542817D01*
X323101Y542809D01*
X323132Y542801D01*
X323155Y542803D01*
X323196Y542799D01*
X325628Y542799D01*
X325648Y542802D01*
X325667Y542800D01*
X325769Y542822D01*
X325871Y542839D01*
X325888Y542848D01*
X325908Y542852D01*
X325997Y542905D01*
X326088Y542954D01*
X326102Y542968D01*
X326119Y542978D01*
X326186Y543057D01*
X326258Y543132D01*
X326266Y543150D01*
X326279Y543165D01*
X326318Y543261D01*
X326361Y543355D01*
X326363Y543375D01*
X326371Y543393D01*
X326389Y543560D01*
X326389Y626418D01*
X364515Y664545D01*
X364572Y664624D01*
X364634Y664699D01*
X364644Y664723D01*
X364659Y664744D01*
X364688Y664837D01*
X364722Y664928D01*
X364724Y664954D01*
X364731Y664979D01*
X364729Y665077D01*
X364733Y665174D01*
X364726Y665199D01*
X364725Y665225D01*
X364691Y665317D01*
X364664Y665410D01*
X364649Y665432D01*
X364640Y665456D01*
X364579Y665532D01*
X364524Y665612D01*
X364503Y665628D01*
X364487Y665648D01*
X364405Y665701D01*
X364327Y665759D01*
X364302Y665767D01*
X364280Y665781D01*
X364185Y665805D01*
X364093Y665835D01*
X364067Y665835D01*
X364041Y665841D01*
X363944Y665834D01*
X363847Y665833D01*
X363815Y665824D01*
X363796Y665822D01*
X363766Y665809D01*
X363686Y665786D01*
X361786Y664999D01*
X359574Y664999D01*
X357530Y665846D01*
X355966Y667410D01*
X355119Y669454D01*
X355119Y670416D01*
X355105Y670506D01*
X355097Y670597D01*
X355085Y670627D01*
X355080Y670659D01*
X355037Y670740D01*
X355001Y670824D01*
X354975Y670856D01*
X354964Y670876D01*
X354941Y670899D01*
X354896Y670954D01*
X354244Y671606D01*
X354171Y671659D01*
X354101Y671719D01*
X354071Y671731D01*
X354045Y671750D01*
X353958Y671777D01*
X353873Y671811D01*
X353832Y671815D01*
X353810Y671822D01*
X353777Y671821D01*
X353706Y671829D01*
X319582Y671829D01*
X317126Y674284D01*
X309126Y682285D01*
X309030Y682354D01*
X308937Y682423D01*
X308931Y682425D01*
X308926Y682429D01*
X308814Y682463D01*
X308703Y682499D01*
X308697Y682499D01*
X308691Y682501D01*
X308574Y682498D01*
X308457Y682497D01*
X308450Y682495D01*
X308445Y682495D01*
X308428Y682488D01*
X308296Y682450D01*
X306821Y681839D01*
X302779Y681839D01*
X299044Y683386D01*
X296186Y686244D01*
X294639Y689979D01*
X294639Y694021D01*
X296186Y697756D01*
X299044Y700614D01*
X302779Y702161D01*
X306821Y702161D01*
X310556Y700614D01*
X313414Y697756D01*
X314961Y694021D01*
X314961Y689979D01*
X314350Y688504D01*
X314323Y688390D01*
X314295Y688277D01*
X314295Y688271D01*
X314294Y688265D01*
X314305Y688147D01*
X314314Y688032D01*
X314316Y688026D01*
X314317Y688020D01*
X314365Y687912D01*
X314410Y687805D01*
X314415Y687800D01*
X314417Y687795D01*
X314429Y687781D01*
X314515Y687674D01*
X322516Y679674D01*
X322589Y679621D01*
X322659Y679561D01*
X322689Y679549D01*
X322715Y679530D01*
X322802Y679503D01*
X322887Y679469D01*
X322928Y679465D01*
X322950Y679458D01*
X322983Y679459D01*
X323054Y679451D01*
X357178Y679451D01*
X360286Y676344D01*
X360360Y676290D01*
X360429Y676231D01*
X360459Y676219D01*
X360485Y676200D01*
X360572Y676173D01*
X360657Y676139D01*
X360698Y676135D01*
X360720Y676128D01*
X360753Y676129D01*
X360824Y676121D01*
X361786Y676121D01*
X363830Y675274D01*
X365394Y673710D01*
X366241Y671666D01*
X366241Y669454D01*
X365454Y667554D01*
X365432Y667459D01*
X365403Y667366D01*
X365404Y667340D01*
X365398Y667315D01*
X365407Y667218D01*
X365409Y667120D01*
X365418Y667096D01*
X365421Y667070D01*
X365460Y666981D01*
X365494Y666889D01*
X365510Y666869D01*
X365521Y666845D01*
X365587Y666774D01*
X365647Y666697D01*
X365669Y666683D01*
X365687Y666664D01*
X365773Y666617D01*
X365854Y666564D01*
X365880Y666558D01*
X365903Y666545D01*
X365999Y666528D01*
X366093Y666504D01*
X366119Y666506D01*
X366145Y666502D01*
X366241Y666516D01*
X366338Y666524D01*
X366362Y666534D01*
X366388Y666538D01*
X366475Y666582D01*
X366564Y666620D01*
X366590Y666640D01*
X366607Y666649D01*
X366631Y666673D01*
X366695Y666725D01*
X376966Y676996D01*
X377019Y677069D01*
X377079Y677139D01*
X377091Y677169D01*
X377110Y677195D01*
X377137Y677282D01*
X377171Y677367D01*
X377175Y677408D01*
X377182Y677430D01*
X377181Y677463D01*
X377189Y677534D01*
X377189Y961698D01*
X394662Y979171D01*
X403754Y979171D01*
X403869Y979190D01*
X403985Y979207D01*
X403991Y979209D01*
X403997Y979210D01*
X404100Y979265D01*
X404204Y979318D01*
X404209Y979323D01*
X404214Y979326D01*
X404294Y979410D01*
X404377Y979494D01*
X404380Y979500D01*
X404384Y979504D01*
X404392Y979521D01*
X404458Y979641D01*
X405307Y981691D01*
X408451Y984835D01*
X412559Y986537D01*
X417005Y986537D01*
X421113Y984835D01*
X424257Y981691D01*
X425106Y979641D01*
X425168Y979541D01*
X425228Y979441D01*
X425233Y979437D01*
X425236Y979432D01*
X425327Y979357D01*
X425415Y979281D01*
X425421Y979279D01*
X425426Y979275D01*
X425534Y979233D01*
X425643Y979189D01*
X425651Y979188D01*
X425655Y979187D01*
X425673Y979186D01*
X425810Y979171D01*
X432710Y979171D01*
X432825Y979190D01*
X432941Y979207D01*
X432947Y979209D01*
X432953Y979210D01*
X433056Y979265D01*
X433160Y979318D01*
X433165Y979323D01*
X433170Y979326D01*
X433250Y979410D01*
X433333Y979494D01*
X433336Y979500D01*
X433340Y979504D01*
X433348Y979521D01*
X433414Y979641D01*
X434263Y981691D01*
X437407Y984835D01*
X441515Y986537D01*
X445961Y986537D01*
X450069Y984835D01*
X453213Y981691D01*
X454915Y977583D01*
X454915Y973137D01*
X453213Y969029D01*
X450069Y965885D01*
X445961Y964183D01*
X441515Y964183D01*
X437407Y965885D01*
X434263Y969029D01*
X433414Y971079D01*
X433352Y971179D01*
X433292Y971279D01*
X433287Y971283D01*
X433284Y971288D01*
X433193Y971363D01*
X433105Y971439D01*
X433099Y971441D01*
X433094Y971445D01*
X432986Y971487D01*
X432877Y971531D01*
X432869Y971532D01*
X432865Y971533D01*
X432847Y971534D01*
X432710Y971549D01*
X425810Y971549D01*
X425695Y971530D01*
X425579Y971513D01*
X425573Y971511D01*
X425567Y971510D01*
X425464Y971455D01*
X425360Y971402D01*
X425355Y971397D01*
X425350Y971394D01*
X425270Y971310D01*
X425187Y971226D01*
X425184Y971220D01*
X425180Y971216D01*
X425172Y971199D01*
X425106Y971079D01*
X424257Y969029D01*
X421113Y965885D01*
X417005Y964183D01*
X412559Y964183D01*
X408451Y965885D01*
X405307Y969029D01*
X404458Y971079D01*
X404396Y971179D01*
X404336Y971279D01*
X404331Y971283D01*
X404328Y971288D01*
X404237Y971363D01*
X404149Y971439D01*
X404143Y971441D01*
X404138Y971445D01*
X404030Y971487D01*
X403921Y971531D01*
X403913Y971532D01*
X403909Y971533D01*
X403891Y971534D01*
X403754Y971549D01*
X398134Y971549D01*
X398044Y971535D01*
X397953Y971527D01*
X397923Y971515D01*
X397891Y971510D01*
X397810Y971467D01*
X397726Y971431D01*
X397694Y971405D01*
X397674Y971394D01*
X397651Y971371D01*
X397596Y971326D01*
X385034Y958764D01*
X384981Y958691D01*
X384921Y958621D01*
X384909Y958591D01*
X384890Y958565D01*
X384863Y958478D01*
X384829Y958393D01*
X384825Y958352D01*
X384818Y958330D01*
X384819Y958297D01*
X384811Y958226D01*
X384811Y674062D01*
X334234Y623484D01*
X334190Y623423D01*
X334156Y623388D01*
X334150Y623374D01*
X334121Y623341D01*
X334109Y623311D01*
X334090Y623285D01*
X334063Y623198D01*
X334029Y623113D01*
X334025Y623072D01*
X334018Y623050D01*
X334019Y623017D01*
X334011Y622946D01*
X334011Y543560D01*
X334014Y543540D01*
X334012Y543521D01*
X334034Y543419D01*
X334050Y543317D01*
X334060Y543300D01*
X334064Y543280D01*
X334117Y543191D01*
X334166Y543100D01*
X334180Y543086D01*
X334190Y543069D01*
X334269Y543002D01*
X334344Y542931D01*
X334362Y542922D01*
X334377Y542909D01*
X334473Y542870D01*
X334567Y542827D01*
X334587Y542825D01*
X334605Y542817D01*
X334772Y542799D01*
X338356Y542799D01*
X338376Y542802D01*
X338395Y542800D01*
X338497Y542822D01*
X338599Y542839D01*
X338616Y542848D01*
X338636Y542852D01*
X338725Y542905D01*
X338816Y542954D01*
X338830Y542968D01*
X338847Y542978D01*
X338914Y543057D01*
X338986Y543132D01*
X338994Y543150D01*
X339007Y543165D01*
X339046Y543261D01*
X339089Y543355D01*
X339091Y543375D01*
X339099Y543393D01*
X339117Y543560D01*
X339117Y620725D01*
X341572Y623180D01*
X341573Y623180D01*
X418368Y699976D01*
X418421Y700050D01*
X418481Y700119D01*
X418493Y700149D01*
X418512Y700175D01*
X418539Y700262D01*
X418573Y700347D01*
X418577Y700388D01*
X418584Y700410D01*
X418583Y700443D01*
X418591Y700514D01*
X418591Y867718D01*
X479582Y928710D01*
X479635Y928783D01*
X479695Y928853D01*
X479707Y928883D01*
X479726Y928909D01*
X479753Y928996D01*
X479787Y929081D01*
X479791Y929122D01*
X479798Y929144D01*
X479797Y929177D01*
X479805Y929248D01*
X479805Y931863D01*
X481507Y935971D01*
X484651Y939115D01*
X488759Y940817D01*
X493205Y940817D01*
X497313Y939115D01*
X500457Y935971D01*
X501306Y933921D01*
X501368Y933821D01*
X501428Y933721D01*
X501433Y933717D01*
X501436Y933712D01*
X501527Y933637D01*
X501615Y933561D01*
X501621Y933559D01*
X501626Y933555D01*
X501734Y933513D01*
X501843Y933469D01*
X501851Y933468D01*
X501855Y933467D01*
X501873Y933466D01*
X502010Y933451D01*
X508910Y933451D01*
X509025Y933470D01*
X509141Y933487D01*
X509147Y933489D01*
X509153Y933490D01*
X509256Y933545D01*
X509360Y933598D01*
X509365Y933603D01*
X509370Y933606D01*
X509450Y933690D01*
X509533Y933774D01*
X509536Y933780D01*
X509540Y933784D01*
X509548Y933801D01*
X509614Y933921D01*
X510463Y935971D01*
X513607Y939115D01*
X517715Y940817D01*
X522161Y940817D01*
X526269Y939115D01*
X529413Y935971D01*
X531115Y931863D01*
X531115Y927417D01*
X529413Y923309D01*
X526269Y920165D01*
X522161Y918463D01*
X517715Y918463D01*
X513607Y920165D01*
X510463Y923309D01*
X509614Y925359D01*
X509552Y925459D01*
X509492Y925559D01*
X509487Y925563D01*
X509484Y925568D01*
X509393Y925643D01*
X509305Y925719D01*
X509299Y925721D01*
X509294Y925725D01*
X509186Y925767D01*
X509077Y925811D01*
X509069Y925812D01*
X509065Y925813D01*
X509047Y925814D01*
X508910Y925829D01*
X502010Y925829D01*
X501895Y925810D01*
X501779Y925793D01*
X501773Y925791D01*
X501767Y925790D01*
X501664Y925735D01*
X501560Y925682D01*
X501555Y925677D01*
X501550Y925674D01*
X501470Y925590D01*
X501387Y925506D01*
X501384Y925500D01*
X501380Y925496D01*
X501372Y925479D01*
X501306Y925359D01*
X500457Y923309D01*
X497313Y920165D01*
X493205Y918463D01*
X488759Y918463D01*
X484651Y920165D01*
X483772Y921044D01*
X483756Y921056D01*
X483743Y921071D01*
X483656Y921127D01*
X483572Y921188D01*
X483553Y921193D01*
X483536Y921204D01*
X483436Y921229D01*
X483337Y921260D01*
X483317Y921259D01*
X483298Y921264D01*
X483195Y921256D01*
X483091Y921254D01*
X483072Y921247D01*
X483052Y921245D01*
X482958Y921205D01*
X482860Y921169D01*
X482844Y921157D01*
X482826Y921149D01*
X482695Y921044D01*
X426436Y864784D01*
X426389Y864720D01*
X426374Y864704D01*
X426371Y864697D01*
X426323Y864641D01*
X426311Y864611D01*
X426292Y864585D01*
X426265Y864498D01*
X426231Y864413D01*
X426227Y864372D01*
X426220Y864350D01*
X426221Y864317D01*
X426213Y864246D01*
X426213Y814440D01*
X426224Y814369D01*
X426226Y814297D01*
X426244Y814248D01*
X426252Y814197D01*
X426286Y814134D01*
X426311Y814066D01*
X426343Y814026D01*
X426368Y813980D01*
X426420Y813930D01*
X426464Y813874D01*
X426508Y813846D01*
X426546Y813810D01*
X426611Y813780D01*
X426671Y813741D01*
X426722Y813729D01*
X426769Y813707D01*
X426840Y813699D01*
X426910Y813681D01*
X426962Y813685D01*
X427013Y813680D01*
X427084Y813695D01*
X427155Y813700D01*
X427203Y813721D01*
X427254Y813732D01*
X427315Y813769D01*
X427381Y813797D01*
X427437Y813841D01*
X427465Y813858D01*
X427480Y813876D01*
X427512Y813901D01*
X534446Y920836D01*
X534489Y920895D01*
X534533Y920941D01*
X534541Y920958D01*
X534559Y920979D01*
X534571Y921009D01*
X534590Y921035D01*
X534615Y921118D01*
X534637Y921164D01*
X534638Y921176D01*
X534651Y921207D01*
X534655Y921248D01*
X534662Y921270D01*
X534661Y921303D01*
X534669Y921374D01*
X534669Y954924D01*
X534655Y955014D01*
X534647Y955105D01*
X534635Y955135D01*
X534630Y955167D01*
X534587Y955248D01*
X534551Y955332D01*
X534525Y955364D01*
X534514Y955384D01*
X534491Y955407D01*
X534446Y955462D01*
X525041Y964868D01*
X524946Y964936D01*
X524853Y965006D01*
X524847Y965007D01*
X524842Y965011D01*
X524730Y965045D01*
X524619Y965082D01*
X524612Y965082D01*
X524606Y965083D01*
X524490Y965080D01*
X524373Y965079D01*
X524366Y965077D01*
X524361Y965077D01*
X524343Y965071D01*
X524212Y965033D01*
X522161Y964183D01*
X517715Y964183D01*
X513607Y965885D01*
X510463Y969029D01*
X509614Y971079D01*
X509552Y971179D01*
X509492Y971279D01*
X509487Y971283D01*
X509484Y971288D01*
X509393Y971363D01*
X509305Y971439D01*
X509299Y971441D01*
X509294Y971445D01*
X509186Y971487D01*
X509077Y971531D01*
X509069Y971532D01*
X509065Y971533D01*
X509047Y971534D01*
X508910Y971549D01*
X502010Y971549D01*
X501895Y971530D01*
X501779Y971513D01*
X501773Y971511D01*
X501767Y971510D01*
X501664Y971455D01*
X501560Y971402D01*
X501555Y971397D01*
X501550Y971394D01*
X501470Y971310D01*
X501387Y971226D01*
X501384Y971220D01*
X501380Y971216D01*
X501372Y971199D01*
X501306Y971079D01*
X500457Y969029D01*
X497313Y965885D01*
X493205Y964183D01*
X488759Y964183D01*
X484651Y965885D01*
X481507Y969029D01*
X479805Y973137D01*
X479805Y977583D01*
X481507Y981691D01*
X484651Y984835D01*
X488759Y986537D01*
X493205Y986537D01*
X497313Y984835D01*
X500457Y981691D01*
X501306Y979641D01*
X501368Y979541D01*
X501428Y979441D01*
X501433Y979437D01*
X501436Y979432D01*
X501527Y979357D01*
X501615Y979281D01*
X501621Y979279D01*
X501626Y979275D01*
X501734Y979233D01*
X501843Y979189D01*
X501851Y979188D01*
X501855Y979187D01*
X501873Y979186D01*
X502010Y979171D01*
X508910Y979171D01*
X509025Y979190D01*
X509141Y979207D01*
X509147Y979209D01*
X509153Y979210D01*
X509256Y979265D01*
X509360Y979318D01*
X509365Y979323D01*
X509370Y979326D01*
X509450Y979410D01*
X509533Y979494D01*
X509536Y979500D01*
X509540Y979504D01*
X509548Y979521D01*
X509614Y979641D01*
X510463Y981691D01*
X513607Y984835D01*
X517715Y986537D01*
X522161Y986537D01*
X526269Y984835D01*
X529413Y981691D01*
X531115Y977583D01*
X531115Y973137D01*
X530265Y971086D01*
X530239Y970973D01*
X530210Y970859D01*
X530211Y970853D01*
X530209Y970847D01*
X530220Y970730D01*
X530229Y970614D01*
X530232Y970608D01*
X530232Y970602D01*
X530280Y970494D01*
X530326Y970388D01*
X530330Y970382D01*
X530332Y970377D01*
X530345Y970364D01*
X530430Y970257D01*
X537942Y962745D01*
X537958Y962734D01*
X537970Y962718D01*
X538058Y962662D01*
X538141Y962602D01*
X538160Y962596D01*
X538177Y962585D01*
X538278Y962560D01*
X538377Y962530D01*
X538396Y962530D01*
X538416Y962525D01*
X538519Y962533D01*
X538622Y962536D01*
X538641Y962543D01*
X538661Y962544D01*
X538756Y962585D01*
X538853Y962620D01*
X538869Y962633D01*
X538887Y962641D01*
X539018Y962745D01*
X552988Y976716D01*
X555444Y979171D01*
X556154Y979171D01*
X556269Y979190D01*
X556385Y979207D01*
X556391Y979209D01*
X556397Y979210D01*
X556500Y979265D01*
X556604Y979318D01*
X556609Y979323D01*
X556614Y979326D01*
X556694Y979410D01*
X556777Y979494D01*
X556780Y979500D01*
X556784Y979504D01*
X556792Y979521D01*
X556858Y979641D01*
X557707Y981691D01*
X560851Y984835D01*
X564959Y986537D01*
X569405Y986537D01*
X573513Y984835D01*
X576657Y981691D01*
X578359Y977583D01*
X578359Y973137D01*
X576657Y969029D01*
X573513Y965885D01*
X569405Y964183D01*
X564959Y964183D01*
X560851Y965885D01*
X557707Y969029D01*
X557666Y969127D01*
X557642Y969166D01*
X557626Y969209D01*
X557578Y969269D01*
X557537Y969336D01*
X557501Y969365D01*
X557473Y969401D01*
X557407Y969443D01*
X557347Y969492D01*
X557304Y969509D01*
X557266Y969534D01*
X557190Y969553D01*
X557118Y969581D01*
X557072Y969583D01*
X557027Y969594D01*
X556950Y969588D01*
X556872Y969591D01*
X556828Y969578D01*
X556782Y969575D01*
X556711Y969544D01*
X556636Y969523D01*
X556598Y969496D01*
X556556Y969478D01*
X556449Y969393D01*
X556434Y969382D01*
X556431Y969378D01*
X556425Y969374D01*
X542514Y955462D01*
X542461Y955389D01*
X542401Y955319D01*
X542389Y955289D01*
X542370Y955263D01*
X542343Y955176D01*
X542309Y955091D01*
X542305Y955050D01*
X542298Y955028D01*
X542299Y954995D01*
X542291Y954924D01*
X542291Y920358D01*
X542302Y920287D01*
X542304Y920215D01*
X542322Y920166D01*
X542330Y920115D01*
X542364Y920052D01*
X542389Y919984D01*
X542421Y919944D01*
X542446Y919898D01*
X542498Y919848D01*
X542542Y919792D01*
X542586Y919764D01*
X542624Y919728D01*
X542689Y919698D01*
X542749Y919659D01*
X542800Y919647D01*
X542847Y919625D01*
X542918Y919617D01*
X542988Y919599D01*
X543040Y919603D01*
X543091Y919598D01*
X543162Y919613D01*
X543233Y919618D01*
X543281Y919639D01*
X543332Y919650D01*
X543393Y919687D01*
X543459Y919715D01*
X543515Y919759D01*
X543543Y919776D01*
X543558Y919794D01*
X543590Y919819D01*
X554766Y930996D01*
X557222Y933451D01*
X617866Y933451D01*
X617956Y933465D01*
X618047Y933473D01*
X618077Y933485D01*
X618109Y933490D01*
X618190Y933533D01*
X618274Y933569D01*
X618306Y933595D01*
X618326Y933606D01*
X618349Y933629D01*
X618404Y933674D01*
X653730Y969000D01*
X653798Y969094D01*
X653868Y969188D01*
X653870Y969194D01*
X653874Y969199D01*
X653908Y969310D01*
X653944Y969422D01*
X653944Y969428D01*
X653946Y969434D01*
X653943Y969551D01*
X653942Y969668D01*
X653940Y969675D01*
X653940Y969680D01*
X653933Y969698D01*
X653895Y969829D01*
X652525Y973137D01*
X652525Y977583D01*
X654227Y981691D01*
X657371Y984835D01*
X661479Y986537D01*
X665925Y986537D01*
X670033Y984835D01*
X673177Y981691D01*
X674026Y979641D01*
X674088Y979541D01*
X674148Y979441D01*
X674153Y979437D01*
X674156Y979432D01*
X674247Y979357D01*
X674335Y979281D01*
X674341Y979279D01*
X674346Y979275D01*
X674454Y979233D01*
X674563Y979189D01*
X674571Y979188D01*
X674575Y979187D01*
X674593Y979186D01*
X674730Y979171D01*
X681630Y979171D01*
X681745Y979190D01*
X681861Y979207D01*
X681867Y979209D01*
X681873Y979210D01*
X681976Y979265D01*
X682080Y979318D01*
X682085Y979323D01*
X682090Y979326D01*
X682170Y979410D01*
X682253Y979494D01*
X682256Y979500D01*
X682260Y979504D01*
X682268Y979521D01*
X682334Y979641D01*
X683183Y981691D01*
X686327Y984835D01*
X690435Y986537D01*
X694881Y986537D01*
X698989Y984835D01*
X702133Y981691D01*
X703835Y977583D01*
X703835Y973137D01*
X702133Y969029D01*
X698989Y965885D01*
X694881Y964183D01*
X690435Y964183D01*
X686327Y965885D01*
X683183Y969029D01*
X682334Y971079D01*
X682272Y971179D01*
X682212Y971279D01*
X682207Y971283D01*
X682204Y971288D01*
X682113Y971363D01*
X682025Y971439D01*
X682019Y971441D01*
X682014Y971445D01*
X681906Y971487D01*
X681797Y971531D01*
X681789Y971532D01*
X681785Y971533D01*
X681767Y971534D01*
X681630Y971549D01*
X674730Y971549D01*
X674615Y971530D01*
X674499Y971513D01*
X674493Y971511D01*
X674487Y971510D01*
X674384Y971455D01*
X674280Y971402D01*
X674275Y971397D01*
X674270Y971394D01*
X674190Y971310D01*
X674107Y971226D01*
X674104Y971220D01*
X674100Y971216D01*
X674092Y971199D01*
X674026Y971079D01*
X673177Y969029D01*
X670033Y965885D01*
X665925Y964183D01*
X661479Y964183D01*
X660686Y964512D01*
X660572Y964539D01*
X660459Y964567D01*
X660452Y964567D01*
X660446Y964568D01*
X660330Y964557D01*
X660213Y964548D01*
X660208Y964545D01*
X660201Y964545D01*
X660094Y964497D01*
X659987Y964452D01*
X659981Y964447D01*
X659977Y964445D01*
X659963Y964432D01*
X659856Y964347D01*
X621338Y925829D01*
X560694Y925829D01*
X560604Y925815D01*
X560513Y925807D01*
X560483Y925795D01*
X560451Y925790D01*
X560370Y925747D01*
X560286Y925711D01*
X560254Y925685D01*
X560234Y925674D01*
X560211Y925651D01*
X560156Y925606D01*
X438120Y803570D01*
X438067Y803497D01*
X438007Y803427D01*
X437995Y803397D01*
X437976Y803371D01*
X437949Y803284D01*
X437915Y803199D01*
X437911Y803158D01*
X437904Y803136D01*
X437905Y803103D01*
X437897Y803032D01*
X437897Y785484D01*
X437908Y785413D01*
X437910Y785341D01*
X437928Y785292D01*
X437936Y785241D01*
X437970Y785178D01*
X437995Y785110D01*
X438027Y785070D01*
X438052Y785024D01*
X438104Y784974D01*
X438148Y784918D01*
X438192Y784890D01*
X438230Y784854D01*
X438295Y784824D01*
X438355Y784785D01*
X438406Y784773D01*
X438453Y784751D01*
X438524Y784743D01*
X438594Y784725D01*
X438646Y784729D01*
X438697Y784724D01*
X438768Y784739D01*
X438839Y784744D01*
X438887Y784765D01*
X438938Y784776D01*
X438999Y784813D01*
X439065Y784841D01*
X439121Y784885D01*
X439149Y784902D01*
X439164Y784920D01*
X439196Y784945D01*
X492056Y837806D01*
X492109Y837879D01*
X492169Y837949D01*
X492181Y837979D01*
X492200Y838005D01*
X492227Y838092D01*
X492261Y838177D01*
X492265Y838218D01*
X492272Y838240D01*
X492271Y838273D01*
X492279Y838344D01*
X492279Y839306D01*
X493126Y841350D01*
X494690Y842914D01*
X496734Y843761D01*
X498946Y843761D01*
X500990Y842914D01*
X502554Y841350D01*
X503401Y839306D01*
X503401Y837094D01*
X502554Y835050D01*
X500990Y833486D01*
X498946Y832639D01*
X497984Y832639D01*
X497894Y832625D01*
X497803Y832617D01*
X497773Y832605D01*
X497741Y832600D01*
X497660Y832557D01*
X497576Y832521D01*
X497544Y832495D01*
X497524Y832484D01*
X497501Y832461D01*
X497446Y832416D01*
X445994Y780964D01*
X445941Y780891D01*
X445881Y780821D01*
X445869Y780791D01*
X445850Y780765D01*
X445823Y780678D01*
X445789Y780593D01*
X445785Y780552D01*
X445778Y780530D01*
X445779Y780497D01*
X445771Y780426D01*
X445771Y777124D01*
X445782Y777053D01*
X445784Y776982D01*
X445802Y776933D01*
X445810Y776881D01*
X445844Y776818D01*
X445869Y776751D01*
X445901Y776710D01*
X445926Y776664D01*
X445978Y776615D01*
X446022Y776559D01*
X446066Y776530D01*
X446104Y776495D01*
X446169Y776464D01*
X446229Y776426D01*
X446280Y776413D01*
X446327Y776391D01*
X446398Y776383D01*
X446468Y776366D01*
X446520Y776370D01*
X446571Y776364D01*
X446642Y776379D01*
X446713Y776385D01*
X446761Y776405D01*
X446812Y776416D01*
X446873Y776453D01*
X446939Y776481D01*
X446995Y776526D01*
X447023Y776542D01*
X447038Y776560D01*
X447070Y776586D01*
X448263Y777779D01*
X477737Y777779D01*
X478779Y776737D01*
X478779Y747263D01*
X477737Y746221D01*
X448263Y746221D01*
X447070Y747414D01*
X447012Y747456D01*
X446960Y747505D01*
X446913Y747527D01*
X446871Y747558D01*
X446802Y747579D01*
X446737Y747609D01*
X446685Y747615D01*
X446635Y747630D01*
X446564Y747628D01*
X446493Y747636D01*
X446442Y747625D01*
X446390Y747624D01*
X446322Y747599D01*
X446252Y747584D01*
X446207Y747557D01*
X446159Y747539D01*
X446103Y747494D01*
X446041Y747458D01*
X446007Y747418D01*
X445967Y747386D01*
X445928Y747325D01*
X445881Y747271D01*
X445862Y747222D01*
X445834Y747179D01*
X445816Y747109D01*
X445789Y747043D01*
X445781Y746971D01*
X445773Y746940D01*
X445775Y746917D01*
X445771Y746876D01*
X445771Y676602D01*
X399243Y630074D01*
X399231Y630057D01*
X399216Y630045D01*
X399159Y629958D01*
X399099Y629874D01*
X399093Y629855D01*
X399083Y629838D01*
X399057Y629738D01*
X399027Y629639D01*
X399027Y629619D01*
X399022Y629599D01*
X399031Y629496D01*
X399033Y629393D01*
X399040Y629374D01*
X399042Y629354D01*
X399082Y629259D01*
X399118Y629162D01*
X399130Y629146D01*
X399138Y629128D01*
X399243Y628997D01*
X399515Y628725D01*
X400559Y626204D01*
X400559Y623476D01*
X399515Y620955D01*
X397585Y619025D01*
X395064Y617981D01*
X387466Y617981D01*
X387376Y617967D01*
X387285Y617959D01*
X387255Y617947D01*
X387223Y617942D01*
X387142Y617899D01*
X387058Y617863D01*
X387026Y617837D01*
X387006Y617826D01*
X386983Y617803D01*
X386928Y617758D01*
X374874Y605704D01*
X374821Y605631D01*
X374761Y605561D01*
X374749Y605531D01*
X374730Y605505D01*
X374703Y605418D01*
X374669Y605333D01*
X374665Y605292D01*
X374658Y605270D01*
X374659Y605237D01*
X374651Y605166D01*
X374651Y550742D01*
X374659Y550694D01*
X374657Y550645D01*
X374678Y550573D01*
X374690Y550499D01*
X374713Y550456D01*
X374727Y550409D01*
X374771Y550348D01*
X374806Y550282D01*
X374841Y550248D01*
X374869Y550208D01*
X374930Y550164D01*
X374984Y550113D01*
X375028Y550092D01*
X375068Y550063D01*
X375139Y550041D01*
X375207Y550009D01*
X375256Y550004D01*
X375302Y549989D01*
X375377Y549990D01*
X375451Y549982D01*
X375499Y549992D01*
X375548Y549993D01*
X375619Y550018D01*
X375692Y550034D01*
X375734Y550059D01*
X375780Y550076D01*
X375839Y550122D01*
X375903Y550160D01*
X375935Y550198D01*
X375973Y550228D01*
X376014Y550290D01*
X376063Y550347D01*
X376081Y550393D01*
X376108Y550434D01*
X376146Y550553D01*
X376155Y550575D01*
X376156Y550585D01*
X376159Y550594D01*
X376212Y550863D01*
X376787Y552250D01*
X377621Y553498D01*
X378682Y554559D01*
X379930Y555393D01*
X381317Y555968D01*
X382789Y556261D01*
X387097Y556261D01*
X387097Y549402D01*
X387100Y549382D01*
X387098Y549363D01*
X387120Y549261D01*
X387137Y549159D01*
X387146Y549142D01*
X387150Y549122D01*
X387203Y549033D01*
X387252Y548942D01*
X387266Y548928D01*
X387276Y548911D01*
X387355Y548844D01*
X387430Y548773D01*
X387448Y548764D01*
X387463Y548751D01*
X387559Y548713D01*
X387653Y548669D01*
X387673Y548667D01*
X387691Y548659D01*
X387858Y548641D01*
X388621Y548641D01*
X388621Y547878D01*
X388624Y547858D01*
X388622Y547839D01*
X388644Y547737D01*
X388661Y547635D01*
X388670Y547618D01*
X388674Y547598D01*
X388727Y547509D01*
X388776Y547418D01*
X388790Y547404D01*
X388800Y547387D01*
X388879Y547320D01*
X388954Y547249D01*
X388972Y547240D01*
X388987Y547227D01*
X389083Y547188D01*
X389177Y547145D01*
X389197Y547143D01*
X389215Y547135D01*
X389382Y547117D01*
X401167Y547117D01*
X401028Y546417D01*
X400453Y545030D01*
X399754Y543983D01*
X399704Y543874D01*
X399653Y543765D01*
X399653Y543762D01*
X399652Y543759D01*
X399639Y543636D01*
X399626Y543521D01*
X399627Y543517D01*
X399627Y543514D01*
X399653Y543398D01*
X399679Y543280D01*
X399680Y543277D01*
X399681Y543274D01*
X399743Y543172D01*
X399805Y543069D01*
X399807Y543067D01*
X399809Y543064D01*
X399901Y542987D01*
X399992Y542909D01*
X399995Y542908D01*
X399997Y542906D01*
X400108Y542862D01*
X400220Y542817D01*
X400224Y542817D01*
X400226Y542816D01*
X400237Y542815D01*
X400387Y542799D01*
X404876Y542799D01*
X404896Y542802D01*
X404915Y542800D01*
X405017Y542822D01*
X405119Y542839D01*
X405136Y542848D01*
X405156Y542852D01*
X405245Y542905D01*
X405336Y542954D01*
X405350Y542968D01*
X405367Y542978D01*
X405434Y543057D01*
X405506Y543132D01*
X405514Y543150D01*
X405527Y543165D01*
X405566Y543261D01*
X405609Y543355D01*
X405611Y543375D01*
X405619Y543393D01*
X405637Y543560D01*
X405637Y561145D01*
X405623Y561235D01*
X405615Y561326D01*
X405603Y561355D01*
X405598Y561387D01*
X405555Y561468D01*
X405519Y561552D01*
X405493Y561584D01*
X405482Y561605D01*
X405459Y561627D01*
X405414Y561683D01*
X399123Y567974D01*
X399049Y568027D01*
X398979Y568087D01*
X398949Y568099D01*
X398923Y568118D01*
X398836Y568145D01*
X398751Y568179D01*
X398710Y568183D01*
X398688Y568190D01*
X398656Y568189D01*
X398585Y568197D01*
X397669Y568197D01*
X397604Y568187D01*
X397538Y568186D01*
X397458Y568163D01*
X397426Y568158D01*
X397409Y568148D01*
X397377Y568139D01*
X395064Y567181D01*
X382176Y567181D01*
X379655Y568225D01*
X377725Y570155D01*
X376681Y572676D01*
X376681Y575404D01*
X377725Y577925D01*
X379655Y579855D01*
X382176Y580899D01*
X395064Y580899D01*
X397377Y579941D01*
X397441Y579926D01*
X397502Y579901D01*
X397585Y579892D01*
X397617Y579885D01*
X397636Y579886D01*
X397669Y579883D01*
X402482Y579883D01*
X404630Y578993D01*
X416433Y567190D01*
X417323Y565042D01*
X417323Y543560D01*
X417326Y543540D01*
X417324Y543521D01*
X417346Y543419D01*
X417362Y543317D01*
X417372Y543300D01*
X417376Y543280D01*
X417429Y543191D01*
X417478Y543100D01*
X417492Y543086D01*
X417502Y543069D01*
X417581Y543002D01*
X417656Y542931D01*
X417674Y542922D01*
X417689Y542909D01*
X417785Y542870D01*
X417879Y542827D01*
X417899Y542825D01*
X417917Y542817D01*
X418084Y542799D01*
X575964Y542799D01*
X576034Y542810D01*
X576106Y542812D01*
X576155Y542830D01*
X576206Y542839D01*
X576270Y542872D01*
X576337Y542897D01*
X576378Y542929D01*
X576424Y542954D01*
X576473Y543006D01*
X576529Y543050D01*
X576557Y543094D01*
X576593Y543132D01*
X576623Y543197D01*
X576662Y543257D01*
X576675Y543308D01*
X576697Y543355D01*
X576705Y543426D01*
X576722Y543496D01*
X576718Y543548D01*
X576724Y543599D01*
X576709Y543670D01*
X576703Y543741D01*
X576683Y543789D01*
X576672Y543840D01*
X576635Y543901D01*
X576607Y543967D01*
X576562Y544023D01*
X576545Y544051D01*
X576528Y544066D01*
X576502Y544098D01*
X575845Y544755D01*
X574801Y547276D01*
X574801Y550004D01*
X575845Y552525D01*
X577775Y554455D01*
X580296Y555499D01*
X593184Y555499D01*
X595705Y554455D01*
X597635Y552525D01*
X598679Y550004D01*
X598679Y547276D01*
X597635Y544755D01*
X596978Y544098D01*
X596936Y544040D01*
X596887Y543988D01*
X596865Y543941D01*
X596834Y543899D01*
X596813Y543830D01*
X596783Y543765D01*
X596777Y543713D01*
X596762Y543663D01*
X596764Y543592D01*
X596756Y543521D01*
X596767Y543470D01*
X596768Y543418D01*
X596793Y543350D01*
X596808Y543280D01*
X596835Y543236D01*
X596853Y543187D01*
X596898Y543131D01*
X596935Y543069D01*
X596974Y543035D01*
X597007Y542995D01*
X597067Y542956D01*
X597121Y542909D01*
X597170Y542890D01*
X597214Y542862D01*
X597283Y542844D01*
X597350Y542817D01*
X597421Y542809D01*
X597452Y542801D01*
X597475Y542803D01*
X597516Y542799D01*
X605028Y542799D01*
X605048Y542802D01*
X605067Y542800D01*
X605169Y542822D01*
X605271Y542839D01*
X605288Y542848D01*
X605308Y542852D01*
X605397Y542905D01*
X605488Y542954D01*
X605502Y542968D01*
X605519Y542978D01*
X605586Y543057D01*
X605658Y543132D01*
X605666Y543150D01*
X605679Y543165D01*
X605718Y543261D01*
X605761Y543355D01*
X605763Y543375D01*
X605771Y543393D01*
X605789Y543560D01*
X605789Y556906D01*
X605775Y556996D01*
X605767Y557087D01*
X605755Y557117D01*
X605750Y557149D01*
X605707Y557230D01*
X605671Y557314D01*
X605645Y557346D01*
X605634Y557366D01*
X605611Y557389D01*
X605566Y557444D01*
X595414Y567596D01*
X595320Y567664D01*
X595226Y567734D01*
X595220Y567736D01*
X595215Y567740D01*
X595104Y567774D01*
X594992Y567810D01*
X594986Y567810D01*
X594980Y567812D01*
X594863Y567809D01*
X594746Y567808D01*
X594739Y567806D01*
X594734Y567806D01*
X594716Y567799D01*
X594585Y567761D01*
X593184Y567181D01*
X580296Y567181D01*
X577775Y568225D01*
X575845Y570155D01*
X574801Y572676D01*
X574801Y575404D01*
X575845Y577925D01*
X577775Y579855D01*
X580296Y580899D01*
X593184Y580899D01*
X595705Y579855D01*
X597635Y577925D01*
X598685Y575390D01*
X598693Y575336D01*
X598701Y575245D01*
X598713Y575215D01*
X598718Y575183D01*
X598761Y575102D01*
X598797Y575018D01*
X598823Y574986D01*
X598834Y574966D01*
X598857Y574943D01*
X598902Y574888D01*
X613411Y560378D01*
X613411Y543560D01*
X613414Y543540D01*
X613412Y543521D01*
X613434Y543419D01*
X613450Y543317D01*
X613460Y543300D01*
X613464Y543280D01*
X613517Y543191D01*
X613566Y543100D01*
X613580Y543086D01*
X613590Y543069D01*
X613669Y543002D01*
X613744Y542931D01*
X613762Y542922D01*
X613777Y542909D01*
X613873Y542870D01*
X613967Y542827D01*
X613987Y542825D01*
X614005Y542817D01*
X614172Y542799D01*
X620268Y542799D01*
X620288Y542802D01*
X620307Y542800D01*
X620409Y542822D01*
X620511Y542839D01*
X620528Y542848D01*
X620548Y542852D01*
X620637Y542905D01*
X620728Y542954D01*
X620742Y542968D01*
X620759Y542978D01*
X620826Y543057D01*
X620898Y543132D01*
X620906Y543150D01*
X620919Y543165D01*
X620958Y543261D01*
X621001Y543355D01*
X621003Y543375D01*
X621011Y543393D01*
X621029Y543560D01*
X621029Y722071D01*
X621015Y722161D01*
X621007Y722252D01*
X620995Y722282D01*
X620990Y722314D01*
X620947Y722395D01*
X620911Y722479D01*
X620885Y722511D01*
X620874Y722531D01*
X620851Y722554D01*
X620806Y722610D01*
X620126Y723290D01*
X619279Y725334D01*
X619279Y727546D01*
X620126Y729590D01*
X621690Y731154D01*
X623734Y732001D01*
X625946Y732001D01*
X627990Y731154D01*
X629554Y729590D01*
X630401Y727546D01*
X630401Y725334D01*
X629554Y723290D01*
X628874Y722610D01*
X628821Y722536D01*
X628761Y722466D01*
X628749Y722436D01*
X628730Y722410D01*
X628703Y722323D01*
X628669Y722238D01*
X628665Y722197D01*
X628658Y722175D01*
X628659Y722143D01*
X628651Y722071D01*
X628651Y543560D01*
X628654Y543540D01*
X628652Y543521D01*
X628674Y543419D01*
X628690Y543317D01*
X628700Y543300D01*
X628704Y543280D01*
X628757Y543191D01*
X628806Y543100D01*
X628820Y543086D01*
X628830Y543069D01*
X628909Y543002D01*
X628984Y542931D01*
X629002Y542922D01*
X629017Y542909D01*
X629113Y542870D01*
X629207Y542827D01*
X629227Y542825D01*
X629245Y542817D01*
X629412Y542799D01*
X635508Y542799D01*
X635528Y542802D01*
X635547Y542800D01*
X635649Y542822D01*
X635751Y542839D01*
X635768Y542848D01*
X635788Y542852D01*
X635877Y542905D01*
X635968Y542954D01*
X635982Y542968D01*
X635999Y542978D01*
X636066Y543057D01*
X636138Y543132D01*
X636146Y543150D01*
X636159Y543165D01*
X636198Y543261D01*
X636241Y543355D01*
X636243Y543375D01*
X636251Y543393D01*
X636269Y543560D01*
X636269Y560378D01*
X650778Y574888D01*
X650831Y574961D01*
X650891Y575031D01*
X650903Y575061D01*
X650922Y575087D01*
X650949Y575174D01*
X650983Y575259D01*
X650987Y575300D01*
X650994Y575322D01*
X650993Y575355D01*
X650998Y575396D01*
X652045Y577925D01*
X653975Y579855D01*
X656496Y580899D01*
X669384Y580899D01*
X671905Y579855D01*
X673835Y577925D01*
X674879Y575404D01*
X674879Y572676D01*
X673835Y570155D01*
X671905Y568225D01*
X669384Y567181D01*
X656496Y567181D01*
X655095Y567761D01*
X654982Y567788D01*
X654868Y567817D01*
X654862Y567816D01*
X654856Y567818D01*
X654739Y567807D01*
X654623Y567797D01*
X654617Y567795D01*
X654611Y567794D01*
X654503Y567747D01*
X654397Y567701D01*
X654391Y567697D01*
X654386Y567694D01*
X654372Y567682D01*
X654266Y567596D01*
X644114Y557444D01*
X644061Y557371D01*
X644001Y557301D01*
X643989Y557271D01*
X643970Y557245D01*
X643943Y557158D01*
X643909Y557073D01*
X643905Y557032D01*
X643898Y557010D01*
X643899Y556977D01*
X643891Y556906D01*
X643891Y545454D01*
X643905Y545364D01*
X643913Y545273D01*
X643925Y545243D01*
X643930Y545211D01*
X643973Y545130D01*
X644009Y545046D01*
X644035Y545014D01*
X644046Y544994D01*
X644069Y544972D01*
X644114Y544915D01*
X646007Y543022D01*
X646081Y542969D01*
X646151Y542909D01*
X646181Y542897D01*
X646207Y542878D01*
X646294Y542851D01*
X646379Y542817D01*
X646420Y542813D01*
X646442Y542806D01*
X646474Y542807D01*
X646546Y542799D01*
X651173Y542799D01*
X651291Y542818D01*
X651410Y542837D01*
X651413Y542838D01*
X651416Y542839D01*
X651521Y542894D01*
X651629Y542950D01*
X651631Y542952D01*
X651634Y542954D01*
X651715Y543040D01*
X651799Y543127D01*
X651801Y543130D01*
X651803Y543132D01*
X651853Y543240D01*
X651905Y543349D01*
X651905Y543352D01*
X651907Y543355D01*
X651920Y543473D01*
X651934Y543593D01*
X651933Y543596D01*
X651934Y543599D01*
X651908Y543716D01*
X651884Y543834D01*
X651882Y543837D01*
X651881Y543840D01*
X651876Y543849D01*
X651806Y543983D01*
X651107Y545030D01*
X650532Y546417D01*
X650393Y547117D01*
X662178Y547117D01*
X662198Y547120D01*
X662217Y547118D01*
X662319Y547140D01*
X662421Y547157D01*
X662438Y547166D01*
X662458Y547170D01*
X662547Y547223D01*
X662638Y547272D01*
X662652Y547286D01*
X662669Y547296D01*
X662736Y547375D01*
X662807Y547450D01*
X662816Y547468D01*
X662829Y547483D01*
X662867Y547579D01*
X662911Y547673D01*
X662913Y547693D01*
X662921Y547711D01*
X662939Y547878D01*
X662939Y548641D01*
X662941Y548641D01*
X662941Y547878D01*
X662944Y547858D01*
X662942Y547839D01*
X662964Y547737D01*
X662981Y547635D01*
X662990Y547618D01*
X662994Y547598D01*
X663047Y547509D01*
X663096Y547418D01*
X663110Y547404D01*
X663120Y547387D01*
X663199Y547320D01*
X663274Y547249D01*
X663292Y547240D01*
X663307Y547227D01*
X663403Y547188D01*
X663497Y547145D01*
X663517Y547143D01*
X663535Y547135D01*
X663702Y547117D01*
X675487Y547117D01*
X675348Y546417D01*
X674773Y545030D01*
X674074Y543983D01*
X674024Y543874D01*
X673973Y543765D01*
X673973Y543762D01*
X673972Y543759D01*
X673959Y543636D01*
X673946Y543521D01*
X673947Y543517D01*
X673947Y543514D01*
X673973Y543398D01*
X673999Y543280D01*
X674000Y543277D01*
X674001Y543274D01*
X674063Y543172D01*
X674125Y543069D01*
X674127Y543067D01*
X674129Y543064D01*
X674221Y542987D01*
X674312Y542909D01*
X674315Y542908D01*
X674317Y542906D01*
X674428Y542862D01*
X674540Y542817D01*
X674544Y542817D01*
X674546Y542816D01*
X674557Y542815D01*
X674707Y542799D01*
X674879Y542799D01*
X674879Y330961D01*
X609092Y330961D01*
X609072Y330958D01*
X609053Y330960D01*
X608951Y330938D01*
X608849Y330922D01*
X608832Y330912D01*
X608812Y330908D01*
X608723Y330855D01*
X608632Y330806D01*
X608618Y330792D01*
X608601Y330782D01*
X608534Y330703D01*
X608462Y330628D01*
X608454Y330610D01*
X608441Y330595D01*
X608402Y330499D01*
X608359Y330405D01*
X608357Y330385D01*
X608349Y330367D01*
X608331Y330200D01*
X608331Y310842D01*
X605876Y308386D01*
X597363Y299874D01*
X597351Y299857D01*
X597336Y299845D01*
X597280Y299758D01*
X597219Y299674D01*
X597213Y299655D01*
X597203Y299638D01*
X597177Y299538D01*
X597147Y299439D01*
X597147Y299419D01*
X597142Y299399D01*
X597151Y299296D01*
X597153Y299193D01*
X597160Y299174D01*
X597162Y299154D01*
X597202Y299059D01*
X597238Y298962D01*
X597250Y298946D01*
X597258Y298928D01*
X597363Y298797D01*
X597635Y298525D01*
X598679Y296004D01*
X598679Y293276D01*
X597635Y290755D01*
X595705Y288825D01*
X593184Y287781D01*
X580296Y287781D01*
X577775Y288825D01*
X575845Y290755D01*
X574801Y293276D01*
X574801Y296004D01*
X575845Y298525D01*
X577775Y300455D01*
X580296Y301499D01*
X587894Y301499D01*
X587984Y301513D01*
X588075Y301521D01*
X588105Y301533D01*
X588137Y301538D01*
X588218Y301581D01*
X588302Y301617D01*
X588334Y301643D01*
X588354Y301654D01*
X588377Y301677D01*
X588433Y301722D01*
X600486Y313776D01*
X600539Y313849D01*
X600599Y313919D01*
X600611Y313949D01*
X600630Y313975D01*
X600657Y314062D01*
X600691Y314147D01*
X600695Y314188D01*
X600702Y314210D01*
X600701Y314243D01*
X600709Y314314D01*
X600709Y328306D01*
X600695Y328396D01*
X600687Y328487D01*
X600675Y328517D01*
X600670Y328549D01*
X600627Y328630D01*
X600591Y328714D01*
X600565Y328746D01*
X600554Y328766D01*
X600531Y328789D01*
X600486Y328845D01*
X598593Y330738D01*
X598519Y330791D01*
X598449Y330851D01*
X598419Y330863D01*
X598393Y330882D01*
X598306Y330909D01*
X598221Y330943D01*
X598180Y330947D01*
X598158Y330954D01*
X598126Y330953D01*
X598054Y330961D01*
X3302Y330961D01*
X3282Y330958D01*
X3263Y330960D01*
X3161Y330938D01*
X3059Y330922D01*
X3042Y330912D01*
X3022Y330908D01*
X2933Y330855D01*
X2842Y330806D01*
X2828Y330792D01*
X2811Y330782D01*
X2744Y330703D01*
X2672Y330628D01*
X2664Y330610D01*
X2651Y330595D01*
X2612Y330499D01*
X2569Y330405D01*
X2567Y330385D01*
X2559Y330367D01*
X2541Y330200D01*
X2541Y3302D01*
X2544Y3282D01*
X2542Y3263D01*
X2564Y3161D01*
X2580Y3059D01*
X2590Y3042D01*
X2594Y3022D01*
X2647Y2933D01*
X2696Y2842D01*
X2710Y2828D01*
X2720Y2811D01*
X2799Y2744D01*
X2874Y2672D01*
X2892Y2664D01*
X2907Y2651D01*
X3003Y2612D01*
X3097Y2569D01*
X3117Y2567D01*
X3135Y2559D01*
X3302Y2541D01*
X885698Y2541D01*
X885718Y2544D01*
G37*
G36*
X670560Y334519D02*
X670560Y334519D01*
X670580Y334522D01*
X670599Y334520D01*
X670701Y334542D01*
X670803Y334559D01*
X670820Y334568D01*
X670840Y334572D01*
X670929Y334625D01*
X671020Y334674D01*
X671034Y334688D01*
X671051Y334698D01*
X671118Y334777D01*
X671190Y334852D01*
X671198Y334870D01*
X671211Y334885D01*
X671250Y334981D01*
X671293Y335075D01*
X671295Y335095D01*
X671303Y335113D01*
X671321Y335280D01*
X671321Y338244D01*
X671314Y338290D01*
X671316Y338335D01*
X671294Y338410D01*
X671282Y338487D01*
X671260Y338528D01*
X671247Y338572D01*
X671203Y338636D01*
X671166Y338704D01*
X671133Y338736D01*
X671107Y338774D01*
X671045Y338820D01*
X670988Y338874D01*
X670946Y338893D01*
X670910Y338921D01*
X670836Y338945D01*
X670765Y338977D01*
X670719Y338982D01*
X670676Y338997D01*
X670598Y338996D01*
X670521Y339005D01*
X670476Y338995D01*
X670430Y338994D01*
X670298Y338956D01*
X670280Y338952D01*
X670276Y338950D01*
X670269Y338948D01*
X669384Y338581D01*
X656496Y338581D01*
X653975Y339625D01*
X652045Y341555D01*
X651001Y344076D01*
X651001Y346804D01*
X652045Y349325D01*
X653975Y351255D01*
X656496Y352299D01*
X669384Y352299D01*
X670269Y351932D01*
X670313Y351922D01*
X670355Y351903D01*
X670432Y351894D01*
X670508Y351876D01*
X670554Y351881D01*
X670599Y351875D01*
X670676Y351892D01*
X670753Y351899D01*
X670795Y351918D01*
X670840Y351928D01*
X670907Y351968D01*
X670978Y351999D01*
X671012Y352030D01*
X671051Y352054D01*
X671102Y352113D01*
X671159Y352166D01*
X671181Y352206D01*
X671211Y352241D01*
X671240Y352313D01*
X671277Y352381D01*
X671286Y352426D01*
X671303Y352469D01*
X671318Y352605D01*
X671321Y352623D01*
X671320Y352628D01*
X671321Y352636D01*
X671321Y363644D01*
X671314Y363690D01*
X671316Y363735D01*
X671294Y363810D01*
X671282Y363887D01*
X671260Y363928D01*
X671247Y363972D01*
X671203Y364036D01*
X671166Y364104D01*
X671133Y364136D01*
X671107Y364174D01*
X671045Y364220D01*
X670988Y364274D01*
X670946Y364293D01*
X670910Y364321D01*
X670836Y364345D01*
X670765Y364377D01*
X670719Y364382D01*
X670676Y364397D01*
X670598Y364396D01*
X670521Y364405D01*
X670476Y364395D01*
X670430Y364394D01*
X670298Y364356D01*
X670280Y364352D01*
X670276Y364350D01*
X670269Y364348D01*
X669384Y363981D01*
X656496Y363981D01*
X653975Y365025D01*
X652045Y366955D01*
X651001Y369476D01*
X651001Y372204D01*
X652045Y374725D01*
X653975Y376655D01*
X656496Y377699D01*
X669384Y377699D01*
X670269Y377332D01*
X670313Y377322D01*
X670355Y377303D01*
X670432Y377294D01*
X670508Y377276D01*
X670554Y377281D01*
X670599Y377275D01*
X670676Y377292D01*
X670753Y377299D01*
X670795Y377318D01*
X670840Y377328D01*
X670907Y377368D01*
X670978Y377399D01*
X671012Y377430D01*
X671051Y377454D01*
X671102Y377513D01*
X671159Y377566D01*
X671181Y377606D01*
X671211Y377641D01*
X671240Y377713D01*
X671277Y377781D01*
X671286Y377826D01*
X671303Y377869D01*
X671318Y378005D01*
X671321Y378023D01*
X671320Y378028D01*
X671321Y378036D01*
X671321Y389044D01*
X671314Y389090D01*
X671316Y389135D01*
X671294Y389210D01*
X671282Y389287D01*
X671260Y389328D01*
X671247Y389372D01*
X671203Y389436D01*
X671166Y389504D01*
X671133Y389536D01*
X671107Y389574D01*
X671045Y389620D01*
X670988Y389674D01*
X670946Y389693D01*
X670910Y389721D01*
X670836Y389745D01*
X670765Y389777D01*
X670719Y389782D01*
X670676Y389797D01*
X670598Y389796D01*
X670521Y389805D01*
X670476Y389795D01*
X670430Y389794D01*
X670298Y389756D01*
X670280Y389752D01*
X670276Y389750D01*
X670269Y389748D01*
X669384Y389381D01*
X656496Y389381D01*
X653975Y390425D01*
X652045Y392355D01*
X651001Y394876D01*
X651001Y397604D01*
X652045Y400125D01*
X653975Y402055D01*
X656496Y403099D01*
X669384Y403099D01*
X670269Y402732D01*
X670313Y402722D01*
X670355Y402703D01*
X670432Y402694D01*
X670508Y402676D01*
X670554Y402681D01*
X670599Y402675D01*
X670676Y402692D01*
X670753Y402699D01*
X670795Y402718D01*
X670840Y402728D01*
X670907Y402768D01*
X670978Y402799D01*
X671012Y402830D01*
X671051Y402854D01*
X671102Y402913D01*
X671159Y402966D01*
X671181Y403006D01*
X671211Y403041D01*
X671240Y403113D01*
X671277Y403181D01*
X671286Y403226D01*
X671303Y403269D01*
X671318Y403405D01*
X671321Y403423D01*
X671320Y403428D01*
X671321Y403436D01*
X671321Y465244D01*
X671314Y465290D01*
X671316Y465335D01*
X671294Y465410D01*
X671282Y465487D01*
X671260Y465528D01*
X671247Y465572D01*
X671203Y465636D01*
X671166Y465704D01*
X671133Y465736D01*
X671107Y465774D01*
X671045Y465820D01*
X670988Y465874D01*
X670946Y465893D01*
X670910Y465921D01*
X670836Y465945D01*
X670765Y465977D01*
X670719Y465982D01*
X670676Y465997D01*
X670598Y465996D01*
X670521Y466005D01*
X670476Y465995D01*
X670430Y465994D01*
X670298Y465956D01*
X670280Y465952D01*
X670276Y465950D01*
X670269Y465948D01*
X669384Y465581D01*
X656496Y465581D01*
X653975Y466625D01*
X652045Y468555D01*
X651001Y471076D01*
X651001Y473804D01*
X652045Y476325D01*
X653975Y478255D01*
X656496Y479299D01*
X669384Y479299D01*
X670269Y478932D01*
X670313Y478922D01*
X670355Y478903D01*
X670432Y478894D01*
X670508Y478876D01*
X670554Y478881D01*
X670599Y478875D01*
X670676Y478892D01*
X670753Y478899D01*
X670795Y478918D01*
X670840Y478928D01*
X670907Y478968D01*
X670978Y478999D01*
X671012Y479030D01*
X671051Y479054D01*
X671102Y479113D01*
X671159Y479166D01*
X671181Y479206D01*
X671211Y479241D01*
X671240Y479313D01*
X671277Y479381D01*
X671286Y479426D01*
X671303Y479469D01*
X671318Y479605D01*
X671321Y479623D01*
X671320Y479628D01*
X671321Y479636D01*
X671321Y490644D01*
X671314Y490690D01*
X671316Y490735D01*
X671294Y490810D01*
X671282Y490887D01*
X671260Y490928D01*
X671247Y490972D01*
X671203Y491036D01*
X671166Y491104D01*
X671133Y491136D01*
X671107Y491174D01*
X671045Y491220D01*
X670988Y491274D01*
X670946Y491293D01*
X670910Y491321D01*
X670836Y491345D01*
X670765Y491377D01*
X670719Y491382D01*
X670676Y491397D01*
X670598Y491396D01*
X670521Y491405D01*
X670476Y491395D01*
X670430Y491394D01*
X670298Y491356D01*
X670280Y491352D01*
X670276Y491350D01*
X670269Y491348D01*
X669384Y490981D01*
X656496Y490981D01*
X653975Y492025D01*
X652045Y493955D01*
X651001Y496476D01*
X651001Y499204D01*
X652045Y501725D01*
X653975Y503655D01*
X656496Y504699D01*
X669384Y504699D01*
X670269Y504332D01*
X670313Y504322D01*
X670355Y504303D01*
X670375Y504300D01*
X670386Y504296D01*
X670458Y504288D01*
X670508Y504276D01*
X670538Y504279D01*
X670553Y504277D01*
X670560Y504277D01*
X670569Y504279D01*
X670599Y504275D01*
X670676Y504292D01*
X670753Y504299D01*
X670788Y504315D01*
X670803Y504317D01*
X670811Y504321D01*
X670840Y504328D01*
X670907Y504368D01*
X670978Y504399D01*
X671005Y504424D01*
X671020Y504432D01*
X671027Y504440D01*
X671051Y504454D01*
X671102Y504513D01*
X671159Y504566D01*
X671175Y504596D01*
X671190Y504611D01*
X671195Y504622D01*
X671211Y504641D01*
X671240Y504713D01*
X671277Y504781D01*
X671283Y504812D01*
X671293Y504834D01*
X671295Y504849D01*
X671303Y504869D01*
X671318Y505005D01*
X671321Y505023D01*
X671320Y505028D01*
X671321Y505036D01*
X671321Y515220D01*
X671314Y515265D01*
X671316Y515311D01*
X671294Y515386D01*
X671282Y515462D01*
X671260Y515503D01*
X671247Y515547D01*
X671203Y515611D01*
X671166Y515680D01*
X671133Y515711D01*
X671107Y515749D01*
X671044Y515795D01*
X670988Y515849D01*
X670946Y515868D01*
X670910Y515896D01*
X670836Y515920D01*
X670765Y515953D01*
X670719Y515958D01*
X670676Y515972D01*
X670598Y515971D01*
X670521Y515980D01*
X670476Y515970D01*
X670430Y515970D01*
X670298Y515931D01*
X670280Y515927D01*
X670276Y515925D01*
X670269Y515923D01*
X670243Y515912D01*
X668771Y515619D01*
X664463Y515619D01*
X664463Y522478D01*
X664460Y522498D01*
X664462Y522517D01*
X664440Y522619D01*
X664423Y522721D01*
X664414Y522738D01*
X664410Y522758D01*
X664357Y522847D01*
X664308Y522938D01*
X664294Y522952D01*
X664284Y522969D01*
X664205Y523036D01*
X664130Y523107D01*
X664112Y523116D01*
X664097Y523129D01*
X664001Y523167D01*
X663907Y523211D01*
X663887Y523213D01*
X663869Y523221D01*
X663702Y523239D01*
X662939Y523239D01*
X662939Y523241D01*
X663702Y523241D01*
X663722Y523244D01*
X663741Y523242D01*
X663843Y523264D01*
X663945Y523281D01*
X663962Y523290D01*
X663982Y523294D01*
X664071Y523347D01*
X664162Y523396D01*
X664176Y523410D01*
X664193Y523420D01*
X664260Y523499D01*
X664331Y523574D01*
X664340Y523592D01*
X664353Y523607D01*
X664392Y523703D01*
X664435Y523797D01*
X664437Y523817D01*
X664445Y523835D01*
X664463Y524002D01*
X664463Y530861D01*
X668771Y530861D01*
X670243Y530568D01*
X670269Y530557D01*
X670313Y530547D01*
X670355Y530527D01*
X670432Y530519D01*
X670508Y530501D01*
X670554Y530505D01*
X670599Y530500D01*
X670676Y530517D01*
X670753Y530524D01*
X670795Y530543D01*
X670840Y530553D01*
X670907Y530592D01*
X670978Y530624D01*
X671012Y530655D01*
X671051Y530679D01*
X671102Y530738D01*
X671159Y530791D01*
X671181Y530831D01*
X671211Y530866D01*
X671240Y530938D01*
X671277Y531006D01*
X671286Y531051D01*
X671303Y531094D01*
X671318Y531230D01*
X671321Y531248D01*
X671320Y531253D01*
X671321Y531260D01*
X671321Y538480D01*
X671318Y538500D01*
X671320Y538519D01*
X671298Y538621D01*
X671282Y538723D01*
X671272Y538740D01*
X671268Y538760D01*
X671215Y538849D01*
X671166Y538940D01*
X671152Y538954D01*
X671142Y538971D01*
X671063Y539038D01*
X670988Y539110D01*
X670970Y539118D01*
X670955Y539131D01*
X670859Y539170D01*
X670765Y539213D01*
X670745Y539215D01*
X670727Y539223D01*
X670560Y539241D01*
X629412Y539241D01*
X629392Y539238D01*
X629373Y539240D01*
X629271Y539218D01*
X629169Y539202D01*
X629152Y539192D01*
X629132Y539188D01*
X629043Y539135D01*
X628952Y539086D01*
X628938Y539072D01*
X628921Y539062D01*
X628854Y538983D01*
X628782Y538908D01*
X628774Y538890D01*
X628761Y538875D01*
X628722Y538779D01*
X628679Y538685D01*
X628677Y538665D01*
X628669Y538647D01*
X628651Y538480D01*
X628651Y508962D01*
X597363Y477674D01*
X597351Y477657D01*
X597336Y477645D01*
X597279Y477558D01*
X597219Y477474D01*
X597213Y477455D01*
X597203Y477438D01*
X597177Y477338D01*
X597147Y477239D01*
X597147Y477219D01*
X597142Y477199D01*
X597151Y477096D01*
X597153Y476993D01*
X597160Y476974D01*
X597162Y476954D01*
X597202Y476859D01*
X597238Y476762D01*
X597250Y476746D01*
X597258Y476728D01*
X597363Y476597D01*
X597635Y476325D01*
X598679Y473804D01*
X598679Y471076D01*
X597635Y468555D01*
X595705Y466625D01*
X593184Y465581D01*
X580296Y465581D01*
X577775Y466625D01*
X575845Y468555D01*
X574801Y471076D01*
X574801Y473804D01*
X575845Y476325D01*
X577775Y478255D01*
X580296Y479299D01*
X587894Y479299D01*
X587984Y479313D01*
X588075Y479321D01*
X588105Y479333D01*
X588137Y479338D01*
X588218Y479381D01*
X588302Y479417D01*
X588334Y479443D01*
X588354Y479454D01*
X588377Y479477D01*
X588432Y479522D01*
X620806Y511896D01*
X620859Y511969D01*
X620919Y512039D01*
X620931Y512069D01*
X620950Y512095D01*
X620977Y512182D01*
X621011Y512267D01*
X621015Y512308D01*
X621022Y512330D01*
X621021Y512363D01*
X621029Y512434D01*
X621029Y538480D01*
X621026Y538500D01*
X621028Y538519D01*
X621006Y538621D01*
X620990Y538723D01*
X620980Y538740D01*
X620976Y538760D01*
X620923Y538849D01*
X620874Y538940D01*
X620860Y538954D01*
X620850Y538971D01*
X620771Y539038D01*
X620696Y539110D01*
X620678Y539118D01*
X620663Y539131D01*
X620567Y539170D01*
X620473Y539213D01*
X620453Y539215D01*
X620435Y539223D01*
X620268Y539241D01*
X375412Y539241D01*
X375392Y539238D01*
X375373Y539240D01*
X375271Y539218D01*
X375169Y539202D01*
X375152Y539192D01*
X375132Y539188D01*
X375043Y539135D01*
X374952Y539086D01*
X374938Y539072D01*
X374921Y539062D01*
X374854Y538983D01*
X374782Y538908D01*
X374774Y538890D01*
X374761Y538875D01*
X374722Y538779D01*
X374679Y538685D01*
X374677Y538665D01*
X374669Y538647D01*
X374651Y538480D01*
X374651Y525342D01*
X374659Y525294D01*
X374657Y525245D01*
X374678Y525173D01*
X374690Y525099D01*
X374713Y525056D01*
X374727Y525009D01*
X374771Y524948D01*
X374806Y524882D01*
X374841Y524848D01*
X374869Y524808D01*
X374930Y524764D01*
X374984Y524713D01*
X375028Y524692D01*
X375068Y524663D01*
X375139Y524641D01*
X375207Y524609D01*
X375256Y524604D01*
X375302Y524589D01*
X375377Y524590D01*
X375451Y524582D01*
X375499Y524592D01*
X375548Y524593D01*
X375619Y524618D01*
X375692Y524634D01*
X375734Y524659D01*
X375780Y524676D01*
X375839Y524722D01*
X375903Y524760D01*
X375935Y524798D01*
X375973Y524828D01*
X376014Y524890D01*
X376063Y524947D01*
X376081Y524993D01*
X376108Y525034D01*
X376146Y525153D01*
X376155Y525175D01*
X376156Y525185D01*
X376159Y525194D01*
X376212Y525463D01*
X376787Y526850D01*
X377621Y528098D01*
X378682Y529159D01*
X379930Y529993D01*
X381317Y530568D01*
X382789Y530861D01*
X387097Y530861D01*
X387097Y524002D01*
X387100Y523982D01*
X387098Y523963D01*
X387120Y523861D01*
X387137Y523759D01*
X387146Y523742D01*
X387150Y523722D01*
X387203Y523633D01*
X387252Y523542D01*
X387266Y523528D01*
X387276Y523511D01*
X387355Y523444D01*
X387430Y523373D01*
X387448Y523364D01*
X387463Y523351D01*
X387559Y523313D01*
X387653Y523269D01*
X387673Y523267D01*
X387691Y523259D01*
X387858Y523241D01*
X388621Y523241D01*
X388621Y523239D01*
X387858Y523239D01*
X387838Y523236D01*
X387819Y523238D01*
X387717Y523216D01*
X387615Y523199D01*
X387598Y523190D01*
X387578Y523186D01*
X387489Y523133D01*
X387398Y523084D01*
X387384Y523070D01*
X387367Y523060D01*
X387300Y522981D01*
X387229Y522906D01*
X387220Y522888D01*
X387207Y522873D01*
X387168Y522777D01*
X387125Y522683D01*
X387123Y522663D01*
X387115Y522645D01*
X387097Y522478D01*
X387097Y515619D01*
X382789Y515619D01*
X381317Y515912D01*
X379930Y516487D01*
X378682Y517321D01*
X377621Y518382D01*
X376787Y519630D01*
X376212Y521017D01*
X376159Y521286D01*
X376141Y521332D01*
X376133Y521381D01*
X376099Y521447D01*
X376072Y521517D01*
X376041Y521555D01*
X376018Y521598D01*
X375964Y521649D01*
X375917Y521707D01*
X375876Y521734D01*
X375840Y521767D01*
X375772Y521799D01*
X375709Y521839D01*
X375661Y521850D01*
X375617Y521871D01*
X375543Y521879D01*
X375470Y521897D01*
X375421Y521893D01*
X375373Y521898D01*
X375300Y521882D01*
X375225Y521876D01*
X375180Y521856D01*
X375132Y521846D01*
X375068Y521807D01*
X374999Y521778D01*
X374963Y521745D01*
X374921Y521720D01*
X374872Y521663D01*
X374817Y521613D01*
X374793Y521570D01*
X374761Y521533D01*
X374733Y521463D01*
X374697Y521398D01*
X374688Y521350D01*
X374669Y521305D01*
X374655Y521180D01*
X374651Y521156D01*
X374652Y521147D01*
X374651Y521138D01*
X374651Y469254D01*
X374654Y469237D01*
X374652Y469221D01*
X374666Y469154D01*
X374673Y469073D01*
X374685Y469043D01*
X374690Y469011D01*
X374702Y468989D01*
X374704Y468980D01*
X374729Y468939D01*
X374733Y468930D01*
X374769Y468846D01*
X374795Y468814D01*
X374806Y468794D01*
X374829Y468772D01*
X374830Y468769D01*
X374832Y468767D01*
X374874Y468716D01*
X382356Y461234D01*
X382429Y461181D01*
X382499Y461121D01*
X382529Y461109D01*
X382555Y461090D01*
X382642Y461063D01*
X382727Y461029D01*
X382768Y461025D01*
X382790Y461018D01*
X382823Y461019D01*
X382894Y461011D01*
X391871Y461011D01*
X391961Y461025D01*
X392052Y461033D01*
X392082Y461045D01*
X392114Y461050D01*
X392195Y461093D01*
X392279Y461129D01*
X392311Y461155D01*
X392331Y461166D01*
X392354Y461189D01*
X392410Y461234D01*
X393090Y461914D01*
X395134Y462761D01*
X397346Y462761D01*
X399390Y461914D01*
X400954Y460350D01*
X401801Y458306D01*
X401801Y456094D01*
X400954Y454050D01*
X399390Y452486D01*
X397346Y451639D01*
X395134Y451639D01*
X393090Y452486D01*
X392410Y453166D01*
X392336Y453219D01*
X392266Y453279D01*
X392236Y453291D01*
X392210Y453310D01*
X392123Y453337D01*
X392038Y453371D01*
X391997Y453375D01*
X391975Y453382D01*
X391943Y453381D01*
X391871Y453389D01*
X379422Y453389D01*
X367029Y465782D01*
X367029Y538480D01*
X367026Y538500D01*
X367028Y538519D01*
X367006Y538621D01*
X366990Y538723D01*
X366980Y538740D01*
X366976Y538760D01*
X366923Y538849D01*
X366874Y538940D01*
X366860Y538954D01*
X366850Y538971D01*
X366771Y539038D01*
X366696Y539110D01*
X366678Y539118D01*
X366663Y539131D01*
X366567Y539170D01*
X366473Y539213D01*
X366453Y539215D01*
X366435Y539223D01*
X366268Y539241D01*
X365252Y539241D01*
X365232Y539238D01*
X365213Y539240D01*
X365111Y539218D01*
X365009Y539202D01*
X364992Y539192D01*
X364972Y539188D01*
X364883Y539135D01*
X364792Y539086D01*
X364778Y539072D01*
X364761Y539062D01*
X364694Y538983D01*
X364622Y538908D01*
X364614Y538890D01*
X364601Y538875D01*
X364562Y538779D01*
X364519Y538685D01*
X364517Y538665D01*
X364509Y538647D01*
X364491Y538480D01*
X364491Y448934D01*
X364505Y448844D01*
X364513Y448753D01*
X364525Y448723D01*
X364530Y448691D01*
X364573Y448610D01*
X364609Y448526D01*
X364635Y448494D01*
X364646Y448474D01*
X364669Y448451D01*
X364714Y448396D01*
X385686Y427424D01*
X385759Y427371D01*
X385829Y427311D01*
X385859Y427299D01*
X385885Y427280D01*
X385972Y427253D01*
X386057Y427219D01*
X386098Y427215D01*
X386120Y427208D01*
X386153Y427209D01*
X386224Y427201D01*
X387186Y427201D01*
X389230Y426354D01*
X390794Y424790D01*
X391641Y422746D01*
X391641Y420534D01*
X390794Y418490D01*
X389230Y416926D01*
X387186Y416079D01*
X386224Y416079D01*
X386134Y416065D01*
X386043Y416057D01*
X386013Y416045D01*
X385981Y416040D01*
X385900Y415997D01*
X385816Y415961D01*
X385784Y415935D01*
X385764Y415924D01*
X385741Y415901D01*
X385686Y415856D01*
X347018Y377189D01*
X322688Y377189D01*
X322618Y377178D01*
X322546Y377176D01*
X322497Y377158D01*
X322446Y377150D01*
X322382Y377116D01*
X322315Y377091D01*
X322274Y377059D01*
X322228Y377034D01*
X322179Y376982D01*
X322123Y376938D01*
X322095Y376894D01*
X322059Y376856D01*
X322029Y376791D01*
X321990Y376731D01*
X321977Y376680D01*
X321955Y376633D01*
X321947Y376562D01*
X321930Y376492D01*
X321934Y376440D01*
X321928Y376389D01*
X321943Y376318D01*
X321949Y376247D01*
X321969Y376199D01*
X321980Y376148D01*
X322017Y376087D01*
X322045Y376021D01*
X322090Y375965D01*
X322106Y375937D01*
X322124Y375922D01*
X322150Y375890D01*
X323315Y374725D01*
X324359Y372204D01*
X324359Y369476D01*
X323315Y366955D01*
X321385Y365025D01*
X318864Y363981D01*
X305976Y363981D01*
X303455Y365025D01*
X301525Y366955D01*
X300481Y369476D01*
X300481Y372204D01*
X301525Y374725D01*
X302690Y375890D01*
X302732Y375948D01*
X302781Y376000D01*
X302803Y376047D01*
X302834Y376089D01*
X302855Y376158D01*
X302885Y376223D01*
X302891Y376275D01*
X302906Y376325D01*
X302904Y376396D01*
X302912Y376467D01*
X302901Y376518D01*
X302900Y376570D01*
X302875Y376638D01*
X302860Y376708D01*
X302833Y376753D01*
X302815Y376801D01*
X302770Y376857D01*
X302734Y376919D01*
X302694Y376953D01*
X302661Y376993D01*
X302601Y377032D01*
X302547Y377079D01*
X302498Y377098D01*
X302454Y377126D01*
X302385Y377144D01*
X302318Y377171D01*
X302247Y377179D01*
X302216Y377187D01*
X302193Y377185D01*
X302152Y377189D01*
X155902Y377189D01*
X147714Y385376D01*
X147641Y385429D01*
X147571Y385489D01*
X147541Y385501D01*
X147515Y385520D01*
X147428Y385547D01*
X147343Y385581D01*
X147302Y385585D01*
X147280Y385592D01*
X147247Y385591D01*
X147176Y385599D01*
X146214Y385599D01*
X144170Y386446D01*
X142606Y388010D01*
X141759Y390054D01*
X141759Y392266D01*
X142606Y394310D01*
X144170Y395874D01*
X146214Y396721D01*
X148426Y396721D01*
X150470Y395874D01*
X152034Y394310D01*
X152881Y392266D01*
X152881Y391304D01*
X152895Y391214D01*
X152903Y391123D01*
X152915Y391093D01*
X152920Y391061D01*
X152963Y390980D01*
X152999Y390896D01*
X153025Y390864D01*
X153036Y390844D01*
X153059Y390821D01*
X153104Y390766D01*
X158836Y385034D01*
X158909Y384981D01*
X158979Y384921D01*
X159009Y384909D01*
X159035Y384890D01*
X159122Y384863D01*
X159207Y384829D01*
X159248Y384825D01*
X159270Y384818D01*
X159303Y384819D01*
X159374Y384811D01*
X343546Y384811D01*
X343636Y384825D01*
X343727Y384833D01*
X343757Y384845D01*
X343789Y384850D01*
X343870Y384893D01*
X343954Y384929D01*
X343986Y384955D01*
X344006Y384966D01*
X344029Y384989D01*
X344084Y385034D01*
X380153Y421102D01*
X380164Y421118D01*
X380180Y421130D01*
X380236Y421218D01*
X380296Y421301D01*
X380302Y421320D01*
X380313Y421337D01*
X380338Y421438D01*
X380368Y421537D01*
X380368Y421556D01*
X380373Y421576D01*
X380365Y421679D01*
X380362Y421782D01*
X380355Y421801D01*
X380354Y421821D01*
X380313Y421916D01*
X380278Y422013D01*
X380265Y422029D01*
X380257Y422047D01*
X380153Y422178D01*
X359324Y443006D01*
X356869Y445462D01*
X356869Y538480D01*
X356866Y538500D01*
X356868Y538519D01*
X356846Y538621D01*
X356830Y538723D01*
X356820Y538740D01*
X356816Y538760D01*
X356763Y538849D01*
X356714Y538940D01*
X356700Y538954D01*
X356690Y538971D01*
X356611Y539038D01*
X356536Y539110D01*
X356518Y539118D01*
X356503Y539131D01*
X356407Y539170D01*
X356313Y539213D01*
X356293Y539215D01*
X356275Y539223D01*
X356108Y539241D01*
X355092Y539241D01*
X355072Y539238D01*
X355053Y539240D01*
X354951Y539218D01*
X354849Y539202D01*
X354832Y539192D01*
X354812Y539188D01*
X354723Y539135D01*
X354632Y539086D01*
X354618Y539072D01*
X354601Y539062D01*
X354534Y538983D01*
X354462Y538908D01*
X354454Y538890D01*
X354441Y538875D01*
X354402Y538779D01*
X354359Y538685D01*
X354357Y538665D01*
X354349Y538647D01*
X354331Y538480D01*
X354331Y415849D01*
X354345Y415759D01*
X354353Y415668D01*
X354365Y415638D01*
X354370Y415606D01*
X354413Y415525D01*
X354449Y415441D01*
X354475Y415409D01*
X354486Y415389D01*
X354509Y415366D01*
X354554Y415310D01*
X355234Y414630D01*
X356081Y412586D01*
X356081Y410374D01*
X355234Y408330D01*
X353670Y406766D01*
X351626Y405919D01*
X349414Y405919D01*
X347370Y406766D01*
X345978Y408158D01*
X345962Y408169D01*
X345950Y408185D01*
X345875Y408233D01*
X345856Y408250D01*
X345844Y408254D01*
X345779Y408301D01*
X345760Y408307D01*
X345743Y408318D01*
X345642Y408343D01*
X345543Y408374D01*
X345524Y408373D01*
X345504Y408378D01*
X345401Y408370D01*
X345298Y408367D01*
X345279Y408360D01*
X345259Y408359D01*
X345164Y408318D01*
X345067Y408283D01*
X345051Y408270D01*
X345033Y408262D01*
X344965Y408208D01*
X344959Y408205D01*
X344953Y408199D01*
X344902Y408158D01*
X343510Y406766D01*
X341466Y405919D01*
X339254Y405919D01*
X337210Y406766D01*
X335646Y408330D01*
X334799Y410374D01*
X334799Y412586D01*
X335646Y414630D01*
X337210Y416194D01*
X338647Y416789D01*
X338747Y416851D01*
X338757Y416857D01*
X338816Y416889D01*
X338825Y416898D01*
X338847Y416911D01*
X338851Y416916D01*
X338856Y416919D01*
X338931Y417009D01*
X338933Y417012D01*
X338986Y417067D01*
X338992Y417080D01*
X339007Y417098D01*
X339009Y417104D01*
X339013Y417109D01*
X339053Y417212D01*
X339089Y417290D01*
X339091Y417307D01*
X339099Y417326D01*
X339100Y417334D01*
X339101Y417338D01*
X339102Y417356D01*
X339117Y417493D01*
X339117Y538480D01*
X339114Y538500D01*
X339116Y538519D01*
X339094Y538621D01*
X339078Y538723D01*
X339068Y538740D01*
X339064Y538760D01*
X339011Y538849D01*
X338962Y538940D01*
X338948Y538954D01*
X338938Y538971D01*
X338859Y539038D01*
X338784Y539110D01*
X338766Y539118D01*
X338751Y539131D01*
X338655Y539170D01*
X338561Y539213D01*
X338541Y539215D01*
X338523Y539223D01*
X338356Y539241D01*
X334772Y539241D01*
X334752Y539238D01*
X334733Y539240D01*
X334631Y539218D01*
X334529Y539202D01*
X334512Y539192D01*
X334492Y539188D01*
X334403Y539135D01*
X334312Y539086D01*
X334298Y539072D01*
X334281Y539062D01*
X334214Y538983D01*
X334142Y538908D01*
X334134Y538890D01*
X334121Y538875D01*
X334082Y538779D01*
X334039Y538685D01*
X334037Y538665D01*
X334029Y538647D01*
X334011Y538480D01*
X334011Y425142D01*
X331556Y422686D01*
X331555Y422686D01*
X320744Y411874D01*
X320691Y411801D01*
X320631Y411731D01*
X320619Y411701D01*
X320600Y411675D01*
X320573Y411588D01*
X320539Y411503D01*
X320535Y411462D01*
X320528Y411440D01*
X320529Y411407D01*
X320521Y411336D01*
X320521Y410374D01*
X319674Y408330D01*
X318110Y406766D01*
X316066Y405919D01*
X313854Y405919D01*
X311810Y406766D01*
X310246Y408330D01*
X309399Y410374D01*
X309399Y412586D01*
X310246Y414630D01*
X311810Y416194D01*
X313854Y417041D01*
X314816Y417041D01*
X314906Y417055D01*
X314997Y417063D01*
X315027Y417075D01*
X315059Y417080D01*
X315140Y417123D01*
X315224Y417159D01*
X315256Y417185D01*
X315276Y417196D01*
X315299Y417219D01*
X315354Y417264D01*
X326166Y428075D01*
X326219Y428149D01*
X326279Y428219D01*
X326291Y428249D01*
X326310Y428275D01*
X326337Y428362D01*
X326371Y428447D01*
X326375Y428488D01*
X326382Y428510D01*
X326381Y428542D01*
X326389Y428614D01*
X326389Y538480D01*
X326386Y538500D01*
X326388Y538519D01*
X326366Y538621D01*
X326350Y538723D01*
X326340Y538740D01*
X326336Y538760D01*
X326283Y538849D01*
X326234Y538940D01*
X326220Y538954D01*
X326210Y538971D01*
X326131Y539038D01*
X326056Y539110D01*
X326038Y539118D01*
X326023Y539131D01*
X325927Y539170D01*
X325833Y539213D01*
X325813Y539215D01*
X325795Y539223D01*
X325628Y539241D01*
X299212Y539241D01*
X299192Y539238D01*
X299173Y539240D01*
X299071Y539218D01*
X298969Y539202D01*
X298952Y539192D01*
X298932Y539188D01*
X298843Y539135D01*
X298752Y539086D01*
X298738Y539072D01*
X298721Y539062D01*
X298654Y538983D01*
X298582Y538908D01*
X298574Y538890D01*
X298561Y538875D01*
X298522Y538779D01*
X298479Y538685D01*
X298477Y538665D01*
X298469Y538647D01*
X298451Y538480D01*
X298451Y461569D01*
X298465Y461479D01*
X298473Y461388D01*
X298485Y461358D01*
X298490Y461326D01*
X298533Y461245D01*
X298569Y461161D01*
X298595Y461129D01*
X298606Y461109D01*
X298629Y461086D01*
X298674Y461030D01*
X299354Y460350D01*
X300201Y458306D01*
X300201Y456094D01*
X299354Y454050D01*
X297790Y452486D01*
X295746Y451639D01*
X293534Y451639D01*
X291490Y452486D01*
X289926Y454050D01*
X289079Y456094D01*
X289079Y458306D01*
X289926Y460350D01*
X290606Y461030D01*
X290659Y461104D01*
X290719Y461174D01*
X290731Y461204D01*
X290750Y461230D01*
X290777Y461317D01*
X290811Y461402D01*
X290815Y461443D01*
X290822Y461465D01*
X290821Y461497D01*
X290829Y461569D01*
X290829Y538480D01*
X290826Y538500D01*
X290828Y538519D01*
X290806Y538621D01*
X290790Y538723D01*
X290780Y538740D01*
X290776Y538760D01*
X290723Y538849D01*
X290674Y538940D01*
X290660Y538954D01*
X290650Y538971D01*
X290571Y539038D01*
X290496Y539110D01*
X290478Y539118D01*
X290463Y539131D01*
X290367Y539170D01*
X290273Y539213D01*
X290253Y539215D01*
X290235Y539223D01*
X290068Y539241D01*
X66801Y539241D01*
X66801Y894080D01*
X66798Y894100D01*
X66800Y894119D01*
X66778Y894221D01*
X66762Y894323D01*
X66752Y894340D01*
X66748Y894360D01*
X66695Y894449D01*
X66646Y894540D01*
X66632Y894554D01*
X66622Y894571D01*
X66543Y894638D01*
X66468Y894710D01*
X66450Y894718D01*
X66435Y894731D01*
X66339Y894770D01*
X66245Y894813D01*
X66225Y894815D01*
X66207Y894823D01*
X66040Y894841D01*
X60659Y894841D01*
X56641Y898859D01*
X56641Y904541D01*
X60659Y908559D01*
X66040Y908559D01*
X66060Y908562D01*
X66079Y908560D01*
X66181Y908582D01*
X66283Y908598D01*
X66300Y908608D01*
X66320Y908612D01*
X66409Y908665D01*
X66500Y908714D01*
X66514Y908728D01*
X66531Y908738D01*
X66598Y908817D01*
X66670Y908892D01*
X66678Y908910D01*
X66691Y908925D01*
X66730Y909021D01*
X66773Y909115D01*
X66775Y909135D01*
X66783Y909153D01*
X66801Y909320D01*
X66801Y1012698D01*
X66798Y1012718D01*
X66800Y1012737D01*
X66778Y1012839D01*
X66762Y1012941D01*
X66752Y1012958D01*
X66748Y1012978D01*
X66695Y1013067D01*
X66646Y1013158D01*
X66632Y1013172D01*
X66622Y1013189D01*
X66543Y1013256D01*
X66468Y1013328D01*
X66450Y1013336D01*
X66435Y1013349D01*
X66339Y1013388D01*
X66245Y1013431D01*
X66225Y1013433D01*
X66207Y1013441D01*
X66040Y1013459D01*
X3302Y1013459D01*
X3282Y1013456D01*
X3263Y1013458D01*
X3161Y1013436D01*
X3059Y1013420D01*
X3042Y1013410D01*
X3022Y1013406D01*
X2933Y1013353D01*
X2842Y1013304D01*
X2828Y1013290D01*
X2811Y1013280D01*
X2744Y1013201D01*
X2672Y1013126D01*
X2664Y1013108D01*
X2651Y1013093D01*
X2612Y1012997D01*
X2569Y1012903D01*
X2567Y1012883D01*
X2559Y1012865D01*
X2541Y1012698D01*
X2541Y335280D01*
X2544Y335260D01*
X2542Y335241D01*
X2564Y335139D01*
X2580Y335037D01*
X2590Y335020D01*
X2594Y335000D01*
X2647Y334911D01*
X2696Y334820D01*
X2710Y334806D01*
X2720Y334789D01*
X2799Y334722D01*
X2874Y334650D01*
X2892Y334642D01*
X2907Y334629D01*
X3003Y334590D01*
X3097Y334547D01*
X3117Y334545D01*
X3135Y334537D01*
X3302Y334519D01*
X670560Y334519D01*
G37*
%LPC*%
G36*
X538263Y746221D02*
X538263Y746221D01*
X537221Y747263D01*
X537221Y776737D01*
X538263Y777779D01*
X567737Y777779D01*
X568779Y776737D01*
X568779Y747263D01*
X567737Y746221D01*
X538263Y746221D01*
G37*
%LPD*%
%LPC*%
G36*
X651463Y746221D02*
X651463Y746221D01*
X650421Y747263D01*
X650421Y776737D01*
X651463Y777779D01*
X680937Y777779D01*
X681979Y776737D01*
X681979Y747263D01*
X680937Y746221D01*
X651463Y746221D01*
G37*
%LPD*%
%LPC*%
G36*
X741463Y746221D02*
X741463Y746221D01*
X740421Y747263D01*
X740421Y776737D01*
X741463Y777779D01*
X770937Y777779D01*
X771979Y776737D01*
X771979Y747263D01*
X770937Y746221D01*
X741463Y746221D01*
G37*
%LPD*%
%LPC*%
G36*
X245063Y746221D02*
X245063Y746221D01*
X244021Y747263D01*
X244021Y776737D01*
X245063Y777779D01*
X274537Y777779D01*
X275579Y776737D01*
X275579Y747263D01*
X274537Y746221D01*
X245063Y746221D01*
G37*
%LPD*%
%LPC*%
G36*
X335063Y746221D02*
X335063Y746221D01*
X334021Y747263D01*
X334021Y776737D01*
X335063Y777779D01*
X364537Y777779D01*
X365579Y776737D01*
X365579Y747263D01*
X364537Y746221D01*
X335063Y746221D01*
G37*
%LPD*%
%LPC*%
G36*
X278294Y598959D02*
X278294Y598959D01*
X276250Y599806D01*
X274686Y601370D01*
X273839Y603414D01*
X273839Y605626D01*
X274686Y607670D01*
X275366Y608350D01*
X275419Y608424D01*
X275479Y608494D01*
X275491Y608524D01*
X275510Y608550D01*
X275537Y608637D01*
X275571Y608722D01*
X275575Y608763D01*
X275582Y608785D01*
X275581Y608817D01*
X275589Y608889D01*
X275589Y648346D01*
X275575Y648436D01*
X275567Y648527D01*
X275555Y648557D01*
X275550Y648589D01*
X275507Y648670D01*
X275471Y648754D01*
X275445Y648786D01*
X275434Y648806D01*
X275411Y648829D01*
X275366Y648884D01*
X247564Y676686D01*
X247491Y676739D01*
X247421Y676799D01*
X247391Y676811D01*
X247365Y676830D01*
X247278Y676857D01*
X247193Y676891D01*
X247152Y676895D01*
X247130Y676902D01*
X247097Y676901D01*
X247026Y676909D01*
X227889Y676909D01*
X227799Y676895D01*
X227708Y676887D01*
X227678Y676875D01*
X227646Y676870D01*
X227565Y676827D01*
X227481Y676791D01*
X227449Y676765D01*
X227429Y676754D01*
X227406Y676731D01*
X227350Y676686D01*
X226670Y676006D01*
X224626Y675159D01*
X222414Y675159D01*
X220370Y676006D01*
X218806Y677570D01*
X217959Y679614D01*
X217959Y681826D01*
X218806Y683870D01*
X220370Y685434D01*
X222414Y686281D01*
X224626Y686281D01*
X226670Y685434D01*
X227350Y684754D01*
X227424Y684701D01*
X227494Y684641D01*
X227524Y684629D01*
X227550Y684610D01*
X227637Y684583D01*
X227722Y684549D01*
X227763Y684545D01*
X227785Y684538D01*
X227817Y684539D01*
X227889Y684531D01*
X250498Y684531D01*
X283211Y651818D01*
X283211Y608889D01*
X283225Y608799D01*
X283233Y608708D01*
X283245Y608678D01*
X283250Y608646D01*
X283293Y608565D01*
X283329Y608481D01*
X283355Y608449D01*
X283366Y608429D01*
X283389Y608406D01*
X283434Y608350D01*
X284114Y607670D01*
X284961Y605626D01*
X284961Y603414D01*
X284114Y601370D01*
X282550Y599806D01*
X280506Y598959D01*
X278294Y598959D01*
G37*
%LPD*%
%LPC*%
G36*
X410374Y446559D02*
X410374Y446559D01*
X408330Y447406D01*
X406766Y448970D01*
X405919Y451014D01*
X405919Y453226D01*
X406766Y455270D01*
X408330Y456834D01*
X410374Y457681D01*
X411336Y457681D01*
X411426Y457695D01*
X411517Y457703D01*
X411547Y457715D01*
X411579Y457720D01*
X411660Y457763D01*
X411744Y457799D01*
X411776Y457825D01*
X411796Y457836D01*
X411819Y457859D01*
X411874Y457904D01*
X458246Y504276D01*
X458299Y504349D01*
X458359Y504419D01*
X458371Y504449D01*
X458390Y504475D01*
X458417Y504562D01*
X458451Y504647D01*
X458455Y504688D01*
X458462Y504710D01*
X458461Y504743D01*
X458469Y504814D01*
X458469Y508711D01*
X458455Y508801D01*
X458447Y508892D01*
X458435Y508922D01*
X458430Y508954D01*
X458387Y509035D01*
X458351Y509119D01*
X458325Y509151D01*
X458314Y509171D01*
X458291Y509194D01*
X458246Y509250D01*
X457566Y509930D01*
X456719Y511974D01*
X456719Y514186D01*
X457566Y516230D01*
X459130Y517794D01*
X461174Y518641D01*
X463386Y518641D01*
X465430Y517794D01*
X466994Y516230D01*
X467841Y514186D01*
X467841Y511974D01*
X466994Y509930D01*
X466314Y509250D01*
X466261Y509176D01*
X466201Y509106D01*
X466189Y509076D01*
X466170Y509050D01*
X466143Y508963D01*
X466109Y508878D01*
X466105Y508837D01*
X466098Y508815D01*
X466099Y508783D01*
X466091Y508711D01*
X466091Y501342D01*
X417264Y452514D01*
X417211Y452441D01*
X417151Y452371D01*
X417139Y452341D01*
X417120Y452315D01*
X417093Y452228D01*
X417059Y452143D01*
X417055Y452102D01*
X417048Y452080D01*
X417049Y452047D01*
X417041Y451976D01*
X417041Y451014D01*
X416194Y448970D01*
X414630Y447406D01*
X412586Y446559D01*
X410374Y446559D01*
G37*
%LPD*%
%LPC*%
G36*
X694854Y649759D02*
X694854Y649759D01*
X692810Y650606D01*
X691246Y652170D01*
X690399Y654214D01*
X690399Y656426D01*
X691246Y658470D01*
X691926Y659150D01*
X691979Y659224D01*
X692039Y659294D01*
X692051Y659324D01*
X692070Y659350D01*
X692097Y659437D01*
X692131Y659522D01*
X692135Y659563D01*
X692142Y659585D01*
X692141Y659617D01*
X692149Y659689D01*
X692149Y678826D01*
X692135Y678916D01*
X692127Y679007D01*
X692115Y679037D01*
X692110Y679069D01*
X692067Y679149D01*
X692031Y679234D01*
X692005Y679266D01*
X691994Y679286D01*
X691971Y679308D01*
X691926Y679364D01*
X689451Y681840D01*
X689356Y681908D01*
X689262Y681978D01*
X689256Y681980D01*
X689251Y681984D01*
X689140Y682018D01*
X689028Y682054D01*
X689022Y682054D01*
X689016Y682056D01*
X688899Y682053D01*
X688782Y682052D01*
X688775Y682050D01*
X688770Y682050D01*
X688753Y682043D01*
X688621Y682005D01*
X688221Y681839D01*
X684179Y681839D01*
X680444Y683386D01*
X677586Y686244D01*
X676039Y689979D01*
X676039Y694021D01*
X677586Y697756D01*
X680444Y700614D01*
X684179Y702161D01*
X688221Y702161D01*
X691956Y700614D01*
X694814Y697756D01*
X696361Y694021D01*
X696361Y689979D01*
X695305Y687429D01*
X695278Y687316D01*
X695249Y687202D01*
X695250Y687196D01*
X695248Y687190D01*
X695259Y687073D01*
X695268Y686957D01*
X695271Y686951D01*
X695272Y686945D01*
X695319Y686837D01*
X695365Y686731D01*
X695369Y686725D01*
X695372Y686720D01*
X695384Y686706D01*
X695470Y686600D01*
X699771Y682298D01*
X699771Y659689D01*
X699785Y659599D01*
X699793Y659508D01*
X699805Y659478D01*
X699810Y659446D01*
X699853Y659365D01*
X699889Y659281D01*
X699915Y659249D01*
X699926Y659229D01*
X699949Y659206D01*
X699994Y659150D01*
X700674Y658470D01*
X701521Y656426D01*
X701521Y654214D01*
X700674Y652170D01*
X699110Y650606D01*
X697066Y649759D01*
X694854Y649759D01*
G37*
%LPD*%
%LPC*%
G36*
X801534Y436399D02*
X801534Y436399D01*
X799490Y437246D01*
X797926Y438810D01*
X797079Y440854D01*
X797079Y441816D01*
X797065Y441906D01*
X797057Y441997D01*
X797045Y442027D01*
X797040Y442059D01*
X796997Y442140D01*
X796961Y442224D01*
X796935Y442256D01*
X796924Y442276D01*
X796901Y442299D01*
X796856Y442354D01*
X757314Y481896D01*
X757241Y481949D01*
X757171Y482009D01*
X757141Y482021D01*
X757115Y482040D01*
X757028Y482067D01*
X756943Y482101D01*
X756902Y482105D01*
X756880Y482112D01*
X756847Y482111D01*
X756776Y482119D01*
X755814Y482119D01*
X753770Y482966D01*
X752206Y484530D01*
X751359Y486574D01*
X751359Y488786D01*
X752206Y490830D01*
X753770Y492394D01*
X755814Y493241D01*
X758026Y493241D01*
X760070Y492394D01*
X761634Y490830D01*
X762481Y488786D01*
X762481Y487824D01*
X762495Y487734D01*
X762503Y487643D01*
X762515Y487613D01*
X762520Y487581D01*
X762563Y487500D01*
X762599Y487416D01*
X762625Y487384D01*
X762636Y487364D01*
X762659Y487341D01*
X762704Y487286D01*
X802246Y447744D01*
X802319Y447691D01*
X802389Y447631D01*
X802419Y447619D01*
X802445Y447600D01*
X802532Y447573D01*
X802617Y447539D01*
X802658Y447535D01*
X802680Y447528D01*
X802713Y447529D01*
X802784Y447521D01*
X803746Y447521D01*
X805790Y446674D01*
X807354Y445110D01*
X808201Y443066D01*
X808201Y440854D01*
X807354Y438810D01*
X805790Y437246D01*
X803746Y436399D01*
X801534Y436399D01*
G37*
%LPD*%
%LPC*%
G36*
X461174Y675159D02*
X461174Y675159D01*
X459130Y676006D01*
X457566Y677570D01*
X456719Y679614D01*
X456719Y681826D01*
X457566Y683870D01*
X458246Y684550D01*
X458299Y684624D01*
X458359Y684694D01*
X458371Y684724D01*
X458390Y684750D01*
X458417Y684837D01*
X458451Y684922D01*
X458455Y684963D01*
X458462Y684985D01*
X458461Y685017D01*
X458469Y685089D01*
X458469Y707698D01*
X481896Y731126D01*
X481949Y731199D01*
X482009Y731269D01*
X482021Y731299D01*
X482040Y731325D01*
X482067Y731412D01*
X482101Y731497D01*
X482105Y731538D01*
X482112Y731560D01*
X482111Y731593D01*
X482119Y731664D01*
X482119Y732626D01*
X482966Y734670D01*
X484530Y736234D01*
X486574Y737081D01*
X488786Y737081D01*
X490830Y736234D01*
X492394Y734670D01*
X493241Y732626D01*
X493241Y730414D01*
X492394Y728370D01*
X490830Y726806D01*
X488786Y725959D01*
X487824Y725959D01*
X487734Y725945D01*
X487643Y725937D01*
X487613Y725925D01*
X487581Y725920D01*
X487500Y725877D01*
X487416Y725841D01*
X487384Y725815D01*
X487364Y725804D01*
X487341Y725781D01*
X487286Y725736D01*
X466314Y704764D01*
X466261Y704691D01*
X466201Y704621D01*
X466189Y704591D01*
X466170Y704565D01*
X466143Y704478D01*
X466109Y704393D01*
X466105Y704352D01*
X466098Y704330D01*
X466099Y704297D01*
X466091Y704226D01*
X466091Y685089D01*
X466105Y684999D01*
X466113Y684908D01*
X466125Y684878D01*
X466130Y684846D01*
X466173Y684765D01*
X466209Y684681D01*
X466235Y684649D01*
X466246Y684629D01*
X466269Y684606D01*
X466314Y684550D01*
X466994Y683870D01*
X467841Y681826D01*
X467841Y679614D01*
X466994Y677570D01*
X465430Y676006D01*
X463386Y675159D01*
X461174Y675159D01*
G37*
%LPD*%
%LPC*%
G36*
X674534Y883439D02*
X674534Y883439D01*
X672490Y884286D01*
X670926Y885850D01*
X670079Y887894D01*
X670079Y890106D01*
X670926Y892150D01*
X672490Y893714D01*
X674534Y894561D01*
X676746Y894561D01*
X678790Y893714D01*
X679470Y893034D01*
X679544Y892981D01*
X679614Y892921D01*
X679644Y892909D01*
X679670Y892890D01*
X679757Y892863D01*
X679842Y892829D01*
X679883Y892825D01*
X679905Y892818D01*
X679937Y892819D01*
X680009Y892811D01*
X722071Y892811D01*
X722161Y892825D01*
X722252Y892833D01*
X722282Y892845D01*
X722314Y892850D01*
X722395Y892893D01*
X722479Y892929D01*
X722511Y892955D01*
X722531Y892966D01*
X722554Y892989D01*
X722610Y893034D01*
X723290Y893714D01*
X725334Y894561D01*
X727546Y894561D01*
X729590Y893714D01*
X731154Y892150D01*
X732001Y890106D01*
X732001Y887894D01*
X731154Y885850D01*
X729590Y884286D01*
X727546Y883439D01*
X725334Y883439D01*
X723290Y884286D01*
X722610Y884966D01*
X722536Y885019D01*
X722466Y885079D01*
X722436Y885091D01*
X722410Y885110D01*
X722323Y885137D01*
X722238Y885171D01*
X722197Y885175D01*
X722175Y885182D01*
X722143Y885181D01*
X722071Y885189D01*
X680009Y885189D01*
X679919Y885175D01*
X679828Y885167D01*
X679798Y885155D01*
X679766Y885150D01*
X679685Y885107D01*
X679601Y885071D01*
X679569Y885045D01*
X679549Y885034D01*
X679526Y885011D01*
X679470Y884966D01*
X678790Y884286D01*
X676746Y883439D01*
X674534Y883439D01*
G37*
%LPD*%
%LPC*%
G36*
X255079Y964183D02*
X255079Y964183D01*
X250971Y965885D01*
X247827Y969029D01*
X246125Y973137D01*
X246125Y977583D01*
X247827Y981691D01*
X250971Y984835D01*
X255079Y986537D01*
X259525Y986537D01*
X263633Y984835D01*
X266777Y981691D01*
X268479Y977583D01*
X268479Y973137D01*
X266777Y969029D01*
X263633Y965885D01*
X259525Y964183D01*
X255079Y964183D01*
G37*
%LPD*%
%LPC*%
G36*
X183959Y964183D02*
X183959Y964183D01*
X179851Y965885D01*
X176707Y969029D01*
X175005Y973137D01*
X175005Y977583D01*
X176707Y981691D01*
X179851Y984835D01*
X183959Y986537D01*
X188405Y986537D01*
X192513Y984835D01*
X195657Y981691D01*
X197359Y977583D01*
X197359Y973137D01*
X195657Y969029D01*
X192513Y965885D01*
X188405Y964183D01*
X183959Y964183D01*
G37*
%LPD*%
%LPC*%
G36*
X212915Y964183D02*
X212915Y964183D01*
X208807Y965885D01*
X205663Y969029D01*
X203961Y973137D01*
X203961Y977583D01*
X205663Y981691D01*
X208807Y984835D01*
X212915Y986537D01*
X217361Y986537D01*
X221469Y984835D01*
X224613Y981691D01*
X226315Y977583D01*
X226315Y973137D01*
X224613Y969029D01*
X221469Y965885D01*
X217361Y964183D01*
X212915Y964183D01*
G37*
%LPD*%
%LPC*%
G36*
X284035Y964183D02*
X284035Y964183D01*
X279927Y965885D01*
X276783Y969029D01*
X275081Y973137D01*
X275081Y977583D01*
X276783Y981691D01*
X279927Y984835D01*
X284035Y986537D01*
X288481Y986537D01*
X292589Y984835D01*
X295733Y981691D01*
X297435Y977583D01*
X297435Y973137D01*
X295733Y969029D01*
X292589Y965885D01*
X288481Y964183D01*
X284035Y964183D01*
G37*
%LPD*%
%LPC*%
G36*
X360235Y964183D02*
X360235Y964183D01*
X356127Y965885D01*
X352983Y969029D01*
X351281Y973137D01*
X351281Y977583D01*
X352983Y981691D01*
X356127Y984835D01*
X360235Y986537D01*
X364681Y986537D01*
X368789Y984835D01*
X371933Y981691D01*
X373635Y977583D01*
X373635Y973137D01*
X371933Y969029D01*
X368789Y965885D01*
X364681Y964183D01*
X360235Y964183D01*
G37*
%LPD*%
%LPC*%
G36*
X593915Y964183D02*
X593915Y964183D01*
X589807Y965885D01*
X586663Y969029D01*
X584961Y973137D01*
X584961Y977583D01*
X586663Y981691D01*
X589807Y984835D01*
X593915Y986537D01*
X598361Y986537D01*
X602469Y984835D01*
X605613Y981691D01*
X607315Y977583D01*
X607315Y973137D01*
X605613Y969029D01*
X602469Y965885D01*
X598361Y964183D01*
X593915Y964183D01*
G37*
%LPD*%
%LPC*%
G36*
X331279Y964183D02*
X331279Y964183D01*
X327171Y965885D01*
X324027Y969029D01*
X322325Y973137D01*
X322325Y977583D01*
X324027Y981691D01*
X327171Y984835D01*
X331279Y986537D01*
X335725Y986537D01*
X339833Y984835D01*
X342977Y981691D01*
X344679Y977583D01*
X344679Y973137D01*
X342977Y969029D01*
X339833Y965885D01*
X335725Y964183D01*
X331279Y964183D01*
G37*
%LPD*%
%LPC*%
G36*
X190817Y867663D02*
X190817Y867663D01*
X186709Y869365D01*
X183565Y872509D01*
X181863Y876617D01*
X181863Y881063D01*
X183565Y885171D01*
X186709Y888315D01*
X190817Y890017D01*
X195263Y890017D01*
X199371Y888315D01*
X202515Y885171D01*
X204217Y881063D01*
X204217Y876617D01*
X202515Y872509D01*
X199371Y869365D01*
X195263Y867663D01*
X190817Y867663D01*
G37*
%LPD*%
%LPC*%
G36*
X216217Y867663D02*
X216217Y867663D01*
X212109Y869365D01*
X208965Y872509D01*
X207263Y876617D01*
X207263Y881063D01*
X208965Y885171D01*
X212109Y888315D01*
X216217Y890017D01*
X220663Y890017D01*
X224771Y888315D01*
X227915Y885171D01*
X229617Y881063D01*
X229617Y876617D01*
X227915Y872509D01*
X224771Y869365D01*
X220663Y867663D01*
X216217Y867663D01*
G37*
%LPD*%
%LPC*%
G36*
X593915Y877823D02*
X593915Y877823D01*
X589807Y879525D01*
X586663Y882669D01*
X584961Y886777D01*
X584961Y891223D01*
X586663Y895331D01*
X589807Y898475D01*
X593915Y900177D01*
X598361Y900177D01*
X602469Y898475D01*
X605613Y895331D01*
X607315Y891223D01*
X607315Y886777D01*
X605613Y882669D01*
X602469Y879525D01*
X598361Y877823D01*
X593915Y877823D01*
G37*
%LPD*%
%LPC*%
G36*
X331279Y877823D02*
X331279Y877823D01*
X327171Y879525D01*
X324027Y882669D01*
X322325Y886777D01*
X322325Y891223D01*
X324027Y895331D01*
X327171Y898475D01*
X331279Y900177D01*
X335725Y900177D01*
X339833Y898475D01*
X342977Y895331D01*
X344679Y891223D01*
X344679Y886777D01*
X342977Y882669D01*
X339833Y879525D01*
X335725Y877823D01*
X331279Y877823D01*
G37*
%LPD*%
%LPC*%
G36*
X360235Y877823D02*
X360235Y877823D01*
X356127Y879525D01*
X352983Y882669D01*
X351281Y886777D01*
X351281Y891223D01*
X352983Y895331D01*
X356127Y898475D01*
X360235Y900177D01*
X364681Y900177D01*
X368789Y898475D01*
X371933Y895331D01*
X373635Y891223D01*
X373635Y886777D01*
X371933Y882669D01*
X368789Y879525D01*
X364681Y877823D01*
X360235Y877823D01*
G37*
%LPD*%
%LPC*%
G36*
X190817Y893063D02*
X190817Y893063D01*
X186709Y894765D01*
X183565Y897909D01*
X181863Y902017D01*
X181863Y906463D01*
X183565Y910571D01*
X186709Y913715D01*
X190817Y915417D01*
X195263Y915417D01*
X199371Y913715D01*
X202515Y910571D01*
X204217Y906463D01*
X204217Y902017D01*
X202515Y897909D01*
X199371Y894765D01*
X195263Y893063D01*
X190817Y893063D01*
G37*
%LPD*%
%LPC*%
G36*
X216217Y893063D02*
X216217Y893063D01*
X212109Y894765D01*
X208965Y897909D01*
X207263Y902017D01*
X207263Y906463D01*
X208965Y910571D01*
X212109Y913715D01*
X216217Y915417D01*
X220663Y915417D01*
X224771Y913715D01*
X227915Y910571D01*
X229617Y906463D01*
X229617Y902017D01*
X227915Y897909D01*
X224771Y894765D01*
X220663Y893063D01*
X216217Y893063D01*
G37*
%LPD*%
%LPC*%
G36*
X190817Y918463D02*
X190817Y918463D01*
X186709Y920165D01*
X183565Y923309D01*
X181863Y927417D01*
X181863Y931863D01*
X183565Y935971D01*
X186709Y939115D01*
X190817Y940817D01*
X195263Y940817D01*
X199371Y939115D01*
X202515Y935971D01*
X204217Y931863D01*
X204217Y927417D01*
X202515Y923309D01*
X199371Y920165D01*
X195263Y918463D01*
X190817Y918463D01*
G37*
%LPD*%
%LPC*%
G36*
X216217Y918463D02*
X216217Y918463D01*
X212109Y920165D01*
X208965Y923309D01*
X207263Y927417D01*
X207263Y931863D01*
X208965Y935971D01*
X212109Y939115D01*
X216217Y940817D01*
X220663Y940817D01*
X224771Y939115D01*
X227915Y935971D01*
X229617Y931863D01*
X229617Y927417D01*
X227915Y923309D01*
X224771Y920165D01*
X220663Y918463D01*
X216217Y918463D01*
G37*
%LPD*%
%LPC*%
G36*
X331279Y918463D02*
X331279Y918463D01*
X327171Y920165D01*
X324027Y923309D01*
X322325Y927417D01*
X322325Y931863D01*
X324027Y935971D01*
X327171Y939115D01*
X331279Y940817D01*
X335725Y940817D01*
X339833Y939115D01*
X342977Y935971D01*
X344679Y931863D01*
X344679Y927417D01*
X342977Y923309D01*
X339833Y920165D01*
X335725Y918463D01*
X331279Y918463D01*
G37*
%LPD*%
%LPC*%
G36*
X360235Y918463D02*
X360235Y918463D01*
X356127Y920165D01*
X352983Y923309D01*
X351281Y927417D01*
X351281Y931863D01*
X352983Y935971D01*
X356127Y939115D01*
X360235Y940817D01*
X364681Y940817D01*
X368789Y939115D01*
X371933Y935971D01*
X373635Y931863D01*
X373635Y927417D01*
X371933Y923309D01*
X368789Y920165D01*
X364681Y918463D01*
X360235Y918463D01*
G37*
%LPD*%
%LPC*%
G36*
X564959Y877823D02*
X564959Y877823D01*
X560851Y879525D01*
X557707Y882669D01*
X556005Y886777D01*
X556005Y891223D01*
X557707Y895331D01*
X560851Y898475D01*
X564959Y900177D01*
X569405Y900177D01*
X573513Y898475D01*
X576657Y895331D01*
X578359Y891223D01*
X578359Y886777D01*
X576657Y882669D01*
X573513Y879525D01*
X569405Y877823D01*
X564959Y877823D01*
G37*
%LPD*%
%LPC*%
G36*
X530979Y681839D02*
X530979Y681839D01*
X527244Y683386D01*
X524386Y686244D01*
X522839Y689979D01*
X522839Y694021D01*
X524386Y697756D01*
X527244Y700614D01*
X530979Y702161D01*
X535021Y702161D01*
X538756Y700614D01*
X541614Y697756D01*
X543161Y694021D01*
X543161Y689979D01*
X541614Y686244D01*
X538756Y683386D01*
X535021Y681839D01*
X530979Y681839D01*
G37*
%LPD*%
%LPC*%
G36*
X505979Y681839D02*
X505979Y681839D01*
X502244Y683386D01*
X499386Y686244D01*
X497839Y689979D01*
X497839Y694021D01*
X499386Y697756D01*
X502244Y700614D01*
X505979Y702161D01*
X510021Y702161D01*
X513756Y700614D01*
X516614Y697756D01*
X518161Y694021D01*
X518161Y689979D01*
X516614Y686244D01*
X513756Y683386D01*
X510021Y681839D01*
X505979Y681839D01*
G37*
%LPD*%
%LPC*%
G36*
X480979Y681839D02*
X480979Y681839D01*
X477244Y683386D01*
X474386Y686244D01*
X472839Y689979D01*
X472839Y694021D01*
X474386Y697756D01*
X477244Y700614D01*
X480979Y702161D01*
X485021Y702161D01*
X488756Y700614D01*
X491614Y697756D01*
X493161Y694021D01*
X493161Y689979D01*
X491614Y686244D01*
X488756Y683386D01*
X485021Y681839D01*
X480979Y681839D01*
G37*
%LPD*%
%LPC*%
G36*
X327779Y681839D02*
X327779Y681839D01*
X324044Y683386D01*
X321186Y686244D01*
X319639Y689979D01*
X319639Y694021D01*
X321186Y697756D01*
X324044Y700614D01*
X327779Y702161D01*
X331821Y702161D01*
X335556Y700614D01*
X338414Y697756D01*
X339961Y694021D01*
X339961Y689979D01*
X338414Y686244D01*
X335556Y683386D01*
X331821Y681839D01*
X327779Y681839D01*
G37*
%LPD*%
%LPC*%
G36*
X709179Y681839D02*
X709179Y681839D01*
X705444Y683386D01*
X702586Y686244D01*
X701039Y689979D01*
X701039Y694021D01*
X702586Y697756D01*
X705444Y700614D01*
X709179Y702161D01*
X713221Y702161D01*
X716956Y700614D01*
X719814Y697756D01*
X721361Y694021D01*
X721361Y689979D01*
X719814Y686244D01*
X716956Y683386D01*
X713221Y681839D01*
X709179Y681839D01*
G37*
%LPD*%
%LPC*%
G36*
X734179Y681839D02*
X734179Y681839D01*
X730444Y683386D01*
X727586Y686244D01*
X726039Y689979D01*
X726039Y694021D01*
X727586Y697756D01*
X730444Y700614D01*
X734179Y702161D01*
X738221Y702161D01*
X741956Y700614D01*
X744814Y697756D01*
X746361Y694021D01*
X746361Y689979D01*
X744814Y686244D01*
X741956Y683386D01*
X738221Y681839D01*
X734179Y681839D01*
G37*
%LPD*%
%LPC*%
G36*
X305976Y287781D02*
X305976Y287781D01*
X303455Y288825D01*
X301525Y290755D01*
X300481Y293276D01*
X300481Y296004D01*
X301525Y298525D01*
X303455Y300455D01*
X305976Y301499D01*
X318864Y301499D01*
X321385Y300455D01*
X323315Y298525D01*
X324359Y296004D01*
X324359Y293276D01*
X323315Y290755D01*
X321385Y288825D01*
X318864Y287781D01*
X305976Y287781D01*
G37*
%LPD*%
%LPC*%
G36*
X656496Y287781D02*
X656496Y287781D01*
X653975Y288825D01*
X652045Y290755D01*
X651001Y293276D01*
X651001Y296004D01*
X652045Y298525D01*
X653975Y300455D01*
X656496Y301499D01*
X669384Y301499D01*
X671905Y300455D01*
X673835Y298525D01*
X674879Y296004D01*
X674879Y293276D01*
X673835Y290755D01*
X671905Y288825D01*
X669384Y287781D01*
X656496Y287781D01*
G37*
%LPD*%
%LPC*%
G36*
X382176Y287781D02*
X382176Y287781D01*
X379655Y288825D01*
X377725Y290755D01*
X376681Y293276D01*
X376681Y296004D01*
X377725Y298525D01*
X379655Y300455D01*
X382176Y301499D01*
X395064Y301499D01*
X397585Y300455D01*
X399515Y298525D01*
X400559Y296004D01*
X400559Y293276D01*
X399515Y290755D01*
X397585Y288825D01*
X395064Y287781D01*
X382176Y287781D01*
G37*
%LPD*%
%LPC*%
G36*
X580296Y262381D02*
X580296Y262381D01*
X577775Y263425D01*
X575845Y265355D01*
X574801Y267876D01*
X574801Y270604D01*
X575845Y273125D01*
X577775Y275055D01*
X580296Y276099D01*
X593184Y276099D01*
X595705Y275055D01*
X597635Y273125D01*
X598679Y270604D01*
X598679Y267876D01*
X597635Y265355D01*
X595705Y263425D01*
X593184Y262381D01*
X580296Y262381D01*
G37*
%LPD*%
%LPC*%
G36*
X656496Y262381D02*
X656496Y262381D01*
X653975Y263425D01*
X652045Y265355D01*
X651001Y267876D01*
X651001Y270604D01*
X652045Y273125D01*
X653975Y275055D01*
X656496Y276099D01*
X669384Y276099D01*
X671905Y275055D01*
X673835Y273125D01*
X674879Y270604D01*
X674879Y267876D01*
X673835Y265355D01*
X671905Y263425D01*
X669384Y262381D01*
X656496Y262381D01*
G37*
%LPD*%
%LPC*%
G36*
X382176Y262381D02*
X382176Y262381D01*
X379655Y263425D01*
X377725Y265355D01*
X376681Y267876D01*
X376681Y270604D01*
X377725Y273125D01*
X379655Y275055D01*
X382176Y276099D01*
X395064Y276099D01*
X397585Y275055D01*
X399515Y273125D01*
X400559Y270604D01*
X400559Y267876D01*
X399515Y265355D01*
X397585Y263425D01*
X395064Y262381D01*
X382176Y262381D01*
G37*
%LPD*%
%LPC*%
G36*
X656496Y617981D02*
X656496Y617981D01*
X653975Y619025D01*
X652045Y620955D01*
X651001Y623476D01*
X651001Y626204D01*
X652045Y628725D01*
X653975Y630655D01*
X656496Y631699D01*
X669384Y631699D01*
X671905Y630655D01*
X673835Y628725D01*
X674879Y626204D01*
X674879Y623476D01*
X673835Y620955D01*
X671905Y619025D01*
X669384Y617981D01*
X656496Y617981D01*
G37*
%LPD*%
%LPC*%
G36*
X580296Y617981D02*
X580296Y617981D01*
X577775Y619025D01*
X575845Y620955D01*
X574801Y623476D01*
X574801Y626204D01*
X575845Y628725D01*
X577775Y630655D01*
X580296Y631699D01*
X593184Y631699D01*
X595705Y630655D01*
X597635Y628725D01*
X598679Y626204D01*
X598679Y623476D01*
X597635Y620955D01*
X595705Y619025D01*
X593184Y617981D01*
X580296Y617981D01*
G37*
%LPD*%
%LPC*%
G36*
X305976Y617981D02*
X305976Y617981D01*
X303455Y619025D01*
X301525Y620955D01*
X300481Y623476D01*
X300481Y626204D01*
X301525Y628725D01*
X303455Y630655D01*
X305976Y631699D01*
X318864Y631699D01*
X321385Y630655D01*
X323315Y628725D01*
X324359Y626204D01*
X324359Y623476D01*
X323315Y620955D01*
X321385Y619025D01*
X318864Y617981D01*
X305976Y617981D01*
G37*
%LPD*%
%LPC*%
G36*
X580296Y592581D02*
X580296Y592581D01*
X577775Y593625D01*
X575845Y595555D01*
X574801Y598076D01*
X574801Y600804D01*
X575845Y603325D01*
X577775Y605255D01*
X580296Y606299D01*
X593184Y606299D01*
X595705Y605255D01*
X597635Y603325D01*
X598679Y600804D01*
X598679Y598076D01*
X597635Y595555D01*
X595705Y593625D01*
X593184Y592581D01*
X580296Y592581D01*
G37*
%LPD*%
%LPC*%
G36*
X656496Y592581D02*
X656496Y592581D01*
X653975Y593625D01*
X652045Y595555D01*
X651001Y598076D01*
X651001Y600804D01*
X652045Y603325D01*
X653975Y605255D01*
X656496Y606299D01*
X669384Y606299D01*
X671905Y605255D01*
X673835Y603325D01*
X674879Y600804D01*
X674879Y598076D01*
X673835Y595555D01*
X671905Y593625D01*
X669384Y592581D01*
X656496Y592581D01*
G37*
%LPD*%
%LPC*%
G36*
X382176Y592581D02*
X382176Y592581D01*
X379655Y593625D01*
X377725Y595555D01*
X376681Y598076D01*
X376681Y600804D01*
X377725Y603325D01*
X379655Y605255D01*
X382176Y606299D01*
X395064Y606299D01*
X397585Y605255D01*
X399515Y603325D01*
X400559Y600804D01*
X400559Y598076D01*
X399515Y595555D01*
X397585Y593625D01*
X395064Y592581D01*
X382176Y592581D01*
G37*
%LPD*%
%LPC*%
G36*
X305976Y592581D02*
X305976Y592581D01*
X303455Y593625D01*
X301525Y595555D01*
X300481Y598076D01*
X300481Y600804D01*
X301525Y603325D01*
X303455Y605255D01*
X305976Y606299D01*
X318864Y606299D01*
X321385Y605255D01*
X323315Y603325D01*
X324359Y600804D01*
X324359Y598076D01*
X323315Y595555D01*
X321385Y593625D01*
X318864Y592581D01*
X305976Y592581D01*
G37*
%LPD*%
%LPC*%
G36*
X305976Y567181D02*
X305976Y567181D01*
X303455Y568225D01*
X301525Y570155D01*
X300481Y572676D01*
X300481Y575404D01*
X301525Y577925D01*
X303455Y579855D01*
X305976Y580899D01*
X318864Y580899D01*
X321385Y579855D01*
X323315Y577925D01*
X324359Y575404D01*
X324359Y572676D01*
X323315Y570155D01*
X321385Y568225D01*
X318864Y567181D01*
X305976Y567181D01*
G37*
%LPD*%
%LPC*%
G36*
X305976Y262381D02*
X305976Y262381D01*
X303455Y263425D01*
X301525Y265355D01*
X300481Y267876D01*
X300481Y270604D01*
X301525Y273125D01*
X303455Y275055D01*
X305976Y276099D01*
X318864Y276099D01*
X321385Y275055D01*
X323315Y273125D01*
X324359Y270604D01*
X324359Y267876D01*
X323315Y265355D01*
X321385Y263425D01*
X318864Y262381D01*
X305976Y262381D01*
G37*
%LPD*%
%LPC*%
G36*
X382176Y236981D02*
X382176Y236981D01*
X379655Y238025D01*
X377725Y239955D01*
X376681Y242476D01*
X376681Y245204D01*
X377725Y247725D01*
X379655Y249655D01*
X382176Y250699D01*
X395064Y250699D01*
X397585Y249655D01*
X399515Y247725D01*
X400559Y245204D01*
X400559Y242476D01*
X399515Y239955D01*
X397585Y238025D01*
X395064Y236981D01*
X382176Y236981D01*
G37*
%LPD*%
%LPC*%
G36*
X305976Y490981D02*
X305976Y490981D01*
X303455Y492025D01*
X301525Y493955D01*
X300481Y496476D01*
X300481Y499204D01*
X301525Y501725D01*
X303455Y503655D01*
X305976Y504699D01*
X318864Y504699D01*
X321385Y503655D01*
X323315Y501725D01*
X324359Y499204D01*
X324359Y496476D01*
X323315Y493955D01*
X321385Y492025D01*
X318864Y490981D01*
X305976Y490981D01*
G37*
%LPD*%
%LPC*%
G36*
X656496Y236981D02*
X656496Y236981D01*
X653975Y238025D01*
X652045Y239955D01*
X651001Y242476D01*
X651001Y245204D01*
X652045Y247725D01*
X653975Y249655D01*
X656496Y250699D01*
X669384Y250699D01*
X671905Y249655D01*
X673835Y247725D01*
X674879Y245204D01*
X674879Y242476D01*
X673835Y239955D01*
X671905Y238025D01*
X669384Y236981D01*
X656496Y236981D01*
G37*
%LPD*%
%LPC*%
G36*
X580296Y236981D02*
X580296Y236981D01*
X577775Y238025D01*
X575845Y239955D01*
X574801Y242476D01*
X574801Y245204D01*
X575845Y247725D01*
X577775Y249655D01*
X580296Y250699D01*
X593184Y250699D01*
X595705Y249655D01*
X597635Y247725D01*
X598679Y245204D01*
X598679Y242476D01*
X597635Y239955D01*
X595705Y238025D01*
X593184Y236981D01*
X580296Y236981D01*
G37*
%LPD*%
%LPC*%
G36*
X305976Y236981D02*
X305976Y236981D01*
X303455Y238025D01*
X301525Y239955D01*
X300481Y242476D01*
X300481Y245204D01*
X301525Y247725D01*
X303455Y249655D01*
X305976Y250699D01*
X318864Y250699D01*
X321385Y249655D01*
X323315Y247725D01*
X324359Y245204D01*
X324359Y242476D01*
X323315Y239955D01*
X321385Y238025D01*
X318864Y236981D01*
X305976Y236981D01*
G37*
%LPD*%
%LPC*%
G36*
X323756Y137921D02*
X323756Y137921D01*
X321235Y138965D01*
X319305Y140895D01*
X318261Y143416D01*
X318261Y156304D01*
X319305Y158825D01*
X321235Y160755D01*
X323756Y161799D01*
X326484Y161799D01*
X329005Y160755D01*
X330935Y158825D01*
X331979Y156304D01*
X331979Y143416D01*
X330935Y140895D01*
X329005Y138965D01*
X326484Y137921D01*
X323756Y137921D01*
G37*
%LPD*%
%LPC*%
G36*
X298356Y137921D02*
X298356Y137921D01*
X295835Y138965D01*
X293905Y140895D01*
X292861Y143416D01*
X292861Y156304D01*
X293905Y158825D01*
X295835Y160755D01*
X298356Y161799D01*
X301084Y161799D01*
X303605Y160755D01*
X305535Y158825D01*
X306579Y156304D01*
X306579Y143416D01*
X305535Y140895D01*
X303605Y138965D01*
X301084Y137921D01*
X298356Y137921D01*
G37*
%LPD*%
%LPC*%
G36*
X272956Y137921D02*
X272956Y137921D01*
X270435Y138965D01*
X268505Y140895D01*
X267461Y143416D01*
X267461Y156304D01*
X268505Y158825D01*
X270435Y160755D01*
X272956Y161799D01*
X275684Y161799D01*
X278205Y160755D01*
X280135Y158825D01*
X281179Y156304D01*
X281179Y143416D01*
X280135Y140895D01*
X278205Y138965D01*
X275684Y137921D01*
X272956Y137921D01*
G37*
%LPD*%
%LPC*%
G36*
X242476Y137921D02*
X242476Y137921D01*
X239955Y138965D01*
X238025Y140895D01*
X236981Y143416D01*
X236981Y156304D01*
X238025Y158825D01*
X239955Y160755D01*
X242476Y161799D01*
X245204Y161799D01*
X247725Y160755D01*
X249655Y158825D01*
X250699Y156304D01*
X250699Y143416D01*
X249655Y140895D01*
X247725Y138965D01*
X245204Y137921D01*
X242476Y137921D01*
G37*
%LPD*%
%LPC*%
G36*
X305976Y516381D02*
X305976Y516381D01*
X303455Y517425D01*
X301525Y519355D01*
X300481Y521876D01*
X300481Y524604D01*
X301525Y527125D01*
X303455Y529055D01*
X305976Y530099D01*
X318864Y530099D01*
X321385Y529055D01*
X323315Y527125D01*
X324359Y524604D01*
X324359Y521876D01*
X323315Y519355D01*
X321385Y517425D01*
X318864Y516381D01*
X305976Y516381D01*
G37*
%LPD*%
%LPC*%
G36*
X217076Y137921D02*
X217076Y137921D01*
X214555Y138965D01*
X212625Y140895D01*
X211581Y143416D01*
X211581Y156304D01*
X212625Y158825D01*
X214555Y160755D01*
X217076Y161799D01*
X219804Y161799D01*
X222325Y160755D01*
X224255Y158825D01*
X225299Y156304D01*
X225299Y143416D01*
X224255Y140895D01*
X222325Y138965D01*
X219804Y137921D01*
X217076Y137921D01*
G37*
%LPD*%
%LPC*%
G36*
X191676Y137921D02*
X191676Y137921D01*
X189155Y138965D01*
X187225Y140895D01*
X186181Y143416D01*
X186181Y156304D01*
X187225Y158825D01*
X189155Y160755D01*
X191676Y161799D01*
X194404Y161799D01*
X196925Y160755D01*
X198855Y158825D01*
X199899Y156304D01*
X199899Y143416D01*
X198855Y140895D01*
X196925Y138965D01*
X194404Y137921D01*
X191676Y137921D01*
G37*
%LPD*%
%LPC*%
G36*
X600616Y109981D02*
X600616Y109981D01*
X598095Y111025D01*
X596165Y112955D01*
X595121Y115476D01*
X595121Y118204D01*
X596165Y120725D01*
X598095Y122655D01*
X600616Y123699D01*
X613504Y123699D01*
X616025Y122655D01*
X617955Y120725D01*
X618999Y118204D01*
X618999Y115476D01*
X617955Y112955D01*
X616025Y111025D01*
X613504Y109981D01*
X600616Y109981D01*
G37*
%LPD*%
%LPC*%
G36*
X600616Y84581D02*
X600616Y84581D01*
X598095Y85625D01*
X596165Y87555D01*
X595121Y90076D01*
X595121Y92804D01*
X596165Y95325D01*
X598095Y97255D01*
X600616Y98299D01*
X613504Y98299D01*
X616025Y97255D01*
X617955Y95325D01*
X618999Y92804D01*
X618999Y90076D01*
X617955Y87555D01*
X616025Y85625D01*
X613504Y84581D01*
X600616Y84581D01*
G37*
%LPD*%
%LPC*%
G36*
X382176Y490981D02*
X382176Y490981D01*
X379655Y492025D01*
X377725Y493955D01*
X376681Y496476D01*
X376681Y499204D01*
X377725Y501725D01*
X379655Y503655D01*
X382176Y504699D01*
X395064Y504699D01*
X397585Y503655D01*
X399515Y501725D01*
X400559Y499204D01*
X400559Y496476D01*
X399515Y493955D01*
X397585Y492025D01*
X395064Y490981D01*
X382176Y490981D01*
G37*
%LPD*%
%LPC*%
G36*
X580296Y490981D02*
X580296Y490981D01*
X577775Y492025D01*
X575845Y493955D01*
X574801Y496476D01*
X574801Y499204D01*
X575845Y501725D01*
X577775Y503655D01*
X580296Y504699D01*
X593184Y504699D01*
X595705Y503655D01*
X597635Y501725D01*
X598679Y499204D01*
X598679Y496476D01*
X597635Y493955D01*
X595705Y492025D01*
X593184Y490981D01*
X580296Y490981D01*
G37*
%LPD*%
%LPC*%
G36*
X600616Y135381D02*
X600616Y135381D01*
X598095Y136425D01*
X596165Y138355D01*
X595121Y140876D01*
X595121Y143604D01*
X596165Y146125D01*
X598095Y148055D01*
X600616Y149099D01*
X613504Y149099D01*
X616025Y148055D01*
X617955Y146125D01*
X618999Y143604D01*
X618999Y140876D01*
X617955Y138355D01*
X616025Y136425D01*
X613504Y135381D01*
X600616Y135381D01*
G37*
%LPD*%
%LPC*%
G36*
X305976Y465581D02*
X305976Y465581D01*
X303455Y466625D01*
X301525Y468555D01*
X300481Y471076D01*
X300481Y473804D01*
X301525Y476325D01*
X303455Y478255D01*
X305976Y479299D01*
X318864Y479299D01*
X321385Y478255D01*
X323315Y476325D01*
X324359Y473804D01*
X324359Y471076D01*
X323315Y468555D01*
X321385Y466625D01*
X318864Y465581D01*
X305976Y465581D01*
G37*
%LPD*%
%LPC*%
G36*
X382176Y465581D02*
X382176Y465581D01*
X379655Y466625D01*
X377725Y468555D01*
X376681Y471076D01*
X376681Y473804D01*
X377725Y476325D01*
X379655Y478255D01*
X382176Y479299D01*
X395064Y479299D01*
X397585Y478255D01*
X399515Y476325D01*
X400559Y473804D01*
X400559Y471076D01*
X399515Y468555D01*
X397585Y466625D01*
X395064Y465581D01*
X382176Y465581D01*
G37*
%LPD*%
%LPC*%
G36*
X305976Y389381D02*
X305976Y389381D01*
X303455Y390425D01*
X301525Y392355D01*
X300481Y394876D01*
X300481Y397604D01*
X301525Y400125D01*
X303455Y402055D01*
X305976Y403099D01*
X318864Y403099D01*
X321385Y402055D01*
X323315Y400125D01*
X324359Y397604D01*
X324359Y394876D01*
X323315Y392355D01*
X321385Y390425D01*
X318864Y389381D01*
X305976Y389381D01*
G37*
%LPD*%
%LPC*%
G36*
X382176Y389381D02*
X382176Y389381D01*
X379655Y390425D01*
X377725Y392355D01*
X376681Y394876D01*
X376681Y397604D01*
X377725Y400125D01*
X379655Y402055D01*
X382176Y403099D01*
X395064Y403099D01*
X397585Y402055D01*
X399515Y400125D01*
X400559Y397604D01*
X400559Y394876D01*
X399515Y392355D01*
X397585Y390425D01*
X395064Y389381D01*
X382176Y389381D01*
G37*
%LPD*%
%LPC*%
G36*
X580296Y389381D02*
X580296Y389381D01*
X577775Y390425D01*
X575845Y392355D01*
X574801Y394876D01*
X574801Y397604D01*
X575845Y400125D01*
X577775Y402055D01*
X580296Y403099D01*
X593184Y403099D01*
X595705Y402055D01*
X597635Y400125D01*
X598679Y397604D01*
X598679Y394876D01*
X597635Y392355D01*
X595705Y390425D01*
X593184Y389381D01*
X580296Y389381D01*
G37*
%LPD*%
%LPC*%
G36*
X580296Y363981D02*
X580296Y363981D01*
X577775Y365025D01*
X575845Y366955D01*
X574801Y369476D01*
X574801Y372204D01*
X575845Y374725D01*
X577775Y376655D01*
X580296Y377699D01*
X593184Y377699D01*
X595705Y376655D01*
X597635Y374725D01*
X598679Y372204D01*
X598679Y369476D01*
X597635Y366955D01*
X595705Y365025D01*
X593184Y363981D01*
X580296Y363981D01*
G37*
%LPD*%
%LPC*%
G36*
X382176Y363981D02*
X382176Y363981D01*
X379655Y365025D01*
X377725Y366955D01*
X376681Y369476D01*
X376681Y372204D01*
X377725Y374725D01*
X379655Y376655D01*
X382176Y377699D01*
X395064Y377699D01*
X397585Y376655D01*
X399515Y374725D01*
X400559Y372204D01*
X400559Y369476D01*
X399515Y366955D01*
X397585Y365025D01*
X395064Y363981D01*
X382176Y363981D01*
G37*
%LPD*%
%LPC*%
G36*
X305976Y338581D02*
X305976Y338581D01*
X303455Y339625D01*
X301525Y341555D01*
X300481Y344076D01*
X300481Y346804D01*
X301525Y349325D01*
X303455Y351255D01*
X305976Y352299D01*
X318864Y352299D01*
X321385Y351255D01*
X323315Y349325D01*
X324359Y346804D01*
X324359Y344076D01*
X323315Y341555D01*
X321385Y339625D01*
X318864Y338581D01*
X305976Y338581D01*
G37*
%LPD*%
%LPC*%
G36*
X382176Y338581D02*
X382176Y338581D01*
X379655Y339625D01*
X377725Y341555D01*
X376681Y344076D01*
X376681Y346804D01*
X377725Y349325D01*
X379655Y351255D01*
X382176Y352299D01*
X395064Y352299D01*
X397585Y351255D01*
X399515Y349325D01*
X400559Y346804D01*
X400559Y344076D01*
X399515Y341555D01*
X397585Y339625D01*
X395064Y338581D01*
X382176Y338581D01*
G37*
%LPD*%
%LPC*%
G36*
X580296Y313181D02*
X580296Y313181D01*
X577775Y314225D01*
X575845Y316155D01*
X574801Y318676D01*
X574801Y321404D01*
X575845Y323925D01*
X577775Y325855D01*
X580296Y326899D01*
X593184Y326899D01*
X595705Y325855D01*
X597635Y323925D01*
X598679Y321404D01*
X598679Y318676D01*
X597635Y316155D01*
X595705Y314225D01*
X593184Y313181D01*
X580296Y313181D01*
G37*
%LPD*%
%LPC*%
G36*
X305976Y313181D02*
X305976Y313181D01*
X303455Y314225D01*
X301525Y316155D01*
X300481Y318676D01*
X300481Y321404D01*
X301525Y323925D01*
X303455Y325855D01*
X305976Y326899D01*
X318864Y326899D01*
X321385Y325855D01*
X323315Y323925D01*
X324359Y321404D01*
X324359Y318676D01*
X323315Y316155D01*
X321385Y314225D01*
X318864Y313181D01*
X305976Y313181D01*
G37*
%LPD*%
%LPC*%
G36*
X198843Y37591D02*
X198843Y37591D01*
X195855Y38829D01*
X193569Y41115D01*
X192331Y44103D01*
X192331Y47337D01*
X193569Y50325D01*
X195855Y52611D01*
X198843Y53849D01*
X202077Y53849D01*
X205065Y52611D01*
X207351Y50325D01*
X208589Y47337D01*
X208589Y44103D01*
X207351Y41115D01*
X205065Y38829D01*
X202077Y37591D01*
X198843Y37591D01*
G37*
%LPD*%
%LPC*%
G36*
X35259Y869441D02*
X35259Y869441D01*
X31241Y873459D01*
X31241Y879141D01*
X35259Y883159D01*
X40941Y883159D01*
X44959Y879141D01*
X44959Y873459D01*
X40941Y869441D01*
X35259Y869441D01*
G37*
%LPD*%
%LPC*%
G36*
X754079Y557021D02*
X754079Y557021D01*
X750061Y561039D01*
X750061Y566721D01*
X754079Y570739D01*
X759761Y570739D01*
X763779Y566721D01*
X763779Y561039D01*
X759761Y557021D01*
X754079Y557021D01*
G37*
%LPD*%
%LPC*%
G36*
X779479Y531621D02*
X779479Y531621D01*
X775461Y535639D01*
X775461Y541321D01*
X779479Y545339D01*
X785161Y545339D01*
X789179Y541321D01*
X789179Y535639D01*
X785161Y531621D01*
X779479Y531621D01*
G37*
%LPD*%
%LPC*%
G36*
X728679Y531621D02*
X728679Y531621D01*
X724661Y535639D01*
X724661Y541321D01*
X728679Y545339D01*
X734361Y545339D01*
X738379Y541321D01*
X738379Y535639D01*
X734361Y531621D01*
X728679Y531621D01*
G37*
%LPD*%
%LPC*%
G36*
X375619Y28701D02*
X375619Y28701D01*
X371601Y32719D01*
X371601Y38401D01*
X375619Y42419D01*
X381301Y42419D01*
X385319Y38401D01*
X385319Y32719D01*
X381301Y28701D01*
X375619Y28701D01*
G37*
%LPD*%
%LPC*%
G36*
X62149Y143309D02*
X62149Y143309D01*
X59653Y144343D01*
X57743Y146253D01*
X56709Y148749D01*
X56709Y151451D01*
X57743Y153947D01*
X59653Y155857D01*
X62149Y156891D01*
X64851Y156891D01*
X67347Y155857D01*
X69257Y153947D01*
X70291Y151451D01*
X70291Y148749D01*
X69257Y146253D01*
X67347Y144343D01*
X64851Y143309D01*
X62149Y143309D01*
G37*
%LPD*%
%LPC*%
G36*
X62149Y173309D02*
X62149Y173309D01*
X59653Y174343D01*
X57743Y176253D01*
X56709Y178749D01*
X56709Y181451D01*
X57743Y183947D01*
X59653Y185857D01*
X62149Y186891D01*
X64851Y186891D01*
X67347Y185857D01*
X69257Y183947D01*
X70291Y181451D01*
X70291Y178749D01*
X69257Y176253D01*
X67347Y174343D01*
X64851Y173309D01*
X62149Y173309D01*
G37*
%LPD*%
%LPC*%
G36*
X400048Y140925D02*
X400048Y140925D01*
X397698Y141899D01*
X395899Y143698D01*
X394925Y146048D01*
X394925Y148592D01*
X395899Y150942D01*
X397698Y152741D01*
X400048Y153715D01*
X402592Y153715D01*
X404942Y152741D01*
X406741Y150942D01*
X407715Y148592D01*
X407715Y146048D01*
X406741Y143698D01*
X404942Y141899D01*
X402592Y140925D01*
X400048Y140925D01*
G37*
%LPD*%
%LPC*%
G36*
X374648Y140925D02*
X374648Y140925D01*
X372298Y141899D01*
X370499Y143698D01*
X369525Y146048D01*
X369525Y148592D01*
X370499Y150942D01*
X372298Y152741D01*
X374648Y153715D01*
X377192Y153715D01*
X379542Y152741D01*
X381341Y150942D01*
X382315Y148592D01*
X382315Y146048D01*
X381341Y143698D01*
X379542Y141899D01*
X377192Y140925D01*
X374648Y140925D01*
G37*
%LPD*%
%LPC*%
G36*
X664463Y550163D02*
X664463Y550163D01*
X664463Y556261D01*
X668771Y556261D01*
X670243Y555968D01*
X671630Y555393D01*
X672878Y554559D01*
X673939Y553498D01*
X674773Y552250D01*
X675348Y550863D01*
X675487Y550163D01*
X664463Y550163D01*
G37*
%LPD*%
%LPC*%
G36*
X588263Y346963D02*
X588263Y346963D01*
X588263Y353061D01*
X592571Y353061D01*
X594043Y352768D01*
X595430Y352193D01*
X596678Y351359D01*
X597739Y350298D01*
X598573Y349050D01*
X599148Y347663D01*
X599287Y346963D01*
X588263Y346963D01*
G37*
%LPD*%
%LPC*%
G36*
X390143Y550163D02*
X390143Y550163D01*
X390143Y556261D01*
X394451Y556261D01*
X395923Y555968D01*
X397310Y555393D01*
X398558Y554559D01*
X399619Y553498D01*
X400453Y552250D01*
X401028Y550863D01*
X401167Y550163D01*
X390143Y550163D01*
G37*
%LPD*%
%LPC*%
G36*
X390143Y524763D02*
X390143Y524763D01*
X390143Y530861D01*
X394451Y530861D01*
X395923Y530568D01*
X397310Y529993D01*
X398558Y529159D01*
X399619Y528098D01*
X400453Y526850D01*
X401028Y525463D01*
X401167Y524763D01*
X390143Y524763D01*
G37*
%LPD*%
%LPC*%
G36*
X588263Y524763D02*
X588263Y524763D01*
X588263Y530861D01*
X592571Y530861D01*
X594043Y530568D01*
X595430Y529993D01*
X596678Y529159D01*
X597739Y528098D01*
X598573Y526850D01*
X599148Y525463D01*
X599287Y524763D01*
X588263Y524763D01*
G37*
%LPD*%
%LPC*%
G36*
X390143Y321563D02*
X390143Y321563D01*
X390143Y327661D01*
X394451Y327661D01*
X395923Y327368D01*
X397310Y326793D01*
X398558Y325959D01*
X399619Y324898D01*
X400453Y323650D01*
X401028Y322263D01*
X401167Y321563D01*
X390143Y321563D01*
G37*
%LPD*%
%LPC*%
G36*
X664463Y321563D02*
X664463Y321563D01*
X664463Y327661D01*
X668771Y327661D01*
X670243Y327368D01*
X671630Y326793D01*
X672878Y325959D01*
X673939Y324898D01*
X674773Y323650D01*
X675348Y322263D01*
X675487Y321563D01*
X664463Y321563D01*
G37*
%LPD*%
%LPC*%
G36*
X574193Y346963D02*
X574193Y346963D01*
X574332Y347663D01*
X574907Y349050D01*
X575741Y350298D01*
X576802Y351359D01*
X578050Y352193D01*
X579437Y352768D01*
X580909Y353061D01*
X585217Y353061D01*
X585217Y346963D01*
X574193Y346963D01*
G37*
%LPD*%
%LPC*%
G36*
X376073Y321563D02*
X376073Y321563D01*
X376212Y322263D01*
X376787Y323650D01*
X377621Y324898D01*
X378682Y325959D01*
X379930Y326793D01*
X381317Y327368D01*
X382789Y327661D01*
X387097Y327661D01*
X387097Y321563D01*
X376073Y321563D01*
G37*
%LPD*%
%LPC*%
G36*
X650393Y524763D02*
X650393Y524763D01*
X650532Y525463D01*
X651107Y526850D01*
X651941Y528098D01*
X653002Y529159D01*
X654250Y529993D01*
X655637Y530568D01*
X657109Y530861D01*
X661417Y530861D01*
X661417Y524763D01*
X650393Y524763D01*
G37*
%LPD*%
%LPC*%
G36*
X574193Y524763D02*
X574193Y524763D01*
X574332Y525463D01*
X574907Y526850D01*
X575741Y528098D01*
X576802Y529159D01*
X578050Y529993D01*
X579437Y530568D01*
X580909Y530861D01*
X585217Y530861D01*
X585217Y524763D01*
X574193Y524763D01*
G37*
%LPD*%
%LPC*%
G36*
X650393Y321563D02*
X650393Y321563D01*
X650532Y322263D01*
X651107Y323650D01*
X651941Y324898D01*
X653002Y325959D01*
X654250Y326793D01*
X655637Y327368D01*
X657109Y327661D01*
X661417Y327661D01*
X661417Y321563D01*
X650393Y321563D01*
G37*
%LPD*%
%LPC*%
G36*
X650393Y550163D02*
X650393Y550163D01*
X650532Y550863D01*
X651107Y552250D01*
X651941Y553498D01*
X653002Y554559D01*
X654250Y555393D01*
X655637Y555968D01*
X657109Y556261D01*
X661417Y556261D01*
X661417Y550163D01*
X650393Y550163D01*
G37*
%LPD*%
%LPC*%
G36*
X390143Y515619D02*
X390143Y515619D01*
X390143Y521717D01*
X401167Y521717D01*
X401028Y521017D01*
X400453Y519630D01*
X399619Y518382D01*
X398558Y517321D01*
X397310Y516487D01*
X395923Y515912D01*
X394451Y515619D01*
X390143Y515619D01*
G37*
%LPD*%
%LPC*%
G36*
X588263Y337819D02*
X588263Y337819D01*
X588263Y343917D01*
X599287Y343917D01*
X599148Y343217D01*
X598573Y341830D01*
X597739Y340582D01*
X596678Y339521D01*
X595430Y338687D01*
X594043Y338112D01*
X592571Y337819D01*
X588263Y337819D01*
G37*
%LPD*%
%LPC*%
G36*
X588263Y515619D02*
X588263Y515619D01*
X588263Y521717D01*
X599287Y521717D01*
X599148Y521017D01*
X598573Y519630D01*
X597739Y518382D01*
X596678Y517321D01*
X595430Y516487D01*
X594043Y515912D01*
X592571Y515619D01*
X588263Y515619D01*
G37*
%LPD*%
%LPC*%
G36*
X390143Y312419D02*
X390143Y312419D01*
X390143Y318517D01*
X401167Y318517D01*
X401028Y317817D01*
X400453Y316430D01*
X399619Y315182D01*
X398558Y314121D01*
X397310Y313287D01*
X395923Y312712D01*
X394451Y312419D01*
X390143Y312419D01*
G37*
%LPD*%
%LPC*%
G36*
X664463Y312419D02*
X664463Y312419D01*
X664463Y318517D01*
X675487Y318517D01*
X675348Y317817D01*
X674773Y316430D01*
X673939Y315182D01*
X672878Y314121D01*
X671630Y313287D01*
X670243Y312712D01*
X668771Y312419D01*
X664463Y312419D01*
G37*
%LPD*%
%LPC*%
G36*
X657109Y312419D02*
X657109Y312419D01*
X655637Y312712D01*
X654250Y313287D01*
X653002Y314121D01*
X651941Y315182D01*
X651107Y316430D01*
X650532Y317817D01*
X650393Y318517D01*
X661417Y318517D01*
X661417Y312419D01*
X657109Y312419D01*
G37*
%LPD*%
%LPC*%
G36*
X580909Y515619D02*
X580909Y515619D01*
X579437Y515912D01*
X578050Y516487D01*
X576802Y517321D01*
X575741Y518382D01*
X574907Y519630D01*
X574332Y521017D01*
X574193Y521717D01*
X585217Y521717D01*
X585217Y515619D01*
X580909Y515619D01*
G37*
%LPD*%
%LPC*%
G36*
X657109Y515619D02*
X657109Y515619D01*
X655637Y515912D01*
X654250Y516487D01*
X653002Y517321D01*
X651941Y518382D01*
X651107Y519630D01*
X650532Y521017D01*
X650393Y521717D01*
X661417Y521717D01*
X661417Y515619D01*
X657109Y515619D01*
G37*
%LPD*%
%LPC*%
G36*
X580909Y337819D02*
X580909Y337819D01*
X579437Y338112D01*
X578050Y338687D01*
X576802Y339521D01*
X575741Y340582D01*
X574907Y341830D01*
X574332Y343217D01*
X574193Y343917D01*
X585217Y343917D01*
X585217Y337819D01*
X580909Y337819D01*
G37*
%LPD*%
%LPC*%
G36*
X382789Y312419D02*
X382789Y312419D01*
X381317Y312712D01*
X379930Y313287D01*
X378682Y314121D01*
X377621Y315182D01*
X376787Y316430D01*
X376212Y317817D01*
X376073Y318517D01*
X387097Y318517D01*
X387097Y312419D01*
X382789Y312419D01*
G37*
%LPD*%
%LPC*%
G36*
X176983Y47243D02*
X176983Y47243D01*
X176983Y54482D01*
X178053Y54269D01*
X179671Y53599D01*
X181128Y52626D01*
X182366Y51388D01*
X183339Y49931D01*
X184009Y48313D01*
X184222Y47243D01*
X176983Y47243D01*
G37*
%LPD*%
%LPC*%
G36*
X166698Y47243D02*
X166698Y47243D01*
X166911Y48313D01*
X167581Y49931D01*
X168554Y51388D01*
X169792Y52626D01*
X171249Y53599D01*
X172867Y54269D01*
X173937Y54482D01*
X173937Y47243D01*
X166698Y47243D01*
G37*
%LPD*%
%LPC*%
G36*
X176983Y44197D02*
X176983Y44197D01*
X184222Y44197D01*
X184009Y43127D01*
X183339Y41509D01*
X182366Y40052D01*
X181128Y38814D01*
X179671Y37841D01*
X178053Y37171D01*
X176983Y36958D01*
X176983Y44197D01*
G37*
%LPD*%
%LPC*%
G36*
X172867Y37171D02*
X172867Y37171D01*
X171249Y37841D01*
X169792Y38814D01*
X168554Y40052D01*
X167581Y41509D01*
X166911Y43127D01*
X166698Y44197D01*
X173937Y44197D01*
X173937Y36958D01*
X172867Y37171D01*
G37*
%LPD*%
%LPC*%
G36*
X352043Y148843D02*
X352043Y148843D01*
X352043Y154477D01*
X355471Y154477D01*
X356117Y154304D01*
X356696Y153969D01*
X357169Y153496D01*
X357504Y152917D01*
X357677Y152270D01*
X357677Y148843D01*
X352043Y148843D01*
G37*
%LPD*%
%LPC*%
G36*
X343363Y148843D02*
X343363Y148843D01*
X343363Y152270D01*
X343536Y152917D01*
X343871Y153496D01*
X344344Y153969D01*
X344923Y154304D01*
X345570Y154477D01*
X348997Y154477D01*
X348997Y148843D01*
X343363Y148843D01*
G37*
%LPD*%
%LPC*%
G36*
X352043Y140163D02*
X352043Y140163D01*
X352043Y145797D01*
X357677Y145797D01*
X357677Y142369D01*
X357504Y141723D01*
X357169Y141144D01*
X356696Y140671D01*
X356117Y140336D01*
X355470Y140163D01*
X352043Y140163D01*
G37*
%LPD*%
%LPC*%
G36*
X345570Y140163D02*
X345570Y140163D01*
X344923Y140336D01*
X344344Y140671D01*
X343871Y141144D01*
X343536Y141723D01*
X343363Y142370D01*
X343363Y145797D01*
X348997Y145797D01*
X348997Y140163D01*
X345570Y140163D01*
G37*
%LPD*%
%LPC*%
G36*
X379983Y87883D02*
X379983Y87883D01*
X379983Y93981D01*
X381617Y93981D01*
X386081Y89517D01*
X386081Y87883D01*
X379983Y87883D01*
G37*
%LPD*%
%LPC*%
G36*
X90423Y877823D02*
X90423Y877823D01*
X90423Y883921D01*
X92057Y883921D01*
X96521Y879457D01*
X96521Y877823D01*
X90423Y877823D01*
G37*
%LPD*%
%LPC*%
G36*
X81279Y877823D02*
X81279Y877823D01*
X81279Y879457D01*
X85743Y883921D01*
X87377Y883921D01*
X87377Y877823D01*
X81279Y877823D01*
G37*
%LPD*%
%LPC*%
G36*
X90423Y868679D02*
X90423Y868679D01*
X90423Y874777D01*
X96521Y874777D01*
X96521Y873143D01*
X92057Y868679D01*
X90423Y868679D01*
G37*
%LPD*%
%LPC*%
G36*
X370839Y87883D02*
X370839Y87883D01*
X370839Y89517D01*
X375303Y93981D01*
X376937Y93981D01*
X376937Y87883D01*
X370839Y87883D01*
G37*
%LPD*%
%LPC*%
G36*
X379983Y78739D02*
X379983Y78739D01*
X379983Y84837D01*
X386081Y84837D01*
X386081Y83203D01*
X381617Y78739D01*
X379983Y78739D01*
G37*
%LPD*%
%LPC*%
G36*
X85743Y868679D02*
X85743Y868679D01*
X81279Y873143D01*
X81279Y874777D01*
X87377Y874777D01*
X87377Y868679D01*
X85743Y868679D01*
G37*
%LPD*%
%LPC*%
G36*
X375303Y78739D02*
X375303Y78739D01*
X370839Y83203D01*
X370839Y84837D01*
X376937Y84837D01*
X376937Y78739D01*
X375303Y78739D01*
G37*
%LPD*%
%LPC*%
G36*
X350519Y147319D02*
X350519Y147319D01*
X350519Y147321D01*
X350521Y147321D01*
X350521Y147319D01*
X350519Y147319D01*
G37*
%LPD*%
%LPC*%
G36*
X586739Y345439D02*
X586739Y345439D01*
X586739Y345441D01*
X586741Y345441D01*
X586741Y345439D01*
X586739Y345439D01*
G37*
%LPD*%
%LPC*%
G36*
X378459Y86359D02*
X378459Y86359D01*
X378459Y86361D01*
X378461Y86361D01*
X378461Y86359D01*
X378459Y86359D01*
G37*
%LPD*%
%LPC*%
G36*
X88899Y876299D02*
X88899Y876299D01*
X88899Y876301D01*
X88901Y876301D01*
X88901Y876299D01*
X88899Y876299D01*
G37*
%LPD*%
%LPC*%
G36*
X662939Y320039D02*
X662939Y320039D01*
X662939Y320041D01*
X662941Y320041D01*
X662941Y320039D01*
X662939Y320039D01*
G37*
%LPD*%
%LPC*%
G36*
X175459Y45719D02*
X175459Y45719D01*
X175459Y45721D01*
X175461Y45721D01*
X175461Y45719D01*
X175459Y45719D01*
G37*
%LPD*%
%LPC*%
G36*
X388619Y320039D02*
X388619Y320039D01*
X388619Y320041D01*
X388621Y320041D01*
X388621Y320039D01*
X388619Y320039D01*
G37*
%LPD*%
%LPC*%
G36*
X586739Y523239D02*
X586739Y523239D01*
X586739Y523241D01*
X586741Y523241D01*
X586741Y523239D01*
X586739Y523239D01*
G37*
%LPD*%
D10*
X175460Y45720D03*
X200460Y45720D03*
D11*
X581660Y624840D02*
X591820Y624840D01*
X591820Y599440D02*
X581660Y599440D01*
X581660Y472440D02*
X591820Y472440D01*
X657860Y472440D02*
X668020Y472440D01*
X591820Y574040D02*
X581660Y574040D01*
X581660Y548640D02*
X591820Y548640D01*
X591820Y497840D02*
X581660Y497840D01*
X581660Y523240D02*
X591820Y523240D01*
X657860Y497840D02*
X668020Y497840D01*
X668020Y523240D02*
X657860Y523240D01*
X657860Y548640D02*
X668020Y548640D01*
X668020Y574040D02*
X657860Y574040D01*
X657860Y599440D02*
X668020Y599440D01*
X668020Y624840D02*
X657860Y624840D01*
X317500Y624840D02*
X307340Y624840D01*
X307340Y599440D02*
X317500Y599440D01*
X317500Y472440D02*
X307340Y472440D01*
X383540Y472440D02*
X393700Y472440D01*
X317500Y574040D02*
X307340Y574040D01*
X307340Y548640D02*
X317500Y548640D01*
X317500Y497840D02*
X307340Y497840D01*
X307340Y523240D02*
X317500Y523240D01*
X383540Y497840D02*
X393700Y497840D01*
X393700Y523240D02*
X383540Y523240D01*
X383540Y548640D02*
X393700Y548640D01*
X393700Y574040D02*
X383540Y574040D01*
X383540Y599440D02*
X393700Y599440D01*
X393700Y624840D02*
X383540Y624840D01*
D12*
X38100Y876300D03*
X88900Y876300D03*
X63500Y901700D03*
D11*
X243840Y154940D02*
X243840Y144780D01*
X193040Y144780D02*
X193040Y154940D01*
X218440Y154940D02*
X218440Y144780D01*
X325120Y144780D02*
X325120Y154940D01*
X274320Y154940D02*
X274320Y144780D01*
X299720Y144780D02*
X299720Y154940D01*
D13*
X378460Y86360D03*
X378460Y35560D03*
D14*
X483000Y692000D03*
X508000Y692000D03*
X533000Y692000D03*
D15*
X553000Y762000D03*
X463000Y762000D03*
D14*
X686200Y692000D03*
X711200Y692000D03*
X736200Y692000D03*
D15*
X756200Y762000D03*
X666200Y762000D03*
D14*
X279800Y692000D03*
X304800Y692000D03*
X329800Y692000D03*
D15*
X349800Y762000D03*
X259800Y762000D03*
D16*
X193040Y929640D03*
X218440Y929640D03*
X193040Y904240D03*
X218440Y904240D03*
X193040Y878840D03*
X218440Y878840D03*
D11*
X581660Y396240D02*
X591820Y396240D01*
X591820Y370840D02*
X581660Y370840D01*
X581660Y243840D02*
X591820Y243840D01*
X657860Y243840D02*
X668020Y243840D01*
X591820Y345440D02*
X581660Y345440D01*
X581660Y320040D02*
X591820Y320040D01*
X591820Y269240D02*
X581660Y269240D01*
X581660Y294640D02*
X591820Y294640D01*
X657860Y269240D02*
X668020Y269240D01*
X668020Y294640D02*
X657860Y294640D01*
X657860Y320040D02*
X668020Y320040D01*
X668020Y345440D02*
X657860Y345440D01*
X657860Y370840D02*
X668020Y370840D01*
X668020Y396240D02*
X657860Y396240D01*
X317500Y396240D02*
X307340Y396240D01*
X307340Y370840D02*
X317500Y370840D01*
X317500Y243840D02*
X307340Y243840D01*
X383540Y243840D02*
X393700Y243840D01*
X317500Y345440D02*
X307340Y345440D01*
X307340Y320040D02*
X317500Y320040D01*
X317500Y269240D02*
X307340Y269240D01*
X307340Y294640D02*
X317500Y294640D01*
X383540Y269240D02*
X393700Y269240D01*
X393700Y294640D02*
X383540Y294640D01*
X383540Y320040D02*
X393700Y320040D01*
X393700Y345440D02*
X383540Y345440D01*
X383540Y370840D02*
X393700Y370840D01*
X393700Y396240D02*
X383540Y396240D01*
X601980Y142240D02*
X612140Y142240D01*
X612140Y91440D02*
X601980Y91440D01*
X601980Y116840D02*
X612140Y116840D01*
D12*
X731520Y538480D03*
X782320Y538480D03*
X756920Y563880D03*
D16*
X567182Y975360D03*
X596138Y975360D03*
X596138Y889000D03*
X567182Y889000D03*
D17*
X350520Y147320D03*
D18*
X375920Y147320D03*
X401320Y147320D03*
D16*
X186182Y975360D03*
X215138Y975360D03*
X257302Y975360D03*
X286258Y975360D03*
X333502Y975360D03*
X362458Y975360D03*
X333502Y929640D03*
X362458Y929640D03*
X333502Y889000D03*
X362458Y889000D03*
X414782Y975360D03*
X443738Y975360D03*
X490982Y929640D03*
X519938Y929640D03*
X490982Y975360D03*
X519938Y975360D03*
X663702Y975360D03*
X692658Y975360D03*
D19*
X386080Y421640D03*
D20*
X360680Y447040D01*
X360680Y619760D02*
X434086Y693166D01*
X360680Y619760D02*
X360680Y447040D01*
X434086Y693166D02*
X434086Y804926D01*
X558800Y929640D01*
X619760Y929640D01*
X386080Y421640D02*
X345440Y381000D01*
X157480Y381000D02*
X147320Y391160D01*
D19*
X147320Y391160D03*
D20*
X157480Y381000D02*
X345440Y381000D01*
X619760Y929640D02*
X663702Y973582D01*
X663702Y975360D01*
X692658Y975360D01*
X594360Y523240D02*
X586740Y523240D01*
X594360Y523240D02*
X609600Y538480D01*
X609600Y558800D01*
X594360Y574040D02*
X586740Y574040D01*
X594360Y574040D02*
X609600Y558800D01*
X655320Y574040D02*
X662940Y574040D01*
X655320Y574040D02*
X640080Y558800D01*
X640080Y543560D01*
X660400Y523240D02*
X662940Y523240D01*
X660400Y523240D02*
X640080Y543560D01*
X589280Y345440D02*
X586740Y345440D01*
X589280Y345440D02*
X604520Y330200D01*
X604520Y312420D02*
X586740Y294640D01*
X604520Y312420D02*
X604520Y330200D01*
D21*
X396240Y523240D02*
X388620Y523240D01*
X396240Y523240D02*
X411480Y538480D01*
X401320Y574040D02*
X388620Y574040D01*
X401320Y574040D02*
X411480Y563880D01*
X411480Y538480D01*
D19*
X254000Y457200D03*
X127000Y518160D03*
X38100Y381000D03*
X38100Y508000D03*
X38100Y939800D03*
X279400Y604520D03*
D20*
X279400Y650240D01*
X248920Y680720D02*
X223520Y680720D01*
D19*
X223520Y680720D03*
D20*
X248920Y680720D02*
X279400Y650240D01*
D19*
X487680Y731520D03*
D20*
X462280Y706120D02*
X462280Y680720D01*
D19*
X462280Y680720D03*
D20*
X462280Y706120D02*
X487680Y731520D01*
D19*
X411480Y452120D03*
D20*
X462280Y502920D02*
X462280Y513080D01*
D19*
X462280Y513080D03*
D20*
X462280Y502920D02*
X411480Y452120D01*
D19*
X314960Y411480D03*
D20*
X330200Y426720D01*
X381000Y675640D02*
X381000Y960120D01*
X396240Y975360D01*
X330200Y624840D02*
X330200Y426720D01*
X330200Y624840D02*
X381000Y675640D01*
X414782Y975360D02*
X443738Y975360D01*
X414782Y975360D02*
X396240Y975360D01*
D19*
X340360Y411480D03*
D20*
X342928Y619146D02*
X422402Y698620D01*
X422402Y866140D01*
X342928Y414048D02*
X340360Y411480D01*
X342928Y414048D02*
X342928Y619146D01*
X422402Y866140D02*
X485902Y929640D01*
X490982Y929640D02*
X519938Y929640D01*
X490982Y929640D02*
X485902Y929640D01*
D19*
X350520Y411480D03*
D20*
X350520Y618476D02*
X428244Y696200D01*
X428244Y809244D01*
X350520Y618476D02*
X350520Y411480D01*
X428244Y809244D02*
X538480Y919480D01*
X538480Y956818D01*
X557022Y975360D01*
X567182Y975360D01*
X519938Y975360D02*
X490982Y975360D01*
X519938Y975360D02*
X538480Y956818D01*
D19*
X294640Y91440D03*
X335280Y91440D03*
X127000Y81280D03*
X828040Y457200D03*
X828040Y314960D03*
X436880Y218440D03*
X533400Y320040D03*
X172720Y574040D03*
X132080Y574040D03*
X147320Y147320D03*
X91440Y210820D03*
X675640Y889000D03*
D20*
X726440Y889000D01*
D19*
X726440Y889000D03*
X624840Y726440D03*
D20*
X624840Y510540D01*
X586740Y472440D01*
D19*
X360680Y670560D03*
D20*
X321160Y675640D02*
X304800Y692000D01*
X321160Y675640D02*
X355600Y675640D01*
X360680Y670560D01*
D19*
X396240Y457200D03*
D20*
X370840Y467360D02*
X370840Y607060D01*
X381000Y457200D02*
X396240Y457200D01*
X381000Y457200D02*
X370840Y467360D01*
X370840Y607060D02*
X388620Y624840D01*
D19*
X497840Y838200D03*
D20*
X441960Y782320D01*
X441960Y678180D01*
X388620Y624840D01*
X685440Y691240D02*
X686200Y692000D01*
D19*
X695960Y655320D03*
D20*
X695960Y680720D01*
X685440Y691240D01*
X279800Y692000D02*
X279800Y670160D01*
D19*
X294640Y457200D03*
D20*
X294640Y655320D02*
X279800Y670160D01*
X294640Y655320D02*
X294640Y457200D01*
D19*
X802640Y441960D03*
D20*
X756920Y487680D01*
D19*
X756920Y487680D03*
M02*
