G04 EAGLE Gerber RS-274X export*
G75*
%MOMM*%
%FSLAX34Y34*%
%LPD*%
%INSoldermask Bottom*%
%IPPOS*%
%AMOC8*
5,1,8,0,0,1.08239X$1,22.5*%
G01*
%ADD10C,1.473200*%
%ADD11C,1.219200*%
%ADD12P,1.319650X8X22.500000*%
%ADD13P,1.319650X8X292.500000*%
%ADD14C,1.879600*%
%ADD15R,3.003200X3.003200*%
%ADD16C,2.082800*%
%ADD17R,1.126400X1.126400*%
%ADD18C,1.126400*%
%ADD19C,1.053200*%
%ADD20C,0.959600*%


D10*
X175460Y45720D03*
X200460Y45720D03*
D11*
X581660Y624840D02*
X591820Y624840D01*
X591820Y599440D02*
X581660Y599440D01*
X581660Y472440D02*
X591820Y472440D01*
X657860Y472440D02*
X668020Y472440D01*
X591820Y574040D02*
X581660Y574040D01*
X581660Y548640D02*
X591820Y548640D01*
X591820Y497840D02*
X581660Y497840D01*
X581660Y523240D02*
X591820Y523240D01*
X657860Y497840D02*
X668020Y497840D01*
X668020Y523240D02*
X657860Y523240D01*
X657860Y548640D02*
X668020Y548640D01*
X668020Y574040D02*
X657860Y574040D01*
X657860Y599440D02*
X668020Y599440D01*
X668020Y624840D02*
X657860Y624840D01*
X317500Y624840D02*
X307340Y624840D01*
X307340Y599440D02*
X317500Y599440D01*
X317500Y472440D02*
X307340Y472440D01*
X383540Y472440D02*
X393700Y472440D01*
X317500Y574040D02*
X307340Y574040D01*
X307340Y548640D02*
X317500Y548640D01*
X317500Y497840D02*
X307340Y497840D01*
X307340Y523240D02*
X317500Y523240D01*
X383540Y497840D02*
X393700Y497840D01*
X393700Y523240D02*
X383540Y523240D01*
X383540Y548640D02*
X393700Y548640D01*
X393700Y574040D02*
X383540Y574040D01*
X383540Y599440D02*
X393700Y599440D01*
X393700Y624840D02*
X383540Y624840D01*
D12*
X38100Y876300D03*
X88900Y876300D03*
X63500Y901700D03*
D11*
X243840Y154940D02*
X243840Y144780D01*
X193040Y144780D02*
X193040Y154940D01*
X218440Y154940D02*
X218440Y144780D01*
X325120Y144780D02*
X325120Y154940D01*
X274320Y154940D02*
X274320Y144780D01*
X299720Y144780D02*
X299720Y154940D01*
D13*
X378460Y86360D03*
X378460Y35560D03*
D14*
X483000Y692000D03*
X508000Y692000D03*
X533000Y692000D03*
D15*
X553000Y762000D03*
X463000Y762000D03*
D14*
X686200Y692000D03*
X711200Y692000D03*
X736200Y692000D03*
D15*
X756200Y762000D03*
X666200Y762000D03*
D14*
X279800Y692000D03*
X304800Y692000D03*
X329800Y692000D03*
D15*
X349800Y762000D03*
X259800Y762000D03*
D16*
X193040Y929640D03*
X218440Y929640D03*
X193040Y904240D03*
X218440Y904240D03*
X193040Y878840D03*
X218440Y878840D03*
D11*
X581660Y396240D02*
X591820Y396240D01*
X591820Y370840D02*
X581660Y370840D01*
X581660Y243840D02*
X591820Y243840D01*
X657860Y243840D02*
X668020Y243840D01*
X591820Y345440D02*
X581660Y345440D01*
X581660Y320040D02*
X591820Y320040D01*
X591820Y269240D02*
X581660Y269240D01*
X581660Y294640D02*
X591820Y294640D01*
X657860Y269240D02*
X668020Y269240D01*
X668020Y294640D02*
X657860Y294640D01*
X657860Y320040D02*
X668020Y320040D01*
X668020Y345440D02*
X657860Y345440D01*
X657860Y370840D02*
X668020Y370840D01*
X668020Y396240D02*
X657860Y396240D01*
X317500Y396240D02*
X307340Y396240D01*
X307340Y370840D02*
X317500Y370840D01*
X317500Y243840D02*
X307340Y243840D01*
X383540Y243840D02*
X393700Y243840D01*
X317500Y345440D02*
X307340Y345440D01*
X307340Y320040D02*
X317500Y320040D01*
X317500Y269240D02*
X307340Y269240D01*
X307340Y294640D02*
X317500Y294640D01*
X383540Y269240D02*
X393700Y269240D01*
X393700Y294640D02*
X383540Y294640D01*
X383540Y320040D02*
X393700Y320040D01*
X393700Y345440D02*
X383540Y345440D01*
X383540Y370840D02*
X393700Y370840D01*
X393700Y396240D02*
X383540Y396240D01*
X601980Y142240D02*
X612140Y142240D01*
X612140Y91440D02*
X601980Y91440D01*
X601980Y116840D02*
X612140Y116840D01*
D12*
X731520Y538480D03*
X782320Y538480D03*
X756920Y563880D03*
D16*
X567182Y975360D03*
X596138Y975360D03*
X596138Y889000D03*
X567182Y889000D03*
D17*
X350520Y147320D03*
D18*
X375920Y147320D03*
X401320Y147320D03*
D19*
X63500Y180100D03*
X63500Y150100D03*
D16*
X186182Y975360D03*
X215138Y975360D03*
X257302Y975360D03*
X286258Y975360D03*
X333502Y975360D03*
X362458Y975360D03*
X333502Y929640D03*
X362458Y929640D03*
X333502Y889000D03*
X362458Y889000D03*
X414782Y975360D03*
X443738Y975360D03*
X490982Y929640D03*
X519938Y929640D03*
X490982Y975360D03*
X519938Y975360D03*
X663702Y975360D03*
X692658Y975360D03*
D20*
X386080Y421640D03*
X147320Y391160D03*
X254000Y457200D03*
X127000Y518160D03*
X38100Y381000D03*
X38100Y508000D03*
X38100Y939800D03*
X279400Y604520D03*
X223520Y680720D03*
X487680Y731520D03*
X462280Y680720D03*
X411480Y452120D03*
X462280Y513080D03*
X314960Y411480D03*
X340360Y411480D03*
X350520Y411480D03*
X294640Y91440D03*
X335280Y91440D03*
X127000Y81280D03*
X828040Y457200D03*
X828040Y314960D03*
X436880Y218440D03*
X533400Y320040D03*
X172720Y574040D03*
X132080Y574040D03*
X147320Y147320D03*
X91440Y210820D03*
X675640Y889000D03*
X726440Y889000D03*
X624840Y726440D03*
X360680Y670560D03*
X396240Y457200D03*
X497840Y838200D03*
X695960Y655320D03*
X294640Y457200D03*
X802640Y441960D03*
X756920Y487680D03*
M02*
