M48
;GenerationSoftware,Autodesk,EAGLE,9.6.2*%
;CreationDate,2026-05-05T19:48:11Z*%
FMAT,2
ICI,OFF
METRIC,TZ,000.000
T8C0.350
T7C0.720
T6C0.800
T5C0.813
T4C0.850
T3C1.016
T2C1.100
T1C1.600
%
G90
M71
T1
X25980Y76200
X34980Y76200
X66620Y76200
X75620Y76200
X46300Y76200
X55300Y76200
T2
X32980Y69200
X53300Y69200
X30480Y69200
X27980Y69200
X73620Y69200
X71120Y69200
X68620Y69200
X50800Y69200
X48300Y69200
T3
X56718Y88900
X59614Y88900
X59614Y97536
X69266Y97536
X19304Y87884
X21844Y87884
X21844Y90424
X33350Y88900
X21844Y92964
X19304Y92964
X51994Y92964
X49098Y92964
X19304Y90424
X44374Y97536
X41478Y97536
X36246Y88900
X36246Y92964
X33350Y92964
X36246Y97536
X33350Y97536
X28626Y97536
X25730Y97536
X56718Y97536
X21514Y97536
X18618Y97536
X49098Y97536
X51994Y97536
X66370Y97536
T4
X6350Y18010
X6350Y15010
T5
X66294Y47244
X58674Y57404
X58674Y54864
X58674Y49784
X58674Y52324
X66294Y49784
X66294Y52324
X66294Y54864
X66294Y57404
X66294Y59944
X66294Y62484
X31242Y62484
X31242Y59944
X31242Y47244
X38862Y47244
X31242Y57404
X31242Y49784
X31242Y52324
X38862Y49784
X38862Y52324
X38862Y54864
X38862Y57404
X38862Y59944
X38862Y62484
X3810Y87630
X8890Y87630
X6350Y90170
X24384Y14986
X19304Y14986
X21844Y14986
X32512Y14986
X27432Y14986
X29972Y14986
X37846Y8636
X37846Y3556
X31242Y34544
X31242Y54864
X58674Y39624
X58674Y37084
X58674Y24384
X66294Y24384
X58674Y34544
X58674Y32004
X58674Y26924
X58674Y29464
X66294Y26924
X66294Y29464
X66294Y32004
X66294Y34544
X66294Y37084
X66294Y39624
X31242Y39624
X31242Y37084
X31242Y24384
X38862Y24384
X31242Y32004
X31242Y26924
X31242Y29464
X38862Y26924
X38862Y29464
X38862Y32004
X38862Y34544
X38862Y37084
X38862Y39624
X60706Y14224
X60706Y9144
X60706Y11684
X73152Y53848
X78232Y53848
X75692Y56388
X58674Y62484
X58674Y59944
X58674Y47244
T6
X17546Y4572
X20046Y4572
T7
X37592Y14732
X40132Y14732
X35052Y14732
T8
X80264Y44196
X29464Y45720
X69596Y65532
X49784Y83820
X39624Y45720
X36068Y67056
X62484Y72644
X72644Y88900
X67564Y88900
X9144Y21082
X14732Y14732
X13208Y57404
X33528Y9144
X29464Y9144
X35052Y41148
X34036Y41148
X38608Y42164
X82804Y45720
X12700Y8128
X31496Y41148
X46228Y51308
X41148Y45212
X46228Y68072
X48768Y73152
X22352Y68072
X27940Y60452
X82804Y31496
X3810Y50800
X3810Y38100
X12700Y51816
X25400Y45720
X3810Y93980
X75692Y48768
X17272Y57404
X53340Y32004
X43688Y21844
X14732Y39116
M30