M48
;GenerationSoftware,Autodesk,EAGLE,9.6.2*%
;CreationDate,2024-12-02T03:50:14Z*%
FMAT,2
ICI,OFF
METRIC,TZ,000.000
T9C0.610
T8C0.800
T7C0.813
T6C0.900
T5C1.000
T4C1.016
T3C1.118
T2C1.200
T1C1.300
%
G90
M71
T1
X74930Y3810
X72430Y8810
X69930Y8810
X77430Y8810
X79930Y8810
T2
X69930Y3810
X69930Y1310
X79930Y1310
X79930Y3810
X74930Y8810
T3
X25400Y54610
X66040Y39370
X66040Y36830
X66040Y44450
X66040Y46990
X66040Y41910
X35560Y54610
T4
X72390Y16510
X74930Y16510
X85090Y27940
X85090Y25400
X74930Y19050
X72390Y19050
X31750Y68580
X19685Y68580
X14478Y41402
X14478Y43942
X18288Y41402
X18288Y43942
X72390Y13970
X74930Y13970
X62484Y8890
X8890Y57150
X6350Y57150
X3810Y57150
X85090Y17780
X64770Y66040
X85090Y20320
X56642Y63754
X56896Y66294
X8890Y48260
X6350Y48260
X3810Y48260
X56642Y68834
X67310Y66040
X69850Y66040
X78740Y66040
X81280Y66040
X83820Y66040
X62230Y6350
X22225Y68580
X62230Y11430
X62484Y13970
X62230Y19050
X62484Y21590
X62230Y24130
X62484Y26670
X85090Y6350
X85090Y3810
X34290Y68580
T5
X14430Y66040
T6
X78740Y54610
X71120Y54610
X13970Y24130
X25400Y63500
X33020Y59690
X13970Y16510
X25400Y59690
X5080Y42545
X5080Y34925
X5080Y16510
X5080Y24130
X10160Y5080
X10160Y12700
X78740Y58420
X50800Y5080
X50800Y12700
X13970Y5080
X13970Y12700
X71120Y58420
X39370Y12700
X46990Y5080
X46990Y12700
X33020Y63500
X59690Y50800
X67310Y50800
X59690Y58420
X67310Y58420
X67310Y54610
X59690Y54610
X39370Y5080
T7
X8890Y42545
X8890Y34925
X27940Y42545
X22860Y21590
X22860Y19050
X22860Y6350
X30480Y6350
X22860Y16510
X22860Y13970
X22860Y8890
X22860Y11430
X30480Y8890
X30480Y11430
X30480Y13970
X30480Y21590
X25400Y48260
X19050Y57150
X19050Y54610
X34290Y48260
X36830Y35560
X34290Y35560
X35560Y7620
X35560Y10160
X78740Y26670
X76200Y26670
X25400Y35560
X22860Y35560
X13335Y37465
X13335Y34925
X43180Y10160
X77470Y49530
X72390Y49530
X74930Y49530
X43180Y7620
X35560Y21590
X35560Y19050
X25400Y42545
X71120Y25400
X71120Y27940
X36830Y48260
X10160Y19050
X10160Y21590
X85090Y49530
X27940Y48260
X26670Y50165
X30480Y19050
X20320Y49530
X80010Y49530
X82550Y49530
X17780Y49530
X17780Y21590
X17780Y19050
X5080Y7620
X5080Y10160
X17780Y10160
X30480Y16510
X17780Y7620
T8
X8430Y66040
X11430Y61240
T9
X74930Y40640
X74930Y43180
X82550Y40640
X82550Y43180
X43180Y20320
X43180Y22860
X82550Y38100
X74930Y38100
X43180Y17780
M30