G04 EAGLE Gerber RS-274X export*
G75*
%MOMM*%
%FSLAX34Y34*%
%LPD*%
%IN*%
%IPPOS*%
%AMOC8*
5,1,8,0,0,1.08239X$1,22.5*%
G01*
%ADD10C,0.254000*%


D10*
X0Y0D02*
X889000Y0D01*
X889000Y711200D01*
X0Y711200D01*
X0Y0D01*
X99300Y608400D02*
X129300Y608400D01*
X129300Y616400D01*
X99300Y616400D01*
X99300Y608400D01*
X139300Y642900D02*
X149300Y642900D01*
X149300Y677900D01*
X139300Y677900D01*
X139300Y642900D01*
X80300Y645400D02*
X88300Y645400D01*
X88300Y675400D01*
X80300Y675400D01*
X80300Y645400D01*
X699637Y44100D02*
X700307Y44025D01*
X700964Y43875D01*
X701600Y43652D01*
X702207Y43360D01*
X702778Y43001D01*
X703304Y42581D01*
X703781Y42104D01*
X704201Y41578D01*
X704560Y41007D01*
X704852Y40400D01*
X705075Y39764D01*
X705225Y39107D01*
X705300Y38437D01*
X705300Y37763D01*
X705225Y37093D01*
X705075Y36436D01*
X704852Y35800D01*
X704560Y35193D01*
X704201Y34623D01*
X703781Y34096D01*
X703304Y33619D01*
X702778Y33199D01*
X702207Y32840D01*
X701600Y32548D01*
X700964Y32325D01*
X700307Y32175D01*
X699637Y32100D01*
X698963Y32100D01*
X698293Y32175D01*
X697636Y32325D01*
X697000Y32548D01*
X696393Y32840D01*
X695823Y33199D01*
X695296Y33619D01*
X694819Y34096D01*
X694399Y34623D01*
X694040Y35193D01*
X693748Y35800D01*
X693525Y36436D01*
X693375Y37093D01*
X693300Y37763D01*
X693300Y38437D01*
X693375Y39107D01*
X693525Y39764D01*
X693748Y40400D01*
X694040Y41007D01*
X694399Y41578D01*
X694819Y42104D01*
X695296Y42581D01*
X695823Y43001D01*
X696393Y43360D01*
X697000Y43652D01*
X697636Y43875D01*
X698293Y44025D01*
X698963Y44100D01*
X699637Y44100D01*
X699637Y19100D02*
X700307Y19025D01*
X700964Y18875D01*
X701600Y18652D01*
X702207Y18360D01*
X702778Y18001D01*
X703304Y17581D01*
X703781Y17104D01*
X704201Y16578D01*
X704560Y16007D01*
X704852Y15400D01*
X705075Y14764D01*
X705225Y14107D01*
X705300Y13437D01*
X705300Y12763D01*
X705225Y12093D01*
X705075Y11436D01*
X704852Y10800D01*
X704560Y10193D01*
X704201Y9623D01*
X703781Y9096D01*
X703304Y8619D01*
X702778Y8199D01*
X702207Y7840D01*
X701600Y7548D01*
X700964Y7325D01*
X700307Y7175D01*
X699637Y7100D01*
X698963Y7100D01*
X698293Y7175D01*
X697636Y7325D01*
X697000Y7548D01*
X696393Y7840D01*
X695823Y8199D01*
X695296Y8619D01*
X694819Y9096D01*
X694399Y9623D01*
X694040Y10193D01*
X693748Y10800D01*
X693525Y11436D01*
X693375Y12093D01*
X693300Y12763D01*
X693300Y13437D01*
X693375Y14107D01*
X693525Y14764D01*
X693748Y15400D01*
X694040Y16007D01*
X694399Y16578D01*
X694819Y17104D01*
X695296Y17581D01*
X695823Y18001D01*
X696393Y18360D01*
X697000Y18652D01*
X697636Y18875D01*
X698293Y19025D01*
X698963Y19100D01*
X699637Y19100D01*
X799637Y19100D02*
X800307Y19025D01*
X800964Y18875D01*
X801600Y18652D01*
X802207Y18360D01*
X802778Y18001D01*
X803304Y17581D01*
X803781Y17104D01*
X804201Y16578D01*
X804560Y16007D01*
X804852Y15400D01*
X805075Y14764D01*
X805225Y14107D01*
X805300Y13437D01*
X805300Y12763D01*
X805225Y12093D01*
X805075Y11436D01*
X804852Y10800D01*
X804560Y10193D01*
X804201Y9623D01*
X803781Y9096D01*
X803304Y8619D01*
X802778Y8199D01*
X802207Y7840D01*
X801600Y7548D01*
X800964Y7325D01*
X800307Y7175D01*
X799637Y7100D01*
X798963Y7100D01*
X798293Y7175D01*
X797636Y7325D01*
X797000Y7548D01*
X796393Y7840D01*
X795823Y8199D01*
X795296Y8619D01*
X794819Y9096D01*
X794399Y9623D01*
X794040Y10193D01*
X793748Y10800D01*
X793525Y11436D01*
X793375Y12093D01*
X793300Y12763D01*
X793300Y13437D01*
X793375Y14107D01*
X793525Y14764D01*
X793748Y15400D01*
X794040Y16007D01*
X794399Y16578D01*
X794819Y17104D01*
X795296Y17581D01*
X795823Y18001D01*
X796393Y18360D01*
X797000Y18652D01*
X797636Y18875D01*
X798293Y19025D01*
X798963Y19100D01*
X799637Y19100D01*
X799637Y44100D02*
X800307Y44025D01*
X800964Y43875D01*
X801600Y43652D01*
X802207Y43360D01*
X802778Y43001D01*
X803304Y42581D01*
X803781Y42104D01*
X804201Y41578D01*
X804560Y41007D01*
X804852Y40400D01*
X805075Y39764D01*
X805225Y39107D01*
X805300Y38437D01*
X805300Y37763D01*
X805225Y37093D01*
X805075Y36436D01*
X804852Y35800D01*
X804560Y35193D01*
X804201Y34623D01*
X803781Y34096D01*
X803304Y33619D01*
X802778Y33199D01*
X802207Y32840D01*
X801600Y32548D01*
X800964Y32325D01*
X800307Y32175D01*
X799637Y32100D01*
X798963Y32100D01*
X798293Y32175D01*
X797636Y32325D01*
X797000Y32548D01*
X796393Y32840D01*
X795823Y33199D01*
X795296Y33619D01*
X794819Y34096D01*
X794399Y34623D01*
X794040Y35193D01*
X793748Y35800D01*
X793525Y36436D01*
X793375Y37093D01*
X793300Y37763D01*
X793300Y38437D01*
X793375Y39107D01*
X793525Y39764D01*
X793748Y40400D01*
X794040Y41007D01*
X794399Y41578D01*
X794819Y42104D01*
X795296Y42581D01*
X795823Y43001D01*
X796393Y43360D01*
X797000Y43652D01*
X797636Y43875D01*
X798293Y44025D01*
X798963Y44100D01*
X799637Y44100D01*
X749637Y94100D02*
X750307Y94025D01*
X750964Y93875D01*
X751600Y93652D01*
X752207Y93360D01*
X752778Y93001D01*
X753304Y92581D01*
X753781Y92104D01*
X754201Y91578D01*
X754560Y91007D01*
X754852Y90400D01*
X755075Y89764D01*
X755225Y89107D01*
X755300Y88437D01*
X755300Y87763D01*
X755225Y87093D01*
X755075Y86436D01*
X754852Y85800D01*
X754560Y85193D01*
X754201Y84623D01*
X753781Y84096D01*
X753304Y83619D01*
X752778Y83199D01*
X752207Y82840D01*
X751600Y82548D01*
X750964Y82325D01*
X750307Y82175D01*
X749637Y82100D01*
X748963Y82100D01*
X748293Y82175D01*
X747636Y82325D01*
X747000Y82548D01*
X746393Y82840D01*
X745823Y83199D01*
X745296Y83619D01*
X744819Y84096D01*
X744399Y84623D01*
X744040Y85193D01*
X743748Y85800D01*
X743525Y86436D01*
X743375Y87093D01*
X743300Y87763D01*
X743300Y88437D01*
X743375Y89107D01*
X743525Y89764D01*
X743748Y90400D01*
X744040Y91007D01*
X744399Y91578D01*
X744819Y92104D01*
X745296Y92581D01*
X745823Y93001D01*
X746393Y93360D01*
X747000Y93652D01*
X747636Y93875D01*
X748293Y94025D01*
X748963Y94100D01*
X749637Y94100D01*
M02*
