G04 EAGLE Gerber RS-274X export*
G75*
%MOMM*%
%FSLAX34Y34*%
%LPD*%
%INTop Copper*%
%IPPOS*%
%AMOC8*
5,1,8,0,0,1.08239X$1,22.5*%
G01*
%ADD10C,1.308000*%
%ADD11C,1.700000*%
%ADD12P,1.429621X8X112.500000*%
%ADD13C,2.000000*%
%ADD14P,1.649562X8X112.500000*%
%ADD15C,1.530000*%
%ADD16R,1.228000X1.228000*%
%ADD17C,1.228000*%
%ADD18C,1.879600*%
%ADD19C,2.250000*%
%ADD20R,1.308000X1.308000*%
%ADD21R,4.700000X3.430000*%
%ADD22R,3.430000X4.700000*%
%ADD23C,1.320800*%
%ADD24C,1.524000*%
%ADD25C,1.422400*%
%ADD26C,0.812800*%
%ADD27C,0.756400*%
%ADD28C,0.406400*%
%ADD29C,0.304800*%

G36*
X914731Y10162D02*
X914731Y10162D01*
X914748Y10161D01*
X914932Y10182D01*
X915114Y10201D01*
X915131Y10206D01*
X915148Y10208D01*
X915324Y10265D01*
X915499Y10319D01*
X915515Y10327D01*
X915531Y10332D01*
X915692Y10423D01*
X915853Y10511D01*
X915867Y10522D01*
X915882Y10530D01*
X916022Y10651D01*
X916163Y10768D01*
X916174Y10782D01*
X916187Y10793D01*
X916300Y10939D01*
X916415Y11082D01*
X916423Y11097D01*
X916434Y11111D01*
X916516Y11277D01*
X916601Y11439D01*
X916605Y11456D01*
X916613Y11472D01*
X916661Y11650D01*
X916712Y11826D01*
X916713Y11844D01*
X916718Y11860D01*
X916745Y12191D01*
X916933Y406907D01*
X916932Y406925D01*
X916933Y406944D01*
X916912Y407126D01*
X916894Y407308D01*
X916888Y407325D01*
X916886Y407343D01*
X916829Y407518D01*
X916776Y407693D01*
X916767Y407709D01*
X916761Y407726D01*
X916671Y407886D01*
X916584Y408047D01*
X916572Y408061D01*
X916563Y408077D01*
X916444Y408215D01*
X916327Y408356D01*
X916312Y408368D01*
X916300Y408382D01*
X916156Y408494D01*
X916013Y408609D01*
X915997Y408617D01*
X915982Y408628D01*
X915818Y408710D01*
X915656Y408794D01*
X915638Y408799D01*
X915622Y408808D01*
X915444Y408855D01*
X915269Y408906D01*
X915251Y408907D01*
X915233Y408912D01*
X914902Y408939D01*
X819871Y408939D01*
X819862Y408938D01*
X819853Y408939D01*
X819661Y408918D01*
X819470Y408899D01*
X819462Y408897D01*
X819453Y408896D01*
X819271Y408838D01*
X819085Y408781D01*
X819077Y408777D01*
X819069Y408774D01*
X818901Y408681D01*
X818731Y408589D01*
X818725Y408584D01*
X818717Y408579D01*
X818569Y408454D01*
X818422Y408332D01*
X818417Y408325D01*
X818410Y408319D01*
X818290Y408167D01*
X818170Y408018D01*
X818166Y408010D01*
X818160Y408003D01*
X818072Y407830D01*
X817984Y407661D01*
X817982Y407652D01*
X817978Y407644D01*
X817926Y407459D01*
X817873Y407274D01*
X817872Y407265D01*
X817870Y407256D01*
X817856Y407064D01*
X817840Y406872D01*
X817841Y406864D01*
X817840Y406855D01*
X817864Y406663D01*
X817887Y406473D01*
X817890Y406464D01*
X817891Y406455D01*
X817952Y406273D01*
X818012Y406090D01*
X818016Y406082D01*
X818019Y406074D01*
X818116Y405905D01*
X818210Y405739D01*
X818215Y405732D01*
X818220Y405725D01*
X818435Y405472D01*
X818775Y405132D01*
X818775Y356868D01*
X817882Y355975D01*
X807720Y355975D01*
X807702Y355973D01*
X807684Y355975D01*
X807502Y355954D01*
X807319Y355935D01*
X807302Y355930D01*
X807285Y355928D01*
X807110Y355871D01*
X806934Y355817D01*
X806919Y355809D01*
X806902Y355803D01*
X806742Y355713D01*
X806580Y355625D01*
X806567Y355614D01*
X806551Y355605D01*
X806412Y355485D01*
X806271Y355368D01*
X806260Y355354D01*
X806246Y355342D01*
X806134Y355197D01*
X806019Y355054D01*
X806011Y355038D01*
X806000Y355024D01*
X805918Y354859D01*
X805833Y354697D01*
X805828Y354680D01*
X805820Y354664D01*
X805773Y354485D01*
X805722Y354310D01*
X805720Y354292D01*
X805716Y354275D01*
X805689Y353944D01*
X805689Y341788D01*
X804838Y339734D01*
X803266Y338162D01*
X801212Y337311D01*
X798988Y337311D01*
X796934Y338162D01*
X795362Y339734D01*
X794511Y341788D01*
X794511Y353944D01*
X794509Y353962D01*
X794511Y353980D01*
X794490Y354162D01*
X794471Y354345D01*
X794466Y354362D01*
X794464Y354379D01*
X794407Y354554D01*
X794353Y354730D01*
X794345Y354745D01*
X794339Y354762D01*
X794249Y354922D01*
X794161Y355084D01*
X794150Y355097D01*
X794141Y355113D01*
X794021Y355252D01*
X793904Y355393D01*
X793890Y355404D01*
X793878Y355418D01*
X793733Y355530D01*
X793590Y355645D01*
X793574Y355653D01*
X793560Y355664D01*
X793395Y355746D01*
X793233Y355831D01*
X793216Y355836D01*
X793200Y355844D01*
X793021Y355891D01*
X792846Y355942D01*
X792828Y355944D01*
X792811Y355948D01*
X792480Y355975D01*
X782318Y355975D01*
X781425Y356868D01*
X781425Y405132D01*
X781765Y405472D01*
X781771Y405479D01*
X781778Y405484D01*
X781898Y405633D01*
X782020Y405783D01*
X782025Y405791D01*
X782030Y405798D01*
X782118Y405968D01*
X782209Y406139D01*
X782212Y406148D01*
X782216Y406155D01*
X782269Y406340D01*
X782324Y406525D01*
X782325Y406534D01*
X782327Y406542D01*
X782343Y406733D01*
X782360Y406926D01*
X782359Y406935D01*
X782360Y406944D01*
X782338Y407133D01*
X782317Y407326D01*
X782314Y407335D01*
X782313Y407343D01*
X782253Y407526D01*
X782195Y407710D01*
X782191Y407718D01*
X782188Y407726D01*
X782093Y407895D01*
X782001Y408062D01*
X781995Y408069D01*
X781990Y408077D01*
X781864Y408223D01*
X781740Y408369D01*
X781733Y408375D01*
X781727Y408382D01*
X781575Y408500D01*
X781424Y408619D01*
X781416Y408623D01*
X781409Y408628D01*
X781237Y408714D01*
X781065Y408801D01*
X781057Y408804D01*
X781049Y408808D01*
X780863Y408857D01*
X780677Y408909D01*
X780668Y408910D01*
X780660Y408912D01*
X780329Y408939D01*
X12192Y408939D01*
X12174Y408937D01*
X12156Y408939D01*
X11974Y408918D01*
X11791Y408899D01*
X11774Y408894D01*
X11757Y408892D01*
X11582Y408835D01*
X11406Y408781D01*
X11391Y408773D01*
X11374Y408767D01*
X11214Y408677D01*
X11052Y408589D01*
X11039Y408578D01*
X11023Y408569D01*
X10884Y408449D01*
X10743Y408332D01*
X10732Y408318D01*
X10718Y408306D01*
X10606Y408161D01*
X10491Y408018D01*
X10483Y408002D01*
X10472Y407988D01*
X10390Y407823D01*
X10305Y407661D01*
X10300Y407644D01*
X10292Y407628D01*
X10245Y407449D01*
X10194Y407274D01*
X10192Y407256D01*
X10188Y407239D01*
X10161Y406908D01*
X10161Y184871D01*
X10162Y184862D01*
X10161Y184853D01*
X10182Y184661D01*
X10201Y184470D01*
X10203Y184462D01*
X10204Y184453D01*
X10262Y184271D01*
X10319Y184085D01*
X10323Y184077D01*
X10326Y184069D01*
X10419Y183901D01*
X10511Y183731D01*
X10516Y183725D01*
X10521Y183717D01*
X10646Y183569D01*
X10768Y183422D01*
X10775Y183417D01*
X10781Y183410D01*
X10933Y183290D01*
X11082Y183170D01*
X11090Y183166D01*
X11097Y183160D01*
X11270Y183072D01*
X11439Y182984D01*
X11448Y182982D01*
X11456Y182978D01*
X11641Y182926D01*
X11826Y182873D01*
X11835Y182872D01*
X11844Y182870D01*
X12036Y182856D01*
X12228Y182840D01*
X12236Y182841D01*
X12245Y182840D01*
X12437Y182864D01*
X12627Y182887D01*
X12636Y182890D01*
X12645Y182891D01*
X12827Y182952D01*
X13010Y183012D01*
X13018Y183016D01*
X13026Y183019D01*
X13194Y183115D01*
X13361Y183210D01*
X13368Y183215D01*
X13375Y183220D01*
X13628Y183435D01*
X13968Y183775D01*
X62232Y183775D01*
X63125Y182882D01*
X63125Y147198D01*
X63097Y147143D01*
X63011Y146981D01*
X63006Y146964D01*
X62998Y146948D01*
X62948Y146771D01*
X62896Y146595D01*
X62894Y146577D01*
X62890Y146560D01*
X62876Y146377D01*
X62860Y146194D01*
X62862Y146176D01*
X62860Y146159D01*
X62883Y145976D01*
X62903Y145794D01*
X62908Y145777D01*
X62911Y145759D01*
X62969Y145585D01*
X63024Y145410D01*
X63033Y145394D01*
X63039Y145377D01*
X63131Y145218D01*
X63219Y145058D01*
X63231Y145044D01*
X63240Y145029D01*
X63454Y144776D01*
X178678Y29552D01*
X178699Y29535D01*
X178717Y29514D01*
X178854Y29407D01*
X178990Y29297D01*
X179013Y29284D01*
X179035Y29268D01*
X179192Y29190D01*
X179346Y29108D01*
X179371Y29100D01*
X179395Y29088D01*
X179565Y29043D01*
X179731Y28993D01*
X179758Y28991D01*
X179784Y28984D01*
X180115Y28957D01*
X377387Y28957D01*
X377396Y28958D01*
X377405Y28957D01*
X377597Y28978D01*
X377787Y28997D01*
X377796Y28999D01*
X377805Y29000D01*
X377988Y29058D01*
X378172Y29115D01*
X378180Y29119D01*
X378189Y29122D01*
X378357Y29215D01*
X378526Y29307D01*
X378533Y29312D01*
X378541Y29317D01*
X378688Y29441D01*
X378836Y29564D01*
X378841Y29571D01*
X378848Y29577D01*
X378968Y29729D01*
X379088Y29878D01*
X379092Y29886D01*
X379098Y29893D01*
X379185Y30066D01*
X379273Y30235D01*
X379276Y30244D01*
X379280Y30252D01*
X379332Y30437D01*
X379385Y30622D01*
X379386Y30631D01*
X379388Y30640D01*
X379402Y30832D01*
X379418Y31024D01*
X379417Y31032D01*
X379417Y31041D01*
X379393Y31233D01*
X379371Y31423D01*
X379368Y31432D01*
X379367Y31441D01*
X379306Y31623D01*
X379246Y31806D01*
X379242Y31814D01*
X379239Y31822D01*
X379142Y31990D01*
X379048Y32157D01*
X379042Y32164D01*
X379038Y32171D01*
X378823Y32424D01*
X378327Y32920D01*
X376935Y36281D01*
X376935Y39919D01*
X378327Y43280D01*
X380900Y45853D01*
X384261Y47245D01*
X403139Y47245D01*
X406500Y45853D01*
X409073Y43280D01*
X409226Y42911D01*
X409236Y42891D01*
X409243Y42870D01*
X409331Y42714D01*
X409416Y42556D01*
X409430Y42539D01*
X409441Y42519D01*
X409558Y42383D01*
X409672Y42245D01*
X409689Y42231D01*
X409704Y42214D01*
X409845Y42105D01*
X409985Y41992D01*
X410005Y41981D01*
X410022Y41968D01*
X410182Y41888D01*
X410341Y41805D01*
X410363Y41798D01*
X410383Y41788D01*
X410556Y41742D01*
X410728Y41692D01*
X410750Y41690D01*
X410771Y41684D01*
X411102Y41657D01*
X416785Y41657D01*
X416812Y41659D01*
X416839Y41657D01*
X417013Y41679D01*
X417186Y41697D01*
X417211Y41704D01*
X417238Y41708D01*
X417404Y41763D01*
X417571Y41815D01*
X417594Y41828D01*
X417620Y41836D01*
X417771Y41923D01*
X417925Y42007D01*
X417945Y42024D01*
X417969Y42037D01*
X418222Y42252D01*
X427648Y51678D01*
X427665Y51699D01*
X427686Y51717D01*
X427793Y51854D01*
X427903Y51990D01*
X427916Y52013D01*
X427932Y52035D01*
X428010Y52192D01*
X428092Y52346D01*
X428100Y52371D01*
X428112Y52395D01*
X428157Y52565D01*
X428207Y52731D01*
X428209Y52758D01*
X428216Y52784D01*
X428243Y53115D01*
X428243Y99285D01*
X428241Y99312D01*
X428243Y99339D01*
X428221Y99513D01*
X428203Y99686D01*
X428196Y99711D01*
X428192Y99738D01*
X428137Y99904D01*
X428085Y100071D01*
X428072Y100094D01*
X428064Y100120D01*
X427977Y100271D01*
X427893Y100425D01*
X427876Y100445D01*
X427863Y100469D01*
X427648Y100722D01*
X397394Y130976D01*
X397373Y130993D01*
X397355Y131014D01*
X397218Y131121D01*
X397082Y131231D01*
X397059Y131244D01*
X397037Y131260D01*
X396880Y131338D01*
X396726Y131420D01*
X396701Y131428D01*
X396677Y131440D01*
X396507Y131485D01*
X396341Y131535D01*
X396314Y131537D01*
X396288Y131544D01*
X395957Y131571D01*
X385479Y131571D01*
X382491Y132809D01*
X380205Y135095D01*
X378967Y138083D01*
X378967Y140433D01*
X378966Y140442D01*
X378967Y140451D01*
X378946Y140643D01*
X378927Y140834D01*
X378925Y140843D01*
X378924Y140851D01*
X378866Y141034D01*
X378809Y141219D01*
X378805Y141227D01*
X378802Y141235D01*
X378709Y141404D01*
X378617Y141573D01*
X378612Y141580D01*
X378607Y141588D01*
X378483Y141735D01*
X378360Y141882D01*
X378353Y141888D01*
X378347Y141895D01*
X378196Y142014D01*
X378046Y142135D01*
X378038Y142139D01*
X378031Y142144D01*
X377859Y142232D01*
X377689Y142320D01*
X377680Y142323D01*
X377672Y142327D01*
X377486Y142379D01*
X377302Y142431D01*
X377293Y142432D01*
X377284Y142435D01*
X377091Y142449D01*
X376900Y142464D01*
X376892Y142463D01*
X376883Y142464D01*
X376690Y142440D01*
X376501Y142417D01*
X376492Y142415D01*
X376483Y142414D01*
X376300Y142352D01*
X376118Y142293D01*
X376110Y142288D01*
X376102Y142285D01*
X375935Y142189D01*
X375767Y142095D01*
X375760Y142089D01*
X375753Y142084D01*
X375500Y141870D01*
X372452Y138822D01*
X372435Y138801D01*
X372414Y138783D01*
X372308Y138646D01*
X372197Y138510D01*
X372184Y138486D01*
X372168Y138465D01*
X372090Y138309D01*
X372008Y138154D01*
X372000Y138129D01*
X371988Y138105D01*
X371943Y137936D01*
X371893Y137769D01*
X371891Y137742D01*
X371884Y137716D01*
X371857Y137385D01*
X371857Y116615D01*
X371859Y116588D01*
X371857Y116561D01*
X371879Y116387D01*
X371897Y116214D01*
X371904Y116189D01*
X371908Y116162D01*
X371963Y115996D01*
X372015Y115829D01*
X372028Y115806D01*
X372036Y115780D01*
X372123Y115629D01*
X372207Y115475D01*
X372224Y115455D01*
X372237Y115431D01*
X372452Y115178D01*
X388990Y98640D01*
X389011Y98623D01*
X389029Y98602D01*
X389166Y98495D01*
X389302Y98385D01*
X389325Y98372D01*
X389347Y98356D01*
X389504Y98278D01*
X389658Y98196D01*
X389683Y98188D01*
X389707Y98176D01*
X389877Y98131D01*
X390043Y98081D01*
X390070Y98079D01*
X390096Y98072D01*
X390427Y98045D01*
X403139Y98045D01*
X406500Y96653D01*
X409073Y94080D01*
X410465Y90719D01*
X410465Y87081D01*
X409073Y83720D01*
X406500Y81147D01*
X403139Y79755D01*
X384261Y79755D01*
X380900Y81147D01*
X378327Y83720D01*
X376935Y87081D01*
X376935Y90719D01*
X378327Y94080D01*
X379472Y95225D01*
X379484Y95239D01*
X379497Y95250D01*
X379611Y95395D01*
X379727Y95537D01*
X379736Y95552D01*
X379747Y95566D01*
X379830Y95731D01*
X379916Y95892D01*
X379921Y95909D01*
X379929Y95925D01*
X379979Y96103D01*
X380031Y96278D01*
X380032Y96296D01*
X380037Y96313D01*
X380051Y96496D01*
X380067Y96679D01*
X380065Y96697D01*
X380067Y96715D01*
X380044Y96897D01*
X380024Y97079D01*
X380018Y97096D01*
X380016Y97114D01*
X379958Y97287D01*
X379902Y97463D01*
X379894Y97479D01*
X379888Y97496D01*
X379796Y97655D01*
X379708Y97816D01*
X379696Y97829D01*
X379687Y97845D01*
X379472Y98098D01*
X364743Y112827D01*
X364743Y141173D01*
X380699Y157129D01*
X380710Y157143D01*
X380724Y157154D01*
X380838Y157299D01*
X380954Y157440D01*
X380962Y157456D01*
X380973Y157470D01*
X381057Y157634D01*
X381143Y157796D01*
X381148Y157813D01*
X381156Y157829D01*
X381205Y158006D01*
X381257Y158182D01*
X381259Y158200D01*
X381264Y158217D01*
X381277Y158400D01*
X381294Y158583D01*
X381292Y158601D01*
X381293Y158618D01*
X381270Y158800D01*
X381250Y158983D01*
X381245Y159000D01*
X381243Y159018D01*
X381184Y159191D01*
X381129Y159367D01*
X381120Y159383D01*
X381114Y159400D01*
X381022Y159559D01*
X380934Y159719D01*
X380922Y159733D01*
X380913Y159748D01*
X380699Y160001D01*
X380205Y160495D01*
X378967Y163483D01*
X378967Y166717D01*
X380205Y169705D01*
X380699Y170199D01*
X380710Y170212D01*
X380724Y170224D01*
X380837Y170368D01*
X380954Y170510D01*
X380962Y170526D01*
X380973Y170540D01*
X381056Y170703D01*
X381143Y170866D01*
X381148Y170883D01*
X381156Y170899D01*
X381205Y171075D01*
X381257Y171252D01*
X381259Y171269D01*
X381264Y171287D01*
X381277Y171470D01*
X381294Y171653D01*
X381292Y171670D01*
X381293Y171688D01*
X381270Y171871D01*
X381250Y172053D01*
X381245Y172070D01*
X381243Y172088D01*
X381184Y172262D01*
X381129Y172437D01*
X381120Y172452D01*
X381114Y172469D01*
X381023Y172629D01*
X380934Y172789D01*
X380922Y172803D01*
X380914Y172818D01*
X380699Y173071D01*
X364743Y189027D01*
X364743Y230073D01*
X367422Y232752D01*
X380699Y246029D01*
X380710Y246043D01*
X380724Y246054D01*
X380838Y246199D01*
X380954Y246340D01*
X380962Y246356D01*
X380973Y246370D01*
X381057Y246534D01*
X381143Y246696D01*
X381148Y246713D01*
X381156Y246729D01*
X381205Y246906D01*
X381257Y247082D01*
X381259Y247100D01*
X381264Y247117D01*
X381277Y247300D01*
X381294Y247483D01*
X381292Y247501D01*
X381293Y247518D01*
X381270Y247700D01*
X381250Y247883D01*
X381245Y247900D01*
X381243Y247918D01*
X381184Y248091D01*
X381129Y248267D01*
X381120Y248283D01*
X381114Y248300D01*
X381022Y248459D01*
X380934Y248619D01*
X380922Y248633D01*
X380913Y248648D01*
X380699Y248901D01*
X380205Y249395D01*
X378967Y252383D01*
X378967Y255617D01*
X380205Y258605D01*
X382491Y260891D01*
X385479Y262129D01*
X401921Y262129D01*
X404909Y260891D01*
X407249Y258551D01*
X407300Y258456D01*
X407314Y258439D01*
X407325Y258419D01*
X407442Y258284D01*
X407556Y258145D01*
X407574Y258131D01*
X407588Y258114D01*
X407730Y258005D01*
X407869Y257892D01*
X407889Y257881D01*
X407906Y257868D01*
X408067Y257788D01*
X408226Y257705D01*
X408247Y257698D01*
X408267Y257688D01*
X408441Y257642D01*
X408612Y257592D01*
X408634Y257590D01*
X408656Y257584D01*
X408986Y257557D01*
X420573Y257557D01*
X491606Y186524D01*
X491627Y186507D01*
X491645Y186486D01*
X491782Y186379D01*
X491918Y186269D01*
X491941Y186256D01*
X491963Y186240D01*
X492120Y186162D01*
X492274Y186080D01*
X492299Y186072D01*
X492323Y186060D01*
X492493Y186015D01*
X492659Y185965D01*
X492686Y185963D01*
X492712Y185956D01*
X493043Y185929D01*
X498667Y185929D01*
X503429Y181167D01*
X503429Y174433D01*
X499452Y170456D01*
X499435Y170435D01*
X499414Y170418D01*
X499307Y170280D01*
X499197Y170144D01*
X499184Y170121D01*
X499168Y170100D01*
X499090Y169943D01*
X499008Y169789D01*
X499000Y169763D01*
X498988Y169739D01*
X498943Y169570D01*
X498893Y169403D01*
X498891Y169376D01*
X498884Y169350D01*
X498857Y169020D01*
X498857Y125527D01*
X478160Y104830D01*
X478143Y104809D01*
X478122Y104792D01*
X478015Y104654D01*
X477905Y104518D01*
X477892Y104495D01*
X477876Y104473D01*
X477798Y104316D01*
X477716Y104162D01*
X477708Y104137D01*
X477696Y104113D01*
X477651Y103943D01*
X477601Y103777D01*
X477599Y103750D01*
X477592Y103724D01*
X477565Y103393D01*
X477565Y99807D01*
X477567Y99780D01*
X477565Y99753D01*
X477587Y99579D01*
X477605Y99406D01*
X477612Y99381D01*
X477616Y99354D01*
X477671Y99188D01*
X477723Y99021D01*
X477736Y98998D01*
X477744Y98972D01*
X477831Y98821D01*
X477915Y98667D01*
X477932Y98647D01*
X477945Y98623D01*
X478160Y98370D01*
X546978Y29552D01*
X546999Y29535D01*
X547017Y29514D01*
X547154Y29407D01*
X547290Y29297D01*
X547313Y29284D01*
X547335Y29268D01*
X547492Y29190D01*
X547646Y29108D01*
X547671Y29100D01*
X547695Y29088D01*
X547865Y29043D01*
X548031Y28993D01*
X548058Y28991D01*
X548084Y28984D01*
X548415Y28957D01*
X734285Y28957D01*
X734312Y28959D01*
X734339Y28957D01*
X734513Y28979D01*
X734686Y28997D01*
X734711Y29004D01*
X734738Y29008D01*
X734904Y29063D01*
X735071Y29115D01*
X735094Y29128D01*
X735120Y29136D01*
X735271Y29223D01*
X735425Y29307D01*
X735445Y29324D01*
X735469Y29337D01*
X735722Y29552D01*
X780847Y74677D01*
X830805Y74677D01*
X830832Y74679D01*
X830859Y74677D01*
X831033Y74699D01*
X831206Y74717D01*
X831232Y74724D01*
X831258Y74728D01*
X831424Y74783D01*
X831591Y74835D01*
X831615Y74848D01*
X831640Y74856D01*
X831791Y74943D01*
X831945Y75027D01*
X831965Y75044D01*
X831989Y75057D01*
X832242Y75272D01*
X895798Y138828D01*
X895815Y138849D01*
X895836Y138867D01*
X895943Y139004D01*
X896053Y139140D01*
X896066Y139163D01*
X896082Y139185D01*
X896160Y139342D01*
X896242Y139496D01*
X896250Y139521D01*
X896262Y139545D01*
X896307Y139715D01*
X896357Y139881D01*
X896359Y139908D01*
X896366Y139934D01*
X896393Y140265D01*
X896393Y140756D01*
X897201Y142706D01*
X898694Y144199D01*
X900644Y145007D01*
X902756Y145007D01*
X904706Y144199D01*
X906199Y142706D01*
X907007Y140756D01*
X907007Y138644D01*
X906199Y136694D01*
X904706Y135201D01*
X902756Y134393D01*
X902265Y134393D01*
X902238Y134391D01*
X902211Y134393D01*
X902037Y134371D01*
X901864Y134353D01*
X901839Y134346D01*
X901812Y134342D01*
X901646Y134287D01*
X901479Y134235D01*
X901456Y134222D01*
X901430Y134214D01*
X901279Y134127D01*
X901125Y134043D01*
X901105Y134026D01*
X901081Y134013D01*
X900828Y133798D01*
X837272Y70242D01*
X834593Y67563D01*
X784635Y67563D01*
X784608Y67561D01*
X784581Y67563D01*
X784407Y67541D01*
X784234Y67523D01*
X784209Y67516D01*
X784182Y67512D01*
X784016Y67457D01*
X783849Y67405D01*
X783826Y67392D01*
X783800Y67384D01*
X783649Y67297D01*
X783495Y67213D01*
X783475Y67196D01*
X783451Y67183D01*
X783198Y66968D01*
X738073Y21843D01*
X544627Y21843D01*
X473130Y93340D01*
X473109Y93357D01*
X473091Y93378D01*
X472954Y93485D01*
X472818Y93595D01*
X472795Y93608D01*
X472773Y93624D01*
X472616Y93702D01*
X472462Y93784D01*
X472437Y93792D01*
X472413Y93804D01*
X472243Y93849D01*
X472077Y93899D01*
X472050Y93901D01*
X472024Y93908D01*
X471693Y93935D01*
X468375Y93935D01*
X465558Y95102D01*
X463402Y97258D01*
X462235Y100075D01*
X462235Y103125D01*
X463402Y105942D01*
X465558Y108098D01*
X468375Y109265D01*
X471693Y109265D01*
X471720Y109267D01*
X471747Y109265D01*
X471921Y109287D01*
X472094Y109305D01*
X472120Y109312D01*
X472146Y109316D01*
X472312Y109372D01*
X472479Y109423D01*
X472503Y109436D01*
X472528Y109444D01*
X472679Y109531D01*
X472833Y109615D01*
X472853Y109632D01*
X472877Y109645D01*
X473130Y109860D01*
X491148Y127878D01*
X491165Y127899D01*
X491186Y127917D01*
X491293Y128054D01*
X491403Y128190D01*
X491416Y128213D01*
X491432Y128235D01*
X491510Y128392D01*
X491592Y128546D01*
X491600Y128571D01*
X491612Y128595D01*
X491657Y128765D01*
X491707Y128931D01*
X491709Y128958D01*
X491716Y128984D01*
X491743Y129315D01*
X491743Y169020D01*
X491741Y169046D01*
X491743Y169073D01*
X491721Y169247D01*
X491703Y169420D01*
X491696Y169446D01*
X491692Y169472D01*
X491637Y169638D01*
X491585Y169805D01*
X491572Y169829D01*
X491564Y169854D01*
X491477Y170006D01*
X491393Y170159D01*
X491376Y170180D01*
X491363Y170203D01*
X491148Y170456D01*
X487171Y174433D01*
X487171Y180057D01*
X487169Y180084D01*
X487171Y180111D01*
X487149Y180285D01*
X487131Y180458D01*
X487124Y180483D01*
X487120Y180510D01*
X487065Y180676D01*
X487013Y180843D01*
X487000Y180866D01*
X486992Y180892D01*
X486905Y181043D01*
X486821Y181197D01*
X486804Y181217D01*
X486791Y181241D01*
X486576Y181494D01*
X418222Y249848D01*
X418201Y249865D01*
X418183Y249886D01*
X418046Y249993D01*
X417910Y250103D01*
X417887Y250116D01*
X417865Y250132D01*
X417708Y250210D01*
X417554Y250292D01*
X417529Y250300D01*
X417505Y250312D01*
X417335Y250357D01*
X417169Y250407D01*
X417142Y250409D01*
X417116Y250416D01*
X416785Y250443D01*
X408986Y250443D01*
X408964Y250441D01*
X408942Y250443D01*
X408765Y250421D01*
X408586Y250403D01*
X408565Y250397D01*
X408542Y250394D01*
X408373Y250338D01*
X408201Y250285D01*
X408181Y250275D01*
X408160Y250268D01*
X408005Y250179D01*
X407847Y250093D01*
X407830Y250079D01*
X407810Y250068D01*
X407675Y249950D01*
X407538Y249836D01*
X407524Y249818D01*
X407507Y249804D01*
X407398Y249662D01*
X407285Y249522D01*
X407275Y249502D01*
X407261Y249484D01*
X407237Y249438D01*
X404909Y247109D01*
X401921Y245871D01*
X391443Y245871D01*
X391416Y245869D01*
X391389Y245871D01*
X391215Y245849D01*
X391042Y245831D01*
X391016Y245824D01*
X390990Y245820D01*
X390824Y245765D01*
X390657Y245713D01*
X390633Y245700D01*
X390608Y245692D01*
X390457Y245605D01*
X390303Y245521D01*
X390283Y245504D01*
X390259Y245491D01*
X390006Y245276D01*
X384926Y240196D01*
X384921Y240189D01*
X384914Y240184D01*
X384793Y240034D01*
X384671Y239885D01*
X384667Y239877D01*
X384661Y239870D01*
X384573Y239699D01*
X384483Y239529D01*
X384480Y239521D01*
X384476Y239513D01*
X384422Y239326D01*
X384368Y239143D01*
X384367Y239134D01*
X384365Y239126D01*
X384349Y238934D01*
X384331Y238742D01*
X384332Y238733D01*
X384332Y238724D01*
X384354Y238535D01*
X384375Y238342D01*
X384378Y238333D01*
X384379Y238325D01*
X384438Y238143D01*
X384496Y237958D01*
X384501Y237950D01*
X384503Y237942D01*
X384598Y237773D01*
X384691Y237606D01*
X384697Y237599D01*
X384701Y237591D01*
X384827Y237445D01*
X384952Y237299D01*
X384959Y237293D01*
X384964Y237286D01*
X385116Y237169D01*
X385268Y237049D01*
X385276Y237045D01*
X385283Y237040D01*
X385455Y236954D01*
X385626Y236867D01*
X385635Y236864D01*
X385643Y236860D01*
X385830Y236810D01*
X386014Y236759D01*
X386023Y236758D01*
X386032Y236756D01*
X386363Y236729D01*
X401921Y236729D01*
X404909Y235491D01*
X407195Y233205D01*
X408433Y230217D01*
X408433Y226983D01*
X407195Y223995D01*
X406701Y223501D01*
X406690Y223488D01*
X406676Y223476D01*
X406563Y223332D01*
X406446Y223190D01*
X406438Y223174D01*
X406427Y223160D01*
X406344Y222997D01*
X406257Y222834D01*
X406252Y222817D01*
X406244Y222801D01*
X406195Y222624D01*
X406143Y222448D01*
X406141Y222431D01*
X406136Y222413D01*
X406123Y222230D01*
X406106Y222047D01*
X406108Y222030D01*
X406107Y222012D01*
X406130Y221829D01*
X406150Y221647D01*
X406155Y221630D01*
X406157Y221612D01*
X406216Y221438D01*
X406271Y221263D01*
X406280Y221248D01*
X406286Y221231D01*
X406377Y221071D01*
X406466Y220911D01*
X406478Y220897D01*
X406486Y220882D01*
X406701Y220629D01*
X419978Y207352D01*
X422657Y204673D01*
X422657Y163627D01*
X406701Y147671D01*
X406690Y147657D01*
X406676Y147646D01*
X406562Y147501D01*
X406446Y147360D01*
X406438Y147344D01*
X406427Y147330D01*
X406343Y147166D01*
X406257Y147004D01*
X406252Y146987D01*
X406244Y146971D01*
X406195Y146794D01*
X406143Y146618D01*
X406141Y146600D01*
X406136Y146583D01*
X406123Y146400D01*
X406106Y146217D01*
X406108Y146199D01*
X406107Y146182D01*
X406130Y146000D01*
X406150Y145817D01*
X406155Y145800D01*
X406157Y145782D01*
X406216Y145608D01*
X406271Y145433D01*
X406280Y145417D01*
X406286Y145400D01*
X406378Y145241D01*
X406466Y145081D01*
X406478Y145067D01*
X406487Y145052D01*
X406701Y144799D01*
X407195Y144305D01*
X408433Y141317D01*
X408433Y138083D01*
X407195Y135095D01*
X406701Y134601D01*
X406690Y134588D01*
X406676Y134576D01*
X406563Y134432D01*
X406446Y134290D01*
X406438Y134274D01*
X406427Y134260D01*
X406344Y134097D01*
X406257Y133934D01*
X406252Y133917D01*
X406244Y133901D01*
X406195Y133725D01*
X406143Y133548D01*
X406141Y133531D01*
X406136Y133513D01*
X406123Y133330D01*
X406106Y133147D01*
X406108Y133130D01*
X406107Y133112D01*
X406130Y132930D01*
X406150Y132747D01*
X406155Y132730D01*
X406157Y132712D01*
X406216Y132538D01*
X406271Y132363D01*
X406280Y132348D01*
X406286Y132331D01*
X406377Y132171D01*
X406466Y132011D01*
X406478Y131997D01*
X406486Y131982D01*
X406701Y131729D01*
X435357Y103073D01*
X435357Y51591D01*
X435358Y51582D01*
X435357Y51573D01*
X435378Y51379D01*
X435397Y51190D01*
X435399Y51182D01*
X435400Y51173D01*
X435459Y50988D01*
X435515Y50805D01*
X435519Y50797D01*
X435522Y50789D01*
X435615Y50620D01*
X435707Y50451D01*
X435712Y50444D01*
X435717Y50436D01*
X435841Y50289D01*
X435964Y50142D01*
X435971Y50136D01*
X435977Y50129D01*
X436129Y50010D01*
X436278Y49889D01*
X436286Y49885D01*
X436293Y49880D01*
X436466Y49792D01*
X436635Y49704D01*
X436644Y49701D01*
X436652Y49697D01*
X436838Y49645D01*
X437022Y49593D01*
X437031Y49592D01*
X437040Y49589D01*
X437233Y49575D01*
X437424Y49560D01*
X437432Y49561D01*
X437441Y49560D01*
X437634Y49584D01*
X437823Y49607D01*
X437832Y49609D01*
X437841Y49610D01*
X438023Y49672D01*
X438206Y49731D01*
X438214Y49736D01*
X438222Y49739D01*
X438389Y49835D01*
X438557Y49929D01*
X438564Y49935D01*
X438571Y49940D01*
X438824Y50154D01*
X461640Y72970D01*
X461657Y72991D01*
X461678Y73009D01*
X461785Y73146D01*
X461895Y73282D01*
X461908Y73305D01*
X461924Y73327D01*
X462002Y73484D01*
X462084Y73638D01*
X462092Y73663D01*
X462104Y73687D01*
X462149Y73857D01*
X462199Y74023D01*
X462201Y74050D01*
X462208Y74076D01*
X462235Y74407D01*
X462235Y77993D01*
X462233Y78020D01*
X462235Y78047D01*
X462213Y78221D01*
X462195Y78394D01*
X462188Y78419D01*
X462184Y78446D01*
X462129Y78612D01*
X462077Y78779D01*
X462064Y78802D01*
X462056Y78828D01*
X461969Y78979D01*
X461885Y79133D01*
X461868Y79153D01*
X461855Y79177D01*
X461640Y79430D01*
X440943Y100127D01*
X440943Y169020D01*
X440941Y169046D01*
X440943Y169073D01*
X440921Y169247D01*
X440903Y169420D01*
X440896Y169446D01*
X440892Y169472D01*
X440836Y169638D01*
X440785Y169805D01*
X440772Y169829D01*
X440764Y169854D01*
X440677Y170006D01*
X440593Y170159D01*
X440576Y170180D01*
X440563Y170203D01*
X440348Y170456D01*
X436371Y174433D01*
X436371Y181167D01*
X441133Y185929D01*
X447867Y185929D01*
X452629Y181167D01*
X452629Y174433D01*
X448652Y170456D01*
X448635Y170435D01*
X448614Y170418D01*
X448507Y170280D01*
X448397Y170144D01*
X448384Y170121D01*
X448368Y170100D01*
X448290Y169943D01*
X448208Y169789D01*
X448200Y169763D01*
X448188Y169739D01*
X448143Y169570D01*
X448093Y169403D01*
X448091Y169376D01*
X448084Y169350D01*
X448057Y169020D01*
X448057Y103915D01*
X448059Y103888D01*
X448057Y103861D01*
X448079Y103687D01*
X448097Y103514D01*
X448104Y103489D01*
X448108Y103462D01*
X448163Y103296D01*
X448215Y103129D01*
X448228Y103106D01*
X448236Y103080D01*
X448323Y102929D01*
X448407Y102775D01*
X448424Y102755D01*
X448437Y102731D01*
X448652Y102478D01*
X466670Y84460D01*
X466691Y84443D01*
X466709Y84422D01*
X466846Y84315D01*
X466982Y84205D01*
X467005Y84192D01*
X467027Y84176D01*
X467184Y84098D01*
X467338Y84016D01*
X467363Y84008D01*
X467387Y83996D01*
X467557Y83951D01*
X467723Y83901D01*
X467750Y83899D01*
X467776Y83892D01*
X468107Y83865D01*
X471425Y83865D01*
X474242Y82698D01*
X476398Y80542D01*
X477565Y77725D01*
X477565Y74675D01*
X476398Y71858D01*
X474242Y69702D01*
X471425Y68535D01*
X468107Y68535D01*
X468080Y68533D01*
X468053Y68535D01*
X467879Y68513D01*
X467706Y68495D01*
X467681Y68488D01*
X467654Y68484D01*
X467488Y68429D01*
X467321Y68377D01*
X467298Y68364D01*
X467272Y68356D01*
X467121Y68269D01*
X466967Y68185D01*
X466947Y68168D01*
X466923Y68155D01*
X466670Y67940D01*
X420573Y21843D01*
X176327Y21843D01*
X52340Y145830D01*
X52319Y145847D01*
X52301Y145868D01*
X52164Y145975D01*
X52028Y146085D01*
X52005Y146098D01*
X51983Y146114D01*
X51826Y146192D01*
X51672Y146274D01*
X51647Y146282D01*
X51623Y146294D01*
X51453Y146339D01*
X51287Y146389D01*
X51260Y146391D01*
X51234Y146398D01*
X50903Y146425D01*
X13968Y146425D01*
X13628Y146765D01*
X13621Y146771D01*
X13616Y146778D01*
X13467Y146898D01*
X13317Y147020D01*
X13309Y147025D01*
X13302Y147030D01*
X13132Y147118D01*
X12961Y147209D01*
X12952Y147212D01*
X12945Y147216D01*
X12760Y147269D01*
X12575Y147324D01*
X12566Y147325D01*
X12558Y147327D01*
X12367Y147343D01*
X12174Y147360D01*
X12165Y147359D01*
X12156Y147360D01*
X11967Y147338D01*
X11774Y147317D01*
X11765Y147314D01*
X11757Y147313D01*
X11574Y147253D01*
X11390Y147195D01*
X11382Y147191D01*
X11374Y147188D01*
X11205Y147093D01*
X11038Y147001D01*
X11031Y146995D01*
X11023Y146990D01*
X10877Y146864D01*
X10731Y146740D01*
X10725Y146733D01*
X10718Y146727D01*
X10600Y146575D01*
X10481Y146424D01*
X10477Y146416D01*
X10472Y146409D01*
X10386Y146237D01*
X10299Y146065D01*
X10296Y146057D01*
X10292Y146049D01*
X10243Y145863D01*
X10191Y145677D01*
X10190Y145668D01*
X10188Y145660D01*
X10161Y145329D01*
X10161Y83271D01*
X10162Y83262D01*
X10161Y83253D01*
X10161Y83251D01*
X10161Y83250D01*
X10162Y83243D01*
X10182Y83061D01*
X10201Y82870D01*
X10203Y82862D01*
X10204Y82853D01*
X10262Y82671D01*
X10319Y82485D01*
X10323Y82477D01*
X10326Y82469D01*
X10419Y82301D01*
X10511Y82131D01*
X10516Y82125D01*
X10521Y82117D01*
X10646Y81969D01*
X10768Y81822D01*
X10775Y81817D01*
X10781Y81810D01*
X10933Y81690D01*
X11082Y81570D01*
X11090Y81566D01*
X11097Y81560D01*
X11270Y81472D01*
X11439Y81384D01*
X11448Y81382D01*
X11456Y81378D01*
X11641Y81326D01*
X11826Y81273D01*
X11835Y81272D01*
X11844Y81270D01*
X12036Y81256D01*
X12228Y81240D01*
X12236Y81241D01*
X12245Y81240D01*
X12437Y81264D01*
X12627Y81287D01*
X12636Y81290D01*
X12645Y81291D01*
X12827Y81352D01*
X13010Y81412D01*
X13018Y81416D01*
X13026Y81419D01*
X13194Y81515D01*
X13361Y81610D01*
X13368Y81615D01*
X13375Y81620D01*
X13628Y81835D01*
X13968Y82175D01*
X62232Y82175D01*
X63125Y81282D01*
X63125Y71120D01*
X63127Y71102D01*
X63125Y71084D01*
X63146Y70902D01*
X63165Y70719D01*
X63170Y70702D01*
X63172Y70685D01*
X63229Y70510D01*
X63283Y70334D01*
X63291Y70319D01*
X63297Y70302D01*
X63387Y70142D01*
X63475Y69980D01*
X63486Y69967D01*
X63495Y69951D01*
X63615Y69812D01*
X63732Y69671D01*
X63746Y69660D01*
X63758Y69646D01*
X63903Y69534D01*
X64046Y69419D01*
X64062Y69411D01*
X64076Y69400D01*
X64241Y69318D01*
X64403Y69233D01*
X64420Y69228D01*
X64436Y69220D01*
X64615Y69173D01*
X64790Y69122D01*
X64808Y69120D01*
X64825Y69116D01*
X65156Y69089D01*
X77312Y69089D01*
X79366Y68238D01*
X80938Y66666D01*
X81789Y64612D01*
X81789Y62388D01*
X80938Y60334D01*
X79366Y58762D01*
X77312Y57911D01*
X65156Y57911D01*
X65138Y57909D01*
X65120Y57911D01*
X64938Y57890D01*
X64755Y57871D01*
X64738Y57866D01*
X64721Y57864D01*
X64546Y57807D01*
X64370Y57753D01*
X64355Y57745D01*
X64338Y57739D01*
X64178Y57649D01*
X64016Y57561D01*
X64003Y57550D01*
X63987Y57541D01*
X63848Y57421D01*
X63707Y57304D01*
X63696Y57290D01*
X63682Y57278D01*
X63570Y57133D01*
X63455Y56990D01*
X63447Y56974D01*
X63436Y56960D01*
X63354Y56795D01*
X63269Y56633D01*
X63264Y56616D01*
X63256Y56600D01*
X63209Y56421D01*
X63158Y56246D01*
X63156Y56228D01*
X63152Y56211D01*
X63125Y55880D01*
X63125Y45718D01*
X62232Y44825D01*
X13968Y44825D01*
X13628Y45165D01*
X13621Y45171D01*
X13616Y45178D01*
X13467Y45298D01*
X13317Y45420D01*
X13309Y45425D01*
X13302Y45430D01*
X13132Y45518D01*
X12961Y45609D01*
X12952Y45612D01*
X12945Y45616D01*
X12760Y45669D01*
X12575Y45724D01*
X12566Y45725D01*
X12558Y45727D01*
X12367Y45743D01*
X12174Y45760D01*
X12165Y45759D01*
X12156Y45760D01*
X11967Y45738D01*
X11774Y45717D01*
X11765Y45714D01*
X11757Y45713D01*
X11574Y45653D01*
X11390Y45595D01*
X11382Y45591D01*
X11374Y45588D01*
X11205Y45493D01*
X11038Y45401D01*
X11031Y45395D01*
X11023Y45390D01*
X10877Y45264D01*
X10731Y45140D01*
X10725Y45133D01*
X10718Y45127D01*
X10600Y44975D01*
X10481Y44824D01*
X10477Y44816D01*
X10472Y44809D01*
X10386Y44637D01*
X10299Y44465D01*
X10296Y44457D01*
X10292Y44449D01*
X10243Y44263D01*
X10191Y44077D01*
X10190Y44068D01*
X10188Y44060D01*
X10161Y43729D01*
X10161Y12192D01*
X10163Y12174D01*
X10161Y12156D01*
X10182Y11974D01*
X10201Y11791D01*
X10206Y11774D01*
X10208Y11757D01*
X10265Y11582D01*
X10319Y11406D01*
X10327Y11391D01*
X10333Y11374D01*
X10423Y11214D01*
X10511Y11052D01*
X10522Y11039D01*
X10531Y11023D01*
X10651Y10884D01*
X10768Y10743D01*
X10782Y10732D01*
X10794Y10718D01*
X10939Y10606D01*
X11082Y10491D01*
X11098Y10483D01*
X11112Y10472D01*
X11277Y10390D01*
X11439Y10305D01*
X11456Y10300D01*
X11472Y10292D01*
X11651Y10245D01*
X11826Y10194D01*
X11844Y10192D01*
X11861Y10188D01*
X12192Y10161D01*
X914714Y10161D01*
X914731Y10162D01*
G37*
%LPC*%
G36*
X671496Y80835D02*
X671496Y80835D01*
X668532Y82063D01*
X666263Y84332D01*
X665035Y87296D01*
X665035Y90504D01*
X666263Y93468D01*
X668595Y95800D01*
X668644Y95827D01*
X668661Y95841D01*
X668681Y95852D01*
X668817Y95969D01*
X668954Y96083D01*
X668969Y96100D01*
X668986Y96115D01*
X669095Y96256D01*
X669208Y96396D01*
X669219Y96415D01*
X669232Y96433D01*
X669312Y96593D01*
X669395Y96752D01*
X669402Y96774D01*
X669412Y96794D01*
X669458Y96967D01*
X669508Y97138D01*
X669510Y97161D01*
X669516Y97182D01*
X669543Y97513D01*
X669543Y111985D01*
X669541Y112012D01*
X669543Y112039D01*
X669521Y112213D01*
X669503Y112386D01*
X669496Y112411D01*
X669492Y112438D01*
X669437Y112604D01*
X669385Y112771D01*
X669372Y112794D01*
X669364Y112820D01*
X669277Y112971D01*
X669193Y113125D01*
X669176Y113145D01*
X669163Y113169D01*
X668948Y113422D01*
X592943Y189427D01*
X592943Y219368D01*
X592941Y219390D01*
X592943Y219412D01*
X592921Y219590D01*
X592903Y219768D01*
X592897Y219790D01*
X592894Y219812D01*
X592838Y219981D01*
X592785Y220153D01*
X592775Y220173D01*
X592768Y220194D01*
X592679Y220350D01*
X592593Y220507D01*
X592579Y220524D01*
X592568Y220544D01*
X592450Y220680D01*
X592336Y220816D01*
X592318Y220830D01*
X592304Y220847D01*
X592162Y220957D01*
X592022Y221069D01*
X592002Y221079D01*
X591984Y221093D01*
X591689Y221244D01*
X591608Y221278D01*
X589178Y223708D01*
X587863Y226882D01*
X587863Y230318D01*
X589178Y233492D01*
X591608Y235922D01*
X591689Y235956D01*
X591709Y235966D01*
X591730Y235973D01*
X591886Y236061D01*
X592044Y236146D01*
X592061Y236160D01*
X592081Y236171D01*
X592216Y236288D01*
X592355Y236402D01*
X592369Y236420D01*
X592386Y236434D01*
X592495Y236576D01*
X592608Y236715D01*
X592619Y236735D01*
X592632Y236752D01*
X592712Y236913D01*
X592795Y237071D01*
X592802Y237093D01*
X592812Y237113D01*
X592858Y237286D01*
X592908Y237458D01*
X592910Y237480D01*
X592916Y237502D01*
X592943Y237832D01*
X592943Y252085D01*
X592941Y252112D01*
X592943Y252139D01*
X592921Y252313D01*
X592903Y252486D01*
X592896Y252511D01*
X592892Y252538D01*
X592837Y252704D01*
X592785Y252871D01*
X592772Y252894D01*
X592764Y252920D01*
X592677Y253071D01*
X592593Y253225D01*
X592576Y253245D01*
X592563Y253269D01*
X592348Y253522D01*
X499043Y346827D01*
X499043Y359687D01*
X499041Y359709D01*
X499043Y359731D01*
X499021Y359909D01*
X499003Y360087D01*
X498997Y360109D01*
X498994Y360131D01*
X498938Y360301D01*
X498885Y360472D01*
X498875Y360492D01*
X498868Y360513D01*
X498778Y360669D01*
X498693Y360826D01*
X498679Y360844D01*
X498668Y360863D01*
X498550Y360999D01*
X498436Y361136D01*
X498418Y361150D01*
X498404Y361167D01*
X498261Y361276D01*
X498122Y361388D01*
X498102Y361398D01*
X498084Y361412D01*
X498081Y361414D01*
X495763Y363732D01*
X494477Y366837D01*
X494472Y366845D01*
X494470Y366854D01*
X494378Y367021D01*
X494286Y367192D01*
X494281Y367199D01*
X494276Y367207D01*
X494153Y367353D01*
X494030Y367503D01*
X494023Y367508D01*
X494017Y367515D01*
X493867Y367635D01*
X493717Y367756D01*
X493709Y367761D01*
X493703Y367766D01*
X493531Y367854D01*
X493361Y367943D01*
X493352Y367946D01*
X493344Y367950D01*
X493159Y368002D01*
X492974Y368057D01*
X492966Y368057D01*
X492957Y368060D01*
X492766Y368075D01*
X492573Y368091D01*
X492564Y368090D01*
X492556Y368091D01*
X492363Y368067D01*
X492173Y368046D01*
X492165Y368043D01*
X492156Y368042D01*
X491971Y367981D01*
X491790Y367923D01*
X491782Y367918D01*
X491774Y367916D01*
X491606Y367820D01*
X491438Y367726D01*
X491432Y367721D01*
X491424Y367716D01*
X491278Y367589D01*
X491133Y367465D01*
X491127Y367458D01*
X491120Y367452D01*
X491003Y367299D01*
X490884Y367148D01*
X490880Y367140D01*
X490875Y367133D01*
X490723Y366837D01*
X489437Y363732D01*
X487168Y361463D01*
X484204Y360235D01*
X480996Y360235D01*
X478032Y361463D01*
X475763Y363732D01*
X475589Y364153D01*
X475587Y364157D01*
X475585Y364161D01*
X475492Y364334D01*
X475398Y364508D01*
X475396Y364511D01*
X475393Y364515D01*
X475268Y364666D01*
X475142Y364818D01*
X475139Y364821D01*
X475136Y364824D01*
X474985Y364946D01*
X474829Y365072D01*
X474825Y365074D01*
X474822Y365077D01*
X474650Y365166D01*
X474473Y365259D01*
X474469Y365260D01*
X474465Y365262D01*
X474277Y365316D01*
X474086Y365372D01*
X474082Y365372D01*
X474078Y365374D01*
X473880Y365390D01*
X473685Y365407D01*
X473681Y365406D01*
X473676Y365406D01*
X473481Y365384D01*
X473285Y365361D01*
X473281Y365360D01*
X473277Y365360D01*
X473089Y365298D01*
X472902Y365238D01*
X472898Y365236D01*
X472894Y365235D01*
X472721Y365137D01*
X472550Y365042D01*
X472547Y365039D01*
X472543Y365037D01*
X472393Y364907D01*
X472245Y364780D01*
X472242Y364777D01*
X472238Y364774D01*
X472117Y364617D01*
X471996Y364463D01*
X471994Y364459D01*
X471992Y364456D01*
X471904Y364279D01*
X471816Y364103D01*
X471814Y364099D01*
X471812Y364095D01*
X471761Y363904D01*
X471709Y363715D01*
X471709Y363711D01*
X471708Y363706D01*
X471681Y363376D01*
X471681Y361425D01*
X471508Y360779D01*
X471173Y360200D01*
X470700Y359727D01*
X470121Y359392D01*
X469475Y359219D01*
X464631Y359219D01*
X464631Y368300D01*
X464631Y377381D01*
X469475Y377381D01*
X470121Y377208D01*
X470700Y376873D01*
X471173Y376400D01*
X471508Y375821D01*
X471681Y375175D01*
X471681Y373224D01*
X471681Y373220D01*
X471681Y373216D01*
X471701Y373021D01*
X471721Y372824D01*
X471722Y372820D01*
X471722Y372815D01*
X471781Y372627D01*
X471839Y372439D01*
X471841Y372435D01*
X471842Y372431D01*
X471938Y372256D01*
X472031Y372085D01*
X472033Y372082D01*
X472036Y372078D01*
X472164Y371925D01*
X472288Y371776D01*
X472292Y371773D01*
X472295Y371769D01*
X472450Y371646D01*
X472602Y371523D01*
X472606Y371521D01*
X472610Y371518D01*
X472788Y371427D01*
X472959Y371338D01*
X472964Y371337D01*
X472968Y371334D01*
X473161Y371280D01*
X473346Y371226D01*
X473351Y371226D01*
X473355Y371225D01*
X473551Y371210D01*
X473748Y371194D01*
X473752Y371194D01*
X473756Y371194D01*
X473950Y371217D01*
X474147Y371240D01*
X474152Y371242D01*
X474156Y371242D01*
X474341Y371304D01*
X474530Y371365D01*
X474534Y371368D01*
X474538Y371369D01*
X474707Y371465D01*
X474881Y371563D01*
X474884Y371566D01*
X474888Y371568D01*
X475035Y371696D01*
X475185Y371826D01*
X475188Y371830D01*
X475192Y371833D01*
X475314Y371992D01*
X475432Y372144D01*
X475434Y372148D01*
X475437Y372152D01*
X475589Y372447D01*
X475763Y372868D01*
X478032Y375137D01*
X480996Y376365D01*
X484294Y376365D01*
X484347Y376349D01*
X484369Y376347D01*
X484391Y376341D01*
X484570Y376327D01*
X484748Y376311D01*
X484770Y376313D01*
X484792Y376311D01*
X484971Y376334D01*
X485149Y376352D01*
X485170Y376359D01*
X485192Y376362D01*
X485362Y376419D01*
X485533Y376472D01*
X485552Y376483D01*
X485574Y376490D01*
X485729Y376579D01*
X485886Y376665D01*
X485903Y376680D01*
X485922Y376691D01*
X486175Y376905D01*
X506527Y397257D01*
X623773Y397257D01*
X626451Y394579D01*
X626452Y394578D01*
X644125Y376905D01*
X644142Y376891D01*
X644157Y376874D01*
X644298Y376764D01*
X644436Y376650D01*
X644456Y376640D01*
X644474Y376626D01*
X644634Y376545D01*
X644792Y376462D01*
X644813Y376455D01*
X644833Y376445D01*
X645006Y376398D01*
X645178Y376347D01*
X645200Y376345D01*
X645222Y376339D01*
X645400Y376327D01*
X645579Y376311D01*
X645601Y376313D01*
X645623Y376311D01*
X645800Y376335D01*
X645979Y376354D01*
X646000Y376361D01*
X646023Y376364D01*
X646026Y376365D01*
X649304Y376365D01*
X652268Y375137D01*
X654537Y372868D01*
X655765Y369904D01*
X655765Y366696D01*
X654537Y363732D01*
X652268Y361463D01*
X649304Y360235D01*
X646096Y360235D01*
X643132Y361463D01*
X640863Y363732D01*
X639577Y366837D01*
X639572Y366845D01*
X639570Y366854D01*
X639478Y367021D01*
X639386Y367192D01*
X639381Y367199D01*
X639376Y367207D01*
X639253Y367353D01*
X639130Y367503D01*
X639123Y367508D01*
X639117Y367515D01*
X638967Y367635D01*
X638817Y367756D01*
X638809Y367761D01*
X638803Y367766D01*
X638631Y367854D01*
X638461Y367943D01*
X638452Y367946D01*
X638444Y367950D01*
X638259Y368002D01*
X638074Y368057D01*
X638066Y368057D01*
X638057Y368060D01*
X637866Y368075D01*
X637673Y368091D01*
X637664Y368090D01*
X637656Y368091D01*
X637463Y368067D01*
X637273Y368046D01*
X637265Y368043D01*
X637256Y368042D01*
X637071Y367981D01*
X636890Y367923D01*
X636882Y367918D01*
X636874Y367916D01*
X636706Y367820D01*
X636538Y367726D01*
X636532Y367721D01*
X636524Y367716D01*
X636378Y367589D01*
X636233Y367465D01*
X636227Y367458D01*
X636220Y367452D01*
X636103Y367299D01*
X635984Y367148D01*
X635980Y367140D01*
X635975Y367133D01*
X635823Y366837D01*
X634537Y363732D01*
X632268Y361463D01*
X629304Y360235D01*
X625699Y360235D01*
X625690Y360234D01*
X625681Y360235D01*
X625487Y360214D01*
X625298Y360195D01*
X625290Y360193D01*
X625281Y360192D01*
X625096Y360133D01*
X624913Y360077D01*
X624905Y360073D01*
X624897Y360070D01*
X624728Y359977D01*
X624559Y359885D01*
X624552Y359880D01*
X624544Y359875D01*
X624397Y359751D01*
X624250Y359628D01*
X624244Y359621D01*
X624237Y359615D01*
X624118Y359463D01*
X623997Y359314D01*
X623993Y359306D01*
X623988Y359299D01*
X623900Y359126D01*
X623812Y358957D01*
X623809Y358948D01*
X623805Y358940D01*
X623753Y358754D01*
X623701Y358570D01*
X623700Y358561D01*
X623697Y358552D01*
X623683Y358359D01*
X623668Y358168D01*
X623669Y358160D01*
X623668Y358151D01*
X623692Y357958D01*
X623715Y357769D01*
X623717Y357760D01*
X623718Y357751D01*
X623780Y357569D01*
X623839Y357386D01*
X623844Y357378D01*
X623847Y357370D01*
X623943Y357203D01*
X624037Y357035D01*
X624043Y357028D01*
X624048Y357021D01*
X624262Y356768D01*
X773678Y207352D01*
X773699Y207335D01*
X773717Y207314D01*
X773854Y207207D01*
X773990Y207097D01*
X774013Y207084D01*
X774035Y207068D01*
X774192Y206990D01*
X774346Y206908D01*
X774371Y206900D01*
X774395Y206888D01*
X774565Y206843D01*
X774731Y206793D01*
X774758Y206791D01*
X774784Y206784D01*
X775115Y206757D01*
X867520Y206757D01*
X867546Y206759D01*
X867573Y206757D01*
X867747Y206779D01*
X867920Y206797D01*
X867946Y206804D01*
X867972Y206808D01*
X868138Y206864D01*
X868305Y206915D01*
X868329Y206928D01*
X868354Y206936D01*
X868506Y207023D01*
X868659Y207107D01*
X868680Y207124D01*
X868703Y207137D01*
X868956Y207352D01*
X872933Y211329D01*
X879667Y211329D01*
X884429Y206567D01*
X884429Y199833D01*
X879667Y195071D01*
X872933Y195071D01*
X868956Y199048D01*
X868935Y199065D01*
X868918Y199086D01*
X868780Y199193D01*
X868644Y199303D01*
X868621Y199316D01*
X868600Y199332D01*
X868443Y199410D01*
X868289Y199492D01*
X868263Y199500D01*
X868239Y199512D01*
X868070Y199557D01*
X867903Y199607D01*
X867876Y199609D01*
X867850Y199616D01*
X867520Y199643D01*
X771327Y199643D01*
X611275Y359695D01*
X611258Y359709D01*
X611243Y359726D01*
X611102Y359836D01*
X610964Y359950D01*
X610944Y359960D01*
X610926Y359974D01*
X610766Y360055D01*
X610608Y360138D01*
X610587Y360145D01*
X610567Y360155D01*
X610394Y360202D01*
X610222Y360253D01*
X610200Y360255D01*
X610178Y360261D01*
X610000Y360273D01*
X609821Y360289D01*
X609799Y360287D01*
X609777Y360289D01*
X609600Y360265D01*
X609421Y360246D01*
X609400Y360239D01*
X609377Y360236D01*
X609374Y360235D01*
X606096Y360235D01*
X603132Y361463D01*
X601437Y363158D01*
X601427Y363166D01*
X601418Y363176D01*
X601271Y363293D01*
X601126Y363413D01*
X601114Y363419D01*
X601103Y363427D01*
X600936Y363513D01*
X600770Y363601D01*
X600757Y363605D01*
X600745Y363611D01*
X600565Y363662D01*
X600384Y363716D01*
X600371Y363717D01*
X600358Y363721D01*
X600172Y363735D01*
X599983Y363752D01*
X599970Y363751D01*
X599956Y363752D01*
X599772Y363730D01*
X599583Y363709D01*
X599570Y363705D01*
X599557Y363703D01*
X599379Y363645D01*
X599199Y363588D01*
X599187Y363581D01*
X599175Y363577D01*
X599012Y363484D01*
X598847Y363393D01*
X598836Y363384D01*
X598825Y363377D01*
X598683Y363254D01*
X598540Y363132D01*
X598531Y363122D01*
X598521Y363113D01*
X598407Y362965D01*
X598290Y362816D01*
X598284Y362804D01*
X598276Y362794D01*
X598124Y362499D01*
X597530Y361064D01*
X593936Y357470D01*
X593638Y357346D01*
X589241Y355525D01*
X584159Y355525D01*
X579464Y357470D01*
X575870Y361064D01*
X573925Y365759D01*
X573925Y370841D01*
X575870Y375536D01*
X579464Y379130D01*
X584159Y381075D01*
X589241Y381075D01*
X593936Y379130D01*
X597530Y375536D01*
X598124Y374101D01*
X598131Y374090D01*
X598135Y374077D01*
X598225Y373913D01*
X598314Y373747D01*
X598323Y373736D01*
X598329Y373724D01*
X598451Y373581D01*
X598571Y373436D01*
X598581Y373428D01*
X598590Y373417D01*
X598738Y373301D01*
X598883Y373182D01*
X598895Y373176D01*
X598906Y373168D01*
X599074Y373083D01*
X599240Y372995D01*
X599253Y372992D01*
X599265Y372986D01*
X599446Y372935D01*
X599626Y372882D01*
X599640Y372881D01*
X599653Y372878D01*
X599841Y372864D01*
X600028Y372848D01*
X600041Y372849D01*
X600054Y372848D01*
X600243Y372872D01*
X600428Y372893D01*
X600440Y372897D01*
X600454Y372899D01*
X600633Y372959D01*
X600811Y373016D01*
X600823Y373023D01*
X600835Y373027D01*
X600998Y373120D01*
X601162Y373212D01*
X601173Y373221D01*
X601184Y373228D01*
X601437Y373442D01*
X603132Y375137D01*
X606096Y376365D01*
X609304Y376365D01*
X612268Y375137D01*
X614537Y372868D01*
X615823Y369763D01*
X615828Y369755D01*
X615830Y369746D01*
X615923Y369576D01*
X616014Y369408D01*
X616019Y369401D01*
X616024Y369393D01*
X616148Y369245D01*
X616270Y369097D01*
X616277Y369092D01*
X616283Y369085D01*
X616434Y368965D01*
X616583Y368844D01*
X616590Y368840D01*
X616598Y368834D01*
X616768Y368747D01*
X616939Y368657D01*
X616948Y368654D01*
X616956Y368650D01*
X617138Y368598D01*
X617326Y368543D01*
X617335Y368543D01*
X617343Y368540D01*
X617534Y368525D01*
X617727Y368509D01*
X617736Y368510D01*
X617744Y368509D01*
X617935Y368532D01*
X618127Y368554D01*
X618135Y368557D01*
X618144Y368558D01*
X618325Y368618D01*
X618510Y368677D01*
X618518Y368682D01*
X618526Y368684D01*
X618692Y368779D01*
X618862Y368874D01*
X618868Y368879D01*
X618876Y368884D01*
X619022Y369011D01*
X619167Y369135D01*
X619173Y369142D01*
X619180Y369148D01*
X619297Y369301D01*
X619416Y369452D01*
X619420Y369460D01*
X619425Y369467D01*
X619577Y369763D01*
X620863Y372868D01*
X623132Y375137D01*
X626096Y376365D01*
X629701Y376365D01*
X629710Y376366D01*
X629719Y376365D01*
X629913Y376386D01*
X630102Y376405D01*
X630110Y376407D01*
X630119Y376408D01*
X630304Y376467D01*
X630487Y376523D01*
X630495Y376527D01*
X630503Y376530D01*
X630672Y376623D01*
X630841Y376715D01*
X630848Y376720D01*
X630856Y376725D01*
X631003Y376849D01*
X631150Y376972D01*
X631156Y376979D01*
X631163Y376985D01*
X631282Y377137D01*
X631403Y377286D01*
X631407Y377294D01*
X631412Y377301D01*
X631500Y377473D01*
X631588Y377643D01*
X631591Y377652D01*
X631595Y377660D01*
X631647Y377846D01*
X631699Y378030D01*
X631700Y378039D01*
X631703Y378048D01*
X631717Y378240D01*
X631732Y378432D01*
X631731Y378440D01*
X631732Y378449D01*
X631708Y378642D01*
X631685Y378831D01*
X631683Y378840D01*
X631682Y378849D01*
X631621Y379030D01*
X631561Y379214D01*
X631556Y379222D01*
X631553Y379230D01*
X631457Y379397D01*
X631363Y379565D01*
X631357Y379572D01*
X631352Y379579D01*
X631138Y379832D01*
X621422Y389548D01*
X621401Y389565D01*
X621384Y389586D01*
X621246Y389693D01*
X621110Y389803D01*
X621087Y389816D01*
X621065Y389832D01*
X620908Y389910D01*
X620754Y389992D01*
X620729Y390000D01*
X620705Y390012D01*
X620535Y390057D01*
X620369Y390107D01*
X620342Y390109D01*
X620316Y390116D01*
X619985Y390143D01*
X510315Y390143D01*
X510288Y390141D01*
X510261Y390143D01*
X510087Y390121D01*
X509914Y390103D01*
X509889Y390096D01*
X509862Y390092D01*
X509696Y390037D01*
X509529Y389985D01*
X509506Y389972D01*
X509480Y389964D01*
X509329Y389877D01*
X509175Y389793D01*
X509155Y389776D01*
X509131Y389763D01*
X508878Y389548D01*
X499162Y379832D01*
X499157Y379825D01*
X499150Y379820D01*
X499029Y379670D01*
X498907Y379521D01*
X498903Y379513D01*
X498897Y379506D01*
X498809Y379336D01*
X498719Y379165D01*
X498716Y379156D01*
X498712Y379149D01*
X498659Y378964D01*
X498604Y378779D01*
X498603Y378770D01*
X498601Y378762D01*
X498585Y378570D01*
X498567Y378378D01*
X498568Y378369D01*
X498568Y378360D01*
X498590Y378169D01*
X498611Y377978D01*
X498614Y377969D01*
X498615Y377961D01*
X498674Y377777D01*
X498732Y377594D01*
X498737Y377586D01*
X498739Y377578D01*
X498834Y377409D01*
X498927Y377242D01*
X498933Y377235D01*
X498937Y377227D01*
X499063Y377081D01*
X499188Y376935D01*
X499195Y376929D01*
X499200Y376922D01*
X499352Y376805D01*
X499504Y376685D01*
X499512Y376681D01*
X499519Y376676D01*
X499691Y376590D01*
X499862Y376503D01*
X499871Y376500D01*
X499879Y376496D01*
X500066Y376446D01*
X500250Y376395D01*
X500259Y376394D01*
X500268Y376392D01*
X500599Y376365D01*
X504204Y376365D01*
X505418Y375862D01*
X505435Y375857D01*
X505451Y375849D01*
X505627Y375799D01*
X505803Y375746D01*
X505821Y375744D01*
X505838Y375739D01*
X506021Y375725D01*
X506204Y375707D01*
X506222Y375709D01*
X506240Y375708D01*
X506421Y375730D01*
X506604Y375749D01*
X506622Y375754D01*
X506639Y375757D01*
X506812Y375814D01*
X506989Y375869D01*
X507005Y375877D01*
X507021Y375883D01*
X507180Y375974D01*
X507342Y376062D01*
X507356Y376074D01*
X507371Y376082D01*
X507510Y376203D01*
X507650Y376321D01*
X507661Y376335D01*
X507675Y376347D01*
X507787Y376492D01*
X507901Y376636D01*
X507909Y376652D01*
X507920Y376666D01*
X508072Y376961D01*
X508628Y378304D01*
X513596Y383272D01*
X520087Y385961D01*
X527113Y385961D01*
X533604Y383272D01*
X538572Y378304D01*
X541261Y371813D01*
X541261Y364787D01*
X538572Y358296D01*
X533604Y353328D01*
X527113Y350639D01*
X520087Y350639D01*
X513596Y353328D01*
X509624Y357300D01*
X509617Y357305D01*
X509612Y357312D01*
X509462Y357433D01*
X509313Y357555D01*
X509305Y357559D01*
X509298Y357565D01*
X509128Y357653D01*
X508957Y357743D01*
X508948Y357746D01*
X508941Y357750D01*
X508756Y357803D01*
X508571Y357858D01*
X508562Y357859D01*
X508554Y357861D01*
X508362Y357877D01*
X508170Y357895D01*
X508161Y357894D01*
X508152Y357894D01*
X507963Y357872D01*
X507770Y357851D01*
X507761Y357848D01*
X507753Y357847D01*
X507571Y357788D01*
X507386Y357730D01*
X507378Y357725D01*
X507370Y357723D01*
X507201Y357628D01*
X507034Y357535D01*
X507027Y357529D01*
X507019Y357525D01*
X506873Y357399D01*
X506727Y357274D01*
X506721Y357267D01*
X506714Y357262D01*
X506597Y357110D01*
X506477Y356958D01*
X506473Y356950D01*
X506468Y356943D01*
X506382Y356771D01*
X506295Y356599D01*
X506292Y356591D01*
X506288Y356583D01*
X506238Y356395D01*
X506187Y356212D01*
X506186Y356203D01*
X506184Y356194D01*
X506157Y355863D01*
X506157Y350615D01*
X506159Y350588D01*
X506157Y350561D01*
X506179Y350387D01*
X506197Y350214D01*
X506204Y350189D01*
X506208Y350162D01*
X506263Y349996D01*
X506315Y349829D01*
X506328Y349806D01*
X506336Y349780D01*
X506423Y349629D01*
X506507Y349475D01*
X506524Y349455D01*
X506537Y349431D01*
X506752Y349178D01*
X600057Y255873D01*
X600057Y237832D01*
X600059Y237810D01*
X600057Y237788D01*
X600079Y237610D01*
X600097Y237432D01*
X600103Y237410D01*
X600106Y237388D01*
X600162Y237219D01*
X600215Y237047D01*
X600225Y237027D01*
X600232Y237006D01*
X600321Y236850D01*
X600407Y236693D01*
X600421Y236676D01*
X600432Y236656D01*
X600550Y236520D01*
X600664Y236384D01*
X600682Y236370D01*
X600696Y236353D01*
X600838Y236243D01*
X600978Y236131D01*
X600998Y236121D01*
X601016Y236107D01*
X601311Y235956D01*
X601392Y235922D01*
X603822Y233492D01*
X605137Y230318D01*
X605137Y226882D01*
X603822Y223708D01*
X601392Y221278D01*
X601311Y221244D01*
X601291Y221234D01*
X601270Y221227D01*
X601114Y221139D01*
X600956Y221054D01*
X600939Y221040D01*
X600919Y221029D01*
X600784Y220912D01*
X600645Y220798D01*
X600631Y220780D01*
X600614Y220766D01*
X600505Y220624D01*
X600392Y220485D01*
X600381Y220465D01*
X600368Y220448D01*
X600288Y220287D01*
X600205Y220129D01*
X600198Y220107D01*
X600188Y220087D01*
X600142Y219913D01*
X600092Y219742D01*
X600090Y219720D01*
X600084Y219698D01*
X600057Y219368D01*
X600057Y193215D01*
X600059Y193188D01*
X600057Y193161D01*
X600079Y192987D01*
X600097Y192814D01*
X600104Y192789D01*
X600108Y192762D01*
X600163Y192596D01*
X600215Y192429D01*
X600228Y192406D01*
X600236Y192380D01*
X600323Y192229D01*
X600407Y192075D01*
X600424Y192055D01*
X600437Y192031D01*
X600652Y191778D01*
X671664Y120766D01*
X671678Y120755D01*
X671689Y120741D01*
X671833Y120627D01*
X671975Y120511D01*
X671991Y120503D01*
X672005Y120492D01*
X672169Y120408D01*
X672331Y120323D01*
X672348Y120318D01*
X672364Y120309D01*
X672541Y120260D01*
X672717Y120208D01*
X672735Y120206D01*
X672752Y120201D01*
X672935Y120188D01*
X673118Y120171D01*
X673136Y120173D01*
X673153Y120172D01*
X673335Y120195D01*
X673518Y120215D01*
X673535Y120220D01*
X673553Y120222D01*
X673726Y120281D01*
X673902Y120336D01*
X673918Y120345D01*
X673934Y120351D01*
X674094Y120443D01*
X674254Y120531D01*
X674268Y120543D01*
X674283Y120552D01*
X674536Y120766D01*
X709727Y155957D01*
X861285Y155957D01*
X861312Y155959D01*
X861339Y155957D01*
X861513Y155979D01*
X861686Y155997D01*
X861711Y156004D01*
X861738Y156008D01*
X861904Y156063D01*
X862071Y156115D01*
X862094Y156128D01*
X862120Y156136D01*
X862271Y156223D01*
X862425Y156307D01*
X862445Y156324D01*
X862469Y156337D01*
X862722Y156552D01*
X897548Y191378D01*
X897565Y191399D01*
X897586Y191417D01*
X897693Y191554D01*
X897803Y191690D01*
X897816Y191713D01*
X897832Y191735D01*
X897910Y191892D01*
X897992Y192046D01*
X898000Y192071D01*
X898012Y192095D01*
X898057Y192265D01*
X898107Y192431D01*
X898109Y192458D01*
X898116Y192484D01*
X898143Y192815D01*
X898143Y365985D01*
X898141Y366012D01*
X898143Y366039D01*
X898121Y366213D01*
X898103Y366386D01*
X898096Y366411D01*
X898092Y366438D01*
X898037Y366604D01*
X897985Y366771D01*
X897972Y366794D01*
X897964Y366820D01*
X897877Y366971D01*
X897793Y367125D01*
X897776Y367145D01*
X897763Y367169D01*
X897548Y367422D01*
X888122Y376848D01*
X888101Y376865D01*
X888083Y376886D01*
X887946Y376993D01*
X887810Y377103D01*
X887787Y377116D01*
X887765Y377132D01*
X887608Y377210D01*
X887454Y377292D01*
X887429Y377300D01*
X887405Y377312D01*
X887235Y377357D01*
X887069Y377407D01*
X887042Y377409D01*
X887016Y377416D01*
X886685Y377443D01*
X886115Y377443D01*
X886092Y377441D01*
X886070Y377443D01*
X885893Y377421D01*
X885714Y377403D01*
X885693Y377397D01*
X885671Y377394D01*
X885501Y377338D01*
X885329Y377285D01*
X885309Y377275D01*
X885288Y377268D01*
X885133Y377179D01*
X884975Y377093D01*
X884958Y377079D01*
X884939Y377068D01*
X884803Y376950D01*
X884666Y376836D01*
X884652Y376818D01*
X884635Y376804D01*
X884525Y376661D01*
X884413Y376522D01*
X884403Y376502D01*
X884390Y376484D01*
X884238Y376189D01*
X884078Y375803D01*
X881497Y373222D01*
X878125Y371825D01*
X874475Y371825D01*
X871103Y373222D01*
X868522Y375803D01*
X867125Y379175D01*
X867125Y382825D01*
X868522Y386197D01*
X871103Y388778D01*
X874445Y390162D01*
X874446Y390163D01*
X874475Y390175D01*
X878125Y390175D01*
X881497Y388778D01*
X884078Y386197D01*
X884238Y385811D01*
X884249Y385791D01*
X884255Y385770D01*
X884344Y385614D01*
X884428Y385456D01*
X884442Y385439D01*
X884453Y385419D01*
X884571Y385283D01*
X884685Y385145D01*
X884702Y385131D01*
X884717Y385114D01*
X884858Y385005D01*
X884997Y384892D01*
X885017Y384881D01*
X885035Y384868D01*
X885195Y384788D01*
X885354Y384705D01*
X885375Y384698D01*
X885395Y384688D01*
X885568Y384642D01*
X885740Y384592D01*
X885762Y384590D01*
X885784Y384584D01*
X886115Y384557D01*
X890473Y384557D01*
X905257Y369773D01*
X905257Y189027D01*
X865073Y148843D01*
X713515Y148843D01*
X713488Y148841D01*
X713461Y148843D01*
X713287Y148821D01*
X713114Y148803D01*
X713089Y148796D01*
X713062Y148792D01*
X712896Y148737D01*
X712729Y148685D01*
X712706Y148672D01*
X712680Y148664D01*
X712529Y148577D01*
X712375Y148493D01*
X712355Y148476D01*
X712331Y148463D01*
X712078Y148248D01*
X677252Y113422D01*
X677235Y113401D01*
X677214Y113383D01*
X677107Y113246D01*
X676997Y113110D01*
X676984Y113087D01*
X676968Y113065D01*
X676890Y112908D01*
X676808Y112754D01*
X676800Y112729D01*
X676788Y112705D01*
X676743Y112535D01*
X676693Y112369D01*
X676691Y112342D01*
X676684Y112316D01*
X676657Y111985D01*
X676657Y97513D01*
X676659Y97491D01*
X676657Y97469D01*
X676679Y97291D01*
X676697Y97113D01*
X676703Y97091D01*
X676706Y97069D01*
X676762Y96899D01*
X676815Y96728D01*
X676825Y96708D01*
X676832Y96687D01*
X676922Y96531D01*
X677007Y96374D01*
X677021Y96356D01*
X677032Y96337D01*
X677150Y96201D01*
X677264Y96064D01*
X677282Y96050D01*
X677296Y96033D01*
X677439Y95924D01*
X677578Y95812D01*
X677598Y95802D01*
X677616Y95788D01*
X677619Y95786D01*
X679937Y93468D01*
X681165Y90504D01*
X681165Y87296D01*
X679937Y84332D01*
X677668Y82063D01*
X674704Y80835D01*
X671496Y80835D01*
G37*
%LPD*%
%LPC*%
G36*
X163106Y142375D02*
X163106Y142375D01*
X159421Y143901D01*
X156601Y146721D01*
X155075Y150406D01*
X155075Y154394D01*
X156601Y158079D01*
X158916Y160393D01*
X158933Y160414D01*
X158954Y160432D01*
X159061Y160570D01*
X159171Y160705D01*
X159184Y160729D01*
X159200Y160750D01*
X159278Y160907D01*
X159360Y161061D01*
X159368Y161086D01*
X159380Y161110D01*
X159425Y161280D01*
X159475Y161447D01*
X159477Y161473D01*
X159484Y161499D01*
X159511Y161830D01*
X159511Y282670D01*
X159509Y282697D01*
X159511Y282724D01*
X159489Y282897D01*
X159471Y283071D01*
X159464Y283096D01*
X159460Y283123D01*
X159405Y283289D01*
X159353Y283456D01*
X159340Y283479D01*
X159332Y283505D01*
X159245Y283656D01*
X159161Y283810D01*
X159144Y283830D01*
X159131Y283854D01*
X158916Y284107D01*
X157107Y285916D01*
X157086Y285933D01*
X157068Y285954D01*
X156930Y286061D01*
X156795Y286171D01*
X156771Y286184D01*
X156750Y286200D01*
X156593Y286278D01*
X156439Y286360D01*
X156414Y286368D01*
X156390Y286380D01*
X156220Y286425D01*
X156053Y286475D01*
X156027Y286477D01*
X156001Y286484D01*
X155670Y286511D01*
X41883Y286511D01*
X41860Y286509D01*
X41838Y286511D01*
X41661Y286489D01*
X41482Y286471D01*
X41461Y286465D01*
X41439Y286462D01*
X41268Y286406D01*
X41097Y286353D01*
X41078Y286343D01*
X41056Y286336D01*
X40900Y286247D01*
X40743Y286161D01*
X40726Y286147D01*
X40707Y286136D01*
X40571Y286018D01*
X40434Y285904D01*
X40420Y285886D01*
X40403Y285872D01*
X40294Y285730D01*
X40182Y285590D01*
X40171Y285570D01*
X40158Y285552D01*
X40052Y285347D01*
X37768Y283063D01*
X34663Y281777D01*
X34655Y281772D01*
X34646Y281770D01*
X34478Y281678D01*
X34308Y281586D01*
X34301Y281581D01*
X34293Y281576D01*
X34146Y281453D01*
X33997Y281330D01*
X33992Y281323D01*
X33985Y281317D01*
X33865Y281167D01*
X33744Y281017D01*
X33739Y281009D01*
X33734Y281003D01*
X33646Y280831D01*
X33557Y280661D01*
X33554Y280652D01*
X33550Y280644D01*
X33497Y280458D01*
X33443Y280274D01*
X33443Y280266D01*
X33440Y280257D01*
X33425Y280066D01*
X33409Y279873D01*
X33410Y279864D01*
X33409Y279856D01*
X33433Y279663D01*
X33454Y279473D01*
X33457Y279465D01*
X33458Y279456D01*
X33519Y279271D01*
X33577Y279090D01*
X33582Y279082D01*
X33584Y279074D01*
X33680Y278906D01*
X33774Y278738D01*
X33779Y278732D01*
X33784Y278724D01*
X33910Y278579D01*
X34035Y278433D01*
X34042Y278427D01*
X34048Y278420D01*
X34201Y278303D01*
X34352Y278184D01*
X34360Y278180D01*
X34367Y278175D01*
X34663Y278023D01*
X37768Y276737D01*
X40037Y274468D01*
X41265Y271504D01*
X41265Y268296D01*
X40762Y267082D01*
X40757Y267065D01*
X40749Y267049D01*
X40699Y266873D01*
X40646Y266697D01*
X40644Y266679D01*
X40639Y266662D01*
X40625Y266479D01*
X40607Y266296D01*
X40609Y266278D01*
X40608Y266260D01*
X40630Y266079D01*
X40649Y265896D01*
X40654Y265878D01*
X40657Y265861D01*
X40714Y265688D01*
X40769Y265511D01*
X40777Y265495D01*
X40783Y265479D01*
X40874Y265320D01*
X40962Y265158D01*
X40974Y265144D01*
X40982Y265129D01*
X41103Y264990D01*
X41221Y264850D01*
X41235Y264839D01*
X41247Y264825D01*
X41392Y264713D01*
X41536Y264599D01*
X41552Y264591D01*
X41566Y264580D01*
X41861Y264428D01*
X43204Y263872D01*
X48172Y258904D01*
X50861Y252413D01*
X50861Y245387D01*
X48172Y238896D01*
X43204Y233928D01*
X36713Y231239D01*
X29687Y231239D01*
X23196Y233928D01*
X18228Y238896D01*
X15539Y245387D01*
X15539Y252413D01*
X18228Y258904D01*
X23196Y263872D01*
X24539Y264428D01*
X24554Y264437D01*
X24571Y264442D01*
X24731Y264531D01*
X24894Y264618D01*
X24907Y264630D01*
X24923Y264638D01*
X25062Y264757D01*
X25204Y264875D01*
X25215Y264889D01*
X25229Y264900D01*
X25342Y265045D01*
X25458Y265187D01*
X25466Y265203D01*
X25477Y265217D01*
X25560Y265382D01*
X25645Y265544D01*
X25650Y265561D01*
X25658Y265577D01*
X25706Y265754D01*
X25758Y265930D01*
X25759Y265948D01*
X25764Y265965D01*
X25777Y266148D01*
X25792Y266331D01*
X25790Y266349D01*
X25792Y266367D01*
X25768Y266549D01*
X25747Y266732D01*
X25742Y266749D01*
X25740Y266766D01*
X25638Y267082D01*
X25135Y268296D01*
X25135Y271504D01*
X26363Y274468D01*
X28632Y276737D01*
X31737Y278023D01*
X31745Y278028D01*
X31754Y278030D01*
X31922Y278123D01*
X32092Y278214D01*
X32099Y278219D01*
X32107Y278224D01*
X32255Y278348D01*
X32403Y278470D01*
X32408Y278477D01*
X32415Y278483D01*
X32535Y278634D01*
X32656Y278783D01*
X32660Y278790D01*
X32666Y278798D01*
X32753Y278968D01*
X32843Y279139D01*
X32846Y279148D01*
X32850Y279156D01*
X32902Y279338D01*
X32957Y279526D01*
X32957Y279535D01*
X32960Y279543D01*
X32975Y279734D01*
X32991Y279927D01*
X32990Y279936D01*
X32991Y279944D01*
X32968Y280135D01*
X32946Y280327D01*
X32943Y280335D01*
X32942Y280344D01*
X32882Y280525D01*
X32823Y280710D01*
X32818Y280718D01*
X32816Y280726D01*
X32721Y280892D01*
X32626Y281062D01*
X32621Y281068D01*
X32616Y281076D01*
X32489Y281222D01*
X32365Y281367D01*
X32358Y281373D01*
X32352Y281380D01*
X32199Y281497D01*
X32048Y281616D01*
X32040Y281620D01*
X32033Y281625D01*
X31737Y281777D01*
X28632Y283063D01*
X26363Y285332D01*
X25135Y288296D01*
X25135Y291504D01*
X26363Y294468D01*
X28632Y296737D01*
X31506Y297927D01*
X31510Y297929D01*
X31514Y297931D01*
X31687Y298024D01*
X31861Y298118D01*
X31864Y298120D01*
X31868Y298123D01*
X32017Y298246D01*
X32171Y298374D01*
X32174Y298377D01*
X32177Y298380D01*
X32300Y298533D01*
X32425Y298687D01*
X32427Y298691D01*
X32430Y298694D01*
X32520Y298869D01*
X32612Y299043D01*
X32613Y299047D01*
X32615Y299051D01*
X32670Y299241D01*
X32725Y299430D01*
X32725Y299434D01*
X32726Y299438D01*
X32743Y299636D01*
X32759Y299831D01*
X32759Y299835D01*
X32759Y299840D01*
X32736Y300037D01*
X32714Y300231D01*
X32713Y300235D01*
X32712Y300239D01*
X32652Y300424D01*
X32591Y300614D01*
X32589Y300618D01*
X32588Y300622D01*
X32490Y300795D01*
X32395Y300966D01*
X32392Y300969D01*
X32390Y300973D01*
X32261Y301122D01*
X32133Y301271D01*
X32129Y301274D01*
X32127Y301278D01*
X31974Y301396D01*
X31816Y301520D01*
X31812Y301522D01*
X31808Y301524D01*
X31633Y301611D01*
X31456Y301700D01*
X31452Y301702D01*
X31448Y301704D01*
X31255Y301755D01*
X31068Y301807D01*
X31063Y301807D01*
X31059Y301808D01*
X30728Y301835D01*
X26028Y301835D01*
X25135Y302728D01*
X25135Y313767D01*
X25133Y313790D01*
X25135Y313812D01*
X25113Y313990D01*
X25095Y314168D01*
X25089Y314189D01*
X25086Y314212D01*
X25030Y314382D01*
X24977Y314553D01*
X24967Y314573D01*
X24960Y314594D01*
X24871Y314750D01*
X24785Y314907D01*
X24771Y314924D01*
X24760Y314944D01*
X24642Y315079D01*
X24528Y315216D01*
X24510Y315230D01*
X24496Y315247D01*
X24353Y315357D01*
X24214Y315469D01*
X24194Y315479D01*
X24177Y315492D01*
X23881Y315644D01*
X23196Y315928D01*
X18228Y320896D01*
X15539Y327387D01*
X15539Y334413D01*
X18228Y340904D01*
X23196Y345872D01*
X29687Y348561D01*
X36713Y348561D01*
X43204Y345872D01*
X48172Y340904D01*
X50861Y334413D01*
X50861Y333520D01*
X50862Y333511D01*
X50861Y333502D01*
X50882Y333308D01*
X50901Y333119D01*
X50903Y333110D01*
X50904Y333101D01*
X50963Y332917D01*
X51019Y332734D01*
X51023Y332726D01*
X51026Y332718D01*
X51119Y332549D01*
X51211Y332380D01*
X51216Y332373D01*
X51221Y332365D01*
X51345Y332218D01*
X51468Y332071D01*
X51475Y332065D01*
X51481Y332058D01*
X51633Y331939D01*
X51782Y331818D01*
X51790Y331814D01*
X51797Y331809D01*
X51970Y331721D01*
X52139Y331633D01*
X52148Y331630D01*
X52156Y331626D01*
X52342Y331574D01*
X52526Y331521D01*
X52535Y331521D01*
X52544Y331518D01*
X52737Y331504D01*
X52928Y331489D01*
X52936Y331490D01*
X52945Y331489D01*
X53138Y331513D01*
X53327Y331535D01*
X53336Y331538D01*
X53345Y331539D01*
X53527Y331601D01*
X53710Y331660D01*
X53718Y331665D01*
X53726Y331668D01*
X53893Y331764D01*
X54061Y331858D01*
X54068Y331864D01*
X54075Y331869D01*
X54328Y332083D01*
X55325Y333080D01*
X57183Y334938D01*
X59237Y335789D01*
X217051Y335789D01*
X219105Y334938D01*
X220963Y333080D01*
X224197Y329845D01*
X224215Y329831D01*
X224230Y329814D01*
X224370Y329704D01*
X224509Y329590D01*
X224529Y329580D01*
X224547Y329565D01*
X224707Y329485D01*
X224865Y329402D01*
X224886Y329395D01*
X224907Y329385D01*
X225079Y329338D01*
X225250Y329287D01*
X225273Y329285D01*
X225295Y329279D01*
X225473Y329267D01*
X225651Y329250D01*
X225674Y329253D01*
X225697Y329251D01*
X225874Y329275D01*
X225876Y329275D01*
X230681Y329275D01*
X234917Y327520D01*
X238159Y324278D01*
X239914Y320042D01*
X239914Y315458D01*
X238159Y311222D01*
X234917Y307980D01*
X230681Y306225D01*
X226097Y306225D01*
X221861Y307980D01*
X218619Y311222D01*
X216864Y315458D01*
X216864Y320234D01*
X216872Y320334D01*
X216889Y320513D01*
X216886Y320536D01*
X216888Y320559D01*
X216866Y320736D01*
X216847Y320914D01*
X216840Y320935D01*
X216838Y320958D01*
X216781Y321128D01*
X216728Y321298D01*
X216717Y321318D01*
X216709Y321340D01*
X216621Y321494D01*
X216534Y321651D01*
X216520Y321669D01*
X216508Y321689D01*
X216294Y321942D01*
X214219Y324016D01*
X214198Y324033D01*
X214181Y324054D01*
X214043Y324160D01*
X213907Y324271D01*
X213884Y324284D01*
X213863Y324300D01*
X213706Y324378D01*
X213552Y324460D01*
X213526Y324468D01*
X213502Y324480D01*
X213333Y324525D01*
X213166Y324575D01*
X213139Y324577D01*
X213113Y324584D01*
X212783Y324611D01*
X63505Y324611D01*
X63479Y324609D01*
X63452Y324611D01*
X63278Y324589D01*
X63104Y324571D01*
X63079Y324564D01*
X63052Y324560D01*
X62887Y324505D01*
X62720Y324453D01*
X62696Y324440D01*
X62671Y324432D01*
X62519Y324345D01*
X62366Y324261D01*
X62345Y324244D01*
X62322Y324231D01*
X62069Y324016D01*
X44523Y306470D01*
X42519Y305640D01*
X42499Y305630D01*
X42478Y305623D01*
X42322Y305535D01*
X42164Y305450D01*
X42147Y305436D01*
X42127Y305425D01*
X41992Y305308D01*
X41853Y305193D01*
X41839Y305176D01*
X41822Y305162D01*
X41713Y305020D01*
X41600Y304881D01*
X41589Y304861D01*
X41576Y304843D01*
X41496Y304683D01*
X41413Y304524D01*
X41406Y304503D01*
X41396Y304483D01*
X41350Y304309D01*
X41300Y304138D01*
X41298Y304116D01*
X41292Y304094D01*
X41265Y303763D01*
X41265Y302728D01*
X40372Y301835D01*
X35672Y301835D01*
X35667Y301835D01*
X35663Y301835D01*
X35466Y301815D01*
X35271Y301795D01*
X35267Y301794D01*
X35262Y301794D01*
X35072Y301734D01*
X34886Y301677D01*
X34882Y301675D01*
X34878Y301674D01*
X34704Y301579D01*
X34532Y301485D01*
X34529Y301483D01*
X34525Y301480D01*
X34373Y301353D01*
X34223Y301228D01*
X34220Y301224D01*
X34216Y301221D01*
X34093Y301067D01*
X33970Y300914D01*
X33968Y300910D01*
X33966Y300906D01*
X33875Y300729D01*
X33785Y300557D01*
X33784Y300552D01*
X33782Y300548D01*
X33728Y300358D01*
X33674Y300170D01*
X33673Y300165D01*
X33672Y300161D01*
X33657Y299967D01*
X33641Y299768D01*
X33641Y299764D01*
X33641Y299759D01*
X33665Y299563D01*
X33688Y299369D01*
X33689Y299364D01*
X33690Y299360D01*
X33752Y299172D01*
X33812Y298986D01*
X33815Y298982D01*
X33816Y298978D01*
X33913Y298807D01*
X34010Y298635D01*
X34013Y298632D01*
X34016Y298628D01*
X34147Y298477D01*
X34273Y298331D01*
X34277Y298328D01*
X34280Y298324D01*
X34437Y298203D01*
X34592Y298084D01*
X34596Y298082D01*
X34599Y298079D01*
X34894Y297927D01*
X35097Y297843D01*
X35127Y297834D01*
X35155Y297820D01*
X35320Y297776D01*
X35483Y297727D01*
X35514Y297724D01*
X35544Y297716D01*
X35875Y297689D01*
X155670Y297689D01*
X155697Y297691D01*
X155724Y297689D01*
X155897Y297711D01*
X156071Y297729D01*
X156096Y297736D01*
X156123Y297740D01*
X156289Y297795D01*
X156456Y297847D01*
X156479Y297860D01*
X156505Y297868D01*
X156656Y297955D01*
X156810Y298039D01*
X156830Y298056D01*
X156854Y298069D01*
X157107Y298284D01*
X159421Y300599D01*
X163106Y302125D01*
X167094Y302125D01*
X170779Y300599D01*
X173599Y297779D01*
X175125Y294094D01*
X175125Y290106D01*
X173599Y286421D01*
X171284Y284107D01*
X171267Y284086D01*
X171246Y284068D01*
X171139Y283930D01*
X171029Y283795D01*
X171016Y283771D01*
X171000Y283750D01*
X170922Y283593D01*
X170840Y283439D01*
X170832Y283414D01*
X170820Y283390D01*
X170775Y283220D01*
X170725Y283053D01*
X170723Y283027D01*
X170716Y283001D01*
X170689Y282670D01*
X170689Y161830D01*
X170691Y161803D01*
X170689Y161776D01*
X170711Y161603D01*
X170729Y161429D01*
X170736Y161404D01*
X170740Y161377D01*
X170796Y161211D01*
X170847Y161044D01*
X170860Y161021D01*
X170868Y160995D01*
X170955Y160844D01*
X171039Y160690D01*
X171056Y160670D01*
X171069Y160646D01*
X171284Y160393D01*
X173599Y158079D01*
X175125Y154394D01*
X175125Y150406D01*
X173599Y146721D01*
X170779Y143901D01*
X167094Y142375D01*
X163106Y142375D01*
G37*
%LPD*%
%LPC*%
G36*
X340906Y142375D02*
X340906Y142375D01*
X337221Y143901D01*
X334401Y146721D01*
X332875Y150406D01*
X332875Y154394D01*
X334401Y158079D01*
X336716Y160393D01*
X336733Y160414D01*
X336754Y160432D01*
X336861Y160570D01*
X336971Y160705D01*
X336984Y160729D01*
X337000Y160750D01*
X337078Y160907D01*
X337160Y161061D01*
X337168Y161086D01*
X337180Y161110D01*
X337225Y161280D01*
X337275Y161447D01*
X337277Y161473D01*
X337284Y161499D01*
X337311Y161830D01*
X337311Y282670D01*
X337309Y282697D01*
X337311Y282724D01*
X337289Y282897D01*
X337271Y283071D01*
X337264Y283096D01*
X337260Y283123D01*
X337205Y283289D01*
X337153Y283456D01*
X337140Y283479D01*
X337132Y283505D01*
X337045Y283656D01*
X336961Y283810D01*
X336944Y283830D01*
X336931Y283854D01*
X336716Y284107D01*
X334401Y286421D01*
X332875Y290106D01*
X332875Y293380D01*
X332873Y293406D01*
X332875Y293433D01*
X332853Y293607D01*
X332835Y293780D01*
X332828Y293806D01*
X332824Y293832D01*
X332769Y293998D01*
X332717Y294165D01*
X332704Y294189D01*
X332696Y294214D01*
X332609Y294366D01*
X332525Y294519D01*
X332508Y294540D01*
X332495Y294563D01*
X332280Y294816D01*
X315530Y311566D01*
X315509Y311583D01*
X315492Y311604D01*
X315354Y311711D01*
X315218Y311821D01*
X315195Y311834D01*
X315174Y311850D01*
X315017Y311928D01*
X314863Y312010D01*
X314837Y312018D01*
X314813Y312030D01*
X314644Y312075D01*
X314477Y312125D01*
X314450Y312127D01*
X314424Y312134D01*
X314094Y312161D01*
X290706Y312161D01*
X290683Y312159D01*
X290661Y312161D01*
X290483Y312139D01*
X290305Y312121D01*
X290283Y312115D01*
X290261Y312112D01*
X290091Y312056D01*
X289920Y312003D01*
X289900Y311993D01*
X289879Y311985D01*
X289724Y311897D01*
X289566Y311811D01*
X289549Y311797D01*
X289529Y311786D01*
X289394Y311668D01*
X289257Y311554D01*
X289243Y311536D01*
X289226Y311521D01*
X289117Y311379D01*
X289115Y311378D01*
X285717Y307980D01*
X281481Y306225D01*
X276897Y306225D01*
X272661Y307980D01*
X269419Y311222D01*
X267664Y315458D01*
X267664Y320042D01*
X269419Y324278D01*
X272661Y327520D01*
X276776Y329225D01*
X276777Y329225D01*
X276897Y329275D01*
X281481Y329275D01*
X285717Y327520D01*
X289095Y324142D01*
X289161Y324066D01*
X289275Y323928D01*
X289293Y323913D01*
X289307Y323896D01*
X289449Y323787D01*
X289588Y323674D01*
X289608Y323663D01*
X289626Y323650D01*
X289786Y323570D01*
X289944Y323487D01*
X289966Y323480D01*
X289986Y323470D01*
X290160Y323424D01*
X290331Y323374D01*
X290353Y323372D01*
X290375Y323366D01*
X290706Y323339D01*
X318362Y323339D01*
X320416Y322488D01*
X340184Y302720D01*
X340205Y302703D01*
X340222Y302682D01*
X340360Y302575D01*
X340496Y302465D01*
X340519Y302452D01*
X340540Y302436D01*
X340697Y302358D01*
X340851Y302276D01*
X340877Y302268D01*
X340901Y302256D01*
X341070Y302211D01*
X341237Y302161D01*
X341264Y302159D01*
X341290Y302152D01*
X341620Y302125D01*
X344894Y302125D01*
X348579Y300599D01*
X351399Y297779D01*
X352925Y294094D01*
X352925Y290106D01*
X351399Y286421D01*
X349084Y284107D01*
X349067Y284086D01*
X349046Y284068D01*
X348939Y283930D01*
X348829Y283795D01*
X348816Y283771D01*
X348800Y283750D01*
X348722Y283593D01*
X348640Y283439D01*
X348632Y283414D01*
X348620Y283390D01*
X348575Y283220D01*
X348525Y283053D01*
X348523Y283027D01*
X348516Y283001D01*
X348489Y282670D01*
X348489Y161830D01*
X348491Y161803D01*
X348489Y161776D01*
X348511Y161603D01*
X348529Y161429D01*
X348536Y161404D01*
X348540Y161377D01*
X348596Y161211D01*
X348647Y161044D01*
X348660Y161021D01*
X348668Y160995D01*
X348755Y160844D01*
X348839Y160690D01*
X348856Y160670D01*
X348869Y160646D01*
X349084Y160393D01*
X351399Y158079D01*
X352925Y154394D01*
X352925Y150406D01*
X351399Y146721D01*
X348579Y143901D01*
X344894Y142375D01*
X340906Y142375D01*
G37*
%LPD*%
%LPC*%
G36*
X536661Y79755D02*
X536661Y79755D01*
X533300Y81147D01*
X530727Y83720D01*
X529335Y87081D01*
X529335Y90719D01*
X530727Y94080D01*
X533300Y96653D01*
X536661Y98045D01*
X555539Y98045D01*
X558900Y96653D01*
X561473Y94080D01*
X561626Y93711D01*
X561636Y93691D01*
X561643Y93670D01*
X561731Y93514D01*
X561816Y93356D01*
X561830Y93339D01*
X561841Y93319D01*
X561958Y93183D01*
X562072Y93045D01*
X562089Y93031D01*
X562104Y93014D01*
X562245Y92905D01*
X562385Y92792D01*
X562405Y92781D01*
X562422Y92768D01*
X562582Y92688D01*
X562741Y92605D01*
X562763Y92598D01*
X562783Y92588D01*
X562956Y92542D01*
X563128Y92492D01*
X563150Y92490D01*
X563171Y92484D01*
X563502Y92457D01*
X569185Y92457D01*
X569212Y92459D01*
X569239Y92457D01*
X569413Y92479D01*
X569586Y92497D01*
X569611Y92504D01*
X569638Y92508D01*
X569804Y92563D01*
X569971Y92615D01*
X569994Y92628D01*
X570020Y92636D01*
X570171Y92723D01*
X570325Y92807D01*
X570345Y92824D01*
X570369Y92837D01*
X570622Y93052D01*
X599494Y121924D01*
X599509Y121942D01*
X599526Y121956D01*
X599636Y122097D01*
X599750Y122236D01*
X599760Y122256D01*
X599774Y122273D01*
X599854Y122433D01*
X599938Y122592D01*
X599944Y122613D01*
X599955Y122633D01*
X600002Y122806D01*
X600053Y122978D01*
X600055Y123000D01*
X600061Y123021D01*
X600073Y123199D01*
X600089Y123379D01*
X600087Y123401D01*
X600088Y123423D01*
X600065Y123599D01*
X600046Y123779D01*
X600039Y123800D01*
X600036Y123822D01*
X599935Y124138D01*
X599575Y125006D01*
X599575Y128994D01*
X599935Y129862D01*
X599941Y129883D01*
X599951Y129903D01*
X600000Y130076D01*
X600051Y130247D01*
X600053Y130269D01*
X600059Y130291D01*
X600072Y130471D01*
X600089Y130648D01*
X600087Y130670D01*
X600089Y130693D01*
X600066Y130871D01*
X600048Y131049D01*
X600041Y131070D01*
X600038Y131092D01*
X599981Y131261D01*
X599928Y131433D01*
X599917Y131453D01*
X599910Y131474D01*
X599821Y131629D01*
X599735Y131786D01*
X599720Y131803D01*
X599709Y131823D01*
X599494Y132076D01*
X542943Y188627D01*
X542943Y219368D01*
X542941Y219390D01*
X542943Y219412D01*
X542921Y219590D01*
X542903Y219768D01*
X542897Y219790D01*
X542894Y219812D01*
X542838Y219981D01*
X542785Y220153D01*
X542775Y220173D01*
X542768Y220194D01*
X542679Y220350D01*
X542593Y220507D01*
X542579Y220524D01*
X542568Y220544D01*
X542450Y220680D01*
X542336Y220816D01*
X542318Y220830D01*
X542304Y220847D01*
X542162Y220957D01*
X542022Y221069D01*
X542002Y221079D01*
X541984Y221093D01*
X541689Y221244D01*
X541608Y221278D01*
X539178Y223708D01*
X537863Y226882D01*
X537863Y230318D01*
X539178Y233492D01*
X541608Y235922D01*
X544782Y237237D01*
X548218Y237237D01*
X551392Y235922D01*
X553822Y233492D01*
X555137Y230318D01*
X555137Y226882D01*
X553822Y223708D01*
X551392Y221278D01*
X551311Y221244D01*
X551291Y221234D01*
X551270Y221227D01*
X551114Y221139D01*
X550956Y221054D01*
X550939Y221040D01*
X550919Y221029D01*
X550784Y220912D01*
X550645Y220798D01*
X550631Y220780D01*
X550614Y220766D01*
X550505Y220624D01*
X550392Y220485D01*
X550381Y220465D01*
X550368Y220448D01*
X550288Y220287D01*
X550205Y220129D01*
X550198Y220107D01*
X550188Y220087D01*
X550142Y219913D01*
X550092Y219742D01*
X550090Y219720D01*
X550084Y219698D01*
X550057Y219368D01*
X550057Y192415D01*
X550059Y192388D01*
X550057Y192361D01*
X550079Y192187D01*
X550097Y192014D01*
X550104Y191989D01*
X550108Y191962D01*
X550163Y191796D01*
X550215Y191629D01*
X550228Y191606D01*
X550236Y191580D01*
X550323Y191429D01*
X550407Y191275D01*
X550424Y191255D01*
X550437Y191231D01*
X550652Y190978D01*
X604524Y137106D01*
X604542Y137091D01*
X604556Y137074D01*
X604697Y136964D01*
X604836Y136850D01*
X604856Y136840D01*
X604873Y136826D01*
X605034Y136746D01*
X605192Y136662D01*
X605213Y136656D01*
X605233Y136645D01*
X605406Y136598D01*
X605578Y136547D01*
X605600Y136545D01*
X605621Y136539D01*
X605799Y136527D01*
X605979Y136511D01*
X606001Y136513D01*
X606023Y136512D01*
X606199Y136535D01*
X606379Y136554D01*
X606400Y136561D01*
X606422Y136564D01*
X606738Y136665D01*
X607606Y137025D01*
X611594Y137025D01*
X615279Y135499D01*
X618099Y132679D01*
X619625Y128994D01*
X619625Y125006D01*
X618099Y121321D01*
X615279Y118501D01*
X613245Y117659D01*
X611594Y116975D01*
X607606Y116975D01*
X606738Y117335D01*
X606717Y117341D01*
X606697Y117351D01*
X606524Y117400D01*
X606353Y117451D01*
X606331Y117453D01*
X606309Y117459D01*
X606129Y117472D01*
X605952Y117489D01*
X605930Y117487D01*
X605907Y117489D01*
X605729Y117466D01*
X605551Y117448D01*
X605530Y117441D01*
X605508Y117438D01*
X605339Y117381D01*
X605167Y117328D01*
X605147Y117317D01*
X605126Y117310D01*
X604971Y117221D01*
X604814Y117135D01*
X604797Y117120D01*
X604777Y117109D01*
X604524Y116894D01*
X575652Y88022D01*
X572973Y85343D01*
X563502Y85343D01*
X563480Y85341D01*
X563458Y85343D01*
X563280Y85321D01*
X563102Y85303D01*
X563080Y85297D01*
X563058Y85294D01*
X562888Y85238D01*
X562717Y85185D01*
X562697Y85175D01*
X562676Y85168D01*
X562520Y85079D01*
X562363Y84993D01*
X562345Y84979D01*
X562326Y84968D01*
X562191Y84850D01*
X562053Y84736D01*
X562039Y84718D01*
X562023Y84704D01*
X561913Y84561D01*
X561801Y84422D01*
X561791Y84402D01*
X561777Y84384D01*
X561626Y84089D01*
X561473Y83720D01*
X558900Y81147D01*
X555539Y79755D01*
X536661Y79755D01*
G37*
%LPD*%
%LPC*%
G36*
X796312Y244855D02*
X796312Y244855D01*
X790955Y250212D01*
X790955Y257273D01*
X790953Y257300D01*
X790955Y257327D01*
X790933Y257500D01*
X790915Y257674D01*
X790908Y257699D01*
X790904Y257726D01*
X790849Y257892D01*
X790797Y258059D01*
X790784Y258082D01*
X790776Y258108D01*
X790689Y258259D01*
X790605Y258413D01*
X790588Y258433D01*
X790575Y258457D01*
X790360Y258710D01*
X689430Y359640D01*
X689409Y359657D01*
X689391Y359678D01*
X689254Y359785D01*
X689118Y359895D01*
X689095Y359908D01*
X689073Y359924D01*
X688916Y360002D01*
X688762Y360084D01*
X688737Y360092D01*
X688713Y360104D01*
X688543Y360149D01*
X688377Y360199D01*
X688350Y360201D01*
X688324Y360208D01*
X687993Y360235D01*
X686096Y360235D01*
X683132Y361463D01*
X680863Y363732D01*
X679635Y366696D01*
X679635Y369904D01*
X680863Y372868D01*
X683132Y375137D01*
X686096Y376365D01*
X689304Y376365D01*
X692268Y375137D01*
X693963Y373442D01*
X693973Y373434D01*
X693982Y373424D01*
X694129Y373307D01*
X694274Y373187D01*
X694286Y373181D01*
X694297Y373173D01*
X694464Y373087D01*
X694630Y372999D01*
X694643Y372995D01*
X694655Y372989D01*
X694835Y372938D01*
X695016Y372884D01*
X695029Y372883D01*
X695042Y372879D01*
X695228Y372865D01*
X695417Y372848D01*
X695430Y372849D01*
X695444Y372848D01*
X695628Y372870D01*
X695817Y372891D01*
X695830Y372895D01*
X695843Y372897D01*
X696021Y372955D01*
X696201Y373012D01*
X696213Y373019D01*
X696225Y373023D01*
X696388Y373116D01*
X696553Y373207D01*
X696564Y373216D01*
X696575Y373223D01*
X696717Y373346D01*
X696860Y373468D01*
X696869Y373478D01*
X696879Y373487D01*
X696993Y373635D01*
X697110Y373784D01*
X697116Y373796D01*
X697124Y373806D01*
X697276Y374101D01*
X697870Y375536D01*
X701464Y379130D01*
X706159Y381075D01*
X711241Y381075D01*
X715936Y379130D01*
X719530Y375536D01*
X721475Y370841D01*
X721475Y365759D01*
X719530Y361064D01*
X715936Y357470D01*
X715638Y357346D01*
X711241Y355525D01*
X708509Y355525D01*
X708500Y355524D01*
X708491Y355525D01*
X708297Y355504D01*
X708108Y355485D01*
X708100Y355483D01*
X708091Y355482D01*
X707906Y355423D01*
X707723Y355367D01*
X707715Y355363D01*
X707707Y355360D01*
X707538Y355267D01*
X707369Y355175D01*
X707362Y355170D01*
X707354Y355165D01*
X707207Y355041D01*
X707060Y354918D01*
X707054Y354911D01*
X707047Y354905D01*
X706928Y354753D01*
X706807Y354604D01*
X706803Y354596D01*
X706798Y354589D01*
X706710Y354416D01*
X706622Y354247D01*
X706619Y354238D01*
X706615Y354230D01*
X706563Y354043D01*
X706511Y353860D01*
X706510Y353851D01*
X706507Y353842D01*
X706493Y353649D01*
X706478Y353458D01*
X706479Y353450D01*
X706478Y353441D01*
X706502Y353248D01*
X706525Y353059D01*
X706527Y353050D01*
X706528Y353041D01*
X706590Y352859D01*
X706649Y352676D01*
X706654Y352668D01*
X706657Y352660D01*
X706753Y352493D01*
X706847Y352325D01*
X706853Y352318D01*
X706858Y352311D01*
X707072Y352058D01*
X795390Y263740D01*
X795411Y263723D01*
X795429Y263702D01*
X795566Y263595D01*
X795702Y263485D01*
X795725Y263472D01*
X795747Y263456D01*
X795904Y263378D01*
X796058Y263296D01*
X796083Y263288D01*
X796107Y263276D01*
X796277Y263231D01*
X796443Y263181D01*
X796470Y263179D01*
X796496Y263172D01*
X796827Y263145D01*
X803888Y263145D01*
X809245Y257788D01*
X809245Y250212D01*
X803888Y244855D01*
X796312Y244855D01*
G37*
%LPD*%
%LPC*%
G36*
X98233Y156971D02*
X98233Y156971D01*
X93471Y161733D01*
X93471Y168467D01*
X98233Y173229D01*
X103857Y173229D01*
X103884Y173231D01*
X103911Y173229D01*
X104085Y173251D01*
X104258Y173269D01*
X104283Y173276D01*
X104310Y173280D01*
X104476Y173335D01*
X104643Y173387D01*
X104666Y173400D01*
X104692Y173408D01*
X104843Y173495D01*
X104997Y173579D01*
X105017Y173596D01*
X105041Y173609D01*
X105294Y173824D01*
X110148Y178678D01*
X110165Y178699D01*
X110186Y178717D01*
X110293Y178854D01*
X110403Y178990D01*
X110416Y179013D01*
X110432Y179035D01*
X110510Y179192D01*
X110592Y179346D01*
X110600Y179371D01*
X110612Y179395D01*
X110657Y179565D01*
X110707Y179731D01*
X110709Y179758D01*
X110716Y179784D01*
X110743Y180115D01*
X110743Y229593D01*
X110741Y229616D01*
X110743Y229638D01*
X110721Y229815D01*
X110703Y229994D01*
X110697Y230015D01*
X110694Y230037D01*
X110638Y230207D01*
X110585Y230379D01*
X110575Y230399D01*
X110568Y230420D01*
X110479Y230575D01*
X110393Y230733D01*
X110379Y230750D01*
X110368Y230769D01*
X110250Y230905D01*
X110136Y231042D01*
X110118Y231056D01*
X110104Y231073D01*
X109962Y231182D01*
X109822Y231294D01*
X109802Y231305D01*
X109784Y231318D01*
X109489Y231470D01*
X108113Y232040D01*
X105040Y235113D01*
X104010Y237599D01*
X103968Y237677D01*
X103935Y237760D01*
X103873Y237854D01*
X103820Y237954D01*
X103764Y238022D01*
X103715Y238097D01*
X103636Y238177D01*
X103564Y238264D01*
X103495Y238320D01*
X103432Y238383D01*
X103339Y238447D01*
X103251Y238518D01*
X103173Y238559D01*
X103099Y238609D01*
X102995Y238652D01*
X102895Y238705D01*
X102809Y238730D01*
X102727Y238764D01*
X102617Y238786D01*
X102508Y238818D01*
X102420Y238826D01*
X102333Y238843D01*
X102219Y238843D01*
X102107Y238853D01*
X102019Y238843D01*
X101930Y238843D01*
X101819Y238820D01*
X101707Y238807D01*
X101622Y238780D01*
X101535Y238763D01*
X101431Y238719D01*
X101324Y238684D01*
X101246Y238641D01*
X101164Y238607D01*
X101071Y238543D01*
X100972Y238488D01*
X100905Y238430D01*
X100831Y238380D01*
X100752Y238300D01*
X100666Y238226D01*
X100612Y238156D01*
X100549Y238093D01*
X100488Y237998D01*
X100418Y237909D01*
X100378Y237830D01*
X100330Y237755D01*
X100275Y237625D01*
X100237Y237549D01*
X100225Y237505D01*
X100202Y237449D01*
X99964Y236717D01*
X99111Y235043D01*
X98006Y233522D01*
X96678Y232194D01*
X95157Y231089D01*
X93483Y230236D01*
X91696Y229655D01*
X90931Y229534D01*
X90931Y241300D01*
X90931Y253066D01*
X91696Y252945D01*
X93483Y252364D01*
X95157Y251511D01*
X96678Y250406D01*
X98006Y249078D01*
X99111Y247557D01*
X99964Y245883D01*
X100202Y245151D01*
X100238Y245069D01*
X100264Y244985D01*
X100270Y244973D01*
X100272Y244968D01*
X100311Y244899D01*
X100318Y244886D01*
X100364Y244782D01*
X100415Y244709D01*
X100457Y244632D01*
X100530Y244545D01*
X100595Y244453D01*
X100659Y244391D01*
X100716Y244323D01*
X100805Y244253D01*
X100887Y244175D01*
X100962Y244128D01*
X101031Y244072D01*
X101132Y244021D01*
X101227Y243961D01*
X101310Y243929D01*
X101389Y243889D01*
X101498Y243858D01*
X101604Y243818D01*
X101692Y243803D01*
X101777Y243779D01*
X101889Y243770D01*
X102001Y243752D01*
X102090Y243755D01*
X102178Y243748D01*
X102290Y243761D01*
X102403Y243765D01*
X102490Y243786D01*
X102578Y243796D01*
X102685Y243832D01*
X102795Y243858D01*
X102876Y243895D01*
X102960Y243923D01*
X103058Y243979D01*
X103161Y244026D01*
X103233Y244078D01*
X103310Y244122D01*
X103395Y244197D01*
X103486Y244263D01*
X103546Y244328D01*
X103571Y244350D01*
X103586Y244362D01*
X103587Y244364D01*
X103613Y244387D01*
X103682Y244476D01*
X103759Y244560D01*
X103802Y244631D01*
X103838Y244676D01*
X103843Y244685D01*
X103859Y244706D01*
X103923Y244832D01*
X103967Y244904D01*
X103983Y244947D01*
X104010Y245001D01*
X105040Y247487D01*
X108113Y250560D01*
X111680Y252037D01*
X111680Y252038D01*
X112127Y252223D01*
X116473Y252223D01*
X120487Y250560D01*
X123560Y247487D01*
X125223Y243473D01*
X125223Y239127D01*
X123560Y235113D01*
X120487Y232040D01*
X119111Y231470D01*
X119091Y231459D01*
X119070Y231453D01*
X118914Y231364D01*
X118756Y231280D01*
X118739Y231266D01*
X118719Y231255D01*
X118584Y231138D01*
X118445Y231023D01*
X118431Y231006D01*
X118414Y230991D01*
X118305Y230850D01*
X118192Y230711D01*
X118181Y230691D01*
X118168Y230673D01*
X118088Y230513D01*
X118005Y230354D01*
X117998Y230333D01*
X117988Y230313D01*
X117942Y230139D01*
X117892Y229968D01*
X117890Y229946D01*
X117884Y229924D01*
X117857Y229593D01*
X117857Y176327D01*
X110324Y168794D01*
X110307Y168773D01*
X110286Y168755D01*
X110179Y168618D01*
X110069Y168482D01*
X110056Y168459D01*
X110040Y168437D01*
X109962Y168280D01*
X109880Y168126D01*
X109872Y168101D01*
X109860Y168077D01*
X109815Y167907D01*
X109765Y167741D01*
X109763Y167714D01*
X109756Y167688D01*
X109729Y167357D01*
X109729Y161733D01*
X104967Y156971D01*
X98233Y156971D01*
G37*
%LPD*%
%LPC*%
G36*
X438087Y350639D02*
X438087Y350639D01*
X431596Y353328D01*
X426628Y358296D01*
X423939Y364787D01*
X423939Y371813D01*
X426628Y378304D01*
X431596Y383272D01*
X438087Y385961D01*
X445113Y385961D01*
X451604Y383272D01*
X456761Y378115D01*
X456767Y378108D01*
X456881Y377970D01*
X456899Y377956D01*
X456914Y377938D01*
X457055Y377829D01*
X457193Y377716D01*
X457214Y377706D01*
X457232Y377692D01*
X457392Y377612D01*
X457550Y377529D01*
X457572Y377523D01*
X457592Y377512D01*
X457765Y377466D01*
X457936Y377416D01*
X457959Y377414D01*
X457981Y377408D01*
X458312Y377381D01*
X460569Y377381D01*
X460569Y368300D01*
X460569Y359219D01*
X458312Y359219D01*
X458289Y359217D01*
X458266Y359219D01*
X458088Y359197D01*
X457911Y359179D01*
X457889Y359173D01*
X457866Y359170D01*
X457697Y359114D01*
X457526Y359061D01*
X457506Y359050D01*
X457484Y359043D01*
X457329Y358955D01*
X457172Y358870D01*
X457154Y358855D01*
X457135Y358843D01*
X457000Y358726D01*
X456863Y358612D01*
X456849Y358594D01*
X456831Y358579D01*
X456753Y358477D01*
X451604Y353328D01*
X445113Y350639D01*
X438087Y350639D01*
G37*
%LPD*%
%LPC*%
G36*
X386801Y54355D02*
X386801Y54355D01*
X383440Y55747D01*
X380867Y58320D01*
X379475Y61681D01*
X379475Y65319D01*
X380867Y68680D01*
X383440Y71253D01*
X386801Y72645D01*
X405679Y72645D01*
X409040Y71253D01*
X411613Y68680D01*
X413005Y65319D01*
X413005Y61681D01*
X411613Y58320D01*
X409040Y55747D01*
X405679Y54355D01*
X386801Y54355D01*
G37*
%LPD*%
%LPC*%
G36*
X536661Y54355D02*
X536661Y54355D01*
X533300Y55747D01*
X530727Y58320D01*
X529335Y61681D01*
X529335Y65319D01*
X530727Y68680D01*
X533300Y71253D01*
X536661Y72645D01*
X555539Y72645D01*
X558900Y71253D01*
X561473Y68680D01*
X562865Y65319D01*
X562865Y61681D01*
X561473Y58320D01*
X558900Y55747D01*
X555539Y54355D01*
X536661Y54355D01*
G37*
%LPD*%
%LPC*%
G36*
X163106Y66175D02*
X163106Y66175D01*
X159421Y67701D01*
X156601Y70521D01*
X155075Y74206D01*
X155075Y78194D01*
X156601Y81879D01*
X159421Y84699D01*
X163106Y86225D01*
X167094Y86225D01*
X170779Y84699D01*
X173599Y81879D01*
X175125Y78194D01*
X175125Y74206D01*
X173599Y70521D01*
X170779Y67701D01*
X167094Y66175D01*
X163106Y66175D01*
G37*
%LPD*%
%LPC*%
G36*
X340906Y66175D02*
X340906Y66175D01*
X337221Y67701D01*
X334401Y70521D01*
X332875Y74206D01*
X332875Y78194D01*
X334401Y81879D01*
X337221Y84699D01*
X340906Y86225D01*
X344894Y86225D01*
X348579Y84699D01*
X351399Y81879D01*
X352925Y78194D01*
X352925Y74206D01*
X351399Y70521D01*
X348579Y67701D01*
X344894Y66175D01*
X340906Y66175D01*
G37*
%LPD*%
%LPC*%
G36*
X607606Y40775D02*
X607606Y40775D01*
X603921Y42301D01*
X601101Y45121D01*
X599575Y48806D01*
X599575Y52794D01*
X601101Y56479D01*
X603921Y59299D01*
X607606Y60825D01*
X611594Y60825D01*
X615279Y59299D01*
X618099Y56479D01*
X619625Y52794D01*
X619625Y48806D01*
X618099Y45121D01*
X615279Y42301D01*
X611594Y40775D01*
X607606Y40775D01*
G37*
%LPD*%
%LPC*%
G36*
X796312Y16255D02*
X796312Y16255D01*
X790955Y21612D01*
X790955Y29188D01*
X796312Y34545D01*
X803888Y34545D01*
X809245Y29188D01*
X809245Y21612D01*
X803888Y16255D01*
X796312Y16255D01*
G37*
%LPD*%
%LPC*%
G36*
X874475Y244825D02*
X874475Y244825D01*
X871103Y246222D01*
X868522Y248803D01*
X867125Y252175D01*
X867125Y255825D01*
X868522Y259197D01*
X871103Y261778D01*
X874475Y263175D01*
X878125Y263175D01*
X881497Y261778D01*
X884078Y259197D01*
X885475Y255825D01*
X885475Y252175D01*
X884078Y248803D01*
X881497Y246222D01*
X880062Y245628D01*
X878125Y244825D01*
X874475Y244825D01*
G37*
%LPD*%
%LPC*%
G36*
X463128Y43135D02*
X463128Y43135D01*
X462235Y44028D01*
X462235Y57572D01*
X463128Y58465D01*
X476672Y58465D01*
X477565Y57572D01*
X477565Y44028D01*
X476672Y43135D01*
X463128Y43135D01*
G37*
%LPD*%
%LPC*%
G36*
X872933Y68071D02*
X872933Y68071D01*
X868171Y72833D01*
X868171Y79567D01*
X872933Y84329D01*
X879667Y84329D01*
X884429Y79567D01*
X884429Y72833D01*
X879667Y68071D01*
X872933Y68071D01*
G37*
%LPD*%
%LPC*%
G36*
X98233Y55371D02*
X98233Y55371D01*
X93471Y60133D01*
X93471Y66867D01*
X98233Y71629D01*
X104967Y71629D01*
X109729Y66867D01*
X109729Y60133D01*
X104967Y55371D01*
X98233Y55371D01*
G37*
%LPD*%
%LPC*%
G36*
X441133Y271271D02*
X441133Y271271D01*
X436371Y276033D01*
X436371Y282767D01*
X441133Y287529D01*
X447867Y287529D01*
X452629Y282767D01*
X452629Y276033D01*
X447867Y271271D01*
X441133Y271271D01*
G37*
%LPD*%
%LPC*%
G36*
X277396Y195135D02*
X277396Y195135D01*
X274432Y196363D01*
X272163Y198632D01*
X270935Y201596D01*
X270935Y204804D01*
X272163Y207768D01*
X274432Y210037D01*
X277396Y211265D01*
X280604Y211265D01*
X283568Y210037D01*
X285837Y207768D01*
X287065Y204804D01*
X287065Y201596D01*
X285837Y198632D01*
X283568Y196363D01*
X280604Y195135D01*
X277396Y195135D01*
G37*
%LPD*%
%LPC*%
G36*
X696496Y80835D02*
X696496Y80835D01*
X693532Y82063D01*
X691263Y84332D01*
X690035Y87296D01*
X690035Y90504D01*
X691263Y93468D01*
X693532Y95737D01*
X696496Y96965D01*
X699704Y96965D01*
X702668Y95737D01*
X704937Y93468D01*
X706165Y90504D01*
X706165Y87296D01*
X704937Y84332D01*
X702668Y82063D01*
X699704Y80835D01*
X696496Y80835D01*
G37*
%LPD*%
%LPC*%
G36*
X548639Y116839D02*
X548639Y116839D01*
X548639Y124461D01*
X554520Y124461D01*
X556099Y124211D01*
X557620Y123716D01*
X559045Y122990D01*
X560339Y122050D01*
X561470Y120919D01*
X562410Y119625D01*
X563136Y118200D01*
X563579Y116839D01*
X548639Y116839D01*
G37*
%LPD*%
%LPC*%
G36*
X528621Y116839D02*
X528621Y116839D01*
X529064Y118200D01*
X529790Y119625D01*
X530730Y120919D01*
X531861Y122050D01*
X533155Y122990D01*
X534580Y123716D01*
X536101Y124211D01*
X537680Y124461D01*
X543561Y124461D01*
X543561Y116839D01*
X528621Y116839D01*
G37*
%LPD*%
%LPC*%
G36*
X548639Y104139D02*
X548639Y104139D01*
X548639Y111761D01*
X563579Y111761D01*
X563136Y110400D01*
X562410Y108975D01*
X561470Y107681D01*
X560339Y106550D01*
X559045Y105610D01*
X557620Y104884D01*
X556099Y104389D01*
X554520Y104139D01*
X548639Y104139D01*
G37*
%LPD*%
%LPC*%
G36*
X537680Y104139D02*
X537680Y104139D01*
X536101Y104389D01*
X534580Y104884D01*
X533155Y105610D01*
X531861Y106550D01*
X530730Y107681D01*
X529790Y108975D01*
X529064Y110400D01*
X528621Y111761D01*
X543561Y111761D01*
X543561Y104139D01*
X537680Y104139D01*
G37*
%LPD*%
%LPC*%
G36*
X395731Y281431D02*
X395731Y281431D01*
X395731Y288545D01*
X401024Y288545D01*
X402445Y288320D01*
X403814Y287875D01*
X405097Y287221D01*
X406261Y286375D01*
X407279Y285357D01*
X408125Y284193D01*
X408779Y282910D01*
X409224Y281541D01*
X409241Y281431D01*
X395731Y281431D01*
G37*
%LPD*%
%LPC*%
G36*
X378159Y281431D02*
X378159Y281431D01*
X378176Y281541D01*
X378621Y282910D01*
X379275Y284193D01*
X380121Y285357D01*
X381139Y286375D01*
X382303Y287221D01*
X383586Y287875D01*
X384955Y288320D01*
X386376Y288545D01*
X391669Y288545D01*
X391669Y281431D01*
X378159Y281431D01*
G37*
%LPD*%
%LPC*%
G36*
X395731Y270255D02*
X395731Y270255D01*
X395731Y277369D01*
X409241Y277369D01*
X409224Y277259D01*
X408779Y275890D01*
X408125Y274607D01*
X407279Y273443D01*
X406261Y272425D01*
X405097Y271579D01*
X403814Y270925D01*
X402445Y270480D01*
X401024Y270255D01*
X395731Y270255D01*
G37*
%LPD*%
%LPC*%
G36*
X386376Y270255D02*
X386376Y270255D01*
X384955Y270480D01*
X383586Y270925D01*
X382303Y271579D01*
X381139Y272425D01*
X380121Y273443D01*
X379275Y274607D01*
X378621Y275890D01*
X378176Y277259D01*
X378159Y277369D01*
X391669Y277369D01*
X391669Y270255D01*
X386376Y270255D01*
G37*
%LPD*%
%LPC*%
G36*
X77134Y243331D02*
X77134Y243331D01*
X77255Y244096D01*
X77836Y245883D01*
X78689Y247557D01*
X79794Y249078D01*
X81122Y250406D01*
X82643Y251511D01*
X84317Y252364D01*
X86104Y252945D01*
X86869Y253066D01*
X86869Y243331D01*
X77134Y243331D01*
G37*
%LPD*%
%LPC*%
G36*
X86104Y229655D02*
X86104Y229655D01*
X84317Y230236D01*
X82643Y231089D01*
X81122Y232194D01*
X79794Y233522D01*
X78689Y235043D01*
X77836Y236717D01*
X77255Y238504D01*
X77134Y239269D01*
X86869Y239269D01*
X86869Y229534D01*
X86104Y229655D01*
G37*
%LPD*%
%LPC*%
G36*
X345649Y371049D02*
X345649Y371049D01*
X345649Y379016D01*
X347138Y378532D01*
X348687Y377743D01*
X350093Y376721D01*
X351321Y375493D01*
X352343Y374087D01*
X353132Y372538D01*
X353616Y371049D01*
X345649Y371049D01*
G37*
%LPD*%
%LPC*%
G36*
X167849Y371049D02*
X167849Y371049D01*
X167849Y379016D01*
X169338Y378532D01*
X170887Y377743D01*
X172293Y376721D01*
X173521Y375493D01*
X174543Y374087D01*
X175332Y372538D01*
X175816Y371049D01*
X167849Y371049D01*
G37*
%LPD*%
%LPC*%
G36*
X154384Y371049D02*
X154384Y371049D01*
X154868Y372538D01*
X155657Y374087D01*
X156679Y375493D01*
X157907Y376721D01*
X159313Y377743D01*
X160862Y378532D01*
X162351Y379016D01*
X162351Y371049D01*
X154384Y371049D01*
G37*
%LPD*%
%LPC*%
G36*
X332184Y371049D02*
X332184Y371049D01*
X332668Y372538D01*
X333457Y374087D01*
X334479Y375493D01*
X335707Y376721D01*
X337113Y377743D01*
X338662Y378532D01*
X340151Y379016D01*
X340151Y371049D01*
X332184Y371049D01*
G37*
%LPD*%
%LPC*%
G36*
X167849Y365551D02*
X167849Y365551D01*
X175816Y365551D01*
X175332Y364062D01*
X174543Y362513D01*
X173521Y361107D01*
X172293Y359879D01*
X170887Y358857D01*
X169338Y358068D01*
X167849Y357584D01*
X167849Y365551D01*
G37*
%LPD*%
%LPC*%
G36*
X345649Y365551D02*
X345649Y365551D01*
X353616Y365551D01*
X353132Y364062D01*
X352343Y362513D01*
X351321Y361107D01*
X350093Y359879D01*
X348687Y358857D01*
X347138Y358068D01*
X345649Y357584D01*
X345649Y365551D01*
G37*
%LPD*%
%LPC*%
G36*
X338662Y358068D02*
X338662Y358068D01*
X337113Y358857D01*
X335707Y359879D01*
X334479Y361107D01*
X333457Y362513D01*
X332668Y364062D01*
X332184Y365551D01*
X340151Y365551D01*
X340151Y357584D01*
X338662Y358068D01*
G37*
%LPD*%
%LPC*%
G36*
X160862Y358068D02*
X160862Y358068D01*
X159313Y358857D01*
X157907Y359879D01*
X156679Y361107D01*
X155657Y362513D01*
X154868Y364062D01*
X154384Y365551D01*
X162351Y365551D01*
X162351Y357584D01*
X160862Y358068D01*
G37*
%LPD*%
%LPC*%
G36*
X878849Y320049D02*
X878849Y320049D01*
X878849Y327387D01*
X880212Y326944D01*
X881641Y326216D01*
X882939Y325273D01*
X884073Y324139D01*
X885016Y322841D01*
X885744Y321412D01*
X886187Y320049D01*
X878849Y320049D01*
G37*
%LPD*%
%LPC*%
G36*
X878849Y314951D02*
X878849Y314951D01*
X886187Y314951D01*
X885744Y313588D01*
X885016Y312159D01*
X884073Y310861D01*
X882939Y309727D01*
X881641Y308784D01*
X880212Y308056D01*
X878849Y307613D01*
X878849Y314951D01*
G37*
%LPD*%
%LPC*%
G36*
X866413Y320049D02*
X866413Y320049D01*
X866856Y321412D01*
X867584Y322841D01*
X868527Y324139D01*
X869661Y325273D01*
X870959Y326216D01*
X872388Y326944D01*
X873751Y327387D01*
X873751Y320049D01*
X866413Y320049D01*
G37*
%LPD*%
%LPC*%
G36*
X872388Y308056D02*
X872388Y308056D01*
X870959Y308784D01*
X869661Y309727D01*
X868527Y310861D01*
X867584Y312159D01*
X866856Y313588D01*
X866413Y314951D01*
X873751Y314951D01*
X873751Y307613D01*
X872388Y308056D01*
G37*
%LPD*%
%LPC*%
G36*
X497331Y281431D02*
X497331Y281431D01*
X497331Y288545D01*
X499088Y288545D01*
X504445Y283188D01*
X504445Y281431D01*
X497331Y281431D01*
G37*
%LPD*%
%LPC*%
G36*
X497331Y270255D02*
X497331Y270255D01*
X497331Y277369D01*
X504445Y277369D01*
X504445Y275612D01*
X499088Y270255D01*
X497331Y270255D01*
G37*
%LPD*%
%LPC*%
G36*
X486155Y281431D02*
X486155Y281431D01*
X486155Y283188D01*
X491512Y288545D01*
X493269Y288545D01*
X493269Y281431D01*
X486155Y281431D01*
G37*
%LPD*%
%LPC*%
G36*
X491512Y270255D02*
X491512Y270255D01*
X486155Y275612D01*
X486155Y277369D01*
X493269Y277369D01*
X493269Y270255D01*
X491512Y270255D01*
G37*
%LPD*%
%LPC*%
G36*
X231031Y205231D02*
X231031Y205231D01*
X231031Y212072D01*
X231126Y212057D01*
X232486Y211615D01*
X233759Y210967D01*
X234916Y210126D01*
X235926Y209116D01*
X236767Y207959D01*
X237415Y206686D01*
X237857Y205326D01*
X237872Y205231D01*
X231031Y205231D01*
G37*
%LPD*%
%LPC*%
G36*
X220128Y205231D02*
X220128Y205231D01*
X220143Y205326D01*
X220585Y206686D01*
X221233Y207959D01*
X222074Y209116D01*
X223084Y210126D01*
X224241Y210967D01*
X225514Y211615D01*
X226874Y212057D01*
X226969Y212072D01*
X226969Y205231D01*
X220128Y205231D01*
G37*
%LPD*%
%LPC*%
G36*
X231031Y201169D02*
X231031Y201169D01*
X237872Y201169D01*
X237857Y201074D01*
X237415Y199714D01*
X236767Y198441D01*
X235926Y197284D01*
X234916Y196274D01*
X233759Y195433D01*
X232486Y194785D01*
X231126Y194343D01*
X231031Y194328D01*
X231031Y201169D01*
G37*
%LPD*%
%LPC*%
G36*
X226874Y194343D02*
X226874Y194343D01*
X225514Y194785D01*
X224241Y195433D01*
X223084Y196274D01*
X222074Y197284D01*
X221233Y198441D01*
X220585Y199714D01*
X220143Y201074D01*
X220128Y201169D01*
X226969Y201169D01*
X226969Y194328D01*
X226874Y194343D01*
G37*
%LPD*%
D10*
X279000Y203200D03*
X229000Y203200D03*
X698100Y88900D03*
X673100Y88900D03*
D11*
X609600Y127000D03*
X609600Y50800D03*
D12*
X876300Y76200D03*
X876300Y203200D03*
D13*
X228389Y317750D03*
X279189Y317750D03*
D12*
X495300Y177800D03*
X495300Y279400D03*
D14*
X800100Y25400D03*
X800100Y254000D03*
D11*
X165100Y368300D03*
X165100Y292100D03*
X165100Y152400D03*
X165100Y76200D03*
X342900Y368300D03*
X342900Y292100D03*
X342900Y152400D03*
X342900Y76200D03*
D15*
X876300Y317500D03*
X876300Y381000D03*
D16*
X469900Y50800D03*
D17*
X469900Y76200D03*
X469900Y101600D03*
D12*
X444500Y177800D03*
X444500Y279400D03*
D18*
X88900Y241300D03*
X114300Y241300D03*
D12*
X101600Y63500D03*
X101600Y165100D03*
D10*
X647700Y368300D03*
X687700Y368300D03*
X627700Y368300D03*
X607700Y368300D03*
D19*
X708700Y368300D03*
X586700Y368300D03*
D20*
X462600Y368300D03*
D10*
X482600Y368300D03*
X502600Y368300D03*
D21*
X38100Y63500D03*
D22*
X800100Y381000D03*
D21*
X38100Y165100D03*
D20*
X33200Y309900D03*
D10*
X33200Y289900D03*
X33200Y269900D03*
D15*
X876300Y254000D03*
D23*
X400304Y190500D02*
X387096Y190500D01*
X387096Y139700D02*
X400304Y139700D01*
X400304Y165100D02*
X387096Y165100D01*
X387096Y279400D02*
X400304Y279400D01*
X400304Y228600D02*
X387096Y228600D01*
X387096Y254000D02*
X400304Y254000D01*
D24*
X401320Y38100D02*
X386080Y38100D01*
X388620Y63500D02*
X403860Y63500D01*
X401320Y88900D02*
X386080Y88900D01*
D25*
X546500Y228600D03*
X596500Y228600D03*
D24*
X553720Y63500D02*
X538480Y63500D01*
X538480Y88900D02*
X553720Y88900D01*
X553720Y114300D02*
X538480Y114300D01*
D26*
X165100Y152400D02*
X165100Y292100D01*
X35400Y292100D02*
X33200Y289900D01*
X35400Y292100D02*
X165100Y292100D01*
X279189Y317750D02*
X317250Y317750D01*
X342900Y292100D01*
X342900Y152400D01*
X76200Y63500D02*
X38100Y63500D01*
D27*
X76200Y63500D03*
D26*
X800100Y342900D02*
X800100Y381000D01*
D27*
X800100Y342900D03*
D28*
X609600Y127000D02*
X571500Y88900D01*
X546500Y190100D02*
X546500Y228600D01*
X546500Y190100D02*
X609600Y127000D01*
X571500Y88900D02*
X546100Y88900D01*
X502600Y348300D02*
X502600Y368300D01*
X863600Y152400D02*
X901700Y190500D01*
X901700Y368300D01*
X889000Y381000D01*
X876300Y381000D01*
X863600Y152400D02*
X711200Y152400D01*
X673100Y114300D02*
X673100Y88900D01*
X673100Y114300D02*
X711200Y152400D01*
X596500Y190900D02*
X596500Y228600D01*
X596500Y190900D02*
X673100Y114300D01*
X596500Y228600D02*
X596500Y254400D01*
X502600Y348300D01*
X444500Y101600D02*
X469900Y76200D01*
X444500Y101600D02*
X444500Y177800D01*
X469900Y76200D02*
X419100Y25400D01*
X177800Y25400D01*
X38100Y165100D01*
X114300Y177800D02*
X114300Y241300D01*
X114300Y177800D02*
X101600Y165100D01*
X687700Y366400D02*
X800100Y254000D01*
D29*
X687700Y366400D02*
X687700Y368300D01*
D28*
X772800Y203200D02*
X876300Y203200D01*
X772800Y203200D02*
X607700Y368300D01*
X508000Y393700D02*
X482600Y368300D01*
X622300Y393700D02*
X647700Y368300D01*
X622300Y393700D02*
X508000Y393700D01*
X34508Y311208D02*
X33200Y309900D01*
D26*
X34508Y311208D02*
X41357Y311208D01*
X60349Y330200D01*
X215939Y330200D02*
X228389Y317750D01*
X215939Y330200D02*
X60349Y330200D01*
D28*
X495300Y177800D02*
X495300Y127000D01*
X469900Y101600D01*
D27*
X901700Y139700D03*
D28*
X833120Y71120D01*
X393700Y254000D02*
X368300Y228600D01*
X368300Y190500D01*
X393700Y165100D01*
X368300Y139700D02*
X368300Y114300D01*
X368300Y139700D02*
X393700Y165100D01*
X393700Y254000D02*
X419100Y254000D01*
X495300Y177800D01*
X782320Y71120D02*
X833120Y71120D01*
X546100Y25400D02*
X469900Y101600D01*
X546100Y25400D02*
X736600Y25400D01*
X782320Y71120D01*
X393700Y88900D02*
X368300Y114300D01*
X393700Y38100D02*
X419100Y38100D01*
X431800Y50800D01*
X431800Y101600D01*
X393700Y139700D01*
X419100Y203200D02*
X393700Y228600D01*
X419100Y203200D02*
X419100Y165100D01*
X393700Y139700D01*
M02*
