M48
;GenerationSoftware,Autodesk,EAGLE,9.6.2*%
;CreationDate,2026-01-22T19:27:06Z*%
FMAT,2
ICI,OFF
METRIC,TZ,000.000
T10C0.350
T9C0.720
T8C0.800
T7C0.813
T6C0.900
T5C1.016
T4C1.020
T3C1.100
T2C1.300
T1C1.500
%
G90
M71
T1
X3320Y33090
X58670Y36830
X44160Y36830
X52360Y36830
X3320Y24890
X70870Y36830
T2
X22839Y31775
X27919Y31775
T3
X34290Y29210
X34290Y15240
X16510Y15240
X16510Y36830
X16510Y29210
X34290Y7620
X60960Y12700
X60960Y5080
X16510Y7620
X34290Y36830
T4
X87630Y38100
X87630Y31750
X87630Y25400
T5
X80010Y25400
X80010Y2540
X54610Y11430
X39624Y6350
X39370Y3810
X54610Y8890
X39370Y8890
X54610Y6350
T6
X54650Y22860
X59650Y22860
T7
X10160Y6350
X11430Y24130
X39370Y25400
X44450Y27940
X44450Y17780
X87630Y7620
X87630Y20320
X8890Y24130
X49530Y17780
X49530Y27940
X10160Y16510
X39370Y19050
X39370Y16510
X39370Y27940
X39370Y22860
X39370Y13970
T8
X64770Y36830
X62770Y36830
X60770Y36830
X69810Y8890
X67310Y8890
X68770Y36830
X46260Y36830
X48260Y36830
X50260Y36830
X3320Y30990
X22900Y20320
X3320Y26990
X27900Y20320
X3320Y28990
T9
X46990Y7620
X46990Y5080
X46990Y10160
T10
X90170Y13970
X80010Y34290
X7620Y6350
M30